G04 #@! TF.FileFunction,Legend,Top*
%FSLAX46Y46*%
G04 Gerber Fmt 4.6, Leading zero omitted, Abs format (unit mm)*
G04 Created by KiCad (PCBNEW 4.0.7-e2-6376~58~ubuntu16.04.1) date Wed Jan 24 19:20:12 2018*
%MOMM*%
%LPD*%
G01*
G04 APERTURE LIST*
%ADD10C,0.100000*%
%ADD11C,0.300000*%
%ADD12C,0.500000*%
%ADD13C,0.150000*%
%ADD14C,0.120000*%
%ADD15C,0.010000*%
G04 APERTURE END LIST*
D10*
D11*
X68561429Y-137254286D02*
X70061429Y-137254286D01*
X70061429Y-137611429D01*
X69990000Y-137825714D01*
X69847143Y-137968572D01*
X69704286Y-138040000D01*
X69418571Y-138111429D01*
X69204286Y-138111429D01*
X68918571Y-138040000D01*
X68775714Y-137968572D01*
X68632857Y-137825714D01*
X68561429Y-137611429D01*
X68561429Y-137254286D01*
X69347143Y-138754286D02*
X69347143Y-139254286D01*
X68561429Y-139468572D02*
X68561429Y-138754286D01*
X70061429Y-138754286D01*
X70061429Y-139468572D01*
X70061429Y-140397143D02*
X70061429Y-140540000D01*
X69990000Y-140682857D01*
X69918571Y-140754286D01*
X69775714Y-140825715D01*
X69490000Y-140897143D01*
X69132857Y-140897143D01*
X68847143Y-140825715D01*
X68704286Y-140754286D01*
X68632857Y-140682857D01*
X68561429Y-140540000D01*
X68561429Y-140397143D01*
X68632857Y-140254286D01*
X68704286Y-140182857D01*
X68847143Y-140111429D01*
X69132857Y-140040000D01*
X69490000Y-140040000D01*
X69775714Y-140111429D01*
X69918571Y-140182857D01*
X69990000Y-140254286D01*
X70061429Y-140397143D01*
X69132857Y-141540000D02*
X69132857Y-142682857D01*
X68561429Y-143397143D02*
X70061429Y-143397143D01*
X68561429Y-144254286D01*
X70061429Y-144254286D01*
X68561429Y-145611429D02*
X69347143Y-145611429D01*
X69490000Y-145540000D01*
X69561429Y-145397143D01*
X69561429Y-145111429D01*
X69490000Y-144968572D01*
X68632857Y-145611429D02*
X68561429Y-145468572D01*
X68561429Y-145111429D01*
X68632857Y-144968572D01*
X68775714Y-144897143D01*
X68918571Y-144897143D01*
X69061429Y-144968572D01*
X69132857Y-145111429D01*
X69132857Y-145468572D01*
X69204286Y-145611429D01*
X69561429Y-146325715D02*
X68561429Y-146325715D01*
X69418571Y-146325715D02*
X69490000Y-146397143D01*
X69561429Y-146540001D01*
X69561429Y-146754286D01*
X69490000Y-146897143D01*
X69347143Y-146968572D01*
X68561429Y-146968572D01*
X68561429Y-147897144D02*
X68632857Y-147754286D01*
X68704286Y-147682858D01*
X68847143Y-147611429D01*
X69275714Y-147611429D01*
X69418571Y-147682858D01*
X69490000Y-147754286D01*
X69561429Y-147897144D01*
X69561429Y-148111429D01*
X69490000Y-148254286D01*
X69418571Y-148325715D01*
X69275714Y-148397144D01*
X68847143Y-148397144D01*
X68704286Y-148325715D01*
X68632857Y-148254286D01*
X68561429Y-148111429D01*
X68561429Y-147897144D01*
X69132857Y-149040001D02*
X69132857Y-150182858D01*
X68632857Y-150825715D02*
X68561429Y-151040001D01*
X68561429Y-151397144D01*
X68632857Y-151540001D01*
X68704286Y-151611430D01*
X68847143Y-151682858D01*
X68990000Y-151682858D01*
X69132857Y-151611430D01*
X69204286Y-151540001D01*
X69275714Y-151397144D01*
X69347143Y-151111430D01*
X69418571Y-150968572D01*
X69490000Y-150897144D01*
X69632857Y-150825715D01*
X69775714Y-150825715D01*
X69918571Y-150897144D01*
X69990000Y-150968572D01*
X70061429Y-151111430D01*
X70061429Y-151468572D01*
X69990000Y-151682858D01*
X68561429Y-152540001D02*
X68632857Y-152397143D01*
X68704286Y-152325715D01*
X68847143Y-152254286D01*
X69275714Y-152254286D01*
X69418571Y-152325715D01*
X69490000Y-152397143D01*
X69561429Y-152540001D01*
X69561429Y-152754286D01*
X69490000Y-152897143D01*
X69418571Y-152968572D01*
X69275714Y-153040001D01*
X68847143Y-153040001D01*
X68704286Y-152968572D01*
X68632857Y-152897143D01*
X68561429Y-152754286D01*
X68561429Y-152540001D01*
X68704286Y-154540001D02*
X68632857Y-154468572D01*
X68561429Y-154254286D01*
X68561429Y-154111429D01*
X68632857Y-153897144D01*
X68775714Y-153754286D01*
X68918571Y-153682858D01*
X69204286Y-153611429D01*
X69418571Y-153611429D01*
X69704286Y-153682858D01*
X69847143Y-153754286D01*
X69990000Y-153897144D01*
X70061429Y-154111429D01*
X70061429Y-154254286D01*
X69990000Y-154468572D01*
X69918571Y-154540001D01*
X68561429Y-157040001D02*
X68561429Y-156325715D01*
X70061429Y-156325715D01*
X69347143Y-157540001D02*
X69347143Y-158040001D01*
X68561429Y-158254287D02*
X68561429Y-157540001D01*
X70061429Y-157540001D01*
X70061429Y-158254287D01*
X68561429Y-158897144D02*
X70061429Y-158897144D01*
X70061429Y-159254287D01*
X69990000Y-159468572D01*
X69847143Y-159611430D01*
X69704286Y-159682858D01*
X69418571Y-159754287D01*
X69204286Y-159754287D01*
X68918571Y-159682858D01*
X68775714Y-159611430D01*
X68632857Y-159468572D01*
X68561429Y-159254287D01*
X68561429Y-158897144D01*
X69561429Y-161325715D02*
X69561429Y-161897144D01*
X68561429Y-161540001D02*
X69847143Y-161540001D01*
X69990000Y-161611429D01*
X70061429Y-161754287D01*
X70061429Y-161897144D01*
X68561429Y-163040001D02*
X69347143Y-163040001D01*
X69490000Y-162968572D01*
X69561429Y-162825715D01*
X69561429Y-162540001D01*
X69490000Y-162397144D01*
X68632857Y-163040001D02*
X68561429Y-162897144D01*
X68561429Y-162540001D01*
X68632857Y-162397144D01*
X68775714Y-162325715D01*
X68918571Y-162325715D01*
X69061429Y-162397144D01*
X69132857Y-162540001D01*
X69132857Y-162897144D01*
X69204286Y-163040001D01*
X69561429Y-163754287D02*
X68561429Y-163754287D01*
X69418571Y-163754287D02*
X69490000Y-163825715D01*
X69561429Y-163968573D01*
X69561429Y-164182858D01*
X69490000Y-164325715D01*
X69347143Y-164397144D01*
X68561429Y-164397144D01*
X68561429Y-165325716D02*
X68632857Y-165182858D01*
X68704286Y-165111430D01*
X68847143Y-165040001D01*
X69275714Y-165040001D01*
X69418571Y-165111430D01*
X69490000Y-165182858D01*
X69561429Y-165325716D01*
X69561429Y-165540001D01*
X69490000Y-165682858D01*
X69418571Y-165754287D01*
X69275714Y-165825716D01*
X68847143Y-165825716D01*
X68704286Y-165754287D01*
X68632857Y-165682858D01*
X68561429Y-165540001D01*
X68561429Y-165325716D01*
X69561429Y-167111430D02*
X68561429Y-167111430D01*
X69561429Y-166468573D02*
X68775714Y-166468573D01*
X68632857Y-166540001D01*
X68561429Y-166682859D01*
X68561429Y-166897144D01*
X68632857Y-167040001D01*
X68704286Y-167111430D01*
X69561429Y-167611430D02*
X69561429Y-168182859D01*
X70061429Y-167825716D02*
X68775714Y-167825716D01*
X68632857Y-167897144D01*
X68561429Y-168040002D01*
X68561429Y-168182859D01*
X69561429Y-169682859D02*
X68561429Y-170040002D01*
X69561429Y-170397144D01*
X68561429Y-171754287D02*
X68561429Y-170897144D01*
X68561429Y-171325716D02*
X70061429Y-171325716D01*
X69847143Y-171182859D01*
X69704286Y-171040001D01*
X69632857Y-170897144D01*
X68704286Y-172397144D02*
X68632857Y-172468572D01*
X68561429Y-172397144D01*
X68632857Y-172325715D01*
X68704286Y-172397144D01*
X68561429Y-172397144D01*
X70061429Y-173397144D02*
X70061429Y-173540001D01*
X69990000Y-173682858D01*
X69918571Y-173754287D01*
X69775714Y-173825716D01*
X69490000Y-173897144D01*
X69132857Y-173897144D01*
X68847143Y-173825716D01*
X68704286Y-173754287D01*
X68632857Y-173682858D01*
X68561429Y-173540001D01*
X68561429Y-173397144D01*
X68632857Y-173254287D01*
X68704286Y-173182858D01*
X68847143Y-173111430D01*
X69132857Y-173040001D01*
X69490000Y-173040001D01*
X69775714Y-173111430D01*
X69918571Y-173182858D01*
X69990000Y-173254287D01*
X70061429Y-173397144D01*
D12*
X77753810Y-183730952D02*
X76325238Y-183730952D01*
X77039524Y-183730952D02*
X77039524Y-181230952D01*
X76801429Y-181588095D01*
X76563334Y-181826190D01*
X76325238Y-181945238D01*
X79301429Y-181230952D02*
X79539524Y-181230952D01*
X79777619Y-181350000D01*
X79896667Y-181469048D01*
X80015714Y-181707143D01*
X80134762Y-182183333D01*
X80134762Y-182778571D01*
X80015714Y-183254762D01*
X79896667Y-183492857D01*
X79777619Y-183611905D01*
X79539524Y-183730952D01*
X79301429Y-183730952D01*
X79063333Y-183611905D01*
X78944286Y-183492857D01*
X78825238Y-183254762D01*
X78706190Y-182778571D01*
X78706190Y-182183333D01*
X78825238Y-181707143D01*
X78944286Y-181469048D01*
X79063333Y-181350000D01*
X79301429Y-181230952D01*
X95253810Y-183730952D02*
X95730000Y-183730952D01*
X95968095Y-183611905D01*
X96087143Y-183492857D01*
X96325238Y-183135714D01*
X96444286Y-182659524D01*
X96444286Y-181707143D01*
X96325238Y-181469048D01*
X96206191Y-181350000D01*
X95968095Y-181230952D01*
X95491905Y-181230952D01*
X95253810Y-181350000D01*
X95134762Y-181469048D01*
X95015714Y-181707143D01*
X95015714Y-182302381D01*
X95134762Y-182540476D01*
X95253810Y-182659524D01*
X95491905Y-182778571D01*
X95968095Y-182778571D01*
X96206191Y-182659524D01*
X96325238Y-182540476D01*
X96444286Y-182302381D01*
X112991905Y-182302381D02*
X112753810Y-182183333D01*
X112634762Y-182064286D01*
X112515714Y-181826190D01*
X112515714Y-181707143D01*
X112634762Y-181469048D01*
X112753810Y-181350000D01*
X112991905Y-181230952D01*
X113468095Y-181230952D01*
X113706191Y-181350000D01*
X113825238Y-181469048D01*
X113944286Y-181707143D01*
X113944286Y-181826190D01*
X113825238Y-182064286D01*
X113706191Y-182183333D01*
X113468095Y-182302381D01*
X112991905Y-182302381D01*
X112753810Y-182421429D01*
X112634762Y-182540476D01*
X112515714Y-182778571D01*
X112515714Y-183254762D01*
X112634762Y-183492857D01*
X112753810Y-183611905D01*
X112991905Y-183730952D01*
X113468095Y-183730952D01*
X113706191Y-183611905D01*
X113825238Y-183492857D01*
X113944286Y-183254762D01*
X113944286Y-182778571D01*
X113825238Y-182540476D01*
X113706191Y-182421429D01*
X113468095Y-182302381D01*
X129896667Y-181230952D02*
X131563334Y-181230952D01*
X130491905Y-183730952D01*
X148706191Y-181230952D02*
X148230000Y-181230952D01*
X147991905Y-181350000D01*
X147872857Y-181469048D01*
X147634762Y-181826190D01*
X147515714Y-182302381D01*
X147515714Y-183254762D01*
X147634762Y-183492857D01*
X147753810Y-183611905D01*
X147991905Y-183730952D01*
X148468095Y-183730952D01*
X148706191Y-183611905D01*
X148825238Y-183492857D01*
X148944286Y-183254762D01*
X148944286Y-182659524D01*
X148825238Y-182421429D01*
X148706191Y-182302381D01*
X148468095Y-182183333D01*
X147991905Y-182183333D01*
X147753810Y-182302381D01*
X147634762Y-182421429D01*
X147515714Y-182659524D01*
X151325238Y-18430952D02*
X150134762Y-18430952D01*
X150015714Y-19621429D01*
X150134762Y-19502381D01*
X150372857Y-19383333D01*
X150968095Y-19383333D01*
X151206191Y-19502381D01*
X151325238Y-19621429D01*
X151444286Y-19859524D01*
X151444286Y-20454762D01*
X151325238Y-20692857D01*
X151206191Y-20811905D01*
X150968095Y-20930952D01*
X150372857Y-20930952D01*
X150134762Y-20811905D01*
X150015714Y-20692857D01*
X133706191Y-19264286D02*
X133706191Y-20930952D01*
X133110953Y-18311905D02*
X132515714Y-20097619D01*
X134063334Y-20097619D01*
X114896667Y-18430952D02*
X116444286Y-18430952D01*
X115610953Y-19383333D01*
X115968095Y-19383333D01*
X116206191Y-19502381D01*
X116325238Y-19621429D01*
X116444286Y-19859524D01*
X116444286Y-20454762D01*
X116325238Y-20692857D01*
X116206191Y-20811905D01*
X115968095Y-20930952D01*
X115253810Y-20930952D01*
X115015714Y-20811905D01*
X114896667Y-20692857D01*
X97515714Y-18669048D02*
X97634762Y-18550000D01*
X97872857Y-18430952D01*
X98468095Y-18430952D01*
X98706191Y-18550000D01*
X98825238Y-18669048D01*
X98944286Y-18907143D01*
X98944286Y-19145238D01*
X98825238Y-19502381D01*
X97396667Y-20930952D01*
X98944286Y-20930952D01*
X81444286Y-20930952D02*
X80015714Y-20930952D01*
X80730000Y-20930952D02*
X80730000Y-18430952D01*
X80491905Y-18788095D01*
X80253810Y-19026190D01*
X80015714Y-19145238D01*
D13*
X73760000Y-152160000D02*
X82700000Y-152160000D01*
X82700000Y-152160000D02*
X82700000Y-180080000D01*
X82700000Y-180080000D02*
X73760000Y-180080000D01*
X73760000Y-180080000D02*
X73760000Y-152160000D01*
X73760000Y-163895000D02*
X75060000Y-163895000D01*
X75060000Y-163895000D02*
X75060000Y-153360000D01*
X75060000Y-153360000D02*
X81400000Y-153360000D01*
X81400000Y-153360000D02*
X81400000Y-178880000D01*
X81400000Y-178880000D02*
X75060000Y-178880000D01*
X75060000Y-178880000D02*
X75060000Y-168345000D01*
X75060000Y-168345000D02*
X73760000Y-168345000D01*
X82700000Y-165870000D02*
X82900000Y-165870000D01*
X82900000Y-165870000D02*
X82900000Y-166370000D01*
X82900000Y-166370000D02*
X82700000Y-166370000D01*
X82800000Y-165870000D02*
X82800000Y-166370000D01*
X82700000Y-177160000D02*
X82900000Y-177160000D01*
X82900000Y-177160000D02*
X82900000Y-177660000D01*
X82900000Y-177660000D02*
X82700000Y-177660000D01*
X82800000Y-177160000D02*
X82800000Y-177660000D01*
X82700000Y-154580000D02*
X82900000Y-154580000D01*
X82900000Y-154580000D02*
X82900000Y-155080000D01*
X82900000Y-155080000D02*
X82700000Y-155080000D01*
X82800000Y-154580000D02*
X82800000Y-155080000D01*
X76360000Y-155030000D02*
X77560000Y-155030000D01*
X77560000Y-155030000D02*
X76960000Y-155630000D01*
X76960000Y-155630000D02*
X76360000Y-155030000D01*
D14*
X104190000Y-151680000D02*
X104190000Y-151180000D01*
X101910000Y-151680000D02*
X101910000Y-151180000D01*
X77920000Y-130010000D02*
X77920000Y-135210000D01*
X126240000Y-130010000D02*
X77920000Y-130010000D01*
X128840000Y-135210000D02*
X77920000Y-135210000D01*
X126240000Y-130010000D02*
X126240000Y-132610000D01*
X126240000Y-132610000D02*
X128840000Y-132610000D01*
X128840000Y-132610000D02*
X128840000Y-135210000D01*
X127510000Y-130010000D02*
X128840000Y-130010000D01*
X128840000Y-130010000D02*
X128840000Y-131340000D01*
D13*
X137700000Y-50070000D02*
X128760000Y-50070000D01*
X128760000Y-50070000D02*
X128760000Y-22150000D01*
X128760000Y-22150000D02*
X137700000Y-22150000D01*
X137700000Y-22150000D02*
X137700000Y-50070000D01*
X137700000Y-38335000D02*
X136400000Y-38335000D01*
X136400000Y-38335000D02*
X136400000Y-48870000D01*
X136400000Y-48870000D02*
X130060000Y-48870000D01*
X130060000Y-48870000D02*
X130060000Y-23350000D01*
X130060000Y-23350000D02*
X136400000Y-23350000D01*
X136400000Y-23350000D02*
X136400000Y-33885000D01*
X136400000Y-33885000D02*
X137700000Y-33885000D01*
X128760000Y-36360000D02*
X128560000Y-36360000D01*
X128560000Y-36360000D02*
X128560000Y-35860000D01*
X128560000Y-35860000D02*
X128760000Y-35860000D01*
X128660000Y-36360000D02*
X128660000Y-35860000D01*
X128760000Y-25070000D02*
X128560000Y-25070000D01*
X128560000Y-25070000D02*
X128560000Y-24570000D01*
X128560000Y-24570000D02*
X128760000Y-24570000D01*
X128660000Y-25070000D02*
X128660000Y-24570000D01*
X128760000Y-47650000D02*
X128560000Y-47650000D01*
X128560000Y-47650000D02*
X128560000Y-47150000D01*
X128560000Y-47150000D02*
X128760000Y-47150000D01*
X128660000Y-47650000D02*
X128660000Y-47150000D01*
X135100000Y-47200000D02*
X133900000Y-47200000D01*
X133900000Y-47200000D02*
X134500000Y-46600000D01*
X134500000Y-46600000D02*
X135100000Y-47200000D01*
X120200000Y-50070000D02*
X111260000Y-50070000D01*
X111260000Y-50070000D02*
X111260000Y-22150000D01*
X111260000Y-22150000D02*
X120200000Y-22150000D01*
X120200000Y-22150000D02*
X120200000Y-50070000D01*
X120200000Y-38335000D02*
X118900000Y-38335000D01*
X118900000Y-38335000D02*
X118900000Y-48870000D01*
X118900000Y-48870000D02*
X112560000Y-48870000D01*
X112560000Y-48870000D02*
X112560000Y-23350000D01*
X112560000Y-23350000D02*
X118900000Y-23350000D01*
X118900000Y-23350000D02*
X118900000Y-33885000D01*
X118900000Y-33885000D02*
X120200000Y-33885000D01*
X111260000Y-36360000D02*
X111060000Y-36360000D01*
X111060000Y-36360000D02*
X111060000Y-35860000D01*
X111060000Y-35860000D02*
X111260000Y-35860000D01*
X111160000Y-36360000D02*
X111160000Y-35860000D01*
X111260000Y-25070000D02*
X111060000Y-25070000D01*
X111060000Y-25070000D02*
X111060000Y-24570000D01*
X111060000Y-24570000D02*
X111260000Y-24570000D01*
X111160000Y-25070000D02*
X111160000Y-24570000D01*
X111260000Y-47650000D02*
X111060000Y-47650000D01*
X111060000Y-47650000D02*
X111060000Y-47150000D01*
X111060000Y-47150000D02*
X111260000Y-47150000D01*
X111160000Y-47650000D02*
X111160000Y-47150000D01*
X117600000Y-47200000D02*
X116400000Y-47200000D01*
X116400000Y-47200000D02*
X117000000Y-46600000D01*
X117000000Y-46600000D02*
X117600000Y-47200000D01*
X110810000Y-43122000D02*
X103190000Y-43122000D01*
X103190000Y-46678000D02*
X110810000Y-46678000D01*
X110810000Y-43122000D02*
X110810000Y-46678000D01*
X103190000Y-46678000D02*
X103190000Y-43122000D01*
X104057210Y-46170000D02*
G75*
G03X104057210Y-46170000I-359210J0D01*
G01*
X103190000Y-44265000D02*
X103952000Y-44265000D01*
X103952000Y-44265000D02*
X103952000Y-45535000D01*
X103952000Y-45535000D02*
X103190000Y-45535000D01*
X93310000Y-43122000D02*
X85690000Y-43122000D01*
X85690000Y-46678000D02*
X93310000Y-46678000D01*
X93310000Y-43122000D02*
X93310000Y-46678000D01*
X85690000Y-46678000D02*
X85690000Y-43122000D01*
X86557210Y-46170000D02*
G75*
G03X86557210Y-46170000I-359210J0D01*
G01*
X85690000Y-44265000D02*
X86452000Y-44265000D01*
X86452000Y-44265000D02*
X86452000Y-45535000D01*
X86452000Y-45535000D02*
X85690000Y-45535000D01*
D14*
X128840000Y-72220000D02*
X128840000Y-67020000D01*
X80520000Y-72220000D02*
X128840000Y-72220000D01*
X77920000Y-67020000D02*
X128840000Y-67020000D01*
X80520000Y-72220000D02*
X80520000Y-69620000D01*
X80520000Y-69620000D02*
X77920000Y-69620000D01*
X77920000Y-69620000D02*
X77920000Y-67020000D01*
X79250000Y-72220000D02*
X77920000Y-72220000D01*
X77920000Y-72220000D02*
X77920000Y-70890000D01*
D13*
X102700000Y-50070000D02*
X93760000Y-50070000D01*
X93760000Y-50070000D02*
X93760000Y-22150000D01*
X93760000Y-22150000D02*
X102700000Y-22150000D01*
X102700000Y-22150000D02*
X102700000Y-50070000D01*
X102700000Y-38335000D02*
X101400000Y-38335000D01*
X101400000Y-38335000D02*
X101400000Y-48870000D01*
X101400000Y-48870000D02*
X95060000Y-48870000D01*
X95060000Y-48870000D02*
X95060000Y-23350000D01*
X95060000Y-23350000D02*
X101400000Y-23350000D01*
X101400000Y-23350000D02*
X101400000Y-33885000D01*
X101400000Y-33885000D02*
X102700000Y-33885000D01*
X93760000Y-36360000D02*
X93560000Y-36360000D01*
X93560000Y-36360000D02*
X93560000Y-35860000D01*
X93560000Y-35860000D02*
X93760000Y-35860000D01*
X93660000Y-36360000D02*
X93660000Y-35860000D01*
X93760000Y-25070000D02*
X93560000Y-25070000D01*
X93560000Y-25070000D02*
X93560000Y-24570000D01*
X93560000Y-24570000D02*
X93760000Y-24570000D01*
X93660000Y-25070000D02*
X93660000Y-24570000D01*
X93760000Y-47650000D02*
X93560000Y-47650000D01*
X93560000Y-47650000D02*
X93560000Y-47150000D01*
X93560000Y-47150000D02*
X93760000Y-47150000D01*
X93660000Y-47650000D02*
X93660000Y-47150000D01*
X100100000Y-47200000D02*
X98900000Y-47200000D01*
X98900000Y-47200000D02*
X99500000Y-46600000D01*
X99500000Y-46600000D02*
X100100000Y-47200000D01*
D14*
X107310000Y-50550000D02*
X107310000Y-51050000D01*
X109590000Y-50550000D02*
X109590000Y-51050000D01*
D13*
X85200000Y-50070000D02*
X76260000Y-50070000D01*
X76260000Y-50070000D02*
X76260000Y-22150000D01*
X76260000Y-22150000D02*
X85200000Y-22150000D01*
X85200000Y-22150000D02*
X85200000Y-50070000D01*
X85200000Y-38335000D02*
X83900000Y-38335000D01*
X83900000Y-38335000D02*
X83900000Y-48870000D01*
X83900000Y-48870000D02*
X77560000Y-48870000D01*
X77560000Y-48870000D02*
X77560000Y-23350000D01*
X77560000Y-23350000D02*
X83900000Y-23350000D01*
X83900000Y-23350000D02*
X83900000Y-33885000D01*
X83900000Y-33885000D02*
X85200000Y-33885000D01*
X76260000Y-36360000D02*
X76060000Y-36360000D01*
X76060000Y-36360000D02*
X76060000Y-35860000D01*
X76060000Y-35860000D02*
X76260000Y-35860000D01*
X76160000Y-36360000D02*
X76160000Y-35860000D01*
X76260000Y-25070000D02*
X76060000Y-25070000D01*
X76060000Y-25070000D02*
X76060000Y-24570000D01*
X76060000Y-24570000D02*
X76260000Y-24570000D01*
X76160000Y-25070000D02*
X76160000Y-24570000D01*
X76260000Y-47650000D02*
X76060000Y-47650000D01*
X76060000Y-47650000D02*
X76060000Y-47150000D01*
X76060000Y-47150000D02*
X76260000Y-47150000D01*
X76160000Y-47650000D02*
X76160000Y-47150000D01*
X82600000Y-47200000D02*
X81400000Y-47200000D01*
X81400000Y-47200000D02*
X82000000Y-46600000D01*
X82000000Y-46600000D02*
X82600000Y-47200000D01*
X155200000Y-50070000D02*
X146260000Y-50070000D01*
X146260000Y-50070000D02*
X146260000Y-22150000D01*
X146260000Y-22150000D02*
X155200000Y-22150000D01*
X155200000Y-22150000D02*
X155200000Y-50070000D01*
X155200000Y-38335000D02*
X153900000Y-38335000D01*
X153900000Y-38335000D02*
X153900000Y-48870000D01*
X153900000Y-48870000D02*
X147560000Y-48870000D01*
X147560000Y-48870000D02*
X147560000Y-23350000D01*
X147560000Y-23350000D02*
X153900000Y-23350000D01*
X153900000Y-23350000D02*
X153900000Y-33885000D01*
X153900000Y-33885000D02*
X155200000Y-33885000D01*
X146260000Y-36360000D02*
X146060000Y-36360000D01*
X146060000Y-36360000D02*
X146060000Y-35860000D01*
X146060000Y-35860000D02*
X146260000Y-35860000D01*
X146160000Y-36360000D02*
X146160000Y-35860000D01*
X146260000Y-25070000D02*
X146060000Y-25070000D01*
X146060000Y-25070000D02*
X146060000Y-24570000D01*
X146060000Y-24570000D02*
X146260000Y-24570000D01*
X146160000Y-25070000D02*
X146160000Y-24570000D01*
X146260000Y-47650000D02*
X146060000Y-47650000D01*
X146060000Y-47650000D02*
X146060000Y-47150000D01*
X146060000Y-47150000D02*
X146260000Y-47150000D01*
X146160000Y-47650000D02*
X146160000Y-47150000D01*
X152600000Y-47200000D02*
X151400000Y-47200000D01*
X151400000Y-47200000D02*
X152000000Y-46600000D01*
X152000000Y-46600000D02*
X152600000Y-47200000D01*
D14*
X104410000Y-50550000D02*
X104410000Y-51050000D01*
X106690000Y-50550000D02*
X106690000Y-51050000D01*
X104710000Y-78310000D02*
X104710000Y-75650000D01*
X81790000Y-78310000D02*
X104710000Y-78310000D01*
X81790000Y-75650000D02*
X104710000Y-75650000D01*
X81790000Y-78310000D02*
X81790000Y-75650000D01*
X80520000Y-78310000D02*
X79190000Y-78310000D01*
X79190000Y-78310000D02*
X79190000Y-76980000D01*
X126560000Y-78310000D02*
X126560000Y-75650000D01*
X108720000Y-78310000D02*
X126560000Y-78310000D01*
X108720000Y-75650000D02*
X126560000Y-75650000D01*
X108720000Y-78310000D02*
X108720000Y-75650000D01*
X107450000Y-78310000D02*
X106120000Y-78310000D01*
X106120000Y-78310000D02*
X106120000Y-76980000D01*
X89810000Y-50550000D02*
X89810000Y-51050000D01*
X92090000Y-50550000D02*
X92090000Y-51050000D01*
X86910000Y-50550000D02*
X86910000Y-51050000D01*
X89190000Y-50550000D02*
X89190000Y-51050000D01*
X72310000Y-50550000D02*
X72310000Y-51050000D01*
X74590000Y-50550000D02*
X74590000Y-51050000D01*
X69410000Y-50550000D02*
X69410000Y-51050000D01*
X71690000Y-50550000D02*
X71690000Y-51050000D01*
D13*
X75810000Y-43122000D02*
X68190000Y-43122000D01*
X68190000Y-46678000D02*
X75810000Y-46678000D01*
X75810000Y-43122000D02*
X75810000Y-46678000D01*
X68190000Y-46678000D02*
X68190000Y-43122000D01*
X69057210Y-46170000D02*
G75*
G03X69057210Y-46170000I-359210J0D01*
G01*
X68190000Y-44265000D02*
X68952000Y-44265000D01*
X68952000Y-44265000D02*
X68952000Y-45535000D01*
X68952000Y-45535000D02*
X68190000Y-45535000D01*
D14*
X116010000Y-60150000D02*
X116010000Y-60650000D01*
X118290000Y-60150000D02*
X118290000Y-60650000D01*
X113160000Y-60150000D02*
X113160000Y-60650000D01*
X115440000Y-60150000D02*
X115440000Y-60650000D01*
D13*
X119540000Y-53222000D02*
X111920000Y-53222000D01*
X111920000Y-56778000D02*
X119540000Y-56778000D01*
X119540000Y-53222000D02*
X119540000Y-56778000D01*
X111920000Y-56778000D02*
X111920000Y-53222000D01*
X112787210Y-56270000D02*
G75*
G03X112787210Y-56270000I-359210J0D01*
G01*
X111920000Y-54365000D02*
X112682000Y-54365000D01*
X112682000Y-54365000D02*
X112682000Y-55635000D01*
X112682000Y-55635000D02*
X111920000Y-55635000D01*
D14*
X81010000Y-60150000D02*
X81010000Y-60650000D01*
X83290000Y-60150000D02*
X83290000Y-60650000D01*
X78160000Y-60150000D02*
X78160000Y-60650000D01*
X80440000Y-60150000D02*
X80440000Y-60650000D01*
D13*
X84540000Y-53222000D02*
X76920000Y-53222000D01*
X76920000Y-56778000D02*
X84540000Y-56778000D01*
X84540000Y-53222000D02*
X84540000Y-56778000D01*
X76920000Y-56778000D02*
X76920000Y-53222000D01*
X77787210Y-56270000D02*
G75*
G03X77787210Y-56270000I-359210J0D01*
G01*
X76920000Y-54365000D02*
X77682000Y-54365000D01*
X77682000Y-54365000D02*
X77682000Y-55635000D01*
X77682000Y-55635000D02*
X76920000Y-55635000D01*
D14*
X98510000Y-60150000D02*
X98510000Y-60650000D01*
X100790000Y-60150000D02*
X100790000Y-60650000D01*
X95660000Y-60150000D02*
X95660000Y-60650000D01*
X97940000Y-60150000D02*
X97940000Y-60650000D01*
D13*
X102040000Y-53222000D02*
X94420000Y-53222000D01*
X94420000Y-56778000D02*
X102040000Y-56778000D01*
X102040000Y-53222000D02*
X102040000Y-56778000D01*
X94420000Y-56778000D02*
X94420000Y-53222000D01*
X95287210Y-56270000D02*
G75*
G03X95287210Y-56270000I-359210J0D01*
G01*
X94420000Y-54365000D02*
X95182000Y-54365000D01*
X95182000Y-54365000D02*
X95182000Y-55635000D01*
X95182000Y-55635000D02*
X94420000Y-55635000D01*
D14*
X124810000Y-50550000D02*
X124810000Y-51050000D01*
X127090000Y-50550000D02*
X127090000Y-51050000D01*
X133510000Y-60150000D02*
X133510000Y-60650000D01*
X135790000Y-60150000D02*
X135790000Y-60650000D01*
X121910000Y-50550000D02*
X121910000Y-51050000D01*
X124190000Y-50550000D02*
X124190000Y-51050000D01*
X130660000Y-60150000D02*
X130660000Y-60650000D01*
X132940000Y-60150000D02*
X132940000Y-60650000D01*
X142310000Y-50550000D02*
X142310000Y-51050000D01*
X144590000Y-50550000D02*
X144590000Y-51050000D01*
X151010000Y-60150000D02*
X151010000Y-60650000D01*
X153290000Y-60150000D02*
X153290000Y-60650000D01*
X139410000Y-50550000D02*
X139410000Y-51050000D01*
X141690000Y-50550000D02*
X141690000Y-51050000D01*
X148160000Y-60150000D02*
X148160000Y-60650000D01*
X150440000Y-60150000D02*
X150440000Y-60650000D01*
D13*
X128310000Y-43122000D02*
X120690000Y-43122000D01*
X120690000Y-46678000D02*
X128310000Y-46678000D01*
X128310000Y-43122000D02*
X128310000Y-46678000D01*
X120690000Y-46678000D02*
X120690000Y-43122000D01*
X121557210Y-46170000D02*
G75*
G03X121557210Y-46170000I-359210J0D01*
G01*
X120690000Y-44265000D02*
X121452000Y-44265000D01*
X121452000Y-44265000D02*
X121452000Y-45535000D01*
X121452000Y-45535000D02*
X120690000Y-45535000D01*
X137040000Y-53222000D02*
X129420000Y-53222000D01*
X129420000Y-56778000D02*
X137040000Y-56778000D01*
X137040000Y-53222000D02*
X137040000Y-56778000D01*
X129420000Y-56778000D02*
X129420000Y-53222000D01*
X130287210Y-56270000D02*
G75*
G03X130287210Y-56270000I-359210J0D01*
G01*
X129420000Y-54365000D02*
X130182000Y-54365000D01*
X130182000Y-54365000D02*
X130182000Y-55635000D01*
X130182000Y-55635000D02*
X129420000Y-55635000D01*
X145810000Y-43122000D02*
X138190000Y-43122000D01*
X138190000Y-46678000D02*
X145810000Y-46678000D01*
X145810000Y-43122000D02*
X145810000Y-46678000D01*
X138190000Y-46678000D02*
X138190000Y-43122000D01*
X139057210Y-46170000D02*
G75*
G03X139057210Y-46170000I-359210J0D01*
G01*
X138190000Y-44265000D02*
X138952000Y-44265000D01*
X138952000Y-44265000D02*
X138952000Y-45535000D01*
X138952000Y-45535000D02*
X138190000Y-45535000D01*
X154540000Y-53222000D02*
X146920000Y-53222000D01*
X146920000Y-56778000D02*
X154540000Y-56778000D01*
X154540000Y-53222000D02*
X154540000Y-56778000D01*
X146920000Y-56778000D02*
X146920000Y-53222000D01*
X147787210Y-56270000D02*
G75*
G03X147787210Y-56270000I-359210J0D01*
G01*
X146920000Y-54365000D02*
X147682000Y-54365000D01*
X147682000Y-54365000D02*
X147682000Y-55635000D01*
X147682000Y-55635000D02*
X146920000Y-55635000D01*
D14*
X89350000Y-75420000D02*
X91350000Y-75420000D01*
X91350000Y-72460000D02*
X89350000Y-72460000D01*
X126560000Y-126570000D02*
X126560000Y-123910000D01*
X113800000Y-126570000D02*
X126560000Y-126570000D01*
X113800000Y-123910000D02*
X126560000Y-123910000D01*
X113800000Y-126570000D02*
X113800000Y-123910000D01*
X112530000Y-126570000D02*
X111200000Y-126570000D01*
X111200000Y-126570000D02*
X111200000Y-125240000D01*
X108780000Y-126570000D02*
X108780000Y-123910000D01*
X90940000Y-126570000D02*
X108780000Y-126570000D01*
X90940000Y-123910000D02*
X108780000Y-123910000D01*
X90940000Y-126570000D02*
X90940000Y-123910000D01*
X89670000Y-126570000D02*
X88340000Y-126570000D01*
X88340000Y-126570000D02*
X88340000Y-125240000D01*
D13*
X91260000Y-152160000D02*
X100200000Y-152160000D01*
X100200000Y-152160000D02*
X100200000Y-180080000D01*
X100200000Y-180080000D02*
X91260000Y-180080000D01*
X91260000Y-180080000D02*
X91260000Y-152160000D01*
X91260000Y-163895000D02*
X92560000Y-163895000D01*
X92560000Y-163895000D02*
X92560000Y-153360000D01*
X92560000Y-153360000D02*
X98900000Y-153360000D01*
X98900000Y-153360000D02*
X98900000Y-178880000D01*
X98900000Y-178880000D02*
X92560000Y-178880000D01*
X92560000Y-178880000D02*
X92560000Y-168345000D01*
X92560000Y-168345000D02*
X91260000Y-168345000D01*
X100200000Y-165870000D02*
X100400000Y-165870000D01*
X100400000Y-165870000D02*
X100400000Y-166370000D01*
X100400000Y-166370000D02*
X100200000Y-166370000D01*
X100300000Y-165870000D02*
X100300000Y-166370000D01*
X100200000Y-177160000D02*
X100400000Y-177160000D01*
X100400000Y-177160000D02*
X100400000Y-177660000D01*
X100400000Y-177660000D02*
X100200000Y-177660000D01*
X100300000Y-177160000D02*
X100300000Y-177660000D01*
X100200000Y-154580000D02*
X100400000Y-154580000D01*
X100400000Y-154580000D02*
X100400000Y-155080000D01*
X100400000Y-155080000D02*
X100200000Y-155080000D01*
X100300000Y-154580000D02*
X100300000Y-155080000D01*
X93860000Y-155030000D02*
X95060000Y-155030000D01*
X95060000Y-155030000D02*
X94460000Y-155630000D01*
X94460000Y-155630000D02*
X93860000Y-155030000D01*
X108760000Y-152160000D02*
X117700000Y-152160000D01*
X117700000Y-152160000D02*
X117700000Y-180080000D01*
X117700000Y-180080000D02*
X108760000Y-180080000D01*
X108760000Y-180080000D02*
X108760000Y-152160000D01*
X108760000Y-163895000D02*
X110060000Y-163895000D01*
X110060000Y-163895000D02*
X110060000Y-153360000D01*
X110060000Y-153360000D02*
X116400000Y-153360000D01*
X116400000Y-153360000D02*
X116400000Y-178880000D01*
X116400000Y-178880000D02*
X110060000Y-178880000D01*
X110060000Y-178880000D02*
X110060000Y-168345000D01*
X110060000Y-168345000D02*
X108760000Y-168345000D01*
X117700000Y-165870000D02*
X117900000Y-165870000D01*
X117900000Y-165870000D02*
X117900000Y-166370000D01*
X117900000Y-166370000D02*
X117700000Y-166370000D01*
X117800000Y-165870000D02*
X117800000Y-166370000D01*
X117700000Y-177160000D02*
X117900000Y-177160000D01*
X117900000Y-177160000D02*
X117900000Y-177660000D01*
X117900000Y-177660000D02*
X117700000Y-177660000D01*
X117800000Y-177160000D02*
X117800000Y-177660000D01*
X117700000Y-154580000D02*
X117900000Y-154580000D01*
X117900000Y-154580000D02*
X117900000Y-155080000D01*
X117900000Y-155080000D02*
X117700000Y-155080000D01*
X117800000Y-154580000D02*
X117800000Y-155080000D01*
X111360000Y-155030000D02*
X112560000Y-155030000D01*
X112560000Y-155030000D02*
X111960000Y-155630000D01*
X111960000Y-155630000D02*
X111360000Y-155030000D01*
X126260000Y-152160000D02*
X135200000Y-152160000D01*
X135200000Y-152160000D02*
X135200000Y-180080000D01*
X135200000Y-180080000D02*
X126260000Y-180080000D01*
X126260000Y-180080000D02*
X126260000Y-152160000D01*
X126260000Y-163895000D02*
X127560000Y-163895000D01*
X127560000Y-163895000D02*
X127560000Y-153360000D01*
X127560000Y-153360000D02*
X133900000Y-153360000D01*
X133900000Y-153360000D02*
X133900000Y-178880000D01*
X133900000Y-178880000D02*
X127560000Y-178880000D01*
X127560000Y-178880000D02*
X127560000Y-168345000D01*
X127560000Y-168345000D02*
X126260000Y-168345000D01*
X135200000Y-165870000D02*
X135400000Y-165870000D01*
X135400000Y-165870000D02*
X135400000Y-166370000D01*
X135400000Y-166370000D02*
X135200000Y-166370000D01*
X135300000Y-165870000D02*
X135300000Y-166370000D01*
X135200000Y-177160000D02*
X135400000Y-177160000D01*
X135400000Y-177160000D02*
X135400000Y-177660000D01*
X135400000Y-177660000D02*
X135200000Y-177660000D01*
X135300000Y-177160000D02*
X135300000Y-177660000D01*
X135200000Y-154580000D02*
X135400000Y-154580000D01*
X135400000Y-154580000D02*
X135400000Y-155080000D01*
X135400000Y-155080000D02*
X135200000Y-155080000D01*
X135300000Y-154580000D02*
X135300000Y-155080000D01*
X128860000Y-155030000D02*
X130060000Y-155030000D01*
X130060000Y-155030000D02*
X129460000Y-155630000D01*
X129460000Y-155630000D02*
X128860000Y-155030000D01*
X143760000Y-152160000D02*
X152700000Y-152160000D01*
X152700000Y-152160000D02*
X152700000Y-180080000D01*
X152700000Y-180080000D02*
X143760000Y-180080000D01*
X143760000Y-180080000D02*
X143760000Y-152160000D01*
X143760000Y-163895000D02*
X145060000Y-163895000D01*
X145060000Y-163895000D02*
X145060000Y-153360000D01*
X145060000Y-153360000D02*
X151400000Y-153360000D01*
X151400000Y-153360000D02*
X151400000Y-178880000D01*
X151400000Y-178880000D02*
X145060000Y-178880000D01*
X145060000Y-178880000D02*
X145060000Y-168345000D01*
X145060000Y-168345000D02*
X143760000Y-168345000D01*
X152700000Y-165870000D02*
X152900000Y-165870000D01*
X152900000Y-165870000D02*
X152900000Y-166370000D01*
X152900000Y-166370000D02*
X152700000Y-166370000D01*
X152800000Y-165870000D02*
X152800000Y-166370000D01*
X152700000Y-177160000D02*
X152900000Y-177160000D01*
X152900000Y-177160000D02*
X152900000Y-177660000D01*
X152900000Y-177660000D02*
X152700000Y-177660000D01*
X152800000Y-177160000D02*
X152800000Y-177660000D01*
X152700000Y-154580000D02*
X152900000Y-154580000D01*
X152900000Y-154580000D02*
X152900000Y-155080000D01*
X152900000Y-155080000D02*
X152700000Y-155080000D01*
X152800000Y-154580000D02*
X152800000Y-155080000D01*
X146360000Y-155030000D02*
X147560000Y-155030000D01*
X147560000Y-155030000D02*
X146960000Y-155630000D01*
X146960000Y-155630000D02*
X146360000Y-155030000D01*
D14*
X86690000Y-151680000D02*
X86690000Y-151180000D01*
X84410000Y-151680000D02*
X84410000Y-151180000D01*
X77940000Y-142080000D02*
X77940000Y-141580000D01*
X75660000Y-142080000D02*
X75660000Y-141580000D01*
X89590000Y-151680000D02*
X89590000Y-151180000D01*
X87310000Y-151680000D02*
X87310000Y-151180000D01*
X80790000Y-142080000D02*
X80790000Y-141580000D01*
X78510000Y-142080000D02*
X78510000Y-141580000D01*
X95440000Y-142080000D02*
X95440000Y-141580000D01*
X93160000Y-142080000D02*
X93160000Y-141580000D01*
X107090000Y-151680000D02*
X107090000Y-151180000D01*
X104810000Y-151680000D02*
X104810000Y-151180000D01*
X98290000Y-142080000D02*
X98290000Y-141580000D01*
X96010000Y-142080000D02*
X96010000Y-141580000D01*
X121690000Y-151680000D02*
X121690000Y-151180000D01*
X119410000Y-151680000D02*
X119410000Y-151180000D01*
X112940000Y-142080000D02*
X112940000Y-141580000D01*
X110660000Y-142080000D02*
X110660000Y-141580000D01*
X124590000Y-151680000D02*
X124590000Y-151180000D01*
X122310000Y-151680000D02*
X122310000Y-151180000D01*
X115790000Y-142080000D02*
X115790000Y-141580000D01*
X113510000Y-142080000D02*
X113510000Y-141580000D01*
X139190000Y-151680000D02*
X139190000Y-151180000D01*
X136910000Y-151680000D02*
X136910000Y-151180000D01*
X130440000Y-142080000D02*
X130440000Y-141580000D01*
X128160000Y-142080000D02*
X128160000Y-141580000D01*
X142090000Y-151680000D02*
X142090000Y-151180000D01*
X139810000Y-151680000D02*
X139810000Y-151180000D01*
X133290000Y-142080000D02*
X133290000Y-141580000D01*
X131010000Y-142080000D02*
X131010000Y-141580000D01*
X156690000Y-151680000D02*
X156690000Y-151180000D01*
X154410000Y-151680000D02*
X154410000Y-151180000D01*
X147940000Y-142080000D02*
X147940000Y-141580000D01*
X145660000Y-142080000D02*
X145660000Y-141580000D01*
X159590000Y-151680000D02*
X159590000Y-151180000D01*
X157310000Y-151680000D02*
X157310000Y-151180000D01*
X150790000Y-142080000D02*
X150790000Y-141580000D01*
X148510000Y-142080000D02*
X148510000Y-141580000D01*
D13*
X83190000Y-159108000D02*
X90810000Y-159108000D01*
X90810000Y-155552000D02*
X83190000Y-155552000D01*
X83190000Y-159108000D02*
X83190000Y-155552000D01*
X90810000Y-155552000D02*
X90810000Y-159108000D01*
X90661210Y-156060000D02*
G75*
G03X90661210Y-156060000I-359210J0D01*
G01*
X90810000Y-157965000D02*
X90048000Y-157965000D01*
X90048000Y-157965000D02*
X90048000Y-156695000D01*
X90048000Y-156695000D02*
X90810000Y-156695000D01*
X74420000Y-149008000D02*
X82040000Y-149008000D01*
X82040000Y-145452000D02*
X74420000Y-145452000D01*
X74420000Y-149008000D02*
X74420000Y-145452000D01*
X82040000Y-145452000D02*
X82040000Y-149008000D01*
X81891210Y-145960000D02*
G75*
G03X81891210Y-145960000I-359210J0D01*
G01*
X82040000Y-147865000D02*
X81278000Y-147865000D01*
X81278000Y-147865000D02*
X81278000Y-146595000D01*
X81278000Y-146595000D02*
X82040000Y-146595000D01*
X100690000Y-159108000D02*
X108310000Y-159108000D01*
X108310000Y-155552000D02*
X100690000Y-155552000D01*
X100690000Y-159108000D02*
X100690000Y-155552000D01*
X108310000Y-155552000D02*
X108310000Y-159108000D01*
X108161210Y-156060000D02*
G75*
G03X108161210Y-156060000I-359210J0D01*
G01*
X108310000Y-157965000D02*
X107548000Y-157965000D01*
X107548000Y-157965000D02*
X107548000Y-156695000D01*
X107548000Y-156695000D02*
X108310000Y-156695000D01*
X91920000Y-149008000D02*
X99540000Y-149008000D01*
X99540000Y-145452000D02*
X91920000Y-145452000D01*
X91920000Y-149008000D02*
X91920000Y-145452000D01*
X99540000Y-145452000D02*
X99540000Y-149008000D01*
X99391210Y-145960000D02*
G75*
G03X99391210Y-145960000I-359210J0D01*
G01*
X99540000Y-147865000D02*
X98778000Y-147865000D01*
X98778000Y-147865000D02*
X98778000Y-146595000D01*
X98778000Y-146595000D02*
X99540000Y-146595000D01*
X118190000Y-159108000D02*
X125810000Y-159108000D01*
X125810000Y-155552000D02*
X118190000Y-155552000D01*
X118190000Y-159108000D02*
X118190000Y-155552000D01*
X125810000Y-155552000D02*
X125810000Y-159108000D01*
X125661210Y-156060000D02*
G75*
G03X125661210Y-156060000I-359210J0D01*
G01*
X125810000Y-157965000D02*
X125048000Y-157965000D01*
X125048000Y-157965000D02*
X125048000Y-156695000D01*
X125048000Y-156695000D02*
X125810000Y-156695000D01*
X109420000Y-149008000D02*
X117040000Y-149008000D01*
X117040000Y-145452000D02*
X109420000Y-145452000D01*
X109420000Y-149008000D02*
X109420000Y-145452000D01*
X117040000Y-145452000D02*
X117040000Y-149008000D01*
X116891210Y-145960000D02*
G75*
G03X116891210Y-145960000I-359210J0D01*
G01*
X117040000Y-147865000D02*
X116278000Y-147865000D01*
X116278000Y-147865000D02*
X116278000Y-146595000D01*
X116278000Y-146595000D02*
X117040000Y-146595000D01*
X135690000Y-159108000D02*
X143310000Y-159108000D01*
X143310000Y-155552000D02*
X135690000Y-155552000D01*
X135690000Y-159108000D02*
X135690000Y-155552000D01*
X143310000Y-155552000D02*
X143310000Y-159108000D01*
X143161210Y-156060000D02*
G75*
G03X143161210Y-156060000I-359210J0D01*
G01*
X143310000Y-157965000D02*
X142548000Y-157965000D01*
X142548000Y-157965000D02*
X142548000Y-156695000D01*
X142548000Y-156695000D02*
X143310000Y-156695000D01*
X126920000Y-149008000D02*
X134540000Y-149008000D01*
X134540000Y-145452000D02*
X126920000Y-145452000D01*
X126920000Y-149008000D02*
X126920000Y-145452000D01*
X134540000Y-145452000D02*
X134540000Y-149008000D01*
X134391210Y-145960000D02*
G75*
G03X134391210Y-145960000I-359210J0D01*
G01*
X134540000Y-147865000D02*
X133778000Y-147865000D01*
X133778000Y-147865000D02*
X133778000Y-146595000D01*
X133778000Y-146595000D02*
X134540000Y-146595000D01*
X153190000Y-159108000D02*
X160810000Y-159108000D01*
X160810000Y-155552000D02*
X153190000Y-155552000D01*
X153190000Y-159108000D02*
X153190000Y-155552000D01*
X160810000Y-155552000D02*
X160810000Y-159108000D01*
X160661210Y-156060000D02*
G75*
G03X160661210Y-156060000I-359210J0D01*
G01*
X160810000Y-157965000D02*
X160048000Y-157965000D01*
X160048000Y-157965000D02*
X160048000Y-156695000D01*
X160048000Y-156695000D02*
X160810000Y-156695000D01*
X144420000Y-149008000D02*
X152040000Y-149008000D01*
X152040000Y-145452000D02*
X144420000Y-145452000D01*
X144420000Y-149008000D02*
X144420000Y-145452000D01*
X152040000Y-145452000D02*
X152040000Y-149008000D01*
X151891210Y-145960000D02*
G75*
G03X151891210Y-145960000I-359210J0D01*
G01*
X152040000Y-147865000D02*
X151278000Y-147865000D01*
X151278000Y-147865000D02*
X151278000Y-146595000D01*
X151278000Y-146595000D02*
X152040000Y-146595000D01*
D14*
X117300000Y-126810000D02*
X115300000Y-126810000D01*
X115300000Y-129770000D02*
X117300000Y-129770000D01*
D15*
G36*
X94769555Y-112458251D02*
X94751643Y-112542477D01*
X94701800Y-112689716D01*
X94650286Y-112824075D01*
X94432525Y-113438052D01*
X94262013Y-114066309D01*
X94240009Y-114163000D01*
X94210340Y-114307186D01*
X94188804Y-114443416D01*
X94174198Y-114587753D01*
X94165322Y-114756261D01*
X94160974Y-114965001D01*
X94159952Y-115230037D01*
X94159955Y-115233428D01*
X94160890Y-115484997D01*
X94164119Y-115679246D01*
X94171042Y-115831419D01*
X94183056Y-115956763D01*
X94201560Y-116070522D01*
X94227952Y-116187942D01*
X94258125Y-116303857D01*
X94360157Y-116615988D01*
X94499143Y-116944780D01*
X94662288Y-117263703D01*
X94836797Y-117546226D01*
X94898927Y-117632576D01*
X95252504Y-118042371D01*
X95668704Y-118418387D01*
X96145413Y-118759641D01*
X96680518Y-119065156D01*
X97271906Y-119333949D01*
X97917465Y-119565043D01*
X98615080Y-119757455D01*
X99362639Y-119910207D01*
X100016286Y-120005775D01*
X100464271Y-120048682D01*
X100965966Y-120076370D01*
X101504157Y-120089013D01*
X102061634Y-120086785D01*
X102621186Y-120069859D01*
X103165599Y-120038409D01*
X103677664Y-119992608D01*
X103898857Y-119966609D01*
X104545362Y-119870505D01*
X105201406Y-119747426D01*
X105851504Y-119601232D01*
X106480175Y-119435779D01*
X107071935Y-119254926D01*
X107611303Y-119062530D01*
X107752737Y-119006338D01*
X107924895Y-118939111D01*
X108032457Y-118903968D01*
X108075782Y-118900626D01*
X108055227Y-118928801D01*
X107971151Y-118988208D01*
X107823909Y-119078563D01*
X107613861Y-119199582D01*
X107341364Y-119350981D01*
X107268991Y-119390563D01*
X106397424Y-119830239D01*
X105483628Y-120223318D01*
X104539200Y-120566299D01*
X103575738Y-120855683D01*
X102604840Y-121087968D01*
X101638104Y-121259655D01*
X100730952Y-121363703D01*
X100546212Y-121375099D01*
X100308484Y-121384063D01*
X100034859Y-121390486D01*
X99742431Y-121394255D01*
X99448291Y-121395258D01*
X99169531Y-121393386D01*
X98923245Y-121388525D01*
X98726523Y-121380564D01*
X98673714Y-121377113D01*
X98456941Y-121355500D01*
X98191846Y-121320767D01*
X97900723Y-121276536D01*
X97605865Y-121226433D01*
X97329563Y-121174079D01*
X97094111Y-121123099D01*
X97059000Y-121114646D01*
X96405003Y-120926068D01*
X95801141Y-120694377D01*
X95249274Y-120421241D01*
X94751260Y-120108324D01*
X94308960Y-119757293D01*
X93924234Y-119369814D01*
X93598939Y-118947552D01*
X93334937Y-118492174D01*
X93134086Y-118005346D01*
X92998247Y-117488733D01*
X92995435Y-117474058D01*
X92965199Y-117249928D01*
X92947387Y-116977203D01*
X92941963Y-116678780D01*
X92948893Y-116377559D01*
X92968142Y-116096437D01*
X92997880Y-115868428D01*
X93126026Y-115322527D01*
X93321135Y-114761443D01*
X93580542Y-114190453D01*
X93901583Y-113614830D01*
X94281590Y-113039850D01*
X94709125Y-112481485D01*
X94755420Y-112437699D01*
X94769555Y-112458251D01*
X94769555Y-112458251D01*
G37*
X94769555Y-112458251D02*
X94751643Y-112542477D01*
X94701800Y-112689716D01*
X94650286Y-112824075D01*
X94432525Y-113438052D01*
X94262013Y-114066309D01*
X94240009Y-114163000D01*
X94210340Y-114307186D01*
X94188804Y-114443416D01*
X94174198Y-114587753D01*
X94165322Y-114756261D01*
X94160974Y-114965001D01*
X94159952Y-115230037D01*
X94159955Y-115233428D01*
X94160890Y-115484997D01*
X94164119Y-115679246D01*
X94171042Y-115831419D01*
X94183056Y-115956763D01*
X94201560Y-116070522D01*
X94227952Y-116187942D01*
X94258125Y-116303857D01*
X94360157Y-116615988D01*
X94499143Y-116944780D01*
X94662288Y-117263703D01*
X94836797Y-117546226D01*
X94898927Y-117632576D01*
X95252504Y-118042371D01*
X95668704Y-118418387D01*
X96145413Y-118759641D01*
X96680518Y-119065156D01*
X97271906Y-119333949D01*
X97917465Y-119565043D01*
X98615080Y-119757455D01*
X99362639Y-119910207D01*
X100016286Y-120005775D01*
X100464271Y-120048682D01*
X100965966Y-120076370D01*
X101504157Y-120089013D01*
X102061634Y-120086785D01*
X102621186Y-120069859D01*
X103165599Y-120038409D01*
X103677664Y-119992608D01*
X103898857Y-119966609D01*
X104545362Y-119870505D01*
X105201406Y-119747426D01*
X105851504Y-119601232D01*
X106480175Y-119435779D01*
X107071935Y-119254926D01*
X107611303Y-119062530D01*
X107752737Y-119006338D01*
X107924895Y-118939111D01*
X108032457Y-118903968D01*
X108075782Y-118900626D01*
X108055227Y-118928801D01*
X107971151Y-118988208D01*
X107823909Y-119078563D01*
X107613861Y-119199582D01*
X107341364Y-119350981D01*
X107268991Y-119390563D01*
X106397424Y-119830239D01*
X105483628Y-120223318D01*
X104539200Y-120566299D01*
X103575738Y-120855683D01*
X102604840Y-121087968D01*
X101638104Y-121259655D01*
X100730952Y-121363703D01*
X100546212Y-121375099D01*
X100308484Y-121384063D01*
X100034859Y-121390486D01*
X99742431Y-121394255D01*
X99448291Y-121395258D01*
X99169531Y-121393386D01*
X98923245Y-121388525D01*
X98726523Y-121380564D01*
X98673714Y-121377113D01*
X98456941Y-121355500D01*
X98191846Y-121320767D01*
X97900723Y-121276536D01*
X97605865Y-121226433D01*
X97329563Y-121174079D01*
X97094111Y-121123099D01*
X97059000Y-121114646D01*
X96405003Y-120926068D01*
X95801141Y-120694377D01*
X95249274Y-120421241D01*
X94751260Y-120108324D01*
X94308960Y-119757293D01*
X93924234Y-119369814D01*
X93598939Y-118947552D01*
X93334937Y-118492174D01*
X93134086Y-118005346D01*
X92998247Y-117488733D01*
X92995435Y-117474058D01*
X92965199Y-117249928D01*
X92947387Y-116977203D01*
X92941963Y-116678780D01*
X92948893Y-116377559D01*
X92968142Y-116096437D01*
X92997880Y-115868428D01*
X93126026Y-115322527D01*
X93321135Y-114761443D01*
X93580542Y-114190453D01*
X93901583Y-113614830D01*
X94281590Y-113039850D01*
X94709125Y-112481485D01*
X94755420Y-112437699D01*
X94769555Y-112458251D01*
G36*
X100383715Y-111881211D02*
X100638725Y-111889946D01*
X100850169Y-111908424D01*
X101032472Y-111939145D01*
X101200059Y-111984607D01*
X101367355Y-112047308D01*
X101548785Y-112129748D01*
X101568042Y-112139067D01*
X101840716Y-112304963D01*
X102105433Y-112527896D01*
X102348719Y-112792541D01*
X102557102Y-113083575D01*
X102717105Y-113385673D01*
X102760794Y-113495642D01*
X102824622Y-113673143D01*
X104362396Y-113673143D01*
X104530664Y-114153928D01*
X104592628Y-114331083D01*
X104672396Y-114559302D01*
X104763870Y-114821131D01*
X104860952Y-115099111D01*
X104957543Y-115375787D01*
X104998397Y-115492843D01*
X105297861Y-116350973D01*
X106231023Y-113673143D01*
X107028251Y-113673143D01*
X107298856Y-113674011D01*
X107503939Y-113676890D01*
X107650529Y-113682186D01*
X107745658Y-113690309D01*
X107796357Y-113701666D01*
X107809655Y-113716667D01*
X107809157Y-113718500D01*
X107794737Y-113759656D01*
X107758449Y-113863630D01*
X107702286Y-114024703D01*
X107628240Y-114237154D01*
X107538304Y-114495266D01*
X107434471Y-114793318D01*
X107318733Y-115125592D01*
X107193083Y-115486368D01*
X107059514Y-115869927D01*
X106984226Y-116086143D01*
X106847132Y-116479222D01*
X106716614Y-116852193D01*
X106594683Y-117199389D01*
X106483350Y-117515140D01*
X106384627Y-117793780D01*
X106300525Y-118029639D01*
X106233055Y-118217051D01*
X106184229Y-118350347D01*
X106156058Y-118423860D01*
X106150097Y-118436754D01*
X106111603Y-118448138D01*
X106013972Y-118470008D01*
X105869496Y-118500023D01*
X105690467Y-118535841D01*
X105489177Y-118575118D01*
X105277918Y-118615514D01*
X105068981Y-118654685D01*
X104874659Y-118690289D01*
X104707243Y-118719985D01*
X104579025Y-118741429D01*
X104502297Y-118752280D01*
X104489705Y-118753143D01*
X104479523Y-118725550D01*
X104479429Y-118721228D01*
X104490895Y-118677868D01*
X104522623Y-118578186D01*
X104570608Y-118434254D01*
X104630844Y-118258144D01*
X104679000Y-118119769D01*
X104745338Y-117929572D01*
X104802343Y-117764455D01*
X104846044Y-117636055D01*
X104872470Y-117556012D01*
X104878571Y-117534826D01*
X104847623Y-117522924D01*
X104794321Y-117519428D01*
X104614524Y-117488471D01*
X104421777Y-117403399D01*
X104233707Y-117275913D01*
X104067943Y-117117712D01*
X103954185Y-116961807D01*
X103923857Y-116896384D01*
X103872786Y-116770123D01*
X103803854Y-116590801D01*
X103719945Y-116366197D01*
X103623943Y-116104089D01*
X103518731Y-115812255D01*
X103407195Y-115498475D01*
X103326587Y-115269038D01*
X102787658Y-113727571D01*
X101930855Y-113717850D01*
X101074052Y-113708128D01*
X101051145Y-113603834D01*
X100985457Y-113436078D01*
X100871254Y-113268302D01*
X100727919Y-113126104D01*
X100646824Y-113069895D01*
X100548697Y-113018381D01*
X100452969Y-112985946D01*
X100335792Y-112967146D01*
X100173317Y-112956539D01*
X100145080Y-112955378D01*
X99978458Y-112951322D01*
X99861436Y-112956994D01*
X99771327Y-112975682D01*
X99685448Y-113010674D01*
X99653722Y-113026590D01*
X99488408Y-113140790D01*
X99380649Y-113277393D01*
X99333618Y-113426295D01*
X99350488Y-113577388D01*
X99434433Y-113720564D01*
X99435450Y-113721727D01*
X99519627Y-113801513D01*
X99628029Y-113871885D01*
X99770408Y-113936700D01*
X99956518Y-113999817D01*
X100196114Y-114065096D01*
X100463325Y-114128384D01*
X100923245Y-114239457D01*
X101316796Y-114350985D01*
X101650131Y-114466095D01*
X101929403Y-114587914D01*
X102160764Y-114719571D01*
X102350369Y-114864194D01*
X102504370Y-115024911D01*
X102628920Y-115204849D01*
X102648540Y-115239257D01*
X102695087Y-115327681D01*
X102725798Y-115404824D01*
X102743947Y-115489392D01*
X102752810Y-115600091D01*
X102755662Y-115755628D01*
X102755857Y-115852167D01*
X102754941Y-116034405D01*
X102749477Y-116164883D01*
X102735390Y-116264410D01*
X102708604Y-116353795D01*
X102665047Y-116453849D01*
X102619923Y-116546378D01*
X102489710Y-116770065D01*
X102329128Y-116962675D01*
X102255609Y-117034353D01*
X102061153Y-117200155D01*
X101867065Y-117328765D01*
X101650285Y-117432915D01*
X101387752Y-117525337D01*
X101339918Y-117539899D01*
X101209297Y-117576680D01*
X101088719Y-117603844D01*
X100961818Y-117623335D01*
X100812231Y-117637097D01*
X100623594Y-117647075D01*
X100379544Y-117655211D01*
X100366003Y-117655593D01*
X99882785Y-117657728D01*
X99461747Y-117634195D01*
X99096653Y-117583525D01*
X98781264Y-117504247D01*
X98509344Y-117394893D01*
X98274654Y-117253991D01*
X98118522Y-117125990D01*
X97872887Y-116848912D01*
X97682267Y-116526298D01*
X97548864Y-116162387D01*
X97498209Y-115931928D01*
X97478100Y-115814000D01*
X99248658Y-115814000D01*
X99291551Y-115950071D01*
X99398191Y-116181878D01*
X99554570Y-116365738D01*
X99676488Y-116453800D01*
X99849651Y-116524504D01*
X100062832Y-116566474D01*
X100288561Y-116577658D01*
X100499370Y-116556006D01*
X100614183Y-116523812D01*
X100790856Y-116428592D01*
X100914997Y-116304021D01*
X100982569Y-116160758D01*
X100989541Y-116009465D01*
X100931878Y-115860802D01*
X100887407Y-115801702D01*
X100804327Y-115722755D01*
X100697647Y-115653094D01*
X100557709Y-115588931D01*
X100374851Y-115526479D01*
X100139416Y-115461949D01*
X99841743Y-115391555D01*
X99840786Y-115391340D01*
X99383247Y-115280722D01*
X98992166Y-115168513D01*
X98661437Y-115052130D01*
X98384952Y-114928993D01*
X98156605Y-114796519D01*
X97970289Y-114652126D01*
X97879109Y-114561932D01*
X97722589Y-114359599D01*
X97621489Y-114144550D01*
X97567254Y-113895831D01*
X97556057Y-113770727D01*
X97569443Y-113427208D01*
X97649518Y-113107488D01*
X97793247Y-112815227D01*
X97997597Y-112554089D01*
X98259534Y-112327736D01*
X98576023Y-112139830D01*
X98944031Y-111994035D01*
X99054714Y-111961578D01*
X99166981Y-111933383D01*
X99276514Y-111912551D01*
X99397353Y-111897950D01*
X99543539Y-111888448D01*
X99729113Y-111882915D01*
X99968115Y-111880219D01*
X100070714Y-111879723D01*
X100383715Y-111881211D01*
X100383715Y-111881211D01*
G37*
X100383715Y-111881211D02*
X100638725Y-111889946D01*
X100850169Y-111908424D01*
X101032472Y-111939145D01*
X101200059Y-111984607D01*
X101367355Y-112047308D01*
X101548785Y-112129748D01*
X101568042Y-112139067D01*
X101840716Y-112304963D01*
X102105433Y-112527896D01*
X102348719Y-112792541D01*
X102557102Y-113083575D01*
X102717105Y-113385673D01*
X102760794Y-113495642D01*
X102824622Y-113673143D01*
X104362396Y-113673143D01*
X104530664Y-114153928D01*
X104592628Y-114331083D01*
X104672396Y-114559302D01*
X104763870Y-114821131D01*
X104860952Y-115099111D01*
X104957543Y-115375787D01*
X104998397Y-115492843D01*
X105297861Y-116350973D01*
X106231023Y-113673143D01*
X107028251Y-113673143D01*
X107298856Y-113674011D01*
X107503939Y-113676890D01*
X107650529Y-113682186D01*
X107745658Y-113690309D01*
X107796357Y-113701666D01*
X107809655Y-113716667D01*
X107809157Y-113718500D01*
X107794737Y-113759656D01*
X107758449Y-113863630D01*
X107702286Y-114024703D01*
X107628240Y-114237154D01*
X107538304Y-114495266D01*
X107434471Y-114793318D01*
X107318733Y-115125592D01*
X107193083Y-115486368D01*
X107059514Y-115869927D01*
X106984226Y-116086143D01*
X106847132Y-116479222D01*
X106716614Y-116852193D01*
X106594683Y-117199389D01*
X106483350Y-117515140D01*
X106384627Y-117793780D01*
X106300525Y-118029639D01*
X106233055Y-118217051D01*
X106184229Y-118350347D01*
X106156058Y-118423860D01*
X106150097Y-118436754D01*
X106111603Y-118448138D01*
X106013972Y-118470008D01*
X105869496Y-118500023D01*
X105690467Y-118535841D01*
X105489177Y-118575118D01*
X105277918Y-118615514D01*
X105068981Y-118654685D01*
X104874659Y-118690289D01*
X104707243Y-118719985D01*
X104579025Y-118741429D01*
X104502297Y-118752280D01*
X104489705Y-118753143D01*
X104479523Y-118725550D01*
X104479429Y-118721228D01*
X104490895Y-118677868D01*
X104522623Y-118578186D01*
X104570608Y-118434254D01*
X104630844Y-118258144D01*
X104679000Y-118119769D01*
X104745338Y-117929572D01*
X104802343Y-117764455D01*
X104846044Y-117636055D01*
X104872470Y-117556012D01*
X104878571Y-117534826D01*
X104847623Y-117522924D01*
X104794321Y-117519428D01*
X104614524Y-117488471D01*
X104421777Y-117403399D01*
X104233707Y-117275913D01*
X104067943Y-117117712D01*
X103954185Y-116961807D01*
X103923857Y-116896384D01*
X103872786Y-116770123D01*
X103803854Y-116590801D01*
X103719945Y-116366197D01*
X103623943Y-116104089D01*
X103518731Y-115812255D01*
X103407195Y-115498475D01*
X103326587Y-115269038D01*
X102787658Y-113727571D01*
X101930855Y-113717850D01*
X101074052Y-113708128D01*
X101051145Y-113603834D01*
X100985457Y-113436078D01*
X100871254Y-113268302D01*
X100727919Y-113126104D01*
X100646824Y-113069895D01*
X100548697Y-113018381D01*
X100452969Y-112985946D01*
X100335792Y-112967146D01*
X100173317Y-112956539D01*
X100145080Y-112955378D01*
X99978458Y-112951322D01*
X99861436Y-112956994D01*
X99771327Y-112975682D01*
X99685448Y-113010674D01*
X99653722Y-113026590D01*
X99488408Y-113140790D01*
X99380649Y-113277393D01*
X99333618Y-113426295D01*
X99350488Y-113577388D01*
X99434433Y-113720564D01*
X99435450Y-113721727D01*
X99519627Y-113801513D01*
X99628029Y-113871885D01*
X99770408Y-113936700D01*
X99956518Y-113999817D01*
X100196114Y-114065096D01*
X100463325Y-114128384D01*
X100923245Y-114239457D01*
X101316796Y-114350985D01*
X101650131Y-114466095D01*
X101929403Y-114587914D01*
X102160764Y-114719571D01*
X102350369Y-114864194D01*
X102504370Y-115024911D01*
X102628920Y-115204849D01*
X102648540Y-115239257D01*
X102695087Y-115327681D01*
X102725798Y-115404824D01*
X102743947Y-115489392D01*
X102752810Y-115600091D01*
X102755662Y-115755628D01*
X102755857Y-115852167D01*
X102754941Y-116034405D01*
X102749477Y-116164883D01*
X102735390Y-116264410D01*
X102708604Y-116353795D01*
X102665047Y-116453849D01*
X102619923Y-116546378D01*
X102489710Y-116770065D01*
X102329128Y-116962675D01*
X102255609Y-117034353D01*
X102061153Y-117200155D01*
X101867065Y-117328765D01*
X101650285Y-117432915D01*
X101387752Y-117525337D01*
X101339918Y-117539899D01*
X101209297Y-117576680D01*
X101088719Y-117603844D01*
X100961818Y-117623335D01*
X100812231Y-117637097D01*
X100623594Y-117647075D01*
X100379544Y-117655211D01*
X100366003Y-117655593D01*
X99882785Y-117657728D01*
X99461747Y-117634195D01*
X99096653Y-117583525D01*
X98781264Y-117504247D01*
X98509344Y-117394893D01*
X98274654Y-117253991D01*
X98118522Y-117125990D01*
X97872887Y-116848912D01*
X97682267Y-116526298D01*
X97548864Y-116162387D01*
X97498209Y-115931928D01*
X97478100Y-115814000D01*
X99248658Y-115814000D01*
X99291551Y-115950071D01*
X99398191Y-116181878D01*
X99554570Y-116365738D01*
X99676488Y-116453800D01*
X99849651Y-116524504D01*
X100062832Y-116566474D01*
X100288561Y-116577658D01*
X100499370Y-116556006D01*
X100614183Y-116523812D01*
X100790856Y-116428592D01*
X100914997Y-116304021D01*
X100982569Y-116160758D01*
X100989541Y-116009465D01*
X100931878Y-115860802D01*
X100887407Y-115801702D01*
X100804327Y-115722755D01*
X100697647Y-115653094D01*
X100557709Y-115588931D01*
X100374851Y-115526479D01*
X100139416Y-115461949D01*
X99841743Y-115391555D01*
X99840786Y-115391340D01*
X99383247Y-115280722D01*
X98992166Y-115168513D01*
X98661437Y-115052130D01*
X98384952Y-114928993D01*
X98156605Y-114796519D01*
X97970289Y-114652126D01*
X97879109Y-114561932D01*
X97722589Y-114359599D01*
X97621489Y-114144550D01*
X97567254Y-113895831D01*
X97556057Y-113770727D01*
X97569443Y-113427208D01*
X97649518Y-113107488D01*
X97793247Y-112815227D01*
X97997597Y-112554089D01*
X98259534Y-112327736D01*
X98576023Y-112139830D01*
X98944031Y-111994035D01*
X99054714Y-111961578D01*
X99166981Y-111933383D01*
X99276514Y-111912551D01*
X99397353Y-111897950D01*
X99543539Y-111888448D01*
X99729113Y-111882915D01*
X99968115Y-111880219D01*
X100070714Y-111879723D01*
X100383715Y-111881211D01*
G36*
X115665976Y-113620157D02*
X115939450Y-113636318D01*
X116175326Y-113663710D01*
X116290429Y-113685423D01*
X116688160Y-113807357D01*
X117032881Y-113978647D01*
X117323663Y-114198109D01*
X117559577Y-114464559D01*
X117739693Y-114776813D01*
X117863082Y-115133689D01*
X117928815Y-115534003D01*
X117940163Y-115786786D01*
X117941429Y-116031714D01*
X114534043Y-116031714D01*
X114582394Y-116192372D01*
X114666966Y-116393668D01*
X114790203Y-116543832D01*
X114966395Y-116660087D01*
X114973372Y-116663592D01*
X115201641Y-116740474D01*
X115444351Y-116758145D01*
X115681817Y-116717794D01*
X115894358Y-116620608D01*
X115915030Y-116606736D01*
X115950523Y-116585902D01*
X115995814Y-116569859D01*
X116060151Y-116557990D01*
X116152781Y-116549681D01*
X116282952Y-116544316D01*
X116459911Y-116541279D01*
X116692907Y-116539954D01*
X116921959Y-116539714D01*
X117170413Y-116540888D01*
X117393045Y-116544192D01*
X117580156Y-116549296D01*
X117722049Y-116555874D01*
X117809028Y-116563595D01*
X117832571Y-116570556D01*
X117807761Y-116631236D01*
X117740837Y-116727393D01*
X117643056Y-116845329D01*
X117525679Y-116971349D01*
X117416210Y-117077059D01*
X117134857Y-117291767D01*
X116812949Y-117456385D01*
X116495208Y-117562332D01*
X116333489Y-117593855D01*
X116116100Y-117619442D01*
X115859733Y-117638665D01*
X115581080Y-117651098D01*
X115296833Y-117656315D01*
X115023685Y-117653890D01*
X114778326Y-117643397D01*
X114577450Y-117624409D01*
X114506680Y-117613106D01*
X114148715Y-117525334D01*
X113844876Y-117405217D01*
X113581165Y-117245424D01*
X113343585Y-117038625D01*
X113278714Y-116970065D01*
X113069101Y-116702370D01*
X112921281Y-116422303D01*
X112830303Y-116116528D01*
X112791215Y-115771709D01*
X112788857Y-115650714D01*
X112815089Y-115276140D01*
X112834663Y-115195977D01*
X114566857Y-115195977D01*
X114569301Y-115220001D01*
X114582581Y-115238146D01*
X114615620Y-115251236D01*
X114677344Y-115260095D01*
X114776675Y-115265548D01*
X114922538Y-115268420D01*
X115123855Y-115269533D01*
X115365143Y-115269714D01*
X115632544Y-115268982D01*
X115835379Y-115266453D01*
X115981639Y-115261627D01*
X116079318Y-115254005D01*
X116136408Y-115243089D01*
X116160902Y-115228378D01*
X116163429Y-115219848D01*
X116141980Y-115106591D01*
X116086647Y-114967262D01*
X116010945Y-114830741D01*
X115935628Y-114733165D01*
X115770213Y-114611662D01*
X115570575Y-114541330D01*
X115353456Y-114521676D01*
X115135600Y-114552208D01*
X114933751Y-114632434D01*
X114764650Y-114761862D01*
X114759089Y-114767749D01*
X114681564Y-114875540D01*
X114614960Y-115009926D01*
X114573624Y-115138950D01*
X114566857Y-115195977D01*
X112834663Y-115195977D01*
X112896051Y-114944580D01*
X113035144Y-114647748D01*
X113235768Y-114377356D01*
X113366133Y-114243891D01*
X113643196Y-114022936D01*
X113959189Y-113848973D01*
X114326199Y-113715498D01*
X114373021Y-113702230D01*
X114560890Y-113664631D01*
X114802360Y-113637464D01*
X115079191Y-113620890D01*
X115373143Y-113615067D01*
X115665976Y-113620157D01*
X115665976Y-113620157D01*
G37*
X115665976Y-113620157D02*
X115939450Y-113636318D01*
X116175326Y-113663710D01*
X116290429Y-113685423D01*
X116688160Y-113807357D01*
X117032881Y-113978647D01*
X117323663Y-114198109D01*
X117559577Y-114464559D01*
X117739693Y-114776813D01*
X117863082Y-115133689D01*
X117928815Y-115534003D01*
X117940163Y-115786786D01*
X117941429Y-116031714D01*
X114534043Y-116031714D01*
X114582394Y-116192372D01*
X114666966Y-116393668D01*
X114790203Y-116543832D01*
X114966395Y-116660087D01*
X114973372Y-116663592D01*
X115201641Y-116740474D01*
X115444351Y-116758145D01*
X115681817Y-116717794D01*
X115894358Y-116620608D01*
X115915030Y-116606736D01*
X115950523Y-116585902D01*
X115995814Y-116569859D01*
X116060151Y-116557990D01*
X116152781Y-116549681D01*
X116282952Y-116544316D01*
X116459911Y-116541279D01*
X116692907Y-116539954D01*
X116921959Y-116539714D01*
X117170413Y-116540888D01*
X117393045Y-116544192D01*
X117580156Y-116549296D01*
X117722049Y-116555874D01*
X117809028Y-116563595D01*
X117832571Y-116570556D01*
X117807761Y-116631236D01*
X117740837Y-116727393D01*
X117643056Y-116845329D01*
X117525679Y-116971349D01*
X117416210Y-117077059D01*
X117134857Y-117291767D01*
X116812949Y-117456385D01*
X116495208Y-117562332D01*
X116333489Y-117593855D01*
X116116100Y-117619442D01*
X115859733Y-117638665D01*
X115581080Y-117651098D01*
X115296833Y-117656315D01*
X115023685Y-117653890D01*
X114778326Y-117643397D01*
X114577450Y-117624409D01*
X114506680Y-117613106D01*
X114148715Y-117525334D01*
X113844876Y-117405217D01*
X113581165Y-117245424D01*
X113343585Y-117038625D01*
X113278714Y-116970065D01*
X113069101Y-116702370D01*
X112921281Y-116422303D01*
X112830303Y-116116528D01*
X112791215Y-115771709D01*
X112788857Y-115650714D01*
X112815089Y-115276140D01*
X112834663Y-115195977D01*
X114566857Y-115195977D01*
X114569301Y-115220001D01*
X114582581Y-115238146D01*
X114615620Y-115251236D01*
X114677344Y-115260095D01*
X114776675Y-115265548D01*
X114922538Y-115268420D01*
X115123855Y-115269533D01*
X115365143Y-115269714D01*
X115632544Y-115268982D01*
X115835379Y-115266453D01*
X115981639Y-115261627D01*
X116079318Y-115254005D01*
X116136408Y-115243089D01*
X116160902Y-115228378D01*
X116163429Y-115219848D01*
X116141980Y-115106591D01*
X116086647Y-114967262D01*
X116010945Y-114830741D01*
X115935628Y-114733165D01*
X115770213Y-114611662D01*
X115570575Y-114541330D01*
X115353456Y-114521676D01*
X115135600Y-114552208D01*
X114933751Y-114632434D01*
X114764650Y-114761862D01*
X114759089Y-114767749D01*
X114681564Y-114875540D01*
X114614960Y-115009926D01*
X114573624Y-115138950D01*
X114566857Y-115195977D01*
X112834663Y-115195977D01*
X112896051Y-114944580D01*
X113035144Y-114647748D01*
X113235768Y-114377356D01*
X113366133Y-114243891D01*
X113643196Y-114022936D01*
X113959189Y-113848973D01*
X114326199Y-113715498D01*
X114373021Y-113702230D01*
X114560890Y-113664631D01*
X114802360Y-113637464D01*
X115079191Y-113620890D01*
X115373143Y-113615067D01*
X115665976Y-113620157D01*
G36*
X123515866Y-112473749D02*
X123521578Y-112568858D01*
X123525990Y-112712973D01*
X123528718Y-112894312D01*
X123529429Y-113056285D01*
X123529429Y-113673143D01*
X124400286Y-113673143D01*
X124400286Y-114798000D01*
X123529429Y-114798000D01*
X123529429Y-115652516D01*
X123530631Y-115955866D01*
X123535070Y-116194871D01*
X123543996Y-116377733D01*
X123558659Y-116512650D01*
X123580306Y-116607822D01*
X123610188Y-116671450D01*
X123649554Y-116711733D01*
X123694340Y-116734888D01*
X123755058Y-116744786D01*
X123868675Y-116752470D01*
X124015530Y-116756836D01*
X124094825Y-116757428D01*
X124436571Y-116757428D01*
X124436571Y-117170482D01*
X124435854Y-117348890D01*
X124432065Y-117467912D01*
X124422746Y-117540731D01*
X124405439Y-117580528D01*
X124377688Y-117600486D01*
X124354929Y-117608444D01*
X124269805Y-117622673D01*
X124126862Y-117634006D01*
X123940795Y-117642377D01*
X123726301Y-117647718D01*
X123498075Y-117649965D01*
X123270815Y-117649051D01*
X123059217Y-117644909D01*
X122877977Y-117637474D01*
X122741790Y-117626680D01*
X122676714Y-117615996D01*
X122470328Y-117548611D01*
X122309639Y-117460260D01*
X122167988Y-117335535D01*
X122140821Y-117306225D01*
X122088266Y-117247115D01*
X122043345Y-117191064D01*
X122005418Y-117132099D01*
X121973851Y-117064246D01*
X121948005Y-116981530D01*
X121927244Y-116877978D01*
X121910930Y-116747617D01*
X121898427Y-116584471D01*
X121889096Y-116382569D01*
X121882302Y-116135935D01*
X121877408Y-115838596D01*
X121873775Y-115484577D01*
X121870767Y-115067906D01*
X121868815Y-114755619D01*
X121856391Y-112735668D01*
X122048838Y-112697589D01*
X122147228Y-112678846D01*
X122291240Y-112652341D01*
X122467743Y-112620396D01*
X122663600Y-112585333D01*
X122865680Y-112549472D01*
X123060847Y-112515137D01*
X123235967Y-112484648D01*
X123377908Y-112460328D01*
X123473535Y-112444498D01*
X123509242Y-112439428D01*
X123515866Y-112473749D01*
X123515866Y-112473749D01*
G37*
X123515866Y-112473749D02*
X123521578Y-112568858D01*
X123525990Y-112712973D01*
X123528718Y-112894312D01*
X123529429Y-113056285D01*
X123529429Y-113673143D01*
X124400286Y-113673143D01*
X124400286Y-114798000D01*
X123529429Y-114798000D01*
X123529429Y-115652516D01*
X123530631Y-115955866D01*
X123535070Y-116194871D01*
X123543996Y-116377733D01*
X123558659Y-116512650D01*
X123580306Y-116607822D01*
X123610188Y-116671450D01*
X123649554Y-116711733D01*
X123694340Y-116734888D01*
X123755058Y-116744786D01*
X123868675Y-116752470D01*
X124015530Y-116756836D01*
X124094825Y-116757428D01*
X124436571Y-116757428D01*
X124436571Y-117170482D01*
X124435854Y-117348890D01*
X124432065Y-117467912D01*
X124422746Y-117540731D01*
X124405439Y-117580528D01*
X124377688Y-117600486D01*
X124354929Y-117608444D01*
X124269805Y-117622673D01*
X124126862Y-117634006D01*
X123940795Y-117642377D01*
X123726301Y-117647718D01*
X123498075Y-117649965D01*
X123270815Y-117649051D01*
X123059217Y-117644909D01*
X122877977Y-117637474D01*
X122741790Y-117626680D01*
X122676714Y-117615996D01*
X122470328Y-117548611D01*
X122309639Y-117460260D01*
X122167988Y-117335535D01*
X122140821Y-117306225D01*
X122088266Y-117247115D01*
X122043345Y-117191064D01*
X122005418Y-117132099D01*
X121973851Y-117064246D01*
X121948005Y-116981530D01*
X121927244Y-116877978D01*
X121910930Y-116747617D01*
X121898427Y-116584471D01*
X121889096Y-116382569D01*
X121882302Y-116135935D01*
X121877408Y-115838596D01*
X121873775Y-115484577D01*
X121870767Y-115067906D01*
X121868815Y-114755619D01*
X121856391Y-112735668D01*
X122048838Y-112697589D01*
X122147228Y-112678846D01*
X122291240Y-112652341D01*
X122467743Y-112620396D01*
X122663600Y-112585333D01*
X122865680Y-112549472D01*
X123060847Y-112515137D01*
X123235967Y-112484648D01*
X123377908Y-112460328D01*
X123473535Y-112444498D01*
X123509242Y-112439428D01*
X123515866Y-112473749D01*
G36*
X127505916Y-113623809D02*
X127705998Y-113627581D01*
X127864388Y-113635704D01*
X127996510Y-113649384D01*
X128117792Y-113669831D01*
X128243660Y-113698250D01*
X128260151Y-113702339D01*
X128653385Y-113831571D01*
X128992126Y-114008585D01*
X129275501Y-114232262D01*
X129502638Y-114501485D01*
X129672667Y-114815137D01*
X129784716Y-115172098D01*
X129837913Y-115571250D01*
X129842513Y-115732357D01*
X129843143Y-116031714D01*
X128155857Y-116031714D01*
X127754652Y-116031497D01*
X127420321Y-116031420D01*
X127147171Y-116032341D01*
X126929509Y-116035120D01*
X126761641Y-116040615D01*
X126637874Y-116049686D01*
X126552515Y-116063192D01*
X126499869Y-116081992D01*
X126474244Y-116106944D01*
X126469947Y-116138909D01*
X126481283Y-116178745D01*
X126502560Y-116227311D01*
X126524925Y-116277808D01*
X126645415Y-116477864D01*
X126814781Y-116627951D01*
X127024626Y-116722669D01*
X127266553Y-116756616D01*
X127269465Y-116756631D01*
X127430628Y-116744650D01*
X127593073Y-116711748D01*
X127734404Y-116664302D01*
X127832225Y-116608685D01*
X127849624Y-116591498D01*
X127874755Y-116575276D01*
X127925226Y-116562687D01*
X128008905Y-116553314D01*
X128133661Y-116546744D01*
X128307361Y-116542564D01*
X128537873Y-116540359D01*
X128833066Y-116539714D01*
X129774674Y-116539714D01*
X129709123Y-116651186D01*
X129622334Y-116770964D01*
X129494249Y-116913997D01*
X129343172Y-117062136D01*
X129187406Y-117197229D01*
X129070334Y-117284650D01*
X128863710Y-117397795D01*
X128604778Y-117497662D01*
X128313501Y-117577573D01*
X128051949Y-117625301D01*
X127857953Y-117644314D01*
X127617046Y-117655878D01*
X127348927Y-117660199D01*
X127073295Y-117657485D01*
X126809848Y-117647942D01*
X126578284Y-117631777D01*
X126398304Y-117609198D01*
X126390719Y-117607851D01*
X126049914Y-117524829D01*
X125752804Y-117403912D01*
X125538527Y-117278824D01*
X125262621Y-117053874D01*
X125037746Y-116784191D01*
X124866280Y-116478894D01*
X124750603Y-116147099D01*
X124693093Y-115797921D01*
X124696130Y-115440479D01*
X124743856Y-115182473D01*
X126467990Y-115182473D01*
X126487960Y-115222711D01*
X126546310Y-115248275D01*
X126650037Y-115262462D01*
X126806142Y-115268569D01*
X127021625Y-115269891D01*
X127266857Y-115269714D01*
X128065143Y-115269714D01*
X128065143Y-115186124D01*
X128049283Y-115108025D01*
X128008462Y-114995754D01*
X127970921Y-114913455D01*
X127851183Y-114734035D01*
X127696122Y-114612373D01*
X127498556Y-114544427D01*
X127282155Y-114525857D01*
X127036852Y-114552077D01*
X126837320Y-114632863D01*
X126678075Y-114771400D01*
X126568357Y-114940754D01*
X126515188Y-115044791D01*
X126479399Y-115124265D01*
X126467990Y-115182473D01*
X124743856Y-115182473D01*
X124762093Y-115083888D01*
X124881667Y-114761714D01*
X125045890Y-114493293D01*
X125271382Y-114247425D01*
X125548448Y-114031477D01*
X125867392Y-113852814D01*
X126218518Y-113718802D01*
X126276240Y-113702214D01*
X126389629Y-113673729D01*
X126501190Y-113652954D01*
X126625517Y-113638704D01*
X126777203Y-113629793D01*
X126970845Y-113625033D01*
X127221036Y-113623240D01*
X127248714Y-113623180D01*
X127505916Y-113623809D01*
X127505916Y-113623809D01*
G37*
X127505916Y-113623809D02*
X127705998Y-113627581D01*
X127864388Y-113635704D01*
X127996510Y-113649384D01*
X128117792Y-113669831D01*
X128243660Y-113698250D01*
X128260151Y-113702339D01*
X128653385Y-113831571D01*
X128992126Y-114008585D01*
X129275501Y-114232262D01*
X129502638Y-114501485D01*
X129672667Y-114815137D01*
X129784716Y-115172098D01*
X129837913Y-115571250D01*
X129842513Y-115732357D01*
X129843143Y-116031714D01*
X128155857Y-116031714D01*
X127754652Y-116031497D01*
X127420321Y-116031420D01*
X127147171Y-116032341D01*
X126929509Y-116035120D01*
X126761641Y-116040615D01*
X126637874Y-116049686D01*
X126552515Y-116063192D01*
X126499869Y-116081992D01*
X126474244Y-116106944D01*
X126469947Y-116138909D01*
X126481283Y-116178745D01*
X126502560Y-116227311D01*
X126524925Y-116277808D01*
X126645415Y-116477864D01*
X126814781Y-116627951D01*
X127024626Y-116722669D01*
X127266553Y-116756616D01*
X127269465Y-116756631D01*
X127430628Y-116744650D01*
X127593073Y-116711748D01*
X127734404Y-116664302D01*
X127832225Y-116608685D01*
X127849624Y-116591498D01*
X127874755Y-116575276D01*
X127925226Y-116562687D01*
X128008905Y-116553314D01*
X128133661Y-116546744D01*
X128307361Y-116542564D01*
X128537873Y-116540359D01*
X128833066Y-116539714D01*
X129774674Y-116539714D01*
X129709123Y-116651186D01*
X129622334Y-116770964D01*
X129494249Y-116913997D01*
X129343172Y-117062136D01*
X129187406Y-117197229D01*
X129070334Y-117284650D01*
X128863710Y-117397795D01*
X128604778Y-117497662D01*
X128313501Y-117577573D01*
X128051949Y-117625301D01*
X127857953Y-117644314D01*
X127617046Y-117655878D01*
X127348927Y-117660199D01*
X127073295Y-117657485D01*
X126809848Y-117647942D01*
X126578284Y-117631777D01*
X126398304Y-117609198D01*
X126390719Y-117607851D01*
X126049914Y-117524829D01*
X125752804Y-117403912D01*
X125538527Y-117278824D01*
X125262621Y-117053874D01*
X125037746Y-116784191D01*
X124866280Y-116478894D01*
X124750603Y-116147099D01*
X124693093Y-115797921D01*
X124696130Y-115440479D01*
X124743856Y-115182473D01*
X126467990Y-115182473D01*
X126487960Y-115222711D01*
X126546310Y-115248275D01*
X126650037Y-115262462D01*
X126806142Y-115268569D01*
X127021625Y-115269891D01*
X127266857Y-115269714D01*
X128065143Y-115269714D01*
X128065143Y-115186124D01*
X128049283Y-115108025D01*
X128008462Y-114995754D01*
X127970921Y-114913455D01*
X127851183Y-114734035D01*
X127696122Y-114612373D01*
X127498556Y-114544427D01*
X127282155Y-114525857D01*
X127036852Y-114552077D01*
X126837320Y-114632863D01*
X126678075Y-114771400D01*
X126568357Y-114940754D01*
X126515188Y-115044791D01*
X126479399Y-115124265D01*
X126467990Y-115182473D01*
X124743856Y-115182473D01*
X124762093Y-115083888D01*
X124881667Y-114761714D01*
X125045890Y-114493293D01*
X125271382Y-114247425D01*
X125548448Y-114031477D01*
X125867392Y-113852814D01*
X126218518Y-113718802D01*
X126276240Y-113702214D01*
X126389629Y-113673729D01*
X126501190Y-113652954D01*
X126625517Y-113638704D01*
X126777203Y-113629793D01*
X126970845Y-113625033D01*
X127221036Y-113623240D01*
X127248714Y-113623180D01*
X127505916Y-113623809D01*
G36*
X132782721Y-113622105D02*
X132997227Y-113626710D01*
X133168086Y-113636400D01*
X133309726Y-113652113D01*
X133436575Y-113674785D01*
X133480916Y-113684718D01*
X133847341Y-113801371D01*
X134165062Y-113967158D01*
X134430029Y-114179906D01*
X134459588Y-114210059D01*
X134567387Y-114336723D01*
X134673771Y-114484941D01*
X134768478Y-114637570D01*
X134841250Y-114777467D01*
X134881826Y-114887490D01*
X134886857Y-114923965D01*
X134878840Y-114942306D01*
X134849084Y-114956180D01*
X134789037Y-114966183D01*
X134690145Y-114972912D01*
X134543854Y-114976964D01*
X134341610Y-114978937D01*
X134092200Y-114979428D01*
X133297543Y-114979428D01*
X133174283Y-114856169D01*
X133009808Y-114740002D01*
X132810582Y-114673680D01*
X132593304Y-114655859D01*
X132374669Y-114685201D01*
X132171375Y-114760363D01*
X132000118Y-114880004D01*
X131931812Y-114955965D01*
X131824366Y-115147356D01*
X131757418Y-115372679D01*
X131730317Y-115615499D01*
X131742415Y-115859379D01*
X131793062Y-116087882D01*
X131881609Y-116284571D01*
X131989540Y-116417541D01*
X132150808Y-116536016D01*
X132326939Y-116603438D01*
X132540754Y-116627918D01*
X132582714Y-116628393D01*
X132830116Y-116603169D01*
X133032958Y-116525112D01*
X133200330Y-116390255D01*
X133243312Y-116340231D01*
X133344714Y-116213145D01*
X134152072Y-116213144D01*
X134426002Y-116212792D01*
X134634419Y-116214052D01*
X134784356Y-116220393D01*
X134882847Y-116235286D01*
X134936926Y-116262200D01*
X134953626Y-116304607D01*
X134939983Y-116365975D01*
X134903028Y-116449776D01*
X134850613Y-116557770D01*
X134668281Y-116856929D01*
X134427986Y-117116908D01*
X134135848Y-117332579D01*
X133797992Y-117498817D01*
X133674131Y-117543055D01*
X133560444Y-117578097D01*
X133456727Y-117603792D01*
X133347742Y-117621851D01*
X133218255Y-117633983D01*
X133053029Y-117641899D01*
X132836828Y-117647306D01*
X132727857Y-117649229D01*
X132499469Y-117650890D01*
X132279744Y-117648699D01*
X132085731Y-117643100D01*
X131934477Y-117634541D01*
X131859595Y-117626486D01*
X131450137Y-117532105D01*
X131088615Y-117384098D01*
X130775763Y-117182825D01*
X130566321Y-116989436D01*
X130382557Y-116765518D01*
X130249392Y-116537746D01*
X130161244Y-116290410D01*
X130112532Y-116007800D01*
X130097675Y-115674205D01*
X130097679Y-115670305D01*
X130114507Y-115311859D01*
X130166925Y-115006464D01*
X130259475Y-114741576D01*
X130396695Y-114504654D01*
X130583126Y-114283155D01*
X130609392Y-114256647D01*
X130890611Y-114018664D01*
X131202111Y-113837805D01*
X131524567Y-113715059D01*
X131636061Y-113682784D01*
X131737829Y-113659097D01*
X131844403Y-113642620D01*
X131970314Y-113631978D01*
X132130092Y-113625792D01*
X132338270Y-113622685D01*
X132510143Y-113621648D01*
X132782721Y-113622105D01*
X132782721Y-113622105D01*
G37*
X132782721Y-113622105D02*
X132997227Y-113626710D01*
X133168086Y-113636400D01*
X133309726Y-113652113D01*
X133436575Y-113674785D01*
X133480916Y-113684718D01*
X133847341Y-113801371D01*
X134165062Y-113967158D01*
X134430029Y-114179906D01*
X134459588Y-114210059D01*
X134567387Y-114336723D01*
X134673771Y-114484941D01*
X134768478Y-114637570D01*
X134841250Y-114777467D01*
X134881826Y-114887490D01*
X134886857Y-114923965D01*
X134878840Y-114942306D01*
X134849084Y-114956180D01*
X134789037Y-114966183D01*
X134690145Y-114972912D01*
X134543854Y-114976964D01*
X134341610Y-114978937D01*
X134092200Y-114979428D01*
X133297543Y-114979428D01*
X133174283Y-114856169D01*
X133009808Y-114740002D01*
X132810582Y-114673680D01*
X132593304Y-114655859D01*
X132374669Y-114685201D01*
X132171375Y-114760363D01*
X132000118Y-114880004D01*
X131931812Y-114955965D01*
X131824366Y-115147356D01*
X131757418Y-115372679D01*
X131730317Y-115615499D01*
X131742415Y-115859379D01*
X131793062Y-116087882D01*
X131881609Y-116284571D01*
X131989540Y-116417541D01*
X132150808Y-116536016D01*
X132326939Y-116603438D01*
X132540754Y-116627918D01*
X132582714Y-116628393D01*
X132830116Y-116603169D01*
X133032958Y-116525112D01*
X133200330Y-116390255D01*
X133243312Y-116340231D01*
X133344714Y-116213145D01*
X134152072Y-116213144D01*
X134426002Y-116212792D01*
X134634419Y-116214052D01*
X134784356Y-116220393D01*
X134882847Y-116235286D01*
X134936926Y-116262200D01*
X134953626Y-116304607D01*
X134939983Y-116365975D01*
X134903028Y-116449776D01*
X134850613Y-116557770D01*
X134668281Y-116856929D01*
X134427986Y-117116908D01*
X134135848Y-117332579D01*
X133797992Y-117498817D01*
X133674131Y-117543055D01*
X133560444Y-117578097D01*
X133456727Y-117603792D01*
X133347742Y-117621851D01*
X133218255Y-117633983D01*
X133053029Y-117641899D01*
X132836828Y-117647306D01*
X132727857Y-117649229D01*
X132499469Y-117650890D01*
X132279744Y-117648699D01*
X132085731Y-117643100D01*
X131934477Y-117634541D01*
X131859595Y-117626486D01*
X131450137Y-117532105D01*
X131088615Y-117384098D01*
X130775763Y-117182825D01*
X130566321Y-116989436D01*
X130382557Y-116765518D01*
X130249392Y-116537746D01*
X130161244Y-116290410D01*
X130112532Y-116007800D01*
X130097675Y-115674205D01*
X130097679Y-115670305D01*
X130114507Y-115311859D01*
X130166925Y-115006464D01*
X130259475Y-114741576D01*
X130396695Y-114504654D01*
X130583126Y-114283155D01*
X130609392Y-114256647D01*
X130890611Y-114018664D01*
X131202111Y-113837805D01*
X131524567Y-113715059D01*
X131636061Y-113682784D01*
X131737829Y-113659097D01*
X131844403Y-113642620D01*
X131970314Y-113631978D01*
X132130092Y-113625792D01*
X132338270Y-113622685D01*
X132510143Y-113621648D01*
X132782721Y-113622105D01*
G36*
X111389019Y-113635801D02*
X111640934Y-113696367D01*
X111681018Y-113710716D01*
X111912238Y-113834664D01*
X112118324Y-114014088D01*
X112282556Y-114232380D01*
X112356785Y-114381839D01*
X112378247Y-114436617D01*
X112395915Y-114489039D01*
X112410217Y-114546586D01*
X112421582Y-114616739D01*
X112430438Y-114706979D01*
X112437214Y-114824789D01*
X112442339Y-114977650D01*
X112446241Y-115173044D01*
X112449348Y-115418451D01*
X112452090Y-115721355D01*
X112454895Y-116089235D01*
X112454939Y-116095214D01*
X112466005Y-117592000D01*
X110834702Y-117592000D01*
X110822626Y-116403643D01*
X110818772Y-116068785D01*
X110814438Y-115798565D01*
X110809189Y-115585051D01*
X110802594Y-115420308D01*
X110794218Y-115296404D01*
X110783629Y-115205405D01*
X110770393Y-115139379D01*
X110754076Y-115090391D01*
X110750449Y-115082036D01*
X110653465Y-114938489D01*
X110512935Y-114848530D01*
X110328438Y-114808246D01*
X110122214Y-114823321D01*
X109943349Y-114903839D01*
X109799658Y-115045351D01*
X109740857Y-115142714D01*
X109715525Y-115194851D01*
X109695325Y-115244577D01*
X109679578Y-115300600D01*
X109667611Y-115371627D01*
X109658746Y-115466366D01*
X109652308Y-115593525D01*
X109647621Y-115761811D01*
X109644008Y-115979932D01*
X109640794Y-116256597D01*
X109638738Y-116458071D01*
X109627333Y-117592000D01*
X107999143Y-117592000D01*
X107999143Y-113673143D01*
X109523143Y-113673143D01*
X109523143Y-114260439D01*
X109713092Y-114089659D01*
X109972920Y-113886514D01*
X110238065Y-113744228D01*
X110527888Y-113652465D01*
X110534809Y-113650908D01*
X110809143Y-113611673D01*
X111102818Y-113607103D01*
X111389019Y-113635801D01*
X111389019Y-113635801D01*
G37*
X111389019Y-113635801D02*
X111640934Y-113696367D01*
X111681018Y-113710716D01*
X111912238Y-113834664D01*
X112118324Y-114014088D01*
X112282556Y-114232380D01*
X112356785Y-114381839D01*
X112378247Y-114436617D01*
X112395915Y-114489039D01*
X112410217Y-114546586D01*
X112421582Y-114616739D01*
X112430438Y-114706979D01*
X112437214Y-114824789D01*
X112442339Y-114977650D01*
X112446241Y-115173044D01*
X112449348Y-115418451D01*
X112452090Y-115721355D01*
X112454895Y-116089235D01*
X112454939Y-116095214D01*
X112466005Y-117592000D01*
X110834702Y-117592000D01*
X110822626Y-116403643D01*
X110818772Y-116068785D01*
X110814438Y-115798565D01*
X110809189Y-115585051D01*
X110802594Y-115420308D01*
X110794218Y-115296404D01*
X110783629Y-115205405D01*
X110770393Y-115139379D01*
X110754076Y-115090391D01*
X110750449Y-115082036D01*
X110653465Y-114938489D01*
X110512935Y-114848530D01*
X110328438Y-114808246D01*
X110122214Y-114823321D01*
X109943349Y-114903839D01*
X109799658Y-115045351D01*
X109740857Y-115142714D01*
X109715525Y-115194851D01*
X109695325Y-115244577D01*
X109679578Y-115300600D01*
X109667611Y-115371627D01*
X109658746Y-115466366D01*
X109652308Y-115593525D01*
X109647621Y-115761811D01*
X109644008Y-115979932D01*
X109640794Y-116256597D01*
X109638738Y-116458071D01*
X109627333Y-117592000D01*
X107999143Y-117592000D01*
X107999143Y-113673143D01*
X109523143Y-113673143D01*
X109523143Y-114260439D01*
X109713092Y-114089659D01*
X109972920Y-113886514D01*
X110238065Y-113744228D01*
X110527888Y-113652465D01*
X110534809Y-113650908D01*
X110809143Y-113611673D01*
X111102818Y-113607103D01*
X111389019Y-113635801D01*
G36*
X119792000Y-114253923D02*
X119922905Y-114109027D01*
X120117630Y-113945453D01*
X120370478Y-113818615D01*
X120675977Y-113730282D01*
X121028660Y-113682220D01*
X121270643Y-113673418D01*
X121424857Y-113673143D01*
X121424857Y-114792891D01*
X120865669Y-114804517D01*
X120306480Y-114816143D01*
X120167169Y-114927973D01*
X120098925Y-114986846D01*
X120043567Y-115048168D01*
X119999740Y-115119936D01*
X119966095Y-115210149D01*
X119941280Y-115326802D01*
X119923943Y-115477895D01*
X119912731Y-115671424D01*
X119906295Y-115915387D01*
X119903282Y-116217781D01*
X119902445Y-116494357D01*
X119900857Y-117592000D01*
X118231714Y-117592000D01*
X118231714Y-113673143D01*
X119792000Y-113673143D01*
X119792000Y-114253923D01*
X119792000Y-114253923D01*
G37*
X119792000Y-114253923D02*
X119922905Y-114109027D01*
X120117630Y-113945453D01*
X120370478Y-113818615D01*
X120675977Y-113730282D01*
X121028660Y-113682220D01*
X121270643Y-113673418D01*
X121424857Y-113673143D01*
X121424857Y-114792891D01*
X120865669Y-114804517D01*
X120306480Y-114816143D01*
X120167169Y-114927973D01*
X120098925Y-114986846D01*
X120043567Y-115048168D01*
X119999740Y-115119936D01*
X119966095Y-115210149D01*
X119941280Y-115326802D01*
X119923943Y-115477895D01*
X119912731Y-115671424D01*
X119906295Y-115915387D01*
X119903282Y-116217781D01*
X119902445Y-116494357D01*
X119900857Y-117592000D01*
X118231714Y-117592000D01*
X118231714Y-113673143D01*
X119792000Y-113673143D01*
X119792000Y-114253923D01*
G36*
X106969670Y-107240409D02*
X107318001Y-107252465D01*
X107626855Y-107270742D01*
X107880803Y-107295240D01*
X107908429Y-107298808D01*
X108642436Y-107422668D01*
X109330681Y-107591166D01*
X109970415Y-107803128D01*
X110558889Y-108057378D01*
X111093357Y-108352743D01*
X111571069Y-108688048D01*
X111955838Y-109028571D01*
X112221073Y-109310089D01*
X112437371Y-109584132D01*
X112621519Y-109873998D01*
X112767813Y-110155454D01*
X112970765Y-110660949D01*
X113103172Y-111182473D01*
X113165063Y-111720381D01*
X113156471Y-112275025D01*
X113077427Y-112846758D01*
X113026026Y-113080577D01*
X112979939Y-113254255D01*
X112923632Y-113441616D01*
X112861762Y-113629863D01*
X112798982Y-113806201D01*
X112739946Y-113957833D01*
X112689309Y-114071962D01*
X112651725Y-114135791D01*
X112638920Y-114144857D01*
X112622573Y-114111824D01*
X112611111Y-114025671D01*
X112607215Y-113918071D01*
X112601256Y-113775532D01*
X112585575Y-113593900D01*
X112563149Y-113405532D01*
X112554648Y-113346571D01*
X112432161Y-112764954D01*
X112247194Y-112219949D01*
X112000246Y-111712097D01*
X111691810Y-111241943D01*
X111322383Y-110810028D01*
X110892460Y-110416896D01*
X110402536Y-110063090D01*
X109853107Y-109749151D01*
X109244668Y-109475623D01*
X108906286Y-109349943D01*
X108472822Y-109212402D01*
X108011655Y-109092076D01*
X107510485Y-108986257D01*
X106957015Y-108892241D01*
X106584000Y-108838931D01*
X106412753Y-108822347D01*
X106180594Y-108809270D01*
X105899097Y-108799636D01*
X105579833Y-108793383D01*
X105234375Y-108790445D01*
X104874296Y-108790761D01*
X104511168Y-108794265D01*
X104156563Y-108800894D01*
X103822054Y-108810585D01*
X103519213Y-108823274D01*
X103259612Y-108838897D01*
X103054825Y-108857390D01*
X103046143Y-108858400D01*
X102160283Y-108980622D01*
X101293870Y-109135408D01*
X100453667Y-109320717D01*
X99646436Y-109534508D01*
X98878938Y-109774741D01*
X98157935Y-110039374D01*
X97490190Y-110326368D01*
X96882464Y-110633681D01*
X96575060Y-110811347D01*
X96458548Y-110878495D01*
X96365186Y-110925600D01*
X96312522Y-110943946D01*
X96308878Y-110943578D01*
X96320517Y-110918367D01*
X96383715Y-110858113D01*
X96490325Y-110769026D01*
X96632200Y-110657318D01*
X96801194Y-110529199D01*
X96989161Y-110390880D01*
X97187953Y-110248574D01*
X97389426Y-110108490D01*
X97519673Y-110020427D01*
X98427212Y-109457579D01*
X99376743Y-108951624D01*
X100362756Y-108504591D01*
X101379744Y-108118507D01*
X102422197Y-107795399D01*
X103484607Y-107537295D01*
X104561466Y-107346222D01*
X104914857Y-107298742D01*
X105175983Y-107273463D01*
X105490220Y-107254407D01*
X105842139Y-107241573D01*
X106216308Y-107234963D01*
X106597296Y-107234575D01*
X106969670Y-107240409D01*
X106969670Y-107240409D01*
G37*
X106969670Y-107240409D02*
X107318001Y-107252465D01*
X107626855Y-107270742D01*
X107880803Y-107295240D01*
X107908429Y-107298808D01*
X108642436Y-107422668D01*
X109330681Y-107591166D01*
X109970415Y-107803128D01*
X110558889Y-108057378D01*
X111093357Y-108352743D01*
X111571069Y-108688048D01*
X111955838Y-109028571D01*
X112221073Y-109310089D01*
X112437371Y-109584132D01*
X112621519Y-109873998D01*
X112767813Y-110155454D01*
X112970765Y-110660949D01*
X113103172Y-111182473D01*
X113165063Y-111720381D01*
X113156471Y-112275025D01*
X113077427Y-112846758D01*
X113026026Y-113080577D01*
X112979939Y-113254255D01*
X112923632Y-113441616D01*
X112861762Y-113629863D01*
X112798982Y-113806201D01*
X112739946Y-113957833D01*
X112689309Y-114071962D01*
X112651725Y-114135791D01*
X112638920Y-114144857D01*
X112622573Y-114111824D01*
X112611111Y-114025671D01*
X112607215Y-113918071D01*
X112601256Y-113775532D01*
X112585575Y-113593900D01*
X112563149Y-113405532D01*
X112554648Y-113346571D01*
X112432161Y-112764954D01*
X112247194Y-112219949D01*
X112000246Y-111712097D01*
X111691810Y-111241943D01*
X111322383Y-110810028D01*
X110892460Y-110416896D01*
X110402536Y-110063090D01*
X109853107Y-109749151D01*
X109244668Y-109475623D01*
X108906286Y-109349943D01*
X108472822Y-109212402D01*
X108011655Y-109092076D01*
X107510485Y-108986257D01*
X106957015Y-108892241D01*
X106584000Y-108838931D01*
X106412753Y-108822347D01*
X106180594Y-108809270D01*
X105899097Y-108799636D01*
X105579833Y-108793383D01*
X105234375Y-108790445D01*
X104874296Y-108790761D01*
X104511168Y-108794265D01*
X104156563Y-108800894D01*
X103822054Y-108810585D01*
X103519213Y-108823274D01*
X103259612Y-108838897D01*
X103054825Y-108857390D01*
X103046143Y-108858400D01*
X102160283Y-108980622D01*
X101293870Y-109135408D01*
X100453667Y-109320717D01*
X99646436Y-109534508D01*
X98878938Y-109774741D01*
X98157935Y-110039374D01*
X97490190Y-110326368D01*
X96882464Y-110633681D01*
X96575060Y-110811347D01*
X96458548Y-110878495D01*
X96365186Y-110925600D01*
X96312522Y-110943946D01*
X96308878Y-110943578D01*
X96320517Y-110918367D01*
X96383715Y-110858113D01*
X96490325Y-110769026D01*
X96632200Y-110657318D01*
X96801194Y-110529199D01*
X96989161Y-110390880D01*
X97187953Y-110248574D01*
X97389426Y-110108490D01*
X97519673Y-110020427D01*
X98427212Y-109457579D01*
X99376743Y-108951624D01*
X100362756Y-108504591D01*
X101379744Y-108118507D01*
X102422197Y-107795399D01*
X103484607Y-107537295D01*
X104561466Y-107346222D01*
X104914857Y-107298742D01*
X105175983Y-107273463D01*
X105490220Y-107254407D01*
X105842139Y-107241573D01*
X106216308Y-107234963D01*
X106597296Y-107234575D01*
X106969670Y-107240409D01*
M02*
