G04 #@! TF.FileFunction,Legend,Top*
%FSLAX46Y46*%
G04 Gerber Fmt 4.6, Leading zero omitted, Abs format (unit mm)*
G04 Created by KiCad (PCBNEW 4.0.7-e2-6376~58~ubuntu16.04.1) date Thu Jan 25 22:21:11 2018*
%MOMM*%
%LPD*%
G01*
G04 APERTURE LIST*
%ADD10C,0.100000*%
%ADD11C,0.300000*%
%ADD12C,0.500000*%
%ADD13C,0.120000*%
%ADD14C,0.150000*%
%ADD15C,0.010000*%
G04 APERTURE END LIST*
D10*
D11*
X68651905Y-139692384D02*
X69951905Y-139692384D01*
X69951905Y-140001908D01*
X69890000Y-140187622D01*
X69766190Y-140311431D01*
X69642381Y-140373336D01*
X69394762Y-140435241D01*
X69209048Y-140435241D01*
X68961429Y-140373336D01*
X68837619Y-140311431D01*
X68713810Y-140187622D01*
X68651905Y-140001908D01*
X68651905Y-139692384D01*
X69332857Y-140992384D02*
X69332857Y-141425717D01*
X68651905Y-141611431D02*
X68651905Y-140992384D01*
X69951905Y-140992384D01*
X69951905Y-141611431D01*
X69951905Y-142416193D02*
X69951905Y-142540002D01*
X69890000Y-142663812D01*
X69828095Y-142725717D01*
X69704286Y-142787621D01*
X69456667Y-142849526D01*
X69147143Y-142849526D01*
X68899524Y-142787621D01*
X68775714Y-142725717D01*
X68713810Y-142663812D01*
X68651905Y-142540002D01*
X68651905Y-142416193D01*
X68713810Y-142292383D01*
X68775714Y-142230479D01*
X68899524Y-142168574D01*
X69147143Y-142106669D01*
X69456667Y-142106669D01*
X69704286Y-142168574D01*
X69828095Y-142230479D01*
X69890000Y-142292383D01*
X69951905Y-142416193D01*
X69147143Y-143406669D02*
X69147143Y-144397145D01*
X68651905Y-145016193D02*
X69951905Y-145016193D01*
X68651905Y-145759050D01*
X69951905Y-145759050D01*
X68651905Y-146935241D02*
X69332857Y-146935241D01*
X69456667Y-146873336D01*
X69518571Y-146749526D01*
X69518571Y-146501907D01*
X69456667Y-146378098D01*
X68713810Y-146935241D02*
X68651905Y-146811431D01*
X68651905Y-146501907D01*
X68713810Y-146378098D01*
X68837619Y-146316193D01*
X68961429Y-146316193D01*
X69085238Y-146378098D01*
X69147143Y-146501907D01*
X69147143Y-146811431D01*
X69209048Y-146935241D01*
X69518571Y-147554288D02*
X68651905Y-147554288D01*
X69394762Y-147554288D02*
X69456667Y-147616193D01*
X69518571Y-147740002D01*
X69518571Y-147925716D01*
X69456667Y-148049526D01*
X69332857Y-148111431D01*
X68651905Y-148111431D01*
X68651905Y-148916192D02*
X68713810Y-148792383D01*
X68775714Y-148730478D01*
X68899524Y-148668573D01*
X69270952Y-148668573D01*
X69394762Y-148730478D01*
X69456667Y-148792383D01*
X69518571Y-148916192D01*
X69518571Y-149101906D01*
X69456667Y-149225716D01*
X69394762Y-149287621D01*
X69270952Y-149349525D01*
X68899524Y-149349525D01*
X68775714Y-149287621D01*
X68713810Y-149225716D01*
X68651905Y-149101906D01*
X68651905Y-148916192D01*
X69147143Y-149906668D02*
X69147143Y-150897144D01*
X68713810Y-151454287D02*
X68651905Y-151640001D01*
X68651905Y-151949525D01*
X68713810Y-152073335D01*
X68775714Y-152135239D01*
X68899524Y-152197144D01*
X69023333Y-152197144D01*
X69147143Y-152135239D01*
X69209048Y-152073335D01*
X69270952Y-151949525D01*
X69332857Y-151701906D01*
X69394762Y-151578097D01*
X69456667Y-151516192D01*
X69580476Y-151454287D01*
X69704286Y-151454287D01*
X69828095Y-151516192D01*
X69890000Y-151578097D01*
X69951905Y-151701906D01*
X69951905Y-152011430D01*
X69890000Y-152197144D01*
X68651905Y-152940001D02*
X68713810Y-152816192D01*
X68775714Y-152754287D01*
X68899524Y-152692382D01*
X69270952Y-152692382D01*
X69394762Y-152754287D01*
X69456667Y-152816192D01*
X69518571Y-152940001D01*
X69518571Y-153125715D01*
X69456667Y-153249525D01*
X69394762Y-153311430D01*
X69270952Y-153373334D01*
X68899524Y-153373334D01*
X68775714Y-153311430D01*
X68713810Y-153249525D01*
X68651905Y-153125715D01*
X68651905Y-152940001D01*
X68775714Y-154673334D02*
X68713810Y-154611429D01*
X68651905Y-154425715D01*
X68651905Y-154301905D01*
X68713810Y-154116191D01*
X68837619Y-153992382D01*
X68961429Y-153930477D01*
X69209048Y-153868572D01*
X69394762Y-153868572D01*
X69642381Y-153930477D01*
X69766190Y-153992382D01*
X69890000Y-154116191D01*
X69951905Y-154301905D01*
X69951905Y-154425715D01*
X69890000Y-154611429D01*
X69828095Y-154673334D01*
X68651905Y-156840000D02*
X68651905Y-156220953D01*
X69951905Y-156220953D01*
X69332857Y-157273334D02*
X69332857Y-157706667D01*
X68651905Y-157892381D02*
X68651905Y-157273334D01*
X69951905Y-157273334D01*
X69951905Y-157892381D01*
X68651905Y-158449524D02*
X69951905Y-158449524D01*
X69951905Y-158759048D01*
X69890000Y-158944762D01*
X69766190Y-159068571D01*
X69642381Y-159130476D01*
X69394762Y-159192381D01*
X69209048Y-159192381D01*
X68961429Y-159130476D01*
X68837619Y-159068571D01*
X68713810Y-158944762D01*
X68651905Y-158759048D01*
X68651905Y-158449524D01*
X69518571Y-160554286D02*
X69518571Y-161049524D01*
X68651905Y-160740000D02*
X69766190Y-160740000D01*
X69890000Y-160801905D01*
X69951905Y-160925714D01*
X69951905Y-161049524D01*
X68651905Y-162040000D02*
X69332857Y-162040000D01*
X69456667Y-161978095D01*
X69518571Y-161854285D01*
X69518571Y-161606666D01*
X69456667Y-161482857D01*
X68713810Y-162040000D02*
X68651905Y-161916190D01*
X68651905Y-161606666D01*
X68713810Y-161482857D01*
X68837619Y-161420952D01*
X68961429Y-161420952D01*
X69085238Y-161482857D01*
X69147143Y-161606666D01*
X69147143Y-161916190D01*
X69209048Y-162040000D01*
X69518571Y-162659047D02*
X68651905Y-162659047D01*
X69394762Y-162659047D02*
X69456667Y-162720952D01*
X69518571Y-162844761D01*
X69518571Y-163030475D01*
X69456667Y-163154285D01*
X69332857Y-163216190D01*
X68651905Y-163216190D01*
X68651905Y-164020951D02*
X68713810Y-163897142D01*
X68775714Y-163835237D01*
X68899524Y-163773332D01*
X69270952Y-163773332D01*
X69394762Y-163835237D01*
X69456667Y-163897142D01*
X69518571Y-164020951D01*
X69518571Y-164206665D01*
X69456667Y-164330475D01*
X69394762Y-164392380D01*
X69270952Y-164454284D01*
X68899524Y-164454284D01*
X68775714Y-164392380D01*
X68713810Y-164330475D01*
X68651905Y-164206665D01*
X68651905Y-164020951D01*
X69518571Y-165568570D02*
X68651905Y-165568570D01*
X69518571Y-165011427D02*
X68837619Y-165011427D01*
X68713810Y-165073332D01*
X68651905Y-165197141D01*
X68651905Y-165382855D01*
X68713810Y-165506665D01*
X68775714Y-165568570D01*
X69518571Y-166001903D02*
X69518571Y-166497141D01*
X69951905Y-166187617D02*
X68837619Y-166187617D01*
X68713810Y-166249522D01*
X68651905Y-166373331D01*
X68651905Y-166497141D01*
X69518571Y-167797140D02*
X68651905Y-168106664D01*
X69518571Y-168416188D01*
X68651905Y-169592378D02*
X68651905Y-168849521D01*
X68651905Y-169220950D02*
X69951905Y-169220950D01*
X69766190Y-169097140D01*
X69642381Y-168973331D01*
X69580476Y-168849521D01*
X68775714Y-170149521D02*
X68713810Y-170211426D01*
X68651905Y-170149521D01*
X68713810Y-170087616D01*
X68775714Y-170149521D01*
X68651905Y-170149521D01*
X69951905Y-171016188D02*
X69951905Y-171139997D01*
X69890000Y-171263807D01*
X69828095Y-171325712D01*
X69704286Y-171387616D01*
X69456667Y-171449521D01*
X69147143Y-171449521D01*
X68899524Y-171387616D01*
X68775714Y-171325712D01*
X68713810Y-171263807D01*
X68651905Y-171139997D01*
X68651905Y-171016188D01*
X68713810Y-170892378D01*
X68775714Y-170830474D01*
X68899524Y-170768569D01*
X69147143Y-170706664D01*
X69456667Y-170706664D01*
X69704286Y-170768569D01*
X69828095Y-170830474D01*
X69890000Y-170892378D01*
X69951905Y-171016188D01*
D12*
X77753810Y-183730952D02*
X76325238Y-183730952D01*
X77039524Y-183730952D02*
X77039524Y-181230952D01*
X76801429Y-181588095D01*
X76563334Y-181826190D01*
X76325238Y-181945238D01*
X79301429Y-181230952D02*
X79539524Y-181230952D01*
X79777619Y-181350000D01*
X79896667Y-181469048D01*
X80015714Y-181707143D01*
X80134762Y-182183333D01*
X80134762Y-182778571D01*
X80015714Y-183254762D01*
X79896667Y-183492857D01*
X79777619Y-183611905D01*
X79539524Y-183730952D01*
X79301429Y-183730952D01*
X79063333Y-183611905D01*
X78944286Y-183492857D01*
X78825238Y-183254762D01*
X78706190Y-182778571D01*
X78706190Y-182183333D01*
X78825238Y-181707143D01*
X78944286Y-181469048D01*
X79063333Y-181350000D01*
X79301429Y-181230952D01*
X95253810Y-183730952D02*
X95730000Y-183730952D01*
X95968095Y-183611905D01*
X96087143Y-183492857D01*
X96325238Y-183135714D01*
X96444286Y-182659524D01*
X96444286Y-181707143D01*
X96325238Y-181469048D01*
X96206191Y-181350000D01*
X95968095Y-181230952D01*
X95491905Y-181230952D01*
X95253810Y-181350000D01*
X95134762Y-181469048D01*
X95015714Y-181707143D01*
X95015714Y-182302381D01*
X95134762Y-182540476D01*
X95253810Y-182659524D01*
X95491905Y-182778571D01*
X95968095Y-182778571D01*
X96206191Y-182659524D01*
X96325238Y-182540476D01*
X96444286Y-182302381D01*
X112991905Y-182302381D02*
X112753810Y-182183333D01*
X112634762Y-182064286D01*
X112515714Y-181826190D01*
X112515714Y-181707143D01*
X112634762Y-181469048D01*
X112753810Y-181350000D01*
X112991905Y-181230952D01*
X113468095Y-181230952D01*
X113706191Y-181350000D01*
X113825238Y-181469048D01*
X113944286Y-181707143D01*
X113944286Y-181826190D01*
X113825238Y-182064286D01*
X113706191Y-182183333D01*
X113468095Y-182302381D01*
X112991905Y-182302381D01*
X112753810Y-182421429D01*
X112634762Y-182540476D01*
X112515714Y-182778571D01*
X112515714Y-183254762D01*
X112634762Y-183492857D01*
X112753810Y-183611905D01*
X112991905Y-183730952D01*
X113468095Y-183730952D01*
X113706191Y-183611905D01*
X113825238Y-183492857D01*
X113944286Y-183254762D01*
X113944286Y-182778571D01*
X113825238Y-182540476D01*
X113706191Y-182421429D01*
X113468095Y-182302381D01*
X129896667Y-181230952D02*
X131563334Y-181230952D01*
X130491905Y-183730952D01*
X148706191Y-181230952D02*
X148230000Y-181230952D01*
X147991905Y-181350000D01*
X147872857Y-181469048D01*
X147634762Y-181826190D01*
X147515714Y-182302381D01*
X147515714Y-183254762D01*
X147634762Y-183492857D01*
X147753810Y-183611905D01*
X147991905Y-183730952D01*
X148468095Y-183730952D01*
X148706191Y-183611905D01*
X148825238Y-183492857D01*
X148944286Y-183254762D01*
X148944286Y-182659524D01*
X148825238Y-182421429D01*
X148706191Y-182302381D01*
X148468095Y-182183333D01*
X147991905Y-182183333D01*
X147753810Y-182302381D01*
X147634762Y-182421429D01*
X147515714Y-182659524D01*
X151325238Y-18430952D02*
X150134762Y-18430952D01*
X150015714Y-19621429D01*
X150134762Y-19502381D01*
X150372857Y-19383333D01*
X150968095Y-19383333D01*
X151206191Y-19502381D01*
X151325238Y-19621429D01*
X151444286Y-19859524D01*
X151444286Y-20454762D01*
X151325238Y-20692857D01*
X151206191Y-20811905D01*
X150968095Y-20930952D01*
X150372857Y-20930952D01*
X150134762Y-20811905D01*
X150015714Y-20692857D01*
X133706191Y-19264286D02*
X133706191Y-20930952D01*
X133110953Y-18311905D02*
X132515714Y-20097619D01*
X134063334Y-20097619D01*
X114896667Y-18430952D02*
X116444286Y-18430952D01*
X115610953Y-19383333D01*
X115968095Y-19383333D01*
X116206191Y-19502381D01*
X116325238Y-19621429D01*
X116444286Y-19859524D01*
X116444286Y-20454762D01*
X116325238Y-20692857D01*
X116206191Y-20811905D01*
X115968095Y-20930952D01*
X115253810Y-20930952D01*
X115015714Y-20811905D01*
X114896667Y-20692857D01*
X97515714Y-18669048D02*
X97634762Y-18550000D01*
X97872857Y-18430952D01*
X98468095Y-18430952D01*
X98706191Y-18550000D01*
X98825238Y-18669048D01*
X98944286Y-18907143D01*
X98944286Y-19145238D01*
X98825238Y-19502381D01*
X97396667Y-20930952D01*
X98944286Y-20930952D01*
X81444286Y-20930952D02*
X80015714Y-20930952D01*
X80730000Y-20930952D02*
X80730000Y-18430952D01*
X80491905Y-18788095D01*
X80253810Y-19026190D01*
X80015714Y-19145238D01*
D13*
X126560000Y-126570000D02*
X126560000Y-123910000D01*
X113800000Y-126570000D02*
X126560000Y-126570000D01*
X113800000Y-123910000D02*
X126560000Y-123910000D01*
X113800000Y-126570000D02*
X113800000Y-123910000D01*
X112530000Y-126570000D02*
X111200000Y-126570000D01*
X111200000Y-126570000D02*
X111200000Y-125240000D01*
D14*
X73760000Y-152160000D02*
X82700000Y-152160000D01*
X82700000Y-152160000D02*
X82700000Y-180080000D01*
X82700000Y-180080000D02*
X73760000Y-180080000D01*
X73760000Y-180080000D02*
X73760000Y-152160000D01*
X73760000Y-163895000D02*
X75060000Y-163895000D01*
X75060000Y-163895000D02*
X75060000Y-153360000D01*
X75060000Y-153360000D02*
X81400000Y-153360000D01*
X81400000Y-153360000D02*
X81400000Y-178880000D01*
X81400000Y-178880000D02*
X75060000Y-178880000D01*
X75060000Y-178880000D02*
X75060000Y-168345000D01*
X75060000Y-168345000D02*
X73760000Y-168345000D01*
X82700000Y-165870000D02*
X82900000Y-165870000D01*
X82900000Y-165870000D02*
X82900000Y-166370000D01*
X82900000Y-166370000D02*
X82700000Y-166370000D01*
X82800000Y-165870000D02*
X82800000Y-166370000D01*
X82700000Y-177160000D02*
X82900000Y-177160000D01*
X82900000Y-177160000D02*
X82900000Y-177660000D01*
X82900000Y-177660000D02*
X82700000Y-177660000D01*
X82800000Y-177160000D02*
X82800000Y-177660000D01*
X82700000Y-154580000D02*
X82900000Y-154580000D01*
X82900000Y-154580000D02*
X82900000Y-155080000D01*
X82900000Y-155080000D02*
X82700000Y-155080000D01*
X82800000Y-154580000D02*
X82800000Y-155080000D01*
X76360000Y-155030000D02*
X77560000Y-155030000D01*
X77560000Y-155030000D02*
X76960000Y-155630000D01*
X76960000Y-155630000D02*
X76360000Y-155030000D01*
D13*
X104190000Y-151680000D02*
X104190000Y-151180000D01*
X101910000Y-151680000D02*
X101910000Y-151180000D01*
X77920000Y-130010000D02*
X77920000Y-135210000D01*
X126240000Y-130010000D02*
X77920000Y-130010000D01*
X128840000Y-135210000D02*
X77920000Y-135210000D01*
X126240000Y-130010000D02*
X126240000Y-132610000D01*
X126240000Y-132610000D02*
X128840000Y-132610000D01*
X128840000Y-132610000D02*
X128840000Y-135210000D01*
X127510000Y-130010000D02*
X128840000Y-130010000D01*
X128840000Y-130010000D02*
X128840000Y-131340000D01*
D14*
X137700000Y-50070000D02*
X128760000Y-50070000D01*
X128760000Y-50070000D02*
X128760000Y-22150000D01*
X128760000Y-22150000D02*
X137700000Y-22150000D01*
X137700000Y-22150000D02*
X137700000Y-50070000D01*
X137700000Y-38335000D02*
X136400000Y-38335000D01*
X136400000Y-38335000D02*
X136400000Y-48870000D01*
X136400000Y-48870000D02*
X130060000Y-48870000D01*
X130060000Y-48870000D02*
X130060000Y-23350000D01*
X130060000Y-23350000D02*
X136400000Y-23350000D01*
X136400000Y-23350000D02*
X136400000Y-33885000D01*
X136400000Y-33885000D02*
X137700000Y-33885000D01*
X128760000Y-36360000D02*
X128560000Y-36360000D01*
X128560000Y-36360000D02*
X128560000Y-35860000D01*
X128560000Y-35860000D02*
X128760000Y-35860000D01*
X128660000Y-36360000D02*
X128660000Y-35860000D01*
X128760000Y-25070000D02*
X128560000Y-25070000D01*
X128560000Y-25070000D02*
X128560000Y-24570000D01*
X128560000Y-24570000D02*
X128760000Y-24570000D01*
X128660000Y-25070000D02*
X128660000Y-24570000D01*
X128760000Y-47650000D02*
X128560000Y-47650000D01*
X128560000Y-47650000D02*
X128560000Y-47150000D01*
X128560000Y-47150000D02*
X128760000Y-47150000D01*
X128660000Y-47650000D02*
X128660000Y-47150000D01*
X135100000Y-47200000D02*
X133900000Y-47200000D01*
X133900000Y-47200000D02*
X134500000Y-46600000D01*
X134500000Y-46600000D02*
X135100000Y-47200000D01*
X120200000Y-50070000D02*
X111260000Y-50070000D01*
X111260000Y-50070000D02*
X111260000Y-22150000D01*
X111260000Y-22150000D02*
X120200000Y-22150000D01*
X120200000Y-22150000D02*
X120200000Y-50070000D01*
X120200000Y-38335000D02*
X118900000Y-38335000D01*
X118900000Y-38335000D02*
X118900000Y-48870000D01*
X118900000Y-48870000D02*
X112560000Y-48870000D01*
X112560000Y-48870000D02*
X112560000Y-23350000D01*
X112560000Y-23350000D02*
X118900000Y-23350000D01*
X118900000Y-23350000D02*
X118900000Y-33885000D01*
X118900000Y-33885000D02*
X120200000Y-33885000D01*
X111260000Y-36360000D02*
X111060000Y-36360000D01*
X111060000Y-36360000D02*
X111060000Y-35860000D01*
X111060000Y-35860000D02*
X111260000Y-35860000D01*
X111160000Y-36360000D02*
X111160000Y-35860000D01*
X111260000Y-25070000D02*
X111060000Y-25070000D01*
X111060000Y-25070000D02*
X111060000Y-24570000D01*
X111060000Y-24570000D02*
X111260000Y-24570000D01*
X111160000Y-25070000D02*
X111160000Y-24570000D01*
X111260000Y-47650000D02*
X111060000Y-47650000D01*
X111060000Y-47650000D02*
X111060000Y-47150000D01*
X111060000Y-47150000D02*
X111260000Y-47150000D01*
X111160000Y-47650000D02*
X111160000Y-47150000D01*
X117600000Y-47200000D02*
X116400000Y-47200000D01*
X116400000Y-47200000D02*
X117000000Y-46600000D01*
X117000000Y-46600000D02*
X117600000Y-47200000D01*
X110810000Y-43122000D02*
X103190000Y-43122000D01*
X103190000Y-46678000D02*
X110810000Y-46678000D01*
X110810000Y-43122000D02*
X110810000Y-46678000D01*
X103190000Y-46678000D02*
X103190000Y-43122000D01*
X104057210Y-46170000D02*
G75*
G03X104057210Y-46170000I-359210J0D01*
G01*
X103190000Y-44265000D02*
X103952000Y-44265000D01*
X103952000Y-44265000D02*
X103952000Y-45535000D01*
X103952000Y-45535000D02*
X103190000Y-45535000D01*
X93310000Y-43122000D02*
X85690000Y-43122000D01*
X85690000Y-46678000D02*
X93310000Y-46678000D01*
X93310000Y-43122000D02*
X93310000Y-46678000D01*
X85690000Y-46678000D02*
X85690000Y-43122000D01*
X86557210Y-46170000D02*
G75*
G03X86557210Y-46170000I-359210J0D01*
G01*
X85690000Y-44265000D02*
X86452000Y-44265000D01*
X86452000Y-44265000D02*
X86452000Y-45535000D01*
X86452000Y-45535000D02*
X85690000Y-45535000D01*
D13*
X128840000Y-72220000D02*
X128840000Y-67020000D01*
X80520000Y-72220000D02*
X128840000Y-72220000D01*
X77920000Y-67020000D02*
X128840000Y-67020000D01*
X80520000Y-72220000D02*
X80520000Y-69620000D01*
X80520000Y-69620000D02*
X77920000Y-69620000D01*
X77920000Y-69620000D02*
X77920000Y-67020000D01*
X79250000Y-72220000D02*
X77920000Y-72220000D01*
X77920000Y-72220000D02*
X77920000Y-70890000D01*
D14*
X102700000Y-50070000D02*
X93760000Y-50070000D01*
X93760000Y-50070000D02*
X93760000Y-22150000D01*
X93760000Y-22150000D02*
X102700000Y-22150000D01*
X102700000Y-22150000D02*
X102700000Y-50070000D01*
X102700000Y-38335000D02*
X101400000Y-38335000D01*
X101400000Y-38335000D02*
X101400000Y-48870000D01*
X101400000Y-48870000D02*
X95060000Y-48870000D01*
X95060000Y-48870000D02*
X95060000Y-23350000D01*
X95060000Y-23350000D02*
X101400000Y-23350000D01*
X101400000Y-23350000D02*
X101400000Y-33885000D01*
X101400000Y-33885000D02*
X102700000Y-33885000D01*
X93760000Y-36360000D02*
X93560000Y-36360000D01*
X93560000Y-36360000D02*
X93560000Y-35860000D01*
X93560000Y-35860000D02*
X93760000Y-35860000D01*
X93660000Y-36360000D02*
X93660000Y-35860000D01*
X93760000Y-25070000D02*
X93560000Y-25070000D01*
X93560000Y-25070000D02*
X93560000Y-24570000D01*
X93560000Y-24570000D02*
X93760000Y-24570000D01*
X93660000Y-25070000D02*
X93660000Y-24570000D01*
X93760000Y-47650000D02*
X93560000Y-47650000D01*
X93560000Y-47650000D02*
X93560000Y-47150000D01*
X93560000Y-47150000D02*
X93760000Y-47150000D01*
X93660000Y-47650000D02*
X93660000Y-47150000D01*
X100100000Y-47200000D02*
X98900000Y-47200000D01*
X98900000Y-47200000D02*
X99500000Y-46600000D01*
X99500000Y-46600000D02*
X100100000Y-47200000D01*
D13*
X107310000Y-50550000D02*
X107310000Y-51050000D01*
X109590000Y-50550000D02*
X109590000Y-51050000D01*
D14*
X85200000Y-50070000D02*
X76260000Y-50070000D01*
X76260000Y-50070000D02*
X76260000Y-22150000D01*
X76260000Y-22150000D02*
X85200000Y-22150000D01*
X85200000Y-22150000D02*
X85200000Y-50070000D01*
X85200000Y-38335000D02*
X83900000Y-38335000D01*
X83900000Y-38335000D02*
X83900000Y-48870000D01*
X83900000Y-48870000D02*
X77560000Y-48870000D01*
X77560000Y-48870000D02*
X77560000Y-23350000D01*
X77560000Y-23350000D02*
X83900000Y-23350000D01*
X83900000Y-23350000D02*
X83900000Y-33885000D01*
X83900000Y-33885000D02*
X85200000Y-33885000D01*
X76260000Y-36360000D02*
X76060000Y-36360000D01*
X76060000Y-36360000D02*
X76060000Y-35860000D01*
X76060000Y-35860000D02*
X76260000Y-35860000D01*
X76160000Y-36360000D02*
X76160000Y-35860000D01*
X76260000Y-25070000D02*
X76060000Y-25070000D01*
X76060000Y-25070000D02*
X76060000Y-24570000D01*
X76060000Y-24570000D02*
X76260000Y-24570000D01*
X76160000Y-25070000D02*
X76160000Y-24570000D01*
X76260000Y-47650000D02*
X76060000Y-47650000D01*
X76060000Y-47650000D02*
X76060000Y-47150000D01*
X76060000Y-47150000D02*
X76260000Y-47150000D01*
X76160000Y-47650000D02*
X76160000Y-47150000D01*
X82600000Y-47200000D02*
X81400000Y-47200000D01*
X81400000Y-47200000D02*
X82000000Y-46600000D01*
X82000000Y-46600000D02*
X82600000Y-47200000D01*
X155200000Y-50070000D02*
X146260000Y-50070000D01*
X146260000Y-50070000D02*
X146260000Y-22150000D01*
X146260000Y-22150000D02*
X155200000Y-22150000D01*
X155200000Y-22150000D02*
X155200000Y-50070000D01*
X155200000Y-38335000D02*
X153900000Y-38335000D01*
X153900000Y-38335000D02*
X153900000Y-48870000D01*
X153900000Y-48870000D02*
X147560000Y-48870000D01*
X147560000Y-48870000D02*
X147560000Y-23350000D01*
X147560000Y-23350000D02*
X153900000Y-23350000D01*
X153900000Y-23350000D02*
X153900000Y-33885000D01*
X153900000Y-33885000D02*
X155200000Y-33885000D01*
X146260000Y-36360000D02*
X146060000Y-36360000D01*
X146060000Y-36360000D02*
X146060000Y-35860000D01*
X146060000Y-35860000D02*
X146260000Y-35860000D01*
X146160000Y-36360000D02*
X146160000Y-35860000D01*
X146260000Y-25070000D02*
X146060000Y-25070000D01*
X146060000Y-25070000D02*
X146060000Y-24570000D01*
X146060000Y-24570000D02*
X146260000Y-24570000D01*
X146160000Y-25070000D02*
X146160000Y-24570000D01*
X146260000Y-47650000D02*
X146060000Y-47650000D01*
X146060000Y-47650000D02*
X146060000Y-47150000D01*
X146060000Y-47150000D02*
X146260000Y-47150000D01*
X146160000Y-47650000D02*
X146160000Y-47150000D01*
X152600000Y-47200000D02*
X151400000Y-47200000D01*
X151400000Y-47200000D02*
X152000000Y-46600000D01*
X152000000Y-46600000D02*
X152600000Y-47200000D01*
D13*
X104410000Y-50550000D02*
X104410000Y-51050000D01*
X106690000Y-50550000D02*
X106690000Y-51050000D01*
X104710000Y-78310000D02*
X104710000Y-75650000D01*
X81790000Y-78310000D02*
X104710000Y-78310000D01*
X81790000Y-75650000D02*
X104710000Y-75650000D01*
X81790000Y-78310000D02*
X81790000Y-75650000D01*
X80520000Y-78310000D02*
X79190000Y-78310000D01*
X79190000Y-78310000D02*
X79190000Y-76980000D01*
X126560000Y-78310000D02*
X126560000Y-75650000D01*
X108720000Y-78310000D02*
X126560000Y-78310000D01*
X108720000Y-75650000D02*
X126560000Y-75650000D01*
X108720000Y-78310000D02*
X108720000Y-75650000D01*
X107450000Y-78310000D02*
X106120000Y-78310000D01*
X106120000Y-78310000D02*
X106120000Y-76980000D01*
X89810000Y-50550000D02*
X89810000Y-51050000D01*
X92090000Y-50550000D02*
X92090000Y-51050000D01*
X86910000Y-50550000D02*
X86910000Y-51050000D01*
X89190000Y-50550000D02*
X89190000Y-51050000D01*
X72310000Y-50550000D02*
X72310000Y-51050000D01*
X74590000Y-50550000D02*
X74590000Y-51050000D01*
X69410000Y-50550000D02*
X69410000Y-51050000D01*
X71690000Y-50550000D02*
X71690000Y-51050000D01*
D14*
X75810000Y-43122000D02*
X68190000Y-43122000D01*
X68190000Y-46678000D02*
X75810000Y-46678000D01*
X75810000Y-43122000D02*
X75810000Y-46678000D01*
X68190000Y-46678000D02*
X68190000Y-43122000D01*
X69057210Y-46170000D02*
G75*
G03X69057210Y-46170000I-359210J0D01*
G01*
X68190000Y-44265000D02*
X68952000Y-44265000D01*
X68952000Y-44265000D02*
X68952000Y-45535000D01*
X68952000Y-45535000D02*
X68190000Y-45535000D01*
D13*
X116010000Y-60150000D02*
X116010000Y-60650000D01*
X118290000Y-60150000D02*
X118290000Y-60650000D01*
X113160000Y-60150000D02*
X113160000Y-60650000D01*
X115440000Y-60150000D02*
X115440000Y-60650000D01*
D14*
X119540000Y-53222000D02*
X111920000Y-53222000D01*
X111920000Y-56778000D02*
X119540000Y-56778000D01*
X119540000Y-53222000D02*
X119540000Y-56778000D01*
X111920000Y-56778000D02*
X111920000Y-53222000D01*
X112787210Y-56270000D02*
G75*
G03X112787210Y-56270000I-359210J0D01*
G01*
X111920000Y-54365000D02*
X112682000Y-54365000D01*
X112682000Y-54365000D02*
X112682000Y-55635000D01*
X112682000Y-55635000D02*
X111920000Y-55635000D01*
D13*
X81010000Y-60150000D02*
X81010000Y-60650000D01*
X83290000Y-60150000D02*
X83290000Y-60650000D01*
X78160000Y-60150000D02*
X78160000Y-60650000D01*
X80440000Y-60150000D02*
X80440000Y-60650000D01*
D14*
X84540000Y-53222000D02*
X76920000Y-53222000D01*
X76920000Y-56778000D02*
X84540000Y-56778000D01*
X84540000Y-53222000D02*
X84540000Y-56778000D01*
X76920000Y-56778000D02*
X76920000Y-53222000D01*
X77787210Y-56270000D02*
G75*
G03X77787210Y-56270000I-359210J0D01*
G01*
X76920000Y-54365000D02*
X77682000Y-54365000D01*
X77682000Y-54365000D02*
X77682000Y-55635000D01*
X77682000Y-55635000D02*
X76920000Y-55635000D01*
D13*
X98510000Y-60150000D02*
X98510000Y-60650000D01*
X100790000Y-60150000D02*
X100790000Y-60650000D01*
X95660000Y-60150000D02*
X95660000Y-60650000D01*
X97940000Y-60150000D02*
X97940000Y-60650000D01*
D14*
X102040000Y-53222000D02*
X94420000Y-53222000D01*
X94420000Y-56778000D02*
X102040000Y-56778000D01*
X102040000Y-53222000D02*
X102040000Y-56778000D01*
X94420000Y-56778000D02*
X94420000Y-53222000D01*
X95287210Y-56270000D02*
G75*
G03X95287210Y-56270000I-359210J0D01*
G01*
X94420000Y-54365000D02*
X95182000Y-54365000D01*
X95182000Y-54365000D02*
X95182000Y-55635000D01*
X95182000Y-55635000D02*
X94420000Y-55635000D01*
D13*
X124810000Y-50550000D02*
X124810000Y-51050000D01*
X127090000Y-50550000D02*
X127090000Y-51050000D01*
X133510000Y-60150000D02*
X133510000Y-60650000D01*
X135790000Y-60150000D02*
X135790000Y-60650000D01*
X121910000Y-50550000D02*
X121910000Y-51050000D01*
X124190000Y-50550000D02*
X124190000Y-51050000D01*
X130660000Y-60150000D02*
X130660000Y-60650000D01*
X132940000Y-60150000D02*
X132940000Y-60650000D01*
X142310000Y-50550000D02*
X142310000Y-51050000D01*
X144590000Y-50550000D02*
X144590000Y-51050000D01*
X151010000Y-60150000D02*
X151010000Y-60650000D01*
X153290000Y-60150000D02*
X153290000Y-60650000D01*
X139410000Y-50550000D02*
X139410000Y-51050000D01*
X141690000Y-50550000D02*
X141690000Y-51050000D01*
X148160000Y-60150000D02*
X148160000Y-60650000D01*
X150440000Y-60150000D02*
X150440000Y-60650000D01*
D14*
X128310000Y-43122000D02*
X120690000Y-43122000D01*
X120690000Y-46678000D02*
X128310000Y-46678000D01*
X128310000Y-43122000D02*
X128310000Y-46678000D01*
X120690000Y-46678000D02*
X120690000Y-43122000D01*
X121557210Y-46170000D02*
G75*
G03X121557210Y-46170000I-359210J0D01*
G01*
X120690000Y-44265000D02*
X121452000Y-44265000D01*
X121452000Y-44265000D02*
X121452000Y-45535000D01*
X121452000Y-45535000D02*
X120690000Y-45535000D01*
X137040000Y-53222000D02*
X129420000Y-53222000D01*
X129420000Y-56778000D02*
X137040000Y-56778000D01*
X137040000Y-53222000D02*
X137040000Y-56778000D01*
X129420000Y-56778000D02*
X129420000Y-53222000D01*
X130287210Y-56270000D02*
G75*
G03X130287210Y-56270000I-359210J0D01*
G01*
X129420000Y-54365000D02*
X130182000Y-54365000D01*
X130182000Y-54365000D02*
X130182000Y-55635000D01*
X130182000Y-55635000D02*
X129420000Y-55635000D01*
X145810000Y-43122000D02*
X138190000Y-43122000D01*
X138190000Y-46678000D02*
X145810000Y-46678000D01*
X145810000Y-43122000D02*
X145810000Y-46678000D01*
X138190000Y-46678000D02*
X138190000Y-43122000D01*
X139057210Y-46170000D02*
G75*
G03X139057210Y-46170000I-359210J0D01*
G01*
X138190000Y-44265000D02*
X138952000Y-44265000D01*
X138952000Y-44265000D02*
X138952000Y-45535000D01*
X138952000Y-45535000D02*
X138190000Y-45535000D01*
X154540000Y-53222000D02*
X146920000Y-53222000D01*
X146920000Y-56778000D02*
X154540000Y-56778000D01*
X154540000Y-53222000D02*
X154540000Y-56778000D01*
X146920000Y-56778000D02*
X146920000Y-53222000D01*
X147787210Y-56270000D02*
G75*
G03X147787210Y-56270000I-359210J0D01*
G01*
X146920000Y-54365000D02*
X147682000Y-54365000D01*
X147682000Y-54365000D02*
X147682000Y-55635000D01*
X147682000Y-55635000D02*
X146920000Y-55635000D01*
D13*
X89350000Y-75420000D02*
X91350000Y-75420000D01*
X91350000Y-72460000D02*
X89350000Y-72460000D01*
X108780000Y-126570000D02*
X108780000Y-123910000D01*
X90940000Y-126570000D02*
X108780000Y-126570000D01*
X90940000Y-123910000D02*
X108780000Y-123910000D01*
X90940000Y-126570000D02*
X90940000Y-123910000D01*
X89670000Y-126570000D02*
X88340000Y-126570000D01*
X88340000Y-126570000D02*
X88340000Y-125240000D01*
D14*
X91260000Y-152160000D02*
X100200000Y-152160000D01*
X100200000Y-152160000D02*
X100200000Y-180080000D01*
X100200000Y-180080000D02*
X91260000Y-180080000D01*
X91260000Y-180080000D02*
X91260000Y-152160000D01*
X91260000Y-163895000D02*
X92560000Y-163895000D01*
X92560000Y-163895000D02*
X92560000Y-153360000D01*
X92560000Y-153360000D02*
X98900000Y-153360000D01*
X98900000Y-153360000D02*
X98900000Y-178880000D01*
X98900000Y-178880000D02*
X92560000Y-178880000D01*
X92560000Y-178880000D02*
X92560000Y-168345000D01*
X92560000Y-168345000D02*
X91260000Y-168345000D01*
X100200000Y-165870000D02*
X100400000Y-165870000D01*
X100400000Y-165870000D02*
X100400000Y-166370000D01*
X100400000Y-166370000D02*
X100200000Y-166370000D01*
X100300000Y-165870000D02*
X100300000Y-166370000D01*
X100200000Y-177160000D02*
X100400000Y-177160000D01*
X100400000Y-177160000D02*
X100400000Y-177660000D01*
X100400000Y-177660000D02*
X100200000Y-177660000D01*
X100300000Y-177160000D02*
X100300000Y-177660000D01*
X100200000Y-154580000D02*
X100400000Y-154580000D01*
X100400000Y-154580000D02*
X100400000Y-155080000D01*
X100400000Y-155080000D02*
X100200000Y-155080000D01*
X100300000Y-154580000D02*
X100300000Y-155080000D01*
X93860000Y-155030000D02*
X95060000Y-155030000D01*
X95060000Y-155030000D02*
X94460000Y-155630000D01*
X94460000Y-155630000D02*
X93860000Y-155030000D01*
X108760000Y-152160000D02*
X117700000Y-152160000D01*
X117700000Y-152160000D02*
X117700000Y-180080000D01*
X117700000Y-180080000D02*
X108760000Y-180080000D01*
X108760000Y-180080000D02*
X108760000Y-152160000D01*
X108760000Y-163895000D02*
X110060000Y-163895000D01*
X110060000Y-163895000D02*
X110060000Y-153360000D01*
X110060000Y-153360000D02*
X116400000Y-153360000D01*
X116400000Y-153360000D02*
X116400000Y-178880000D01*
X116400000Y-178880000D02*
X110060000Y-178880000D01*
X110060000Y-178880000D02*
X110060000Y-168345000D01*
X110060000Y-168345000D02*
X108760000Y-168345000D01*
X117700000Y-165870000D02*
X117900000Y-165870000D01*
X117900000Y-165870000D02*
X117900000Y-166370000D01*
X117900000Y-166370000D02*
X117700000Y-166370000D01*
X117800000Y-165870000D02*
X117800000Y-166370000D01*
X117700000Y-177160000D02*
X117900000Y-177160000D01*
X117900000Y-177160000D02*
X117900000Y-177660000D01*
X117900000Y-177660000D02*
X117700000Y-177660000D01*
X117800000Y-177160000D02*
X117800000Y-177660000D01*
X117700000Y-154580000D02*
X117900000Y-154580000D01*
X117900000Y-154580000D02*
X117900000Y-155080000D01*
X117900000Y-155080000D02*
X117700000Y-155080000D01*
X117800000Y-154580000D02*
X117800000Y-155080000D01*
X111360000Y-155030000D02*
X112560000Y-155030000D01*
X112560000Y-155030000D02*
X111960000Y-155630000D01*
X111960000Y-155630000D02*
X111360000Y-155030000D01*
X126260000Y-152160000D02*
X135200000Y-152160000D01*
X135200000Y-152160000D02*
X135200000Y-180080000D01*
X135200000Y-180080000D02*
X126260000Y-180080000D01*
X126260000Y-180080000D02*
X126260000Y-152160000D01*
X126260000Y-163895000D02*
X127560000Y-163895000D01*
X127560000Y-163895000D02*
X127560000Y-153360000D01*
X127560000Y-153360000D02*
X133900000Y-153360000D01*
X133900000Y-153360000D02*
X133900000Y-178880000D01*
X133900000Y-178880000D02*
X127560000Y-178880000D01*
X127560000Y-178880000D02*
X127560000Y-168345000D01*
X127560000Y-168345000D02*
X126260000Y-168345000D01*
X135200000Y-165870000D02*
X135400000Y-165870000D01*
X135400000Y-165870000D02*
X135400000Y-166370000D01*
X135400000Y-166370000D02*
X135200000Y-166370000D01*
X135300000Y-165870000D02*
X135300000Y-166370000D01*
X135200000Y-177160000D02*
X135400000Y-177160000D01*
X135400000Y-177160000D02*
X135400000Y-177660000D01*
X135400000Y-177660000D02*
X135200000Y-177660000D01*
X135300000Y-177160000D02*
X135300000Y-177660000D01*
X135200000Y-154580000D02*
X135400000Y-154580000D01*
X135400000Y-154580000D02*
X135400000Y-155080000D01*
X135400000Y-155080000D02*
X135200000Y-155080000D01*
X135300000Y-154580000D02*
X135300000Y-155080000D01*
X128860000Y-155030000D02*
X130060000Y-155030000D01*
X130060000Y-155030000D02*
X129460000Y-155630000D01*
X129460000Y-155630000D02*
X128860000Y-155030000D01*
X143760000Y-152160000D02*
X152700000Y-152160000D01*
X152700000Y-152160000D02*
X152700000Y-180080000D01*
X152700000Y-180080000D02*
X143760000Y-180080000D01*
X143760000Y-180080000D02*
X143760000Y-152160000D01*
X143760000Y-163895000D02*
X145060000Y-163895000D01*
X145060000Y-163895000D02*
X145060000Y-153360000D01*
X145060000Y-153360000D02*
X151400000Y-153360000D01*
X151400000Y-153360000D02*
X151400000Y-178880000D01*
X151400000Y-178880000D02*
X145060000Y-178880000D01*
X145060000Y-178880000D02*
X145060000Y-168345000D01*
X145060000Y-168345000D02*
X143760000Y-168345000D01*
X152700000Y-165870000D02*
X152900000Y-165870000D01*
X152900000Y-165870000D02*
X152900000Y-166370000D01*
X152900000Y-166370000D02*
X152700000Y-166370000D01*
X152800000Y-165870000D02*
X152800000Y-166370000D01*
X152700000Y-177160000D02*
X152900000Y-177160000D01*
X152900000Y-177160000D02*
X152900000Y-177660000D01*
X152900000Y-177660000D02*
X152700000Y-177660000D01*
X152800000Y-177160000D02*
X152800000Y-177660000D01*
X152700000Y-154580000D02*
X152900000Y-154580000D01*
X152900000Y-154580000D02*
X152900000Y-155080000D01*
X152900000Y-155080000D02*
X152700000Y-155080000D01*
X152800000Y-154580000D02*
X152800000Y-155080000D01*
X146360000Y-155030000D02*
X147560000Y-155030000D01*
X147560000Y-155030000D02*
X146960000Y-155630000D01*
X146960000Y-155630000D02*
X146360000Y-155030000D01*
D13*
X86690000Y-151680000D02*
X86690000Y-151180000D01*
X84410000Y-151680000D02*
X84410000Y-151180000D01*
X77940000Y-142080000D02*
X77940000Y-141580000D01*
X75660000Y-142080000D02*
X75660000Y-141580000D01*
X89590000Y-151680000D02*
X89590000Y-151180000D01*
X87310000Y-151680000D02*
X87310000Y-151180000D01*
X80790000Y-142080000D02*
X80790000Y-141580000D01*
X78510000Y-142080000D02*
X78510000Y-141580000D01*
X95440000Y-142080000D02*
X95440000Y-141580000D01*
X93160000Y-142080000D02*
X93160000Y-141580000D01*
X107090000Y-151680000D02*
X107090000Y-151180000D01*
X104810000Y-151680000D02*
X104810000Y-151180000D01*
X98290000Y-142080000D02*
X98290000Y-141580000D01*
X96010000Y-142080000D02*
X96010000Y-141580000D01*
X121690000Y-151680000D02*
X121690000Y-151180000D01*
X119410000Y-151680000D02*
X119410000Y-151180000D01*
X112940000Y-142080000D02*
X112940000Y-141580000D01*
X110660000Y-142080000D02*
X110660000Y-141580000D01*
X124590000Y-151680000D02*
X124590000Y-151180000D01*
X122310000Y-151680000D02*
X122310000Y-151180000D01*
X115790000Y-142080000D02*
X115790000Y-141580000D01*
X113510000Y-142080000D02*
X113510000Y-141580000D01*
X139190000Y-151680000D02*
X139190000Y-151180000D01*
X136910000Y-151680000D02*
X136910000Y-151180000D01*
X130440000Y-142080000D02*
X130440000Y-141580000D01*
X128160000Y-142080000D02*
X128160000Y-141580000D01*
X142090000Y-151680000D02*
X142090000Y-151180000D01*
X139810000Y-151680000D02*
X139810000Y-151180000D01*
X133290000Y-142080000D02*
X133290000Y-141580000D01*
X131010000Y-142080000D02*
X131010000Y-141580000D01*
X156690000Y-151680000D02*
X156690000Y-151180000D01*
X154410000Y-151680000D02*
X154410000Y-151180000D01*
X147940000Y-142080000D02*
X147940000Y-141580000D01*
X145660000Y-142080000D02*
X145660000Y-141580000D01*
X159590000Y-151680000D02*
X159590000Y-151180000D01*
X157310000Y-151680000D02*
X157310000Y-151180000D01*
X150790000Y-142080000D02*
X150790000Y-141580000D01*
X148510000Y-142080000D02*
X148510000Y-141580000D01*
D14*
X83190000Y-159108000D02*
X90810000Y-159108000D01*
X90810000Y-155552000D02*
X83190000Y-155552000D01*
X83190000Y-159108000D02*
X83190000Y-155552000D01*
X90810000Y-155552000D02*
X90810000Y-159108000D01*
X90661210Y-156060000D02*
G75*
G03X90661210Y-156060000I-359210J0D01*
G01*
X90810000Y-157965000D02*
X90048000Y-157965000D01*
X90048000Y-157965000D02*
X90048000Y-156695000D01*
X90048000Y-156695000D02*
X90810000Y-156695000D01*
X74420000Y-149008000D02*
X82040000Y-149008000D01*
X82040000Y-145452000D02*
X74420000Y-145452000D01*
X74420000Y-149008000D02*
X74420000Y-145452000D01*
X82040000Y-145452000D02*
X82040000Y-149008000D01*
X81891210Y-145960000D02*
G75*
G03X81891210Y-145960000I-359210J0D01*
G01*
X82040000Y-147865000D02*
X81278000Y-147865000D01*
X81278000Y-147865000D02*
X81278000Y-146595000D01*
X81278000Y-146595000D02*
X82040000Y-146595000D01*
X100690000Y-159108000D02*
X108310000Y-159108000D01*
X108310000Y-155552000D02*
X100690000Y-155552000D01*
X100690000Y-159108000D02*
X100690000Y-155552000D01*
X108310000Y-155552000D02*
X108310000Y-159108000D01*
X108161210Y-156060000D02*
G75*
G03X108161210Y-156060000I-359210J0D01*
G01*
X108310000Y-157965000D02*
X107548000Y-157965000D01*
X107548000Y-157965000D02*
X107548000Y-156695000D01*
X107548000Y-156695000D02*
X108310000Y-156695000D01*
X91920000Y-149008000D02*
X99540000Y-149008000D01*
X99540000Y-145452000D02*
X91920000Y-145452000D01*
X91920000Y-149008000D02*
X91920000Y-145452000D01*
X99540000Y-145452000D02*
X99540000Y-149008000D01*
X99391210Y-145960000D02*
G75*
G03X99391210Y-145960000I-359210J0D01*
G01*
X99540000Y-147865000D02*
X98778000Y-147865000D01*
X98778000Y-147865000D02*
X98778000Y-146595000D01*
X98778000Y-146595000D02*
X99540000Y-146595000D01*
X118190000Y-159108000D02*
X125810000Y-159108000D01*
X125810000Y-155552000D02*
X118190000Y-155552000D01*
X118190000Y-159108000D02*
X118190000Y-155552000D01*
X125810000Y-155552000D02*
X125810000Y-159108000D01*
X125661210Y-156060000D02*
G75*
G03X125661210Y-156060000I-359210J0D01*
G01*
X125810000Y-157965000D02*
X125048000Y-157965000D01*
X125048000Y-157965000D02*
X125048000Y-156695000D01*
X125048000Y-156695000D02*
X125810000Y-156695000D01*
X109420000Y-149008000D02*
X117040000Y-149008000D01*
X117040000Y-145452000D02*
X109420000Y-145452000D01*
X109420000Y-149008000D02*
X109420000Y-145452000D01*
X117040000Y-145452000D02*
X117040000Y-149008000D01*
X116891210Y-145960000D02*
G75*
G03X116891210Y-145960000I-359210J0D01*
G01*
X117040000Y-147865000D02*
X116278000Y-147865000D01*
X116278000Y-147865000D02*
X116278000Y-146595000D01*
X116278000Y-146595000D02*
X117040000Y-146595000D01*
X135690000Y-159108000D02*
X143310000Y-159108000D01*
X143310000Y-155552000D02*
X135690000Y-155552000D01*
X135690000Y-159108000D02*
X135690000Y-155552000D01*
X143310000Y-155552000D02*
X143310000Y-159108000D01*
X143161210Y-156060000D02*
G75*
G03X143161210Y-156060000I-359210J0D01*
G01*
X143310000Y-157965000D02*
X142548000Y-157965000D01*
X142548000Y-157965000D02*
X142548000Y-156695000D01*
X142548000Y-156695000D02*
X143310000Y-156695000D01*
X126920000Y-149008000D02*
X134540000Y-149008000D01*
X134540000Y-145452000D02*
X126920000Y-145452000D01*
X126920000Y-149008000D02*
X126920000Y-145452000D01*
X134540000Y-145452000D02*
X134540000Y-149008000D01*
X134391210Y-145960000D02*
G75*
G03X134391210Y-145960000I-359210J0D01*
G01*
X134540000Y-147865000D02*
X133778000Y-147865000D01*
X133778000Y-147865000D02*
X133778000Y-146595000D01*
X133778000Y-146595000D02*
X134540000Y-146595000D01*
X153190000Y-159108000D02*
X160810000Y-159108000D01*
X160810000Y-155552000D02*
X153190000Y-155552000D01*
X153190000Y-159108000D02*
X153190000Y-155552000D01*
X160810000Y-155552000D02*
X160810000Y-159108000D01*
X160661210Y-156060000D02*
G75*
G03X160661210Y-156060000I-359210J0D01*
G01*
X160810000Y-157965000D02*
X160048000Y-157965000D01*
X160048000Y-157965000D02*
X160048000Y-156695000D01*
X160048000Y-156695000D02*
X160810000Y-156695000D01*
X144420000Y-149008000D02*
X152040000Y-149008000D01*
X152040000Y-145452000D02*
X144420000Y-145452000D01*
X144420000Y-149008000D02*
X144420000Y-145452000D01*
X152040000Y-145452000D02*
X152040000Y-149008000D01*
X151891210Y-145960000D02*
G75*
G03X151891210Y-145960000I-359210J0D01*
G01*
X152040000Y-147865000D02*
X151278000Y-147865000D01*
X151278000Y-147865000D02*
X151278000Y-146595000D01*
X151278000Y-146595000D02*
X152040000Y-146595000D01*
D13*
X117300000Y-126810000D02*
X115300000Y-126810000D01*
X115300000Y-129770000D02*
X117300000Y-129770000D01*
X96490000Y-83230000D02*
X96490000Y-80570000D01*
X73570000Y-83230000D02*
X96490000Y-83230000D01*
X73570000Y-80570000D02*
X96490000Y-80570000D01*
X73570000Y-83230000D02*
X73570000Y-80570000D01*
X72300000Y-83230000D02*
X70970000Y-83230000D01*
X70970000Y-83230000D02*
X70970000Y-81900000D01*
X126560000Y-122830000D02*
X126560000Y-120170000D01*
X113800000Y-122830000D02*
X126560000Y-122830000D01*
X113800000Y-120170000D02*
X126560000Y-120170000D01*
X113800000Y-122830000D02*
X113800000Y-120170000D01*
X112530000Y-122830000D02*
X111200000Y-122830000D01*
X111200000Y-122830000D02*
X111200000Y-121500000D01*
X145030000Y-78310000D02*
X145030000Y-75650000D01*
X132270000Y-78310000D02*
X145030000Y-78310000D01*
X132270000Y-75650000D02*
X145030000Y-75650000D01*
X132270000Y-78310000D02*
X132270000Y-75650000D01*
X131000000Y-78310000D02*
X129670000Y-78310000D01*
X129670000Y-78310000D02*
X129670000Y-76980000D01*
D15*
G36*
X93819555Y-112398251D02*
X93801643Y-112482477D01*
X93751800Y-112629716D01*
X93700286Y-112764075D01*
X93482525Y-113378052D01*
X93312013Y-114006309D01*
X93290009Y-114103000D01*
X93260340Y-114247186D01*
X93238804Y-114383416D01*
X93224198Y-114527753D01*
X93215322Y-114696261D01*
X93210974Y-114905001D01*
X93209952Y-115170037D01*
X93209955Y-115173428D01*
X93210890Y-115424997D01*
X93214119Y-115619246D01*
X93221042Y-115771419D01*
X93233056Y-115896763D01*
X93251560Y-116010522D01*
X93277952Y-116127942D01*
X93308125Y-116243857D01*
X93410157Y-116555988D01*
X93549143Y-116884780D01*
X93712288Y-117203703D01*
X93886797Y-117486226D01*
X93948927Y-117572576D01*
X94302504Y-117982371D01*
X94718704Y-118358387D01*
X95195413Y-118699641D01*
X95730518Y-119005156D01*
X96321906Y-119273949D01*
X96967465Y-119505043D01*
X97665080Y-119697455D01*
X98412639Y-119850207D01*
X99066286Y-119945775D01*
X99514271Y-119988682D01*
X100015966Y-120016370D01*
X100554157Y-120029013D01*
X101111634Y-120026785D01*
X101671186Y-120009859D01*
X102215599Y-119978409D01*
X102727664Y-119932608D01*
X102948857Y-119906609D01*
X103595362Y-119810505D01*
X104251406Y-119687426D01*
X104901504Y-119541232D01*
X105530175Y-119375779D01*
X106121935Y-119194926D01*
X106661303Y-119002530D01*
X106802737Y-118946338D01*
X106974895Y-118879111D01*
X107082457Y-118843968D01*
X107125782Y-118840626D01*
X107105227Y-118868801D01*
X107021151Y-118928208D01*
X106873909Y-119018563D01*
X106663861Y-119139582D01*
X106391364Y-119290981D01*
X106318991Y-119330563D01*
X105447424Y-119770239D01*
X104533628Y-120163318D01*
X103589200Y-120506299D01*
X102625738Y-120795683D01*
X101654840Y-121027968D01*
X100688104Y-121199655D01*
X99780952Y-121303703D01*
X99596212Y-121315099D01*
X99358484Y-121324063D01*
X99084859Y-121330486D01*
X98792431Y-121334255D01*
X98498291Y-121335258D01*
X98219531Y-121333386D01*
X97973245Y-121328525D01*
X97776523Y-121320564D01*
X97723714Y-121317113D01*
X97506941Y-121295500D01*
X97241846Y-121260767D01*
X96950723Y-121216536D01*
X96655865Y-121166433D01*
X96379563Y-121114079D01*
X96144111Y-121063099D01*
X96109000Y-121054646D01*
X95455003Y-120866068D01*
X94851141Y-120634377D01*
X94299274Y-120361241D01*
X93801260Y-120048324D01*
X93358960Y-119697293D01*
X92974234Y-119309814D01*
X92648939Y-118887552D01*
X92384937Y-118432174D01*
X92184086Y-117945346D01*
X92048247Y-117428733D01*
X92045435Y-117414058D01*
X92015199Y-117189928D01*
X91997387Y-116917203D01*
X91991963Y-116618780D01*
X91998893Y-116317559D01*
X92018142Y-116036437D01*
X92047880Y-115808428D01*
X92176026Y-115262527D01*
X92371135Y-114701443D01*
X92630542Y-114130453D01*
X92951583Y-113554830D01*
X93331590Y-112979850D01*
X93759125Y-112421485D01*
X93805420Y-112377699D01*
X93819555Y-112398251D01*
X93819555Y-112398251D01*
G37*
X93819555Y-112398251D02*
X93801643Y-112482477D01*
X93751800Y-112629716D01*
X93700286Y-112764075D01*
X93482525Y-113378052D01*
X93312013Y-114006309D01*
X93290009Y-114103000D01*
X93260340Y-114247186D01*
X93238804Y-114383416D01*
X93224198Y-114527753D01*
X93215322Y-114696261D01*
X93210974Y-114905001D01*
X93209952Y-115170037D01*
X93209955Y-115173428D01*
X93210890Y-115424997D01*
X93214119Y-115619246D01*
X93221042Y-115771419D01*
X93233056Y-115896763D01*
X93251560Y-116010522D01*
X93277952Y-116127942D01*
X93308125Y-116243857D01*
X93410157Y-116555988D01*
X93549143Y-116884780D01*
X93712288Y-117203703D01*
X93886797Y-117486226D01*
X93948927Y-117572576D01*
X94302504Y-117982371D01*
X94718704Y-118358387D01*
X95195413Y-118699641D01*
X95730518Y-119005156D01*
X96321906Y-119273949D01*
X96967465Y-119505043D01*
X97665080Y-119697455D01*
X98412639Y-119850207D01*
X99066286Y-119945775D01*
X99514271Y-119988682D01*
X100015966Y-120016370D01*
X100554157Y-120029013D01*
X101111634Y-120026785D01*
X101671186Y-120009859D01*
X102215599Y-119978409D01*
X102727664Y-119932608D01*
X102948857Y-119906609D01*
X103595362Y-119810505D01*
X104251406Y-119687426D01*
X104901504Y-119541232D01*
X105530175Y-119375779D01*
X106121935Y-119194926D01*
X106661303Y-119002530D01*
X106802737Y-118946338D01*
X106974895Y-118879111D01*
X107082457Y-118843968D01*
X107125782Y-118840626D01*
X107105227Y-118868801D01*
X107021151Y-118928208D01*
X106873909Y-119018563D01*
X106663861Y-119139582D01*
X106391364Y-119290981D01*
X106318991Y-119330563D01*
X105447424Y-119770239D01*
X104533628Y-120163318D01*
X103589200Y-120506299D01*
X102625738Y-120795683D01*
X101654840Y-121027968D01*
X100688104Y-121199655D01*
X99780952Y-121303703D01*
X99596212Y-121315099D01*
X99358484Y-121324063D01*
X99084859Y-121330486D01*
X98792431Y-121334255D01*
X98498291Y-121335258D01*
X98219531Y-121333386D01*
X97973245Y-121328525D01*
X97776523Y-121320564D01*
X97723714Y-121317113D01*
X97506941Y-121295500D01*
X97241846Y-121260767D01*
X96950723Y-121216536D01*
X96655865Y-121166433D01*
X96379563Y-121114079D01*
X96144111Y-121063099D01*
X96109000Y-121054646D01*
X95455003Y-120866068D01*
X94851141Y-120634377D01*
X94299274Y-120361241D01*
X93801260Y-120048324D01*
X93358960Y-119697293D01*
X92974234Y-119309814D01*
X92648939Y-118887552D01*
X92384937Y-118432174D01*
X92184086Y-117945346D01*
X92048247Y-117428733D01*
X92045435Y-117414058D01*
X92015199Y-117189928D01*
X91997387Y-116917203D01*
X91991963Y-116618780D01*
X91998893Y-116317559D01*
X92018142Y-116036437D01*
X92047880Y-115808428D01*
X92176026Y-115262527D01*
X92371135Y-114701443D01*
X92630542Y-114130453D01*
X92951583Y-113554830D01*
X93331590Y-112979850D01*
X93759125Y-112421485D01*
X93805420Y-112377699D01*
X93819555Y-112398251D01*
G36*
X99433715Y-111821211D02*
X99688725Y-111829946D01*
X99900169Y-111848424D01*
X100082472Y-111879145D01*
X100250059Y-111924607D01*
X100417355Y-111987308D01*
X100598785Y-112069748D01*
X100618042Y-112079067D01*
X100890716Y-112244963D01*
X101155433Y-112467896D01*
X101398719Y-112732541D01*
X101607102Y-113023575D01*
X101767105Y-113325673D01*
X101810794Y-113435642D01*
X101874622Y-113613143D01*
X103412396Y-113613143D01*
X103580664Y-114093928D01*
X103642628Y-114271083D01*
X103722396Y-114499302D01*
X103813870Y-114761131D01*
X103910952Y-115039111D01*
X104007543Y-115315787D01*
X104048397Y-115432843D01*
X104347861Y-116290973D01*
X105281023Y-113613143D01*
X106078251Y-113613143D01*
X106348856Y-113614011D01*
X106553939Y-113616890D01*
X106700529Y-113622186D01*
X106795658Y-113630309D01*
X106846357Y-113641666D01*
X106859655Y-113656667D01*
X106859157Y-113658500D01*
X106844737Y-113699656D01*
X106808449Y-113803630D01*
X106752286Y-113964703D01*
X106678240Y-114177154D01*
X106588304Y-114435266D01*
X106484471Y-114733318D01*
X106368733Y-115065592D01*
X106243083Y-115426368D01*
X106109514Y-115809927D01*
X106034226Y-116026143D01*
X105897132Y-116419222D01*
X105766614Y-116792193D01*
X105644683Y-117139389D01*
X105533350Y-117455140D01*
X105434627Y-117733780D01*
X105350525Y-117969639D01*
X105283055Y-118157051D01*
X105234229Y-118290347D01*
X105206058Y-118363860D01*
X105200097Y-118376754D01*
X105161603Y-118388138D01*
X105063972Y-118410008D01*
X104919496Y-118440023D01*
X104740467Y-118475841D01*
X104539177Y-118515118D01*
X104327918Y-118555514D01*
X104118981Y-118594685D01*
X103924659Y-118630289D01*
X103757243Y-118659985D01*
X103629025Y-118681429D01*
X103552297Y-118692280D01*
X103539705Y-118693143D01*
X103529523Y-118665550D01*
X103529429Y-118661228D01*
X103540895Y-118617868D01*
X103572623Y-118518186D01*
X103620608Y-118374254D01*
X103680844Y-118198144D01*
X103729000Y-118059769D01*
X103795338Y-117869572D01*
X103852343Y-117704455D01*
X103896044Y-117576055D01*
X103922470Y-117496012D01*
X103928571Y-117474826D01*
X103897623Y-117462924D01*
X103844321Y-117459428D01*
X103664524Y-117428471D01*
X103471777Y-117343399D01*
X103283707Y-117215913D01*
X103117943Y-117057712D01*
X103004185Y-116901807D01*
X102973857Y-116836384D01*
X102922786Y-116710123D01*
X102853854Y-116530801D01*
X102769945Y-116306197D01*
X102673943Y-116044089D01*
X102568731Y-115752255D01*
X102457195Y-115438475D01*
X102376587Y-115209038D01*
X101837658Y-113667571D01*
X100980855Y-113657850D01*
X100124052Y-113648128D01*
X100101145Y-113543834D01*
X100035457Y-113376078D01*
X99921254Y-113208302D01*
X99777919Y-113066104D01*
X99696824Y-113009895D01*
X99598697Y-112958381D01*
X99502969Y-112925946D01*
X99385792Y-112907146D01*
X99223317Y-112896539D01*
X99195080Y-112895378D01*
X99028458Y-112891322D01*
X98911436Y-112896994D01*
X98821327Y-112915682D01*
X98735448Y-112950674D01*
X98703722Y-112966590D01*
X98538408Y-113080790D01*
X98430649Y-113217393D01*
X98383618Y-113366295D01*
X98400488Y-113517388D01*
X98484433Y-113660564D01*
X98485450Y-113661727D01*
X98569627Y-113741513D01*
X98678029Y-113811885D01*
X98820408Y-113876700D01*
X99006518Y-113939817D01*
X99246114Y-114005096D01*
X99513325Y-114068384D01*
X99973245Y-114179457D01*
X100366796Y-114290985D01*
X100700131Y-114406095D01*
X100979403Y-114527914D01*
X101210764Y-114659571D01*
X101400369Y-114804194D01*
X101554370Y-114964911D01*
X101678920Y-115144849D01*
X101698540Y-115179257D01*
X101745087Y-115267681D01*
X101775798Y-115344824D01*
X101793947Y-115429392D01*
X101802810Y-115540091D01*
X101805662Y-115695628D01*
X101805857Y-115792167D01*
X101804941Y-115974405D01*
X101799477Y-116104883D01*
X101785390Y-116204410D01*
X101758604Y-116293795D01*
X101715047Y-116393849D01*
X101669923Y-116486378D01*
X101539710Y-116710065D01*
X101379128Y-116902675D01*
X101305609Y-116974353D01*
X101111153Y-117140155D01*
X100917065Y-117268765D01*
X100700285Y-117372915D01*
X100437752Y-117465337D01*
X100389918Y-117479899D01*
X100259297Y-117516680D01*
X100138719Y-117543844D01*
X100011818Y-117563335D01*
X99862231Y-117577097D01*
X99673594Y-117587075D01*
X99429544Y-117595211D01*
X99416003Y-117595593D01*
X98932785Y-117597728D01*
X98511747Y-117574195D01*
X98146653Y-117523525D01*
X97831264Y-117444247D01*
X97559344Y-117334893D01*
X97324654Y-117193991D01*
X97168522Y-117065990D01*
X96922887Y-116788912D01*
X96732267Y-116466298D01*
X96598864Y-116102387D01*
X96548209Y-115871928D01*
X96528100Y-115754000D01*
X98298658Y-115754000D01*
X98341551Y-115890071D01*
X98448191Y-116121878D01*
X98604570Y-116305738D01*
X98726488Y-116393800D01*
X98899651Y-116464504D01*
X99112832Y-116506474D01*
X99338561Y-116517658D01*
X99549370Y-116496006D01*
X99664183Y-116463812D01*
X99840856Y-116368592D01*
X99964997Y-116244021D01*
X100032569Y-116100758D01*
X100039541Y-115949465D01*
X99981878Y-115800802D01*
X99937407Y-115741702D01*
X99854327Y-115662755D01*
X99747647Y-115593094D01*
X99607709Y-115528931D01*
X99424851Y-115466479D01*
X99189416Y-115401949D01*
X98891743Y-115331555D01*
X98890786Y-115331340D01*
X98433247Y-115220722D01*
X98042166Y-115108513D01*
X97711437Y-114992130D01*
X97434952Y-114868993D01*
X97206605Y-114736519D01*
X97020289Y-114592126D01*
X96929109Y-114501932D01*
X96772589Y-114299599D01*
X96671489Y-114084550D01*
X96617254Y-113835831D01*
X96606057Y-113710727D01*
X96619443Y-113367208D01*
X96699518Y-113047488D01*
X96843247Y-112755227D01*
X97047597Y-112494089D01*
X97309534Y-112267736D01*
X97626023Y-112079830D01*
X97994031Y-111934035D01*
X98104714Y-111901578D01*
X98216981Y-111873383D01*
X98326514Y-111852551D01*
X98447353Y-111837950D01*
X98593539Y-111828448D01*
X98779113Y-111822915D01*
X99018115Y-111820219D01*
X99120714Y-111819723D01*
X99433715Y-111821211D01*
X99433715Y-111821211D01*
G37*
X99433715Y-111821211D02*
X99688725Y-111829946D01*
X99900169Y-111848424D01*
X100082472Y-111879145D01*
X100250059Y-111924607D01*
X100417355Y-111987308D01*
X100598785Y-112069748D01*
X100618042Y-112079067D01*
X100890716Y-112244963D01*
X101155433Y-112467896D01*
X101398719Y-112732541D01*
X101607102Y-113023575D01*
X101767105Y-113325673D01*
X101810794Y-113435642D01*
X101874622Y-113613143D01*
X103412396Y-113613143D01*
X103580664Y-114093928D01*
X103642628Y-114271083D01*
X103722396Y-114499302D01*
X103813870Y-114761131D01*
X103910952Y-115039111D01*
X104007543Y-115315787D01*
X104048397Y-115432843D01*
X104347861Y-116290973D01*
X105281023Y-113613143D01*
X106078251Y-113613143D01*
X106348856Y-113614011D01*
X106553939Y-113616890D01*
X106700529Y-113622186D01*
X106795658Y-113630309D01*
X106846357Y-113641666D01*
X106859655Y-113656667D01*
X106859157Y-113658500D01*
X106844737Y-113699656D01*
X106808449Y-113803630D01*
X106752286Y-113964703D01*
X106678240Y-114177154D01*
X106588304Y-114435266D01*
X106484471Y-114733318D01*
X106368733Y-115065592D01*
X106243083Y-115426368D01*
X106109514Y-115809927D01*
X106034226Y-116026143D01*
X105897132Y-116419222D01*
X105766614Y-116792193D01*
X105644683Y-117139389D01*
X105533350Y-117455140D01*
X105434627Y-117733780D01*
X105350525Y-117969639D01*
X105283055Y-118157051D01*
X105234229Y-118290347D01*
X105206058Y-118363860D01*
X105200097Y-118376754D01*
X105161603Y-118388138D01*
X105063972Y-118410008D01*
X104919496Y-118440023D01*
X104740467Y-118475841D01*
X104539177Y-118515118D01*
X104327918Y-118555514D01*
X104118981Y-118594685D01*
X103924659Y-118630289D01*
X103757243Y-118659985D01*
X103629025Y-118681429D01*
X103552297Y-118692280D01*
X103539705Y-118693143D01*
X103529523Y-118665550D01*
X103529429Y-118661228D01*
X103540895Y-118617868D01*
X103572623Y-118518186D01*
X103620608Y-118374254D01*
X103680844Y-118198144D01*
X103729000Y-118059769D01*
X103795338Y-117869572D01*
X103852343Y-117704455D01*
X103896044Y-117576055D01*
X103922470Y-117496012D01*
X103928571Y-117474826D01*
X103897623Y-117462924D01*
X103844321Y-117459428D01*
X103664524Y-117428471D01*
X103471777Y-117343399D01*
X103283707Y-117215913D01*
X103117943Y-117057712D01*
X103004185Y-116901807D01*
X102973857Y-116836384D01*
X102922786Y-116710123D01*
X102853854Y-116530801D01*
X102769945Y-116306197D01*
X102673943Y-116044089D01*
X102568731Y-115752255D01*
X102457195Y-115438475D01*
X102376587Y-115209038D01*
X101837658Y-113667571D01*
X100980855Y-113657850D01*
X100124052Y-113648128D01*
X100101145Y-113543834D01*
X100035457Y-113376078D01*
X99921254Y-113208302D01*
X99777919Y-113066104D01*
X99696824Y-113009895D01*
X99598697Y-112958381D01*
X99502969Y-112925946D01*
X99385792Y-112907146D01*
X99223317Y-112896539D01*
X99195080Y-112895378D01*
X99028458Y-112891322D01*
X98911436Y-112896994D01*
X98821327Y-112915682D01*
X98735448Y-112950674D01*
X98703722Y-112966590D01*
X98538408Y-113080790D01*
X98430649Y-113217393D01*
X98383618Y-113366295D01*
X98400488Y-113517388D01*
X98484433Y-113660564D01*
X98485450Y-113661727D01*
X98569627Y-113741513D01*
X98678029Y-113811885D01*
X98820408Y-113876700D01*
X99006518Y-113939817D01*
X99246114Y-114005096D01*
X99513325Y-114068384D01*
X99973245Y-114179457D01*
X100366796Y-114290985D01*
X100700131Y-114406095D01*
X100979403Y-114527914D01*
X101210764Y-114659571D01*
X101400369Y-114804194D01*
X101554370Y-114964911D01*
X101678920Y-115144849D01*
X101698540Y-115179257D01*
X101745087Y-115267681D01*
X101775798Y-115344824D01*
X101793947Y-115429392D01*
X101802810Y-115540091D01*
X101805662Y-115695628D01*
X101805857Y-115792167D01*
X101804941Y-115974405D01*
X101799477Y-116104883D01*
X101785390Y-116204410D01*
X101758604Y-116293795D01*
X101715047Y-116393849D01*
X101669923Y-116486378D01*
X101539710Y-116710065D01*
X101379128Y-116902675D01*
X101305609Y-116974353D01*
X101111153Y-117140155D01*
X100917065Y-117268765D01*
X100700285Y-117372915D01*
X100437752Y-117465337D01*
X100389918Y-117479899D01*
X100259297Y-117516680D01*
X100138719Y-117543844D01*
X100011818Y-117563335D01*
X99862231Y-117577097D01*
X99673594Y-117587075D01*
X99429544Y-117595211D01*
X99416003Y-117595593D01*
X98932785Y-117597728D01*
X98511747Y-117574195D01*
X98146653Y-117523525D01*
X97831264Y-117444247D01*
X97559344Y-117334893D01*
X97324654Y-117193991D01*
X97168522Y-117065990D01*
X96922887Y-116788912D01*
X96732267Y-116466298D01*
X96598864Y-116102387D01*
X96548209Y-115871928D01*
X96528100Y-115754000D01*
X98298658Y-115754000D01*
X98341551Y-115890071D01*
X98448191Y-116121878D01*
X98604570Y-116305738D01*
X98726488Y-116393800D01*
X98899651Y-116464504D01*
X99112832Y-116506474D01*
X99338561Y-116517658D01*
X99549370Y-116496006D01*
X99664183Y-116463812D01*
X99840856Y-116368592D01*
X99964997Y-116244021D01*
X100032569Y-116100758D01*
X100039541Y-115949465D01*
X99981878Y-115800802D01*
X99937407Y-115741702D01*
X99854327Y-115662755D01*
X99747647Y-115593094D01*
X99607709Y-115528931D01*
X99424851Y-115466479D01*
X99189416Y-115401949D01*
X98891743Y-115331555D01*
X98890786Y-115331340D01*
X98433247Y-115220722D01*
X98042166Y-115108513D01*
X97711437Y-114992130D01*
X97434952Y-114868993D01*
X97206605Y-114736519D01*
X97020289Y-114592126D01*
X96929109Y-114501932D01*
X96772589Y-114299599D01*
X96671489Y-114084550D01*
X96617254Y-113835831D01*
X96606057Y-113710727D01*
X96619443Y-113367208D01*
X96699518Y-113047488D01*
X96843247Y-112755227D01*
X97047597Y-112494089D01*
X97309534Y-112267736D01*
X97626023Y-112079830D01*
X97994031Y-111934035D01*
X98104714Y-111901578D01*
X98216981Y-111873383D01*
X98326514Y-111852551D01*
X98447353Y-111837950D01*
X98593539Y-111828448D01*
X98779113Y-111822915D01*
X99018115Y-111820219D01*
X99120714Y-111819723D01*
X99433715Y-111821211D01*
G36*
X114715976Y-113560157D02*
X114989450Y-113576318D01*
X115225326Y-113603710D01*
X115340429Y-113625423D01*
X115738160Y-113747357D01*
X116082881Y-113918647D01*
X116373663Y-114138109D01*
X116609577Y-114404559D01*
X116789693Y-114716813D01*
X116913082Y-115073689D01*
X116978815Y-115474003D01*
X116990163Y-115726786D01*
X116991429Y-115971714D01*
X113584043Y-115971714D01*
X113632394Y-116132372D01*
X113716966Y-116333668D01*
X113840203Y-116483832D01*
X114016395Y-116600087D01*
X114023372Y-116603592D01*
X114251641Y-116680474D01*
X114494351Y-116698145D01*
X114731817Y-116657794D01*
X114944358Y-116560608D01*
X114965030Y-116546736D01*
X115000523Y-116525902D01*
X115045814Y-116509859D01*
X115110151Y-116497990D01*
X115202781Y-116489681D01*
X115332952Y-116484316D01*
X115509911Y-116481279D01*
X115742907Y-116479954D01*
X115971959Y-116479714D01*
X116220413Y-116480888D01*
X116443045Y-116484192D01*
X116630156Y-116489296D01*
X116772049Y-116495874D01*
X116859028Y-116503595D01*
X116882571Y-116510556D01*
X116857761Y-116571236D01*
X116790837Y-116667393D01*
X116693056Y-116785329D01*
X116575679Y-116911349D01*
X116466210Y-117017059D01*
X116184857Y-117231767D01*
X115862949Y-117396385D01*
X115545208Y-117502332D01*
X115383489Y-117533855D01*
X115166100Y-117559442D01*
X114909733Y-117578665D01*
X114631080Y-117591098D01*
X114346833Y-117596315D01*
X114073685Y-117593890D01*
X113828326Y-117583397D01*
X113627450Y-117564409D01*
X113556680Y-117553106D01*
X113198715Y-117465334D01*
X112894876Y-117345217D01*
X112631165Y-117185424D01*
X112393585Y-116978625D01*
X112328714Y-116910065D01*
X112119101Y-116642370D01*
X111971281Y-116362303D01*
X111880303Y-116056528D01*
X111841215Y-115711709D01*
X111838857Y-115590714D01*
X111865089Y-115216140D01*
X111884663Y-115135977D01*
X113616857Y-115135977D01*
X113619301Y-115160001D01*
X113632581Y-115178146D01*
X113665620Y-115191236D01*
X113727344Y-115200095D01*
X113826675Y-115205548D01*
X113972538Y-115208420D01*
X114173855Y-115209533D01*
X114415143Y-115209714D01*
X114682544Y-115208982D01*
X114885379Y-115206453D01*
X115031639Y-115201627D01*
X115129318Y-115194005D01*
X115186408Y-115183089D01*
X115210902Y-115168378D01*
X115213429Y-115159848D01*
X115191980Y-115046591D01*
X115136647Y-114907262D01*
X115060945Y-114770741D01*
X114985628Y-114673165D01*
X114820213Y-114551662D01*
X114620575Y-114481330D01*
X114403456Y-114461676D01*
X114185600Y-114492208D01*
X113983751Y-114572434D01*
X113814650Y-114701862D01*
X113809089Y-114707749D01*
X113731564Y-114815540D01*
X113664960Y-114949926D01*
X113623624Y-115078950D01*
X113616857Y-115135977D01*
X111884663Y-115135977D01*
X111946051Y-114884580D01*
X112085144Y-114587748D01*
X112285768Y-114317356D01*
X112416133Y-114183891D01*
X112693196Y-113962936D01*
X113009189Y-113788973D01*
X113376199Y-113655498D01*
X113423021Y-113642230D01*
X113610890Y-113604631D01*
X113852360Y-113577464D01*
X114129191Y-113560890D01*
X114423143Y-113555067D01*
X114715976Y-113560157D01*
X114715976Y-113560157D01*
G37*
X114715976Y-113560157D02*
X114989450Y-113576318D01*
X115225326Y-113603710D01*
X115340429Y-113625423D01*
X115738160Y-113747357D01*
X116082881Y-113918647D01*
X116373663Y-114138109D01*
X116609577Y-114404559D01*
X116789693Y-114716813D01*
X116913082Y-115073689D01*
X116978815Y-115474003D01*
X116990163Y-115726786D01*
X116991429Y-115971714D01*
X113584043Y-115971714D01*
X113632394Y-116132372D01*
X113716966Y-116333668D01*
X113840203Y-116483832D01*
X114016395Y-116600087D01*
X114023372Y-116603592D01*
X114251641Y-116680474D01*
X114494351Y-116698145D01*
X114731817Y-116657794D01*
X114944358Y-116560608D01*
X114965030Y-116546736D01*
X115000523Y-116525902D01*
X115045814Y-116509859D01*
X115110151Y-116497990D01*
X115202781Y-116489681D01*
X115332952Y-116484316D01*
X115509911Y-116481279D01*
X115742907Y-116479954D01*
X115971959Y-116479714D01*
X116220413Y-116480888D01*
X116443045Y-116484192D01*
X116630156Y-116489296D01*
X116772049Y-116495874D01*
X116859028Y-116503595D01*
X116882571Y-116510556D01*
X116857761Y-116571236D01*
X116790837Y-116667393D01*
X116693056Y-116785329D01*
X116575679Y-116911349D01*
X116466210Y-117017059D01*
X116184857Y-117231767D01*
X115862949Y-117396385D01*
X115545208Y-117502332D01*
X115383489Y-117533855D01*
X115166100Y-117559442D01*
X114909733Y-117578665D01*
X114631080Y-117591098D01*
X114346833Y-117596315D01*
X114073685Y-117593890D01*
X113828326Y-117583397D01*
X113627450Y-117564409D01*
X113556680Y-117553106D01*
X113198715Y-117465334D01*
X112894876Y-117345217D01*
X112631165Y-117185424D01*
X112393585Y-116978625D01*
X112328714Y-116910065D01*
X112119101Y-116642370D01*
X111971281Y-116362303D01*
X111880303Y-116056528D01*
X111841215Y-115711709D01*
X111838857Y-115590714D01*
X111865089Y-115216140D01*
X111884663Y-115135977D01*
X113616857Y-115135977D01*
X113619301Y-115160001D01*
X113632581Y-115178146D01*
X113665620Y-115191236D01*
X113727344Y-115200095D01*
X113826675Y-115205548D01*
X113972538Y-115208420D01*
X114173855Y-115209533D01*
X114415143Y-115209714D01*
X114682544Y-115208982D01*
X114885379Y-115206453D01*
X115031639Y-115201627D01*
X115129318Y-115194005D01*
X115186408Y-115183089D01*
X115210902Y-115168378D01*
X115213429Y-115159848D01*
X115191980Y-115046591D01*
X115136647Y-114907262D01*
X115060945Y-114770741D01*
X114985628Y-114673165D01*
X114820213Y-114551662D01*
X114620575Y-114481330D01*
X114403456Y-114461676D01*
X114185600Y-114492208D01*
X113983751Y-114572434D01*
X113814650Y-114701862D01*
X113809089Y-114707749D01*
X113731564Y-114815540D01*
X113664960Y-114949926D01*
X113623624Y-115078950D01*
X113616857Y-115135977D01*
X111884663Y-115135977D01*
X111946051Y-114884580D01*
X112085144Y-114587748D01*
X112285768Y-114317356D01*
X112416133Y-114183891D01*
X112693196Y-113962936D01*
X113009189Y-113788973D01*
X113376199Y-113655498D01*
X113423021Y-113642230D01*
X113610890Y-113604631D01*
X113852360Y-113577464D01*
X114129191Y-113560890D01*
X114423143Y-113555067D01*
X114715976Y-113560157D01*
G36*
X122565866Y-112413749D02*
X122571578Y-112508858D01*
X122575990Y-112652973D01*
X122578718Y-112834312D01*
X122579429Y-112996285D01*
X122579429Y-113613143D01*
X123450286Y-113613143D01*
X123450286Y-114738000D01*
X122579429Y-114738000D01*
X122579429Y-115592516D01*
X122580631Y-115895866D01*
X122585070Y-116134871D01*
X122593996Y-116317733D01*
X122608659Y-116452650D01*
X122630306Y-116547822D01*
X122660188Y-116611450D01*
X122699554Y-116651733D01*
X122744340Y-116674888D01*
X122805058Y-116684786D01*
X122918675Y-116692470D01*
X123065530Y-116696836D01*
X123144825Y-116697428D01*
X123486571Y-116697428D01*
X123486571Y-117110482D01*
X123485854Y-117288890D01*
X123482065Y-117407912D01*
X123472746Y-117480731D01*
X123455439Y-117520528D01*
X123427688Y-117540486D01*
X123404929Y-117548444D01*
X123319805Y-117562673D01*
X123176862Y-117574006D01*
X122990795Y-117582377D01*
X122776301Y-117587718D01*
X122548075Y-117589965D01*
X122320815Y-117589051D01*
X122109217Y-117584909D01*
X121927977Y-117577474D01*
X121791790Y-117566680D01*
X121726714Y-117555996D01*
X121520328Y-117488611D01*
X121359639Y-117400260D01*
X121217988Y-117275535D01*
X121190821Y-117246225D01*
X121138266Y-117187115D01*
X121093345Y-117131064D01*
X121055418Y-117072099D01*
X121023851Y-117004246D01*
X120998005Y-116921530D01*
X120977244Y-116817978D01*
X120960930Y-116687617D01*
X120948427Y-116524471D01*
X120939096Y-116322569D01*
X120932302Y-116075935D01*
X120927408Y-115778596D01*
X120923775Y-115424577D01*
X120920767Y-115007906D01*
X120918815Y-114695619D01*
X120906391Y-112675668D01*
X121098838Y-112637589D01*
X121197228Y-112618846D01*
X121341240Y-112592341D01*
X121517743Y-112560396D01*
X121713600Y-112525333D01*
X121915680Y-112489472D01*
X122110847Y-112455137D01*
X122285967Y-112424648D01*
X122427908Y-112400328D01*
X122523535Y-112384498D01*
X122559242Y-112379428D01*
X122565866Y-112413749D01*
X122565866Y-112413749D01*
G37*
X122565866Y-112413749D02*
X122571578Y-112508858D01*
X122575990Y-112652973D01*
X122578718Y-112834312D01*
X122579429Y-112996285D01*
X122579429Y-113613143D01*
X123450286Y-113613143D01*
X123450286Y-114738000D01*
X122579429Y-114738000D01*
X122579429Y-115592516D01*
X122580631Y-115895866D01*
X122585070Y-116134871D01*
X122593996Y-116317733D01*
X122608659Y-116452650D01*
X122630306Y-116547822D01*
X122660188Y-116611450D01*
X122699554Y-116651733D01*
X122744340Y-116674888D01*
X122805058Y-116684786D01*
X122918675Y-116692470D01*
X123065530Y-116696836D01*
X123144825Y-116697428D01*
X123486571Y-116697428D01*
X123486571Y-117110482D01*
X123485854Y-117288890D01*
X123482065Y-117407912D01*
X123472746Y-117480731D01*
X123455439Y-117520528D01*
X123427688Y-117540486D01*
X123404929Y-117548444D01*
X123319805Y-117562673D01*
X123176862Y-117574006D01*
X122990795Y-117582377D01*
X122776301Y-117587718D01*
X122548075Y-117589965D01*
X122320815Y-117589051D01*
X122109217Y-117584909D01*
X121927977Y-117577474D01*
X121791790Y-117566680D01*
X121726714Y-117555996D01*
X121520328Y-117488611D01*
X121359639Y-117400260D01*
X121217988Y-117275535D01*
X121190821Y-117246225D01*
X121138266Y-117187115D01*
X121093345Y-117131064D01*
X121055418Y-117072099D01*
X121023851Y-117004246D01*
X120998005Y-116921530D01*
X120977244Y-116817978D01*
X120960930Y-116687617D01*
X120948427Y-116524471D01*
X120939096Y-116322569D01*
X120932302Y-116075935D01*
X120927408Y-115778596D01*
X120923775Y-115424577D01*
X120920767Y-115007906D01*
X120918815Y-114695619D01*
X120906391Y-112675668D01*
X121098838Y-112637589D01*
X121197228Y-112618846D01*
X121341240Y-112592341D01*
X121517743Y-112560396D01*
X121713600Y-112525333D01*
X121915680Y-112489472D01*
X122110847Y-112455137D01*
X122285967Y-112424648D01*
X122427908Y-112400328D01*
X122523535Y-112384498D01*
X122559242Y-112379428D01*
X122565866Y-112413749D01*
G36*
X126555916Y-113563809D02*
X126755998Y-113567581D01*
X126914388Y-113575704D01*
X127046510Y-113589384D01*
X127167792Y-113609831D01*
X127293660Y-113638250D01*
X127310151Y-113642339D01*
X127703385Y-113771571D01*
X128042126Y-113948585D01*
X128325501Y-114172262D01*
X128552638Y-114441485D01*
X128722667Y-114755137D01*
X128834716Y-115112098D01*
X128887913Y-115511250D01*
X128892513Y-115672357D01*
X128893143Y-115971714D01*
X127205857Y-115971714D01*
X126804652Y-115971497D01*
X126470321Y-115971420D01*
X126197171Y-115972341D01*
X125979509Y-115975120D01*
X125811641Y-115980615D01*
X125687874Y-115989686D01*
X125602515Y-116003192D01*
X125549869Y-116021992D01*
X125524244Y-116046944D01*
X125519947Y-116078909D01*
X125531283Y-116118745D01*
X125552560Y-116167311D01*
X125574925Y-116217808D01*
X125695415Y-116417864D01*
X125864781Y-116567951D01*
X126074626Y-116662669D01*
X126316553Y-116696616D01*
X126319465Y-116696631D01*
X126480628Y-116684650D01*
X126643073Y-116651748D01*
X126784404Y-116604302D01*
X126882225Y-116548685D01*
X126899624Y-116531498D01*
X126924755Y-116515276D01*
X126975226Y-116502687D01*
X127058905Y-116493314D01*
X127183661Y-116486744D01*
X127357361Y-116482564D01*
X127587873Y-116480359D01*
X127883066Y-116479714D01*
X128824674Y-116479714D01*
X128759123Y-116591186D01*
X128672334Y-116710964D01*
X128544249Y-116853997D01*
X128393172Y-117002136D01*
X128237406Y-117137229D01*
X128120334Y-117224650D01*
X127913710Y-117337795D01*
X127654778Y-117437662D01*
X127363501Y-117517573D01*
X127101949Y-117565301D01*
X126907953Y-117584314D01*
X126667046Y-117595878D01*
X126398927Y-117600199D01*
X126123295Y-117597485D01*
X125859848Y-117587942D01*
X125628284Y-117571777D01*
X125448304Y-117549198D01*
X125440719Y-117547851D01*
X125099914Y-117464829D01*
X124802804Y-117343912D01*
X124588527Y-117218824D01*
X124312621Y-116993874D01*
X124087746Y-116724191D01*
X123916280Y-116418894D01*
X123800603Y-116087099D01*
X123743093Y-115737921D01*
X123746130Y-115380479D01*
X123793856Y-115122473D01*
X125517990Y-115122473D01*
X125537960Y-115162711D01*
X125596310Y-115188275D01*
X125700037Y-115202462D01*
X125856142Y-115208569D01*
X126071625Y-115209891D01*
X126316857Y-115209714D01*
X127115143Y-115209714D01*
X127115143Y-115126124D01*
X127099283Y-115048025D01*
X127058462Y-114935754D01*
X127020921Y-114853455D01*
X126901183Y-114674035D01*
X126746122Y-114552373D01*
X126548556Y-114484427D01*
X126332155Y-114465857D01*
X126086852Y-114492077D01*
X125887320Y-114572863D01*
X125728075Y-114711400D01*
X125618357Y-114880754D01*
X125565188Y-114984791D01*
X125529399Y-115064265D01*
X125517990Y-115122473D01*
X123793856Y-115122473D01*
X123812093Y-115023888D01*
X123931667Y-114701714D01*
X124095890Y-114433293D01*
X124321382Y-114187425D01*
X124598448Y-113971477D01*
X124917392Y-113792814D01*
X125268518Y-113658802D01*
X125326240Y-113642214D01*
X125439629Y-113613729D01*
X125551190Y-113592954D01*
X125675517Y-113578704D01*
X125827203Y-113569793D01*
X126020845Y-113565033D01*
X126271036Y-113563240D01*
X126298714Y-113563180D01*
X126555916Y-113563809D01*
X126555916Y-113563809D01*
G37*
X126555916Y-113563809D02*
X126755998Y-113567581D01*
X126914388Y-113575704D01*
X127046510Y-113589384D01*
X127167792Y-113609831D01*
X127293660Y-113638250D01*
X127310151Y-113642339D01*
X127703385Y-113771571D01*
X128042126Y-113948585D01*
X128325501Y-114172262D01*
X128552638Y-114441485D01*
X128722667Y-114755137D01*
X128834716Y-115112098D01*
X128887913Y-115511250D01*
X128892513Y-115672357D01*
X128893143Y-115971714D01*
X127205857Y-115971714D01*
X126804652Y-115971497D01*
X126470321Y-115971420D01*
X126197171Y-115972341D01*
X125979509Y-115975120D01*
X125811641Y-115980615D01*
X125687874Y-115989686D01*
X125602515Y-116003192D01*
X125549869Y-116021992D01*
X125524244Y-116046944D01*
X125519947Y-116078909D01*
X125531283Y-116118745D01*
X125552560Y-116167311D01*
X125574925Y-116217808D01*
X125695415Y-116417864D01*
X125864781Y-116567951D01*
X126074626Y-116662669D01*
X126316553Y-116696616D01*
X126319465Y-116696631D01*
X126480628Y-116684650D01*
X126643073Y-116651748D01*
X126784404Y-116604302D01*
X126882225Y-116548685D01*
X126899624Y-116531498D01*
X126924755Y-116515276D01*
X126975226Y-116502687D01*
X127058905Y-116493314D01*
X127183661Y-116486744D01*
X127357361Y-116482564D01*
X127587873Y-116480359D01*
X127883066Y-116479714D01*
X128824674Y-116479714D01*
X128759123Y-116591186D01*
X128672334Y-116710964D01*
X128544249Y-116853997D01*
X128393172Y-117002136D01*
X128237406Y-117137229D01*
X128120334Y-117224650D01*
X127913710Y-117337795D01*
X127654778Y-117437662D01*
X127363501Y-117517573D01*
X127101949Y-117565301D01*
X126907953Y-117584314D01*
X126667046Y-117595878D01*
X126398927Y-117600199D01*
X126123295Y-117597485D01*
X125859848Y-117587942D01*
X125628284Y-117571777D01*
X125448304Y-117549198D01*
X125440719Y-117547851D01*
X125099914Y-117464829D01*
X124802804Y-117343912D01*
X124588527Y-117218824D01*
X124312621Y-116993874D01*
X124087746Y-116724191D01*
X123916280Y-116418894D01*
X123800603Y-116087099D01*
X123743093Y-115737921D01*
X123746130Y-115380479D01*
X123793856Y-115122473D01*
X125517990Y-115122473D01*
X125537960Y-115162711D01*
X125596310Y-115188275D01*
X125700037Y-115202462D01*
X125856142Y-115208569D01*
X126071625Y-115209891D01*
X126316857Y-115209714D01*
X127115143Y-115209714D01*
X127115143Y-115126124D01*
X127099283Y-115048025D01*
X127058462Y-114935754D01*
X127020921Y-114853455D01*
X126901183Y-114674035D01*
X126746122Y-114552373D01*
X126548556Y-114484427D01*
X126332155Y-114465857D01*
X126086852Y-114492077D01*
X125887320Y-114572863D01*
X125728075Y-114711400D01*
X125618357Y-114880754D01*
X125565188Y-114984791D01*
X125529399Y-115064265D01*
X125517990Y-115122473D01*
X123793856Y-115122473D01*
X123812093Y-115023888D01*
X123931667Y-114701714D01*
X124095890Y-114433293D01*
X124321382Y-114187425D01*
X124598448Y-113971477D01*
X124917392Y-113792814D01*
X125268518Y-113658802D01*
X125326240Y-113642214D01*
X125439629Y-113613729D01*
X125551190Y-113592954D01*
X125675517Y-113578704D01*
X125827203Y-113569793D01*
X126020845Y-113565033D01*
X126271036Y-113563240D01*
X126298714Y-113563180D01*
X126555916Y-113563809D01*
G36*
X131832721Y-113562105D02*
X132047227Y-113566710D01*
X132218086Y-113576400D01*
X132359726Y-113592113D01*
X132486575Y-113614785D01*
X132530916Y-113624718D01*
X132897341Y-113741371D01*
X133215062Y-113907158D01*
X133480029Y-114119906D01*
X133509588Y-114150059D01*
X133617387Y-114276723D01*
X133723771Y-114424941D01*
X133818478Y-114577570D01*
X133891250Y-114717467D01*
X133931826Y-114827490D01*
X133936857Y-114863965D01*
X133928840Y-114882306D01*
X133899084Y-114896180D01*
X133839037Y-114906183D01*
X133740145Y-114912912D01*
X133593854Y-114916964D01*
X133391610Y-114918937D01*
X133142200Y-114919428D01*
X132347543Y-114919428D01*
X132224283Y-114796169D01*
X132059808Y-114680002D01*
X131860582Y-114613680D01*
X131643304Y-114595859D01*
X131424669Y-114625201D01*
X131221375Y-114700363D01*
X131050118Y-114820004D01*
X130981812Y-114895965D01*
X130874366Y-115087356D01*
X130807418Y-115312679D01*
X130780317Y-115555499D01*
X130792415Y-115799379D01*
X130843062Y-116027882D01*
X130931609Y-116224571D01*
X131039540Y-116357541D01*
X131200808Y-116476016D01*
X131376939Y-116543438D01*
X131590754Y-116567918D01*
X131632714Y-116568393D01*
X131880116Y-116543169D01*
X132082958Y-116465112D01*
X132250330Y-116330255D01*
X132293312Y-116280231D01*
X132394714Y-116153145D01*
X133202072Y-116153144D01*
X133476002Y-116152792D01*
X133684419Y-116154052D01*
X133834356Y-116160393D01*
X133932847Y-116175286D01*
X133986926Y-116202200D01*
X134003626Y-116244607D01*
X133989983Y-116305975D01*
X133953028Y-116389776D01*
X133900613Y-116497770D01*
X133718281Y-116796929D01*
X133477986Y-117056908D01*
X133185848Y-117272579D01*
X132847992Y-117438817D01*
X132724131Y-117483055D01*
X132610444Y-117518097D01*
X132506727Y-117543792D01*
X132397742Y-117561851D01*
X132268255Y-117573983D01*
X132103029Y-117581899D01*
X131886828Y-117587306D01*
X131777857Y-117589229D01*
X131549469Y-117590890D01*
X131329744Y-117588699D01*
X131135731Y-117583100D01*
X130984477Y-117574541D01*
X130909595Y-117566486D01*
X130500137Y-117472105D01*
X130138615Y-117324098D01*
X129825763Y-117122825D01*
X129616321Y-116929436D01*
X129432557Y-116705518D01*
X129299392Y-116477746D01*
X129211244Y-116230410D01*
X129162532Y-115947800D01*
X129147675Y-115614205D01*
X129147679Y-115610305D01*
X129164507Y-115251859D01*
X129216925Y-114946464D01*
X129309475Y-114681576D01*
X129446695Y-114444654D01*
X129633126Y-114223155D01*
X129659392Y-114196647D01*
X129940611Y-113958664D01*
X130252111Y-113777805D01*
X130574567Y-113655059D01*
X130686061Y-113622784D01*
X130787829Y-113599097D01*
X130894403Y-113582620D01*
X131020314Y-113571978D01*
X131180092Y-113565792D01*
X131388270Y-113562685D01*
X131560143Y-113561648D01*
X131832721Y-113562105D01*
X131832721Y-113562105D01*
G37*
X131832721Y-113562105D02*
X132047227Y-113566710D01*
X132218086Y-113576400D01*
X132359726Y-113592113D01*
X132486575Y-113614785D01*
X132530916Y-113624718D01*
X132897341Y-113741371D01*
X133215062Y-113907158D01*
X133480029Y-114119906D01*
X133509588Y-114150059D01*
X133617387Y-114276723D01*
X133723771Y-114424941D01*
X133818478Y-114577570D01*
X133891250Y-114717467D01*
X133931826Y-114827490D01*
X133936857Y-114863965D01*
X133928840Y-114882306D01*
X133899084Y-114896180D01*
X133839037Y-114906183D01*
X133740145Y-114912912D01*
X133593854Y-114916964D01*
X133391610Y-114918937D01*
X133142200Y-114919428D01*
X132347543Y-114919428D01*
X132224283Y-114796169D01*
X132059808Y-114680002D01*
X131860582Y-114613680D01*
X131643304Y-114595859D01*
X131424669Y-114625201D01*
X131221375Y-114700363D01*
X131050118Y-114820004D01*
X130981812Y-114895965D01*
X130874366Y-115087356D01*
X130807418Y-115312679D01*
X130780317Y-115555499D01*
X130792415Y-115799379D01*
X130843062Y-116027882D01*
X130931609Y-116224571D01*
X131039540Y-116357541D01*
X131200808Y-116476016D01*
X131376939Y-116543438D01*
X131590754Y-116567918D01*
X131632714Y-116568393D01*
X131880116Y-116543169D01*
X132082958Y-116465112D01*
X132250330Y-116330255D01*
X132293312Y-116280231D01*
X132394714Y-116153145D01*
X133202072Y-116153144D01*
X133476002Y-116152792D01*
X133684419Y-116154052D01*
X133834356Y-116160393D01*
X133932847Y-116175286D01*
X133986926Y-116202200D01*
X134003626Y-116244607D01*
X133989983Y-116305975D01*
X133953028Y-116389776D01*
X133900613Y-116497770D01*
X133718281Y-116796929D01*
X133477986Y-117056908D01*
X133185848Y-117272579D01*
X132847992Y-117438817D01*
X132724131Y-117483055D01*
X132610444Y-117518097D01*
X132506727Y-117543792D01*
X132397742Y-117561851D01*
X132268255Y-117573983D01*
X132103029Y-117581899D01*
X131886828Y-117587306D01*
X131777857Y-117589229D01*
X131549469Y-117590890D01*
X131329744Y-117588699D01*
X131135731Y-117583100D01*
X130984477Y-117574541D01*
X130909595Y-117566486D01*
X130500137Y-117472105D01*
X130138615Y-117324098D01*
X129825763Y-117122825D01*
X129616321Y-116929436D01*
X129432557Y-116705518D01*
X129299392Y-116477746D01*
X129211244Y-116230410D01*
X129162532Y-115947800D01*
X129147675Y-115614205D01*
X129147679Y-115610305D01*
X129164507Y-115251859D01*
X129216925Y-114946464D01*
X129309475Y-114681576D01*
X129446695Y-114444654D01*
X129633126Y-114223155D01*
X129659392Y-114196647D01*
X129940611Y-113958664D01*
X130252111Y-113777805D01*
X130574567Y-113655059D01*
X130686061Y-113622784D01*
X130787829Y-113599097D01*
X130894403Y-113582620D01*
X131020314Y-113571978D01*
X131180092Y-113565792D01*
X131388270Y-113562685D01*
X131560143Y-113561648D01*
X131832721Y-113562105D01*
G36*
X110439019Y-113575801D02*
X110690934Y-113636367D01*
X110731018Y-113650716D01*
X110962238Y-113774664D01*
X111168324Y-113954088D01*
X111332556Y-114172380D01*
X111406785Y-114321839D01*
X111428247Y-114376617D01*
X111445915Y-114429039D01*
X111460217Y-114486586D01*
X111471582Y-114556739D01*
X111480438Y-114646979D01*
X111487214Y-114764789D01*
X111492339Y-114917650D01*
X111496241Y-115113044D01*
X111499348Y-115358451D01*
X111502090Y-115661355D01*
X111504895Y-116029235D01*
X111504939Y-116035214D01*
X111516005Y-117532000D01*
X109884702Y-117532000D01*
X109872626Y-116343643D01*
X109868772Y-116008785D01*
X109864438Y-115738565D01*
X109859189Y-115525051D01*
X109852594Y-115360308D01*
X109844218Y-115236404D01*
X109833629Y-115145405D01*
X109820393Y-115079379D01*
X109804076Y-115030391D01*
X109800449Y-115022036D01*
X109703465Y-114878489D01*
X109562935Y-114788530D01*
X109378438Y-114748246D01*
X109172214Y-114763321D01*
X108993349Y-114843839D01*
X108849658Y-114985351D01*
X108790857Y-115082714D01*
X108765525Y-115134851D01*
X108745325Y-115184577D01*
X108729578Y-115240600D01*
X108717611Y-115311627D01*
X108708746Y-115406366D01*
X108702308Y-115533525D01*
X108697621Y-115701811D01*
X108694008Y-115919932D01*
X108690794Y-116196597D01*
X108688738Y-116398071D01*
X108677333Y-117532000D01*
X107049143Y-117532000D01*
X107049143Y-113613143D01*
X108573143Y-113613143D01*
X108573143Y-114200439D01*
X108763092Y-114029659D01*
X109022920Y-113826514D01*
X109288065Y-113684228D01*
X109577888Y-113592465D01*
X109584809Y-113590908D01*
X109859143Y-113551673D01*
X110152818Y-113547103D01*
X110439019Y-113575801D01*
X110439019Y-113575801D01*
G37*
X110439019Y-113575801D02*
X110690934Y-113636367D01*
X110731018Y-113650716D01*
X110962238Y-113774664D01*
X111168324Y-113954088D01*
X111332556Y-114172380D01*
X111406785Y-114321839D01*
X111428247Y-114376617D01*
X111445915Y-114429039D01*
X111460217Y-114486586D01*
X111471582Y-114556739D01*
X111480438Y-114646979D01*
X111487214Y-114764789D01*
X111492339Y-114917650D01*
X111496241Y-115113044D01*
X111499348Y-115358451D01*
X111502090Y-115661355D01*
X111504895Y-116029235D01*
X111504939Y-116035214D01*
X111516005Y-117532000D01*
X109884702Y-117532000D01*
X109872626Y-116343643D01*
X109868772Y-116008785D01*
X109864438Y-115738565D01*
X109859189Y-115525051D01*
X109852594Y-115360308D01*
X109844218Y-115236404D01*
X109833629Y-115145405D01*
X109820393Y-115079379D01*
X109804076Y-115030391D01*
X109800449Y-115022036D01*
X109703465Y-114878489D01*
X109562935Y-114788530D01*
X109378438Y-114748246D01*
X109172214Y-114763321D01*
X108993349Y-114843839D01*
X108849658Y-114985351D01*
X108790857Y-115082714D01*
X108765525Y-115134851D01*
X108745325Y-115184577D01*
X108729578Y-115240600D01*
X108717611Y-115311627D01*
X108708746Y-115406366D01*
X108702308Y-115533525D01*
X108697621Y-115701811D01*
X108694008Y-115919932D01*
X108690794Y-116196597D01*
X108688738Y-116398071D01*
X108677333Y-117532000D01*
X107049143Y-117532000D01*
X107049143Y-113613143D01*
X108573143Y-113613143D01*
X108573143Y-114200439D01*
X108763092Y-114029659D01*
X109022920Y-113826514D01*
X109288065Y-113684228D01*
X109577888Y-113592465D01*
X109584809Y-113590908D01*
X109859143Y-113551673D01*
X110152818Y-113547103D01*
X110439019Y-113575801D01*
G36*
X118842000Y-114193923D02*
X118972905Y-114049027D01*
X119167630Y-113885453D01*
X119420478Y-113758615D01*
X119725977Y-113670282D01*
X120078660Y-113622220D01*
X120320643Y-113613418D01*
X120474857Y-113613143D01*
X120474857Y-114732891D01*
X119915669Y-114744517D01*
X119356480Y-114756143D01*
X119217169Y-114867973D01*
X119148925Y-114926846D01*
X119093567Y-114988168D01*
X119049740Y-115059936D01*
X119016095Y-115150149D01*
X118991280Y-115266802D01*
X118973943Y-115417895D01*
X118962731Y-115611424D01*
X118956295Y-115855387D01*
X118953282Y-116157781D01*
X118952445Y-116434357D01*
X118950857Y-117532000D01*
X117281714Y-117532000D01*
X117281714Y-113613143D01*
X118842000Y-113613143D01*
X118842000Y-114193923D01*
X118842000Y-114193923D01*
G37*
X118842000Y-114193923D02*
X118972905Y-114049027D01*
X119167630Y-113885453D01*
X119420478Y-113758615D01*
X119725977Y-113670282D01*
X120078660Y-113622220D01*
X120320643Y-113613418D01*
X120474857Y-113613143D01*
X120474857Y-114732891D01*
X119915669Y-114744517D01*
X119356480Y-114756143D01*
X119217169Y-114867973D01*
X119148925Y-114926846D01*
X119093567Y-114988168D01*
X119049740Y-115059936D01*
X119016095Y-115150149D01*
X118991280Y-115266802D01*
X118973943Y-115417895D01*
X118962731Y-115611424D01*
X118956295Y-115855387D01*
X118953282Y-116157781D01*
X118952445Y-116434357D01*
X118950857Y-117532000D01*
X117281714Y-117532000D01*
X117281714Y-113613143D01*
X118842000Y-113613143D01*
X118842000Y-114193923D01*
G36*
X106019670Y-107180409D02*
X106368001Y-107192465D01*
X106676855Y-107210742D01*
X106930803Y-107235240D01*
X106958429Y-107238808D01*
X107692436Y-107362668D01*
X108380681Y-107531166D01*
X109020415Y-107743128D01*
X109608889Y-107997378D01*
X110143357Y-108292743D01*
X110621069Y-108628048D01*
X111005838Y-108968571D01*
X111271073Y-109250089D01*
X111487371Y-109524132D01*
X111671519Y-109813998D01*
X111817813Y-110095454D01*
X112020765Y-110600949D01*
X112153172Y-111122473D01*
X112215063Y-111660381D01*
X112206471Y-112215025D01*
X112127427Y-112786758D01*
X112076026Y-113020577D01*
X112029939Y-113194255D01*
X111973632Y-113381616D01*
X111911762Y-113569863D01*
X111848982Y-113746201D01*
X111789946Y-113897833D01*
X111739309Y-114011962D01*
X111701725Y-114075791D01*
X111688920Y-114084857D01*
X111672573Y-114051824D01*
X111661111Y-113965671D01*
X111657215Y-113858071D01*
X111651256Y-113715532D01*
X111635575Y-113533900D01*
X111613149Y-113345532D01*
X111604648Y-113286571D01*
X111482161Y-112704954D01*
X111297194Y-112159949D01*
X111050246Y-111652097D01*
X110741810Y-111181943D01*
X110372383Y-110750028D01*
X109942460Y-110356896D01*
X109452536Y-110003090D01*
X108903107Y-109689151D01*
X108294668Y-109415623D01*
X107956286Y-109289943D01*
X107522822Y-109152402D01*
X107061655Y-109032076D01*
X106560485Y-108926257D01*
X106007015Y-108832241D01*
X105634000Y-108778931D01*
X105462753Y-108762347D01*
X105230594Y-108749270D01*
X104949097Y-108739636D01*
X104629833Y-108733383D01*
X104284375Y-108730445D01*
X103924296Y-108730761D01*
X103561168Y-108734265D01*
X103206563Y-108740894D01*
X102872054Y-108750585D01*
X102569213Y-108763274D01*
X102309612Y-108778897D01*
X102104825Y-108797390D01*
X102096143Y-108798400D01*
X101210283Y-108920622D01*
X100343870Y-109075408D01*
X99503667Y-109260717D01*
X98696436Y-109474508D01*
X97928938Y-109714741D01*
X97207935Y-109979374D01*
X96540190Y-110266368D01*
X95932464Y-110573681D01*
X95625060Y-110751347D01*
X95508548Y-110818495D01*
X95415186Y-110865600D01*
X95362522Y-110883946D01*
X95358878Y-110883578D01*
X95370517Y-110858367D01*
X95433715Y-110798113D01*
X95540325Y-110709026D01*
X95682200Y-110597318D01*
X95851194Y-110469199D01*
X96039161Y-110330880D01*
X96237953Y-110188574D01*
X96439426Y-110048490D01*
X96569673Y-109960427D01*
X97477212Y-109397579D01*
X98426743Y-108891624D01*
X99412756Y-108444591D01*
X100429744Y-108058507D01*
X101472197Y-107735399D01*
X102534607Y-107477295D01*
X103611466Y-107286222D01*
X103964857Y-107238742D01*
X104225983Y-107213463D01*
X104540220Y-107194407D01*
X104892139Y-107181573D01*
X105266308Y-107174963D01*
X105647296Y-107174575D01*
X106019670Y-107180409D01*
X106019670Y-107180409D01*
G37*
X106019670Y-107180409D02*
X106368001Y-107192465D01*
X106676855Y-107210742D01*
X106930803Y-107235240D01*
X106958429Y-107238808D01*
X107692436Y-107362668D01*
X108380681Y-107531166D01*
X109020415Y-107743128D01*
X109608889Y-107997378D01*
X110143357Y-108292743D01*
X110621069Y-108628048D01*
X111005838Y-108968571D01*
X111271073Y-109250089D01*
X111487371Y-109524132D01*
X111671519Y-109813998D01*
X111817813Y-110095454D01*
X112020765Y-110600949D01*
X112153172Y-111122473D01*
X112215063Y-111660381D01*
X112206471Y-112215025D01*
X112127427Y-112786758D01*
X112076026Y-113020577D01*
X112029939Y-113194255D01*
X111973632Y-113381616D01*
X111911762Y-113569863D01*
X111848982Y-113746201D01*
X111789946Y-113897833D01*
X111739309Y-114011962D01*
X111701725Y-114075791D01*
X111688920Y-114084857D01*
X111672573Y-114051824D01*
X111661111Y-113965671D01*
X111657215Y-113858071D01*
X111651256Y-113715532D01*
X111635575Y-113533900D01*
X111613149Y-113345532D01*
X111604648Y-113286571D01*
X111482161Y-112704954D01*
X111297194Y-112159949D01*
X111050246Y-111652097D01*
X110741810Y-111181943D01*
X110372383Y-110750028D01*
X109942460Y-110356896D01*
X109452536Y-110003090D01*
X108903107Y-109689151D01*
X108294668Y-109415623D01*
X107956286Y-109289943D01*
X107522822Y-109152402D01*
X107061655Y-109032076D01*
X106560485Y-108926257D01*
X106007015Y-108832241D01*
X105634000Y-108778931D01*
X105462753Y-108762347D01*
X105230594Y-108749270D01*
X104949097Y-108739636D01*
X104629833Y-108733383D01*
X104284375Y-108730445D01*
X103924296Y-108730761D01*
X103561168Y-108734265D01*
X103206563Y-108740894D01*
X102872054Y-108750585D01*
X102569213Y-108763274D01*
X102309612Y-108778897D01*
X102104825Y-108797390D01*
X102096143Y-108798400D01*
X101210283Y-108920622D01*
X100343870Y-109075408D01*
X99503667Y-109260717D01*
X98696436Y-109474508D01*
X97928938Y-109714741D01*
X97207935Y-109979374D01*
X96540190Y-110266368D01*
X95932464Y-110573681D01*
X95625060Y-110751347D01*
X95508548Y-110818495D01*
X95415186Y-110865600D01*
X95362522Y-110883946D01*
X95358878Y-110883578D01*
X95370517Y-110858367D01*
X95433715Y-110798113D01*
X95540325Y-110709026D01*
X95682200Y-110597318D01*
X95851194Y-110469199D01*
X96039161Y-110330880D01*
X96237953Y-110188574D01*
X96439426Y-110048490D01*
X96569673Y-109960427D01*
X97477212Y-109397579D01*
X98426743Y-108891624D01*
X99412756Y-108444591D01*
X100429744Y-108058507D01*
X101472197Y-107735399D01*
X102534607Y-107477295D01*
X103611466Y-107286222D01*
X103964857Y-107238742D01*
X104225983Y-107213463D01*
X104540220Y-107194407D01*
X104892139Y-107181573D01*
X105266308Y-107174963D01*
X105647296Y-107174575D01*
X106019670Y-107180409D01*
D13*
X96490000Y-108230000D02*
X96490000Y-105570000D01*
X73570000Y-108230000D02*
X96490000Y-108230000D01*
X73570000Y-105570000D02*
X96490000Y-105570000D01*
X73570000Y-108230000D02*
X73570000Y-105570000D01*
X72300000Y-108230000D02*
X70970000Y-108230000D01*
X70970000Y-108230000D02*
X70970000Y-106900000D01*
M02*
