M48
METRIC,TZ
T1C0.300
T2C1.000
T3C3.200
%
G90
G05
T1
X67.45Y-24.14
X67.45Y-26.14
X67.45Y-28.14
X67.45Y-30.14
X67.45Y-32.14
X67.45Y-34.14
X67.45Y-36.14
X67.45Y-38.14
X67.45Y-56.14
X67.45Y-58.14
X67.45Y-60.14
X67.45Y-62.14
X67.45Y-64.14
X67.45Y-66.14
X67.45Y-73.94
X67.45Y-75.94
X67.45Y-77.94
X67.45Y-79.94
X67.45Y-81.94
X67.45Y-83.94
X67.45Y-85.94
X67.45Y-87.94
X67.45Y-89.94
X67.45Y-91.94
X67.45Y-93.94
X67.45Y-95.94
X67.45Y-97.94
X67.45Y-99.94
X67.45Y-101.94
X67.45Y-103.94
X67.45Y-105.94
X67.45Y-107.94
X67.45Y-109.94
X67.45Y-111.94
X67.45Y-113.94
X67.45Y-115.94
X67.45Y-117.94
X67.45Y-119.94
X67.45Y-121.94
X67.45Y-123.94
X67.45Y-125.94
X67.45Y-127.94
X67.45Y-135.94
X67.45Y-137.94
X67.45Y-139.94
X67.45Y-141.94
X67.45Y-143.94
X67.45Y-145.94
X67.45Y-147.94
X67.45Y-149.94
X67.45Y-151.94
X67.45Y-153.94
X67.45Y-155.94
X67.45Y-157.94
X67.45Y-159.94
X67.45Y-161.94
X67.45Y-163.94
X67.45Y-165.94
X67.45Y-167.94
X67.45Y-169.94
X67.45Y-171.94
X67.45Y-173.94
X67.45Y-175.94
X67.45Y-177.94
X68.45Y-41.24
X68.45Y-42.14
X68.55Y-38.94
X68.96Y-48.62
X69.125Y-40.915
X69.45Y-38.94
X70.05Y-174.94
X70.375Y-58.365
X71.1Y-57.24
X72.325Y-56.715
X72.375Y-55.665
X72.55Y-27.44
X73.375Y-54.64
X73.625Y-55.915
X73.65Y-184.39
X73.85Y-17.79
X74.26Y-144.56
X74.275Y-54.115
X75.Y-143.19
X75.05Y-174.94
X75.65Y-184.39
X75.85Y-17.79
X76.3Y-37.44
X76.3Y-38.69
X76.3Y-39.94
X76.3Y-41.19
X76.3Y-42.44
X76.75Y-51.715
X77.3Y-52.54
X77.475Y-51.24
X77.55Y-27.44
X77.55Y-37.44
X77.55Y-38.69
X77.55Y-39.94
X77.55Y-41.19
X77.55Y-42.44
X77.65Y-184.39
X77.85Y-17.79
X77.85Y-138.04
X77.85Y-139.54
X78.15Y-54.315
X78.3Y-160.94
X78.55Y-138.74
X78.55Y-140.24
X79.65Y-184.39
X79.85Y-17.79
X81.15Y-145.99
X81.5Y-150.89
X81.55Y-159.94
X81.55Y-161.19
X81.55Y-162.44
X81.55Y-163.69
X81.55Y-164.94
X81.65Y-184.39
X81.725Y-149.89
X81.85Y-17.79
X82.05Y-139.94
X82.8Y-159.94
X82.8Y-161.19
X82.8Y-162.44
X82.8Y-163.69
X82.8Y-164.94
X83.05Y-138.94
X83.65Y-184.39
X83.8Y-61.79
X83.8Y-62.89
X83.85Y-17.79
X84.05Y-139.94
X85.05Y-61.79
X85.05Y-62.94
X85.05Y-64.19
X85.05Y-136.94
X85.05Y-138.94
X85.05Y-174.94
X85.2Y-142.24
X85.65Y-184.39
X85.85Y-17.79
X85.95Y-38.915
X85.95Y-41.365
X85.95Y-42.265
X86.05Y-137.94
X86.25Y-143.34
X86.27Y-73.97
X86.3Y-61.79
X86.3Y-62.94
X86.3Y-142.14
X86.575Y-46.515
X86.625Y-40.965
X86.9Y-38.915
X87.23Y-74.86
X87.24Y-73.03
X87.45Y-61.04
X87.45Y-143.29
X87.55Y-27.44
X87.65Y-184.39
X87.7Y-144.34
X87.85Y-17.79
X88.4Y-59.89
X88.85Y-144.39
X89.Y-145.54
X89.4Y-58.59
X89.45Y-163.24
X89.65Y-184.39
X89.85Y-17.79
X89.9Y-155.84
X89.975Y-161.44
X90.05Y-57.54
X90.05Y-174.94
X90.25Y-66.165
X90.325Y-67.115
X90.5Y-159.815
X90.5Y-160.715
X90.55Y-163.24
X90.6Y-132.69
X90.7Y-69.09
X90.825Y-65.265
X91.1Y-72.19
X91.1Y-131.39
X91.1Y-135.44
X91.6Y-57.69
X91.65Y-184.39
X91.7Y-56.34
X91.85Y-17.79
X91.85Y-136.29
X91.925Y-65.24
X92.05Y-130.69
X92.05Y-135.39
X92.1Y-54.99
X92.25Y-66.79
X92.55Y-27.44
X92.6Y-131.94
X92.725Y-65.89
X92.75Y-72.19
X92.85Y-136.04
X93.1Y-73.34
X93.15Y-74.64
X93.65Y-184.39
X93.8Y-37.44
X93.8Y-38.69
X93.8Y-39.94
X93.8Y-41.19
X93.8Y-42.44
X93.85Y-17.79
X94.3Y-51.79
X94.35Y-73.39
X94.35Y-74.64
X94.825Y-52.59
X95.05Y-37.44
X95.05Y-38.69
X95.05Y-39.94
X95.05Y-41.19
X95.05Y-42.44
X95.1Y-51.24
X95.175Y-56.665
X95.65Y-184.39
X95.78Y-69.54
X95.8Y-160.94
X95.85Y-17.79
X96.075Y-38.69
X96.075Y-41.19
X97.65Y-184.39
X97.85Y-17.79
X98.225Y-41.19
X98.65Y-145.99
X99.Y-150.94
X99.05Y-159.69
X99.05Y-160.94
X99.05Y-162.19
X99.05Y-163.44
X99.05Y-164.69
X99.2Y-149.74
X99.65Y-184.39
X99.85Y-17.79
X100.05Y-174.94
X100.3Y-159.69
X100.3Y-160.94
X100.3Y-162.19
X100.3Y-163.44
X100.3Y-164.69
X100.65Y-145.39
X101.6Y-144.69
X101.65Y-184.39
X101.85Y-17.79
X102.5Y-143.99
X103.4Y-132.64
X103.45Y-143.19
X103.5Y-38.94
X103.5Y-41.265
X103.5Y-42.34
X103.65Y-184.39
X103.85Y-17.79
X104.075Y-46.515
X104.25Y-41.109
X104.4Y-142.44
X104.425Y-38.94
X105.05Y-27.44
X105.05Y-174.94
X105.175Y-53.965
X105.2Y-141.59
X105.65Y-184.39
X105.85Y-17.79
X105.925Y-54.74
X106.15Y-140.59
X106.7Y-55.54
X107.05Y-163.24
X107.4Y-155.69
X107.55Y-161.465
X107.65Y-184.39
X107.7Y-57.04
X107.85Y-17.79
X108.025Y-160.765
X108.05Y-159.84
X108.05Y-163.24
X108.55Y-58.09
X109.4Y-59.04
X109.65Y-184.39
X109.85Y-17.79
X110.05Y-27.44
X110.05Y-174.94
X110.3Y-59.94
X111.3Y-37.44
X111.3Y-38.69
X111.3Y-39.94
X111.3Y-41.19
X111.3Y-42.44
X111.65Y-184.39
X111.85Y-17.79
X111.9Y-51.765
X111.95Y-127.34
X111.95Y-128.44
X111.95Y-129.54
X112.325Y-52.565
X112.55Y-37.44
X112.55Y-38.69
X112.55Y-39.94
X112.55Y-41.19
X112.55Y-42.44
X112.625Y-51.29
X113.15Y-127.34
X113.15Y-128.44
X113.15Y-129.54
X113.3Y-160.94
X113.65Y-184.39
X113.85Y-17.79
X114.2Y-70.54
X114.2Y-71.69
X115.4Y-70.54
X115.45Y-71.69
X115.5Y-146.24
X115.55Y-135.74
X115.65Y-184.39
X115.75Y-60.74
X115.75Y-130.14
X115.85Y-17.79
X115.95Y-134.84
X116.Y-133.19
X116.1Y-139.89
X116.3Y-159.69
X116.3Y-160.94
X116.3Y-162.19
X116.3Y-163.44
X116.3Y-164.69
X116.35Y-136.64
X116.5Y-150.94
X116.675Y-149.74
X116.75Y-135.74
X116.875Y-64.79
X117.35Y-137.64
X117.55Y-159.69
X117.55Y-160.94
X117.55Y-162.19
X117.55Y-163.44
X117.55Y-164.69
X117.65Y-136.64
X117.65Y-184.39
X117.85Y-17.79
X118.025Y-63.64
X118.3Y-145.39
X118.65Y-62.14
X118.75Y-60.74
X118.75Y-137.64
X119.05Y-144.69
X119.55Y-127.54
X119.55Y-128.84
X119.65Y-184.39
X119.8Y-143.99
X119.85Y-17.79
X120.05Y-174.94
X120.25Y-60.74
X120.25Y-62.14
X120.5Y-143.19
X121.025Y-41.39
X121.025Y-42.365
X121.05Y-38.965
X121.25Y-142.44
X121.575Y-46.515
X121.65Y-60.74
X121.65Y-184.39
X121.7Y-41.09
X121.85Y-17.79
X121.95Y-38.965
X122.Y-141.59
X122.1Y-53.99
X122.55Y-27.44
X122.8Y-140.59
X122.9Y-54.79
X123.05Y-60.74
X123.6Y-55.54
X123.65Y-184.39
X123.85Y-17.79
X124.35Y-57.04
X124.45Y-60.74
X124.55Y-163.44
X124.85Y-58.09
X124.9Y-155.69
X125.05Y-174.94
X125.1Y-161.515
X125.25Y-59.04
X125.5Y-160.665
X125.55Y-159.815
X125.65Y-163.44
X125.65Y-184.39
X125.85Y-17.79
X126.Y-59.94
X127.55Y-27.44
X127.55Y-60.74
X127.65Y-184.39
X127.85Y-17.79
X128.8Y-37.44
X128.8Y-38.69
X128.8Y-39.94
X128.8Y-41.19
X128.8Y-42.44
X128.85Y-60.74
X129.35Y-51.815
X129.65Y-138.84
X129.65Y-184.39
X129.85Y-17.79
X129.85Y-52.565
X130.05Y-37.44
X130.05Y-38.69
X130.05Y-39.94
X130.05Y-41.19
X130.05Y-42.44
X130.075Y-51.265
X130.15Y-60.74
X130.55Y-139.24
X130.8Y-160.94
X131.15Y-139.84
X131.65Y-184.39
X131.85Y-17.79
X132.85Y-61.94
X132.85Y-62.74
X133.4Y-146.09
X133.65Y-61.94
X133.65Y-62.74
X133.65Y-184.39
X133.85Y-17.79
X134.Y-150.89
X134.05Y-136.94
X134.05Y-138.94
X134.05Y-159.69
X134.05Y-160.94
X134.05Y-162.19
X134.05Y-163.44
X134.05Y-164.69
X134.175Y-149.69
X135.05Y-137.94
X135.05Y-174.94
X135.3Y-159.69
X135.3Y-160.94
X135.3Y-162.19
X135.3Y-163.44
X135.3Y-164.69
X135.65Y-184.39
X135.85Y-17.79
X135.85Y-145.39
X136.05Y-136.94
X136.05Y-138.94
X136.15Y-60.69
X136.15Y-62.19
X136.6Y-144.69
X137.05Y-137.94
X137.35Y-143.99
X137.55Y-60.69
X137.55Y-62.19
X137.65Y-184.39
X137.85Y-17.79
X138.05Y-136.94
X138.05Y-138.94
X138.1Y-143.19
X138.25Y-53.99
X138.475Y-41.39
X138.525Y-38.965
X138.525Y-42.34
X138.9Y-142.44
X139.05Y-60.69
X139.05Y-62.19
X139.05Y-137.94
X139.075Y-46.465
X139.1Y-54.79
X139.2Y-41.14
X139.45Y-38.965
X139.65Y-141.59
X139.65Y-184.39
X139.85Y-17.79
X140.05Y-27.44
X140.05Y-136.94
X140.05Y-138.94
X140.05Y-174.94
X140.1Y-55.54
X140.4Y-56.59
X140.45Y-140.59
X140.55Y-60.69
X140.55Y-62.19
X141.05Y-137.94
X141.3Y-57.54
X141.65Y-184.39
X141.85Y-17.79
X142.05Y-60.69
X142.05Y-62.19
X142.05Y-136.94
X142.05Y-138.94
X142.05Y-163.34
X142.4Y-155.74
X142.6Y-161.49
X142.9Y-57.44
X143.Y-58.69
X143.05Y-137.94
X143.05Y-160.665
X143.075Y-159.815
X143.15Y-163.34
X143.65Y-184.39
X143.85Y-17.79
X144.05Y-138.94
X145.05Y-27.44
X145.05Y-174.94
X145.65Y-184.39
X145.725Y-54.74
X145.725Y-55.915
X145.85Y-17.79
X146.3Y-37.44
X146.3Y-38.69
X146.3Y-39.94
X146.3Y-41.19
X146.3Y-42.44
X146.925Y-51.815
X147.35Y-52.565
X147.55Y-37.44
X147.55Y-38.69
X147.55Y-39.94
X147.55Y-41.19
X147.55Y-42.44
X147.6Y-51.265
X147.65Y-184.39
X147.8Y-56.54
X147.85Y-17.79
X148.05Y-137.44
X148.05Y-138.44
X148.05Y-139.44
X148.3Y-160.94
X149.65Y-184.39
X149.85Y-17.79
X150.95Y-146.14
X151.475Y-150.89
X151.65Y-184.39
X151.725Y-149.69
X151.8Y-159.69
X151.8Y-160.94
X151.8Y-162.19
X151.8Y-163.44
X151.8Y-164.69
X151.85Y-17.79
X153.05Y-159.69
X153.05Y-160.94
X153.05Y-162.19
X153.05Y-163.44
X153.05Y-164.69
X153.1Y-145.39
X153.65Y-184.39
X153.75Y-58.915
X153.85Y-17.79
X153.95Y-144.69
X154.525Y-57.665
X154.8Y-143.99
X155.05Y-27.44
X155.05Y-174.94
X155.55Y-143.19
X155.65Y-184.39
X155.85Y-17.79
X156.3Y-142.44
X157.1Y-141.59
X157.95Y-140.59
X159.55Y-163.44
X159.9Y-155.69
X160.05Y-27.44
X160.05Y-161.49
X160.05Y-174.94
X160.55Y-159.815
X160.55Y-160.715
X160.55Y-163.44
X162.225Y-25.94
X162.225Y-27.94
X162.225Y-29.94
X162.225Y-31.89
X162.225Y-33.94
X162.225Y-35.94
X162.225Y-37.94
X162.225Y-39.94
X162.225Y-41.94
X162.225Y-43.94
X162.225Y-45.94
X162.225Y-47.94
X162.225Y-49.94
X162.225Y-51.94
X162.225Y-53.94
X162.225Y-55.94
X162.225Y-57.94
X162.225Y-59.94
X162.225Y-61.94
X162.225Y-63.94
X162.225Y-65.94
X162.225Y-76.04
X162.225Y-78.04
X162.225Y-81.99
X162.225Y-84.04
X162.23Y-74.04
X162.23Y-80.04
X162.23Y-86.04
X162.23Y-88.04
X162.23Y-90.04
X162.23Y-92.04
X162.23Y-94.04
X162.23Y-96.04
X162.23Y-98.04
X162.23Y-100.04
X162.23Y-102.04
X162.23Y-104.04
X162.23Y-127.
X162.23Y-128.99
X162.23Y-135.74
X162.23Y-137.74
X162.23Y-139.74
X162.23Y-141.69
X162.23Y-143.74
X162.23Y-165.74
X162.23Y-167.74
X162.23Y-169.74
X162.23Y-171.74
X162.23Y-173.74
X162.23Y-175.74
X162.23Y-177.74
T2
X72.3Y-81.9
X72.3Y-106.9
X74.84Y-81.9
X74.84Y-106.9
X76.96Y-157.23
X76.96Y-159.77
X76.96Y-162.31
X76.96Y-164.85
X76.96Y-167.39
X76.96Y-169.93
X76.96Y-172.47
X76.96Y-175.01
X77.38Y-81.9
X77.38Y-106.9
X79.25Y-68.35
X79.25Y-70.89
X79.25Y-131.34
X79.25Y-133.88
X79.46Y-27.22
X79.46Y-29.76
X79.46Y-32.3
X79.46Y-34.84
X79.46Y-37.38
X79.46Y-39.92
X79.46Y-42.46
X79.46Y-45.
X79.5Y-157.23
X79.5Y-159.77
X79.5Y-162.31
X79.5Y-164.85
X79.5Y-167.39
X79.5Y-169.93
X79.5Y-172.47
X79.5Y-175.01
X79.92Y-81.9
X79.92Y-106.9
X80.52Y-76.98
X81.79Y-68.35
X81.79Y-70.89
X81.79Y-131.34
X81.79Y-133.88
X82.Y-27.22
X82.Y-29.76
X82.Y-32.3
X82.Y-34.84
X82.Y-37.38
X82.Y-39.92
X82.Y-42.46
X82.Y-45.
X82.46Y-81.9
X82.46Y-106.9
X83.06Y-76.98
X84.33Y-68.35
X84.33Y-70.89
X84.33Y-131.34
X84.33Y-133.88
X84.59Y-121.5
X85.Y-81.9
X85.Y-106.9
X86.87Y-68.35
X86.87Y-70.89
X86.87Y-131.34
X86.87Y-133.88
X87.13Y-121.5
X87.54Y-81.9
X87.54Y-106.9
X88.14Y-76.98
X89.41Y-68.35
X89.41Y-70.89
X89.41Y-131.34
X89.41Y-133.88
X89.67Y-121.5
X89.67Y-125.24
X90.08Y-81.9
X90.08Y-106.9
X90.68Y-76.98
X91.95Y-68.35
X91.95Y-70.89
X91.95Y-133.88
X92.21Y-121.5
X92.21Y-125.24
X92.62Y-81.9
X92.62Y-106.9
X93.22Y-76.98
X94.46Y-157.23
X94.46Y-159.77
X94.46Y-162.31
X94.46Y-164.85
X94.46Y-167.39
X94.46Y-169.93
X94.46Y-172.47
X94.46Y-175.01
X94.49Y-68.35
X94.49Y-70.89
X94.49Y-131.34
X94.49Y-133.88
X94.75Y-125.24
X95.16Y-81.9
X95.16Y-106.9
X95.76Y-76.98
X96.96Y-27.22
X96.96Y-29.76
X96.96Y-32.3
X96.96Y-34.84
X96.96Y-37.38
X96.96Y-39.92
X96.96Y-42.46
X96.96Y-45.
X97.Y-157.23
X97.Y-159.77
X97.Y-162.31
X97.Y-164.85
X97.Y-167.39
X97.Y-169.93
X97.Y-172.47
X97.Y-175.01
X97.03Y-68.35
X97.03Y-70.89
X97.03Y-131.34
X97.03Y-133.88
X97.29Y-125.24
X98.3Y-76.98
X99.5Y-27.22
X99.5Y-29.76
X99.5Y-32.3
X99.5Y-34.84
X99.5Y-37.38
X99.5Y-39.92
X99.5Y-42.46
X99.5Y-45.
X99.57Y-68.35
X99.57Y-70.89
X99.57Y-131.34
X99.57Y-133.88
X99.83Y-125.24
X100.84Y-76.98
X102.11Y-68.35
X102.11Y-70.89
X102.11Y-131.34
X102.11Y-133.88
X102.37Y-125.24
X103.38Y-76.98
X104.65Y-68.35
X104.65Y-70.89
X104.65Y-131.34
X104.65Y-133.88
X104.91Y-125.24
X107.19Y-68.35
X107.19Y-70.89
X107.19Y-131.34
X107.19Y-133.88
X107.45Y-76.98
X109.73Y-68.35
X109.73Y-70.89
X109.73Y-131.34
X109.73Y-133.88
X109.99Y-76.98
X111.96Y-157.23
X111.96Y-159.77
X111.96Y-162.31
X111.96Y-164.85
X111.96Y-167.39
X111.96Y-169.93
X111.96Y-172.47
X111.96Y-175.01
X112.27Y-68.35
X112.27Y-70.89
X112.27Y-131.34
X112.27Y-133.88
X112.53Y-76.98
X112.53Y-121.5
X114.46Y-27.22
X114.46Y-29.76
X114.46Y-32.3
X114.46Y-34.84
X114.46Y-37.38
X114.46Y-39.92
X114.46Y-42.46
X114.46Y-45.
X114.5Y-157.23
X114.5Y-159.77
X114.5Y-162.31
X114.5Y-164.85
X114.5Y-167.39
X114.5Y-169.93
X114.5Y-172.47
X114.5Y-175.01
X114.81Y-68.35
X114.81Y-131.34
X114.81Y-133.88
X115.07Y-76.98
X115.07Y-121.5
X117.Y-27.22
X117.Y-29.76
X117.Y-32.3
X117.Y-34.84
X117.Y-37.38
X117.Y-39.92
X117.Y-42.46
X117.Y-45.
X117.35Y-68.35
X117.35Y-70.89
X117.35Y-131.34
X117.35Y-133.88
X117.61Y-76.98
X117.61Y-121.5
X117.61Y-125.24
X119.89Y-68.35
X119.89Y-70.89
X119.89Y-131.34
X119.89Y-133.88
X120.15Y-76.98
X120.15Y-121.5
X120.15Y-125.24
X122.43Y-68.35
X122.43Y-70.89
X122.43Y-131.34
X122.43Y-133.88
X122.69Y-76.98
X122.69Y-121.5
X122.69Y-125.24
X124.97Y-68.35
X124.97Y-70.89
X124.97Y-131.34
X124.97Y-133.88
X125.23Y-76.98
X125.23Y-121.5
X125.23Y-125.24
X127.51Y-68.35
X127.51Y-70.89
X127.51Y-131.34
X127.51Y-133.88
X129.46Y-157.23
X129.46Y-159.77
X129.46Y-162.31
X129.46Y-164.85
X129.46Y-167.39
X129.46Y-169.93
X129.46Y-172.47
X129.46Y-175.01
X131.Y-76.98
X131.96Y-27.22
X131.96Y-29.76
X131.96Y-32.3
X131.96Y-34.84
X131.96Y-37.38
X131.96Y-39.92
X131.96Y-42.46
X131.96Y-45.
X132.Y-157.23
X132.Y-159.77
X132.Y-162.31
X132.Y-164.85
X132.Y-167.39
X132.Y-169.93
X132.Y-172.47
X132.Y-175.01
X133.54Y-76.98
X134.5Y-27.22
X134.5Y-29.76
X134.5Y-32.3
X134.5Y-34.84
X134.5Y-37.38
X134.5Y-39.92
X134.5Y-42.46
X134.5Y-45.
X136.08Y-76.98
X138.62Y-76.98
X141.16Y-76.98
X143.7Y-76.98
X146.96Y-157.23
X146.96Y-159.77
X146.96Y-162.31
X146.96Y-164.85
X146.96Y-167.39
X146.96Y-169.93
X146.96Y-172.47
X146.96Y-175.01
X149.46Y-27.22
X149.46Y-29.76
X149.46Y-32.3
X149.46Y-34.84
X149.46Y-37.38
X149.46Y-39.92
X149.46Y-42.46
X149.46Y-45.
X149.5Y-157.23
X149.5Y-159.77
X149.5Y-162.31
X149.5Y-164.85
X149.5Y-167.39
X149.5Y-169.93
X149.5Y-172.47
X149.5Y-175.01
X152.Y-27.22
X152.Y-29.76
X152.Y-32.3
X152.Y-34.84
X152.Y-37.38
X152.Y-39.92
X152.Y-42.46
X152.Y-45.
T3
X70.Y-20.4
X70.Y-70.
X70.Y-132.23
X70.Y-181.83
X94.92Y-93.1
X125.92Y-93.1
X159.65Y-20.4
X159.65Y-70.
X159.65Y-132.23
X159.65Y-181.83
T0
M30
