G04 #@! TF.FileFunction,Soldermask,Top*
%FSLAX46Y46*%
G04 Gerber Fmt 4.6, Leading zero omitted, Abs format (unit mm)*
G04 Created by KiCad (PCBNEW 4.0.7-e2-6376~58~ubuntu16.04.1) date Sun Dec 10 18:47:14 2017*
%MOMM*%
%LPD*%
G01*
G04 APERTURE LIST*
%ADD10C,0.100000*%
%ADD11R,0.900000X1.000000*%
%ADD12R,2.100000X2.100000*%
%ADD13C,2.100000*%
%ADD14R,0.806400X1.670000*%
%ADD15O,2.100000X2.100000*%
%ADD16R,0.720000X0.900000*%
%ADD17C,6.100000*%
%ADD18R,1.000000X0.900000*%
%ADD19R,1.400000X2.900000*%
%ADD20C,0.200000*%
G04 APERTURE END LIST*
D10*
D11*
X69400000Y-40840000D03*
X69400000Y-39740000D03*
D12*
X134500000Y-45000000D03*
D13*
X131960000Y-45000000D03*
X134500000Y-42460000D03*
X131960000Y-42460000D03*
X134500000Y-39920000D03*
X131960000Y-39920000D03*
X134500000Y-37380000D03*
X131960000Y-37380000D03*
X134500000Y-34840000D03*
X131960000Y-34840000D03*
X134500000Y-32300000D03*
X131960000Y-32300000D03*
X134500000Y-29760000D03*
X131960000Y-29760000D03*
X134500000Y-27220000D03*
X131960000Y-27220000D03*
D12*
X117000000Y-45000000D03*
D13*
X114460000Y-45000000D03*
X117000000Y-42460000D03*
X114460000Y-42460000D03*
X117000000Y-39920000D03*
X114460000Y-39920000D03*
X117000000Y-37380000D03*
X114460000Y-37380000D03*
X117000000Y-34840000D03*
X114460000Y-34840000D03*
X117000000Y-32300000D03*
X114460000Y-32300000D03*
X117000000Y-29760000D03*
X114460000Y-29760000D03*
X117000000Y-27220000D03*
X114460000Y-27220000D03*
D14*
X104079000Y-47567000D03*
X104714000Y-47567000D03*
X105374400Y-47567000D03*
X106034800Y-47567000D03*
X106669800Y-47567000D03*
X107330200Y-47567000D03*
X107990600Y-47567000D03*
X108625600Y-47567000D03*
X109286000Y-47567000D03*
X109921000Y-47567000D03*
X109921000Y-42233000D03*
X109286000Y-42233000D03*
X108625600Y-42233000D03*
X107990600Y-42233000D03*
X107330200Y-42233000D03*
X106669800Y-42233000D03*
X106034800Y-42233000D03*
X105374400Y-42233000D03*
X104714000Y-42233000D03*
X104079000Y-42233000D03*
X86579000Y-47567000D03*
X87214000Y-47567000D03*
X87874400Y-47567000D03*
X88534800Y-47567000D03*
X89169800Y-47567000D03*
X89830200Y-47567000D03*
X90490600Y-47567000D03*
X91125600Y-47567000D03*
X91786000Y-47567000D03*
X92421000Y-47567000D03*
X92421000Y-42233000D03*
X91786000Y-42233000D03*
X91125600Y-42233000D03*
X90490600Y-42233000D03*
X89830200Y-42233000D03*
X89169800Y-42233000D03*
X88534800Y-42233000D03*
X87874400Y-42233000D03*
X87214000Y-42233000D03*
X86579000Y-42233000D03*
D12*
X79250000Y-70890000D03*
D15*
X79250000Y-68350000D03*
X81790000Y-70890000D03*
X81790000Y-68350000D03*
X84330000Y-70890000D03*
X84330000Y-68350000D03*
X86870000Y-70890000D03*
X86870000Y-68350000D03*
X89410000Y-70890000D03*
X89410000Y-68350000D03*
X91950000Y-70890000D03*
X91950000Y-68350000D03*
X94490000Y-70890000D03*
X94490000Y-68350000D03*
X97030000Y-70890000D03*
X97030000Y-68350000D03*
X99570000Y-70890000D03*
X99570000Y-68350000D03*
X102110000Y-70890000D03*
X102110000Y-68350000D03*
X104650000Y-70890000D03*
X104650000Y-68350000D03*
X107190000Y-70890000D03*
X107190000Y-68350000D03*
X109730000Y-70890000D03*
X109730000Y-68350000D03*
X112270000Y-70890000D03*
X112270000Y-68350000D03*
X114810000Y-68350000D03*
X117350000Y-70890000D03*
X117350000Y-68350000D03*
X119890000Y-70890000D03*
X119890000Y-68350000D03*
X122430000Y-70890000D03*
X122430000Y-68350000D03*
X124970000Y-70890000D03*
X124970000Y-68350000D03*
X127510000Y-70890000D03*
X127510000Y-68350000D03*
D12*
X127510000Y-131340000D03*
D15*
X127510000Y-133880000D03*
X124970000Y-131340000D03*
X124970000Y-133880000D03*
X122430000Y-131340000D03*
X122430000Y-133880000D03*
X119890000Y-131340000D03*
X119890000Y-133880000D03*
X117350000Y-131340000D03*
X117350000Y-133880000D03*
X114810000Y-131340000D03*
X114810000Y-133880000D03*
X112270000Y-131340000D03*
X112270000Y-133880000D03*
X109730000Y-131340000D03*
X109730000Y-133880000D03*
X107190000Y-131340000D03*
X107190000Y-133880000D03*
X104650000Y-131340000D03*
X104650000Y-133880000D03*
X102110000Y-131340000D03*
X102110000Y-133880000D03*
X99570000Y-131340000D03*
X99570000Y-133880000D03*
X97030000Y-131340000D03*
X97030000Y-133880000D03*
X94490000Y-131340000D03*
X94490000Y-133880000D03*
X91950000Y-133880000D03*
X89410000Y-131340000D03*
X89410000Y-133880000D03*
X86870000Y-131340000D03*
X86870000Y-133880000D03*
X84330000Y-131340000D03*
X84330000Y-133880000D03*
X81790000Y-131340000D03*
X81790000Y-133880000D03*
X79250000Y-131340000D03*
X79250000Y-133880000D03*
D12*
X99500000Y-45000000D03*
D13*
X96960000Y-45000000D03*
X99500000Y-42460000D03*
X96960000Y-42460000D03*
X99500000Y-39920000D03*
X96960000Y-39920000D03*
X99500000Y-37380000D03*
X96960000Y-37380000D03*
X99500000Y-34840000D03*
X96960000Y-34840000D03*
X99500000Y-32300000D03*
X96960000Y-32300000D03*
X99500000Y-29760000D03*
X96960000Y-29760000D03*
X99500000Y-27220000D03*
X96960000Y-27220000D03*
D16*
X107700000Y-51300000D03*
X108700000Y-51300000D03*
X108200000Y-51300000D03*
X109200000Y-51300000D03*
X108200000Y-50300000D03*
X107700000Y-50300000D03*
X108700000Y-50300000D03*
X109200000Y-50300000D03*
D12*
X82000000Y-45000000D03*
D13*
X79460000Y-45000000D03*
X82000000Y-42460000D03*
X79460000Y-42460000D03*
X82000000Y-39920000D03*
X79460000Y-39920000D03*
X82000000Y-37380000D03*
X79460000Y-37380000D03*
X82000000Y-34840000D03*
X79460000Y-34840000D03*
X82000000Y-32300000D03*
X79460000Y-32300000D03*
X82000000Y-29760000D03*
X79460000Y-29760000D03*
X82000000Y-27220000D03*
X79460000Y-27220000D03*
D12*
X152000000Y-45000000D03*
D13*
X149460000Y-45000000D03*
X152000000Y-42460000D03*
X149460000Y-42460000D03*
X152000000Y-39920000D03*
X149460000Y-39920000D03*
X152000000Y-37380000D03*
X149460000Y-37380000D03*
X152000000Y-34840000D03*
X149460000Y-34840000D03*
X152000000Y-32300000D03*
X149460000Y-32300000D03*
X152000000Y-29760000D03*
X149460000Y-29760000D03*
X152000000Y-27220000D03*
X149460000Y-27220000D03*
D17*
X70000000Y-70000000D03*
X159650000Y-132230000D03*
X70000000Y-132230000D03*
X159650000Y-70000000D03*
D16*
X104800000Y-51300000D03*
X105800000Y-51300000D03*
X105300000Y-51300000D03*
X106300000Y-51300000D03*
X105300000Y-50300000D03*
X104800000Y-50300000D03*
X105800000Y-50300000D03*
X106300000Y-50300000D03*
D17*
X70000000Y-189850000D03*
X159650000Y-190770000D03*
X70000000Y-20400000D03*
X159650000Y-20400000D03*
D12*
X80520000Y-76980000D03*
D15*
X83060000Y-76980000D03*
X85600000Y-76980000D03*
X88140000Y-76980000D03*
X90680000Y-76980000D03*
X93220000Y-76980000D03*
X95760000Y-76980000D03*
X98300000Y-76980000D03*
X100840000Y-76980000D03*
X103380000Y-76980000D03*
D12*
X107450000Y-76980000D03*
D15*
X109990000Y-76980000D03*
X112530000Y-76980000D03*
X115070000Y-76980000D03*
X117610000Y-76980000D03*
X120150000Y-76980000D03*
X122690000Y-76980000D03*
X125230000Y-76980000D03*
D12*
X112530000Y-125240000D03*
D15*
X115070000Y-125240000D03*
X117610000Y-125240000D03*
X120150000Y-125240000D03*
X122690000Y-125240000D03*
X125230000Y-125240000D03*
D12*
X89670000Y-125240000D03*
D15*
X94750000Y-125240000D03*
X99830000Y-125240000D03*
X102370000Y-125240000D03*
X104910000Y-125240000D03*
X107450000Y-125240000D03*
D16*
X90200000Y-51300000D03*
X91200000Y-51300000D03*
X90700000Y-51300000D03*
X91700000Y-51300000D03*
X90700000Y-50300000D03*
X90200000Y-50300000D03*
X91200000Y-50300000D03*
X91700000Y-50300000D03*
X87300000Y-51300000D03*
X88300000Y-51300000D03*
X87800000Y-51300000D03*
X88800000Y-51300000D03*
X87800000Y-50300000D03*
X87300000Y-50300000D03*
X88300000Y-50300000D03*
X88800000Y-50300000D03*
X72700000Y-51300000D03*
X73700000Y-51300000D03*
X73200000Y-51300000D03*
X74200000Y-51300000D03*
X73200000Y-50300000D03*
X72700000Y-50300000D03*
X73700000Y-50300000D03*
X74200000Y-50300000D03*
X69800000Y-51300000D03*
X70800000Y-51300000D03*
X70300000Y-51300000D03*
X71300000Y-51300000D03*
X70300000Y-50300000D03*
X69800000Y-50300000D03*
X70800000Y-50300000D03*
X71300000Y-50300000D03*
D14*
X69079000Y-47567000D03*
X69714000Y-47567000D03*
X70374400Y-47567000D03*
X71034800Y-47567000D03*
X71669800Y-47567000D03*
X72330200Y-47567000D03*
X72990600Y-47567000D03*
X73625600Y-47567000D03*
X74286000Y-47567000D03*
X74921000Y-47567000D03*
X74921000Y-42233000D03*
X74286000Y-42233000D03*
X73625600Y-42233000D03*
X72990600Y-42233000D03*
X72330200Y-42233000D03*
X71669800Y-42233000D03*
X71034800Y-42233000D03*
X70374400Y-42233000D03*
X69714000Y-42233000D03*
X69079000Y-42233000D03*
D16*
X116400000Y-60900000D03*
X117400000Y-60900000D03*
X116900000Y-60900000D03*
X117900000Y-60900000D03*
X116900000Y-59900000D03*
X116400000Y-59900000D03*
X117400000Y-59900000D03*
X117900000Y-59900000D03*
X113550000Y-60900000D03*
X114550000Y-60900000D03*
X114050000Y-60900000D03*
X115050000Y-60900000D03*
X114050000Y-59900000D03*
X113550000Y-59900000D03*
X114550000Y-59900000D03*
X115050000Y-59900000D03*
D14*
X112809000Y-57667000D03*
X113444000Y-57667000D03*
X114104400Y-57667000D03*
X114764800Y-57667000D03*
X115399800Y-57667000D03*
X116060200Y-57667000D03*
X116720600Y-57667000D03*
X117355600Y-57667000D03*
X118016000Y-57667000D03*
X118651000Y-57667000D03*
X118651000Y-52333000D03*
X118016000Y-52333000D03*
X117355600Y-52333000D03*
X116720600Y-52333000D03*
X116060200Y-52333000D03*
X115399800Y-52333000D03*
X114764800Y-52333000D03*
X114104400Y-52333000D03*
X113444000Y-52333000D03*
X112809000Y-52333000D03*
D16*
X81400000Y-60900000D03*
X82400000Y-60900000D03*
X81900000Y-60900000D03*
X82900000Y-60900000D03*
X81900000Y-59900000D03*
X81400000Y-59900000D03*
X82400000Y-59900000D03*
X82900000Y-59900000D03*
X78550000Y-60900000D03*
X79550000Y-60900000D03*
X79050000Y-60900000D03*
X80050000Y-60900000D03*
X79050000Y-59900000D03*
X78550000Y-59900000D03*
X79550000Y-59900000D03*
X80050000Y-59900000D03*
D14*
X77809000Y-57667000D03*
X78444000Y-57667000D03*
X79104400Y-57667000D03*
X79764800Y-57667000D03*
X80399800Y-57667000D03*
X81060200Y-57667000D03*
X81720600Y-57667000D03*
X82355600Y-57667000D03*
X83016000Y-57667000D03*
X83651000Y-57667000D03*
X83651000Y-52333000D03*
X83016000Y-52333000D03*
X82355600Y-52333000D03*
X81720600Y-52333000D03*
X81060200Y-52333000D03*
X80399800Y-52333000D03*
X79764800Y-52333000D03*
X79104400Y-52333000D03*
X78444000Y-52333000D03*
X77809000Y-52333000D03*
D16*
X98900000Y-60900000D03*
X99900000Y-60900000D03*
X99400000Y-60900000D03*
X100400000Y-60900000D03*
X99400000Y-59900000D03*
X98900000Y-59900000D03*
X99900000Y-59900000D03*
X100400000Y-59900000D03*
X96050000Y-60900000D03*
X97050000Y-60900000D03*
X96550000Y-60900000D03*
X97550000Y-60900000D03*
X96550000Y-59900000D03*
X96050000Y-59900000D03*
X97050000Y-59900000D03*
X97550000Y-59900000D03*
D14*
X95309000Y-57667000D03*
X95944000Y-57667000D03*
X96604400Y-57667000D03*
X97264800Y-57667000D03*
X97899800Y-57667000D03*
X98560200Y-57667000D03*
X99220600Y-57667000D03*
X99855600Y-57667000D03*
X100516000Y-57667000D03*
X101151000Y-57667000D03*
X101151000Y-52333000D03*
X100516000Y-52333000D03*
X99855600Y-52333000D03*
X99220600Y-52333000D03*
X98560200Y-52333000D03*
X97899800Y-52333000D03*
X97264800Y-52333000D03*
X96604400Y-52333000D03*
X95944000Y-52333000D03*
X95309000Y-52333000D03*
D16*
X125200000Y-51300000D03*
X126200000Y-51300000D03*
X125700000Y-51300000D03*
X126700000Y-51300000D03*
X125700000Y-50300000D03*
X125200000Y-50300000D03*
X126200000Y-50300000D03*
X126700000Y-50300000D03*
X133900000Y-60900000D03*
X134900000Y-60900000D03*
X134400000Y-60900000D03*
X135400000Y-60900000D03*
X134400000Y-59900000D03*
X133900000Y-59900000D03*
X134900000Y-59900000D03*
X135400000Y-59900000D03*
X122300000Y-51300000D03*
X123300000Y-51300000D03*
X122800000Y-51300000D03*
X123800000Y-51300000D03*
X122800000Y-50300000D03*
X122300000Y-50300000D03*
X123300000Y-50300000D03*
X123800000Y-50300000D03*
X131050000Y-60900000D03*
X132050000Y-60900000D03*
X131550000Y-60900000D03*
X132550000Y-60900000D03*
X131550000Y-59900000D03*
X131050000Y-59900000D03*
X132050000Y-59900000D03*
X132550000Y-59900000D03*
X142700000Y-51300000D03*
X143700000Y-51300000D03*
X143200000Y-51300000D03*
X144200000Y-51300000D03*
X143200000Y-50300000D03*
X142700000Y-50300000D03*
X143700000Y-50300000D03*
X144200000Y-50300000D03*
X151400000Y-60900000D03*
X152400000Y-60900000D03*
X151900000Y-60900000D03*
X152900000Y-60900000D03*
X151900000Y-59900000D03*
X151400000Y-59900000D03*
X152400000Y-59900000D03*
X152900000Y-59900000D03*
X139800000Y-51300000D03*
X140800000Y-51300000D03*
X140300000Y-51300000D03*
X141300000Y-51300000D03*
X140300000Y-50300000D03*
X139800000Y-50300000D03*
X140800000Y-50300000D03*
X141300000Y-50300000D03*
X148550000Y-60900000D03*
X149550000Y-60900000D03*
X149050000Y-60900000D03*
X150050000Y-60900000D03*
X149050000Y-59900000D03*
X148550000Y-59900000D03*
X149550000Y-59900000D03*
X150050000Y-59900000D03*
D14*
X121579000Y-47567000D03*
X122214000Y-47567000D03*
X122874400Y-47567000D03*
X123534800Y-47567000D03*
X124169800Y-47567000D03*
X124830200Y-47567000D03*
X125490600Y-47567000D03*
X126125600Y-47567000D03*
X126786000Y-47567000D03*
X127421000Y-47567000D03*
X127421000Y-42233000D03*
X126786000Y-42233000D03*
X126125600Y-42233000D03*
X125490600Y-42233000D03*
X124830200Y-42233000D03*
X124169800Y-42233000D03*
X123534800Y-42233000D03*
X122874400Y-42233000D03*
X122214000Y-42233000D03*
X121579000Y-42233000D03*
X130309000Y-57667000D03*
X130944000Y-57667000D03*
X131604400Y-57667000D03*
X132264800Y-57667000D03*
X132899800Y-57667000D03*
X133560200Y-57667000D03*
X134220600Y-57667000D03*
X134855600Y-57667000D03*
X135516000Y-57667000D03*
X136151000Y-57667000D03*
X136151000Y-52333000D03*
X135516000Y-52333000D03*
X134855600Y-52333000D03*
X134220600Y-52333000D03*
X133560200Y-52333000D03*
X132899800Y-52333000D03*
X132264800Y-52333000D03*
X131604400Y-52333000D03*
X130944000Y-52333000D03*
X130309000Y-52333000D03*
X139079000Y-47567000D03*
X139714000Y-47567000D03*
X140374400Y-47567000D03*
X141034800Y-47567000D03*
X141669800Y-47567000D03*
X142330200Y-47567000D03*
X142990600Y-47567000D03*
X143625600Y-47567000D03*
X144286000Y-47567000D03*
X144921000Y-47567000D03*
X144921000Y-42233000D03*
X144286000Y-42233000D03*
X143625600Y-42233000D03*
X142990600Y-42233000D03*
X142330200Y-42233000D03*
X141669800Y-42233000D03*
X141034800Y-42233000D03*
X140374400Y-42233000D03*
X139714000Y-42233000D03*
X139079000Y-42233000D03*
X147809000Y-57667000D03*
X148444000Y-57667000D03*
X149104400Y-57667000D03*
X149764800Y-57667000D03*
X150399800Y-57667000D03*
X151060200Y-57667000D03*
X151720600Y-57667000D03*
X152355600Y-57667000D03*
X153016000Y-57667000D03*
X153651000Y-57667000D03*
X153651000Y-52333000D03*
X153016000Y-52333000D03*
X152355600Y-52333000D03*
X151720600Y-52333000D03*
X151060200Y-52333000D03*
X150399800Y-52333000D03*
X149764800Y-52333000D03*
X149104400Y-52333000D03*
X148444000Y-52333000D03*
X147809000Y-52333000D03*
D18*
X76750000Y-51240000D03*
X75650000Y-51240000D03*
X94300000Y-51315000D03*
X93200000Y-51315000D03*
D11*
X85950000Y-40840000D03*
X85950000Y-39740000D03*
X68500000Y-40840000D03*
X68500000Y-39740000D03*
D18*
X111900000Y-51265000D03*
X110800000Y-51265000D03*
X129350000Y-51265000D03*
X128250000Y-51265000D03*
X146925000Y-51290000D03*
X145825000Y-51290000D03*
D11*
X103500000Y-40840000D03*
X103500000Y-39740000D03*
X121050000Y-40840000D03*
X121050000Y-39740000D03*
X139450000Y-40865000D03*
X139450000Y-39765000D03*
D18*
X76750000Y-52290000D03*
X75650000Y-52290000D03*
D11*
X86900000Y-40840000D03*
X86900000Y-39740000D03*
D18*
X94300000Y-52315000D03*
X93200000Y-52315000D03*
D11*
X104425000Y-40840000D03*
X104425000Y-39740000D03*
D18*
X111900000Y-52315000D03*
X110800000Y-52315000D03*
D11*
X121950000Y-40840000D03*
X121950000Y-39740000D03*
X138525000Y-40865000D03*
X138525000Y-39765000D03*
D18*
X129350000Y-52340000D03*
X128250000Y-52340000D03*
X146925000Y-52340000D03*
X145825000Y-52340000D03*
D19*
X91850000Y-73940000D03*
X88850000Y-73940000D03*
D20*
G36*
X78200000Y-50190000D02*
X75750000Y-50190000D01*
X75750000Y-46340000D01*
X75742121Y-46301094D01*
X75719727Y-46268319D01*
X75686346Y-46246839D01*
X75650000Y-46240000D01*
X68700000Y-46240000D01*
X68700000Y-43590000D01*
X75800000Y-43590000D01*
X75838906Y-43582121D01*
X75871681Y-43559727D01*
X75893161Y-43526346D01*
X75900000Y-43490000D01*
X75900000Y-43090000D01*
X78200000Y-43090000D01*
X78200000Y-50190000D01*
X78200000Y-50190000D01*
G37*
X78200000Y-50190000D02*
X75750000Y-50190000D01*
X75750000Y-46340000D01*
X75742121Y-46301094D01*
X75719727Y-46268319D01*
X75686346Y-46246839D01*
X75650000Y-46240000D01*
X68700000Y-46240000D01*
X68700000Y-43590000D01*
X75800000Y-43590000D01*
X75838906Y-43582121D01*
X75871681Y-43559727D01*
X75893161Y-43526346D01*
X75900000Y-43490000D01*
X75900000Y-43090000D01*
X78200000Y-43090000D01*
X78200000Y-50190000D01*
G36*
X101750000Y-56240000D02*
X96050000Y-56240000D01*
X96050000Y-53640000D01*
X101750000Y-53640000D01*
X101750000Y-56240000D01*
X101750000Y-56240000D01*
G37*
X101750000Y-56240000D02*
X96050000Y-56240000D01*
X96050000Y-53640000D01*
X101750000Y-53640000D01*
X101750000Y-56240000D01*
G36*
X95699985Y-50240000D02*
X93249973Y-50240000D01*
X93248887Y-46289973D01*
X93240998Y-46251069D01*
X93218594Y-46218300D01*
X93185207Y-46196829D01*
X93148887Y-46190000D01*
X87650117Y-46190000D01*
X87651113Y-45340117D01*
X87643280Y-45301202D01*
X87620924Y-45268401D01*
X87587568Y-45246882D01*
X87551113Y-45240000D01*
X86199938Y-45240000D01*
X86198949Y-43640000D01*
X93298887Y-43640000D01*
X93337793Y-43632121D01*
X93370568Y-43609727D01*
X93392048Y-43576346D01*
X93398887Y-43540000D01*
X93398887Y-43140000D01*
X95698902Y-43140000D01*
X95699985Y-50240000D01*
X95699985Y-50240000D01*
G37*
X95699985Y-50240000D02*
X93249973Y-50240000D01*
X93248887Y-46289973D01*
X93240998Y-46251069D01*
X93218594Y-46218300D01*
X93185207Y-46196829D01*
X93148887Y-46190000D01*
X87650117Y-46190000D01*
X87651113Y-45340117D01*
X87643280Y-45301202D01*
X87620924Y-45268401D01*
X87587568Y-45246882D01*
X87551113Y-45240000D01*
X86199938Y-45240000D01*
X86198949Y-43640000D01*
X93298887Y-43640000D01*
X93337793Y-43632121D01*
X93370568Y-43609727D01*
X93392048Y-43576346D01*
X93398887Y-43540000D01*
X93398887Y-43140000D01*
X95698902Y-43140000D01*
X95699985Y-50240000D01*
G36*
X84300000Y-56240000D02*
X79266675Y-56240000D01*
X79266675Y-53640000D01*
X84300000Y-53640000D01*
X84300000Y-56240000D01*
X84300000Y-56240000D01*
G37*
X84300000Y-56240000D02*
X79266675Y-56240000D01*
X79266675Y-53640000D01*
X84300000Y-53640000D01*
X84300000Y-56240000D01*
G36*
X113199985Y-50240000D02*
X110749973Y-50240000D01*
X110748887Y-46289973D01*
X110740998Y-46251069D01*
X110718594Y-46218300D01*
X110685207Y-46196829D01*
X110648887Y-46190000D01*
X105150117Y-46190000D01*
X105151113Y-45340117D01*
X105143280Y-45301202D01*
X105120924Y-45268401D01*
X105087568Y-45246882D01*
X105051113Y-45240000D01*
X103699938Y-45240000D01*
X103698949Y-43640000D01*
X110798887Y-43640000D01*
X110837793Y-43632121D01*
X110870568Y-43609727D01*
X110892048Y-43576346D01*
X110898887Y-43540000D01*
X110898887Y-43140000D01*
X113198902Y-43140000D01*
X113199985Y-50240000D01*
X113199985Y-50240000D01*
G37*
X113199985Y-50240000D02*
X110749973Y-50240000D01*
X110748887Y-46289973D01*
X110740998Y-46251069D01*
X110718594Y-46218300D01*
X110685207Y-46196829D01*
X110648887Y-46190000D01*
X105150117Y-46190000D01*
X105151113Y-45340117D01*
X105143280Y-45301202D01*
X105120924Y-45268401D01*
X105087568Y-45246882D01*
X105051113Y-45240000D01*
X103699938Y-45240000D01*
X103698949Y-43640000D01*
X110798887Y-43640000D01*
X110837793Y-43632121D01*
X110870568Y-43609727D01*
X110892048Y-43576346D01*
X110898887Y-43540000D01*
X110898887Y-43140000D01*
X113198902Y-43140000D01*
X113199985Y-50240000D01*
G36*
X130660643Y-50290000D02*
X128210631Y-50290000D01*
X128209545Y-46339973D01*
X128201656Y-46301069D01*
X128179252Y-46268300D01*
X128145865Y-46246829D01*
X128109545Y-46240000D01*
X122610775Y-46240000D01*
X122611771Y-45390117D01*
X122603938Y-45351202D01*
X122581582Y-45318401D01*
X122548226Y-45296882D01*
X122511771Y-45290000D01*
X121160596Y-45290000D01*
X121159607Y-43690000D01*
X128259545Y-43690000D01*
X128298451Y-43682121D01*
X128331226Y-43659727D01*
X128352706Y-43626346D01*
X128359545Y-43590000D01*
X128359545Y-43190000D01*
X130659560Y-43190000D01*
X130660643Y-50290000D01*
X130660643Y-50290000D01*
G37*
X130660643Y-50290000D02*
X128210631Y-50290000D01*
X128209545Y-46339973D01*
X128201656Y-46301069D01*
X128179252Y-46268300D01*
X128145865Y-46246829D01*
X128109545Y-46240000D01*
X122610775Y-46240000D01*
X122611771Y-45390117D01*
X122603938Y-45351202D01*
X122581582Y-45318401D01*
X122548226Y-45296882D01*
X122511771Y-45290000D01*
X121160596Y-45290000D01*
X121159607Y-43690000D01*
X128259545Y-43690000D01*
X128298451Y-43682121D01*
X128331226Y-43659727D01*
X128352706Y-43626346D01*
X128359545Y-43590000D01*
X128359545Y-43190000D01*
X130659560Y-43190000D01*
X130660643Y-50290000D01*
G36*
X148200391Y-50240000D02*
X145750379Y-50240000D01*
X145749293Y-46289973D01*
X145741404Y-46251069D01*
X145719000Y-46218300D01*
X145685613Y-46196829D01*
X145649293Y-46190000D01*
X140150523Y-46190000D01*
X140151519Y-45340117D01*
X140143686Y-45301202D01*
X140121330Y-45268401D01*
X140087974Y-45246882D01*
X140051519Y-45240000D01*
X138700344Y-45240000D01*
X138699355Y-43640000D01*
X145799293Y-43640000D01*
X145838199Y-43632121D01*
X145870974Y-43609727D01*
X145892454Y-43576346D01*
X145899293Y-43540000D01*
X145899293Y-43140000D01*
X148199308Y-43140000D01*
X148200391Y-50240000D01*
X148200391Y-50240000D01*
G37*
X148200391Y-50240000D02*
X145750379Y-50240000D01*
X145749293Y-46289973D01*
X145741404Y-46251069D01*
X145719000Y-46218300D01*
X145685613Y-46196829D01*
X145649293Y-46190000D01*
X140150523Y-46190000D01*
X140151519Y-45340117D01*
X140143686Y-45301202D01*
X140121330Y-45268401D01*
X140087974Y-45246882D01*
X140051519Y-45240000D01*
X138700344Y-45240000D01*
X138699355Y-43640000D01*
X145799293Y-43640000D01*
X145838199Y-43632121D01*
X145870974Y-43609727D01*
X145892454Y-43576346D01*
X145899293Y-43540000D01*
X145899293Y-43140000D01*
X148199308Y-43140000D01*
X148200391Y-50240000D01*
G36*
X119250000Y-56290000D02*
X113550000Y-56290000D01*
X113550000Y-53690000D01*
X119250000Y-53690000D01*
X119250000Y-56290000D01*
X119250000Y-56290000D01*
G37*
X119250000Y-56290000D02*
X113550000Y-56290000D01*
X113550000Y-53690000D01*
X119250000Y-53690000D01*
X119250000Y-56290000D01*
G36*
X136800000Y-56240000D02*
X131100000Y-56240000D01*
X131100000Y-53640000D01*
X136800000Y-53640000D01*
X136800000Y-56240000D01*
X136800000Y-56240000D01*
G37*
X136800000Y-56240000D02*
X131100000Y-56240000D01*
X131100000Y-53640000D01*
X136800000Y-53640000D01*
X136800000Y-56240000D01*
G36*
X154237603Y-56290000D02*
X148537603Y-56290000D01*
X148537603Y-53690000D01*
X154237603Y-53690000D01*
X154237603Y-56290000D01*
X154237603Y-56290000D01*
G37*
X154237603Y-56290000D02*
X148537603Y-56290000D01*
X148537603Y-53690000D01*
X154237603Y-53690000D01*
X154237603Y-56290000D01*
M02*
