G04 #@! TF.FileFunction,Copper,L2,Bot,Signal*
%FSLAX46Y46*%
G04 Gerber Fmt 4.6, Leading zero omitted, Abs format (unit mm)*
G04 Created by KiCad (PCBNEW 4.0.7-e2-6376~58~ubuntu16.04.1) date Thu Dec  7 19:32:10 2017*
%MOMM*%
%LPD*%
G01*
G04 APERTURE LIST*
%ADD10C,0.100000*%
%ADD11R,1.700000X1.700000*%
%ADD12C,1.700000*%
%ADD13O,1.700000X1.700000*%
%ADD14C,5.700000*%
%ADD15C,0.700000*%
%ADD16C,0.180000*%
%ADD17C,0.200000*%
G04 APERTURE END LIST*
D10*
D11*
X134500000Y-45000000D03*
D12*
X131960000Y-45000000D03*
X134500000Y-42460000D03*
X131960000Y-42460000D03*
X134500000Y-39920000D03*
X131960000Y-39920000D03*
X134500000Y-37380000D03*
X131960000Y-37380000D03*
X134500000Y-34840000D03*
X131960000Y-34840000D03*
X134500000Y-32300000D03*
X131960000Y-32300000D03*
X134500000Y-29760000D03*
X131960000Y-29760000D03*
X134500000Y-27220000D03*
X131960000Y-27220000D03*
D11*
X117000000Y-45000000D03*
D12*
X114460000Y-45000000D03*
X117000000Y-42460000D03*
X114460000Y-42460000D03*
X117000000Y-39920000D03*
X114460000Y-39920000D03*
X117000000Y-37380000D03*
X114460000Y-37380000D03*
X117000000Y-34840000D03*
X114460000Y-34840000D03*
X117000000Y-32300000D03*
X114460000Y-32300000D03*
X117000000Y-29760000D03*
X114460000Y-29760000D03*
X117000000Y-27220000D03*
X114460000Y-27220000D03*
D11*
X79250000Y-70890000D03*
D13*
X79250000Y-68350000D03*
X81790000Y-70890000D03*
X81790000Y-68350000D03*
X84330000Y-70890000D03*
X84330000Y-68350000D03*
X86870000Y-70890000D03*
X86870000Y-68350000D03*
X89410000Y-70890000D03*
X89410000Y-68350000D03*
X91950000Y-70890000D03*
X91950000Y-68350000D03*
X94490000Y-70890000D03*
X94490000Y-68350000D03*
X97030000Y-70890000D03*
X97030000Y-68350000D03*
X99570000Y-70890000D03*
X99570000Y-68350000D03*
X102110000Y-70890000D03*
X102110000Y-68350000D03*
X104650000Y-70890000D03*
X104650000Y-68350000D03*
X107190000Y-70890000D03*
X107190000Y-68350000D03*
X109730000Y-70890000D03*
X109730000Y-68350000D03*
X112270000Y-70890000D03*
X112270000Y-68350000D03*
X114810000Y-68350000D03*
X117350000Y-70890000D03*
X117350000Y-68350000D03*
X119890000Y-70890000D03*
X119890000Y-68350000D03*
X122430000Y-70890000D03*
X122430000Y-68350000D03*
X124970000Y-70890000D03*
X124970000Y-68350000D03*
X127510000Y-70890000D03*
X127510000Y-68350000D03*
D11*
X127510000Y-131340000D03*
D13*
X127510000Y-133880000D03*
X124970000Y-131340000D03*
X124970000Y-133880000D03*
X122430000Y-131340000D03*
X122430000Y-133880000D03*
X119890000Y-131340000D03*
X119890000Y-133880000D03*
X117350000Y-131340000D03*
X117350000Y-133880000D03*
X114810000Y-131340000D03*
X114810000Y-133880000D03*
X112270000Y-131340000D03*
X112270000Y-133880000D03*
X109730000Y-131340000D03*
X109730000Y-133880000D03*
X107190000Y-131340000D03*
X107190000Y-133880000D03*
X104650000Y-131340000D03*
X104650000Y-133880000D03*
X102110000Y-131340000D03*
X102110000Y-133880000D03*
X99570000Y-131340000D03*
X99570000Y-133880000D03*
X97030000Y-131340000D03*
X97030000Y-133880000D03*
X94490000Y-131340000D03*
X94490000Y-133880000D03*
X91950000Y-133880000D03*
X89410000Y-131340000D03*
X89410000Y-133880000D03*
X86870000Y-131340000D03*
X86870000Y-133880000D03*
X84330000Y-131340000D03*
X84330000Y-133880000D03*
X81790000Y-131340000D03*
X81790000Y-133880000D03*
X79250000Y-131340000D03*
X79250000Y-133880000D03*
D11*
X99500000Y-45000000D03*
D12*
X96960000Y-45000000D03*
X99500000Y-42460000D03*
X96960000Y-42460000D03*
X99500000Y-39920000D03*
X96960000Y-39920000D03*
X99500000Y-37380000D03*
X96960000Y-37380000D03*
X99500000Y-34840000D03*
X96960000Y-34840000D03*
X99500000Y-32300000D03*
X96960000Y-32300000D03*
X99500000Y-29760000D03*
X96960000Y-29760000D03*
X99500000Y-27220000D03*
X96960000Y-27220000D03*
D11*
X82000000Y-45000000D03*
D12*
X79460000Y-45000000D03*
X82000000Y-42460000D03*
X79460000Y-42460000D03*
X82000000Y-39920000D03*
X79460000Y-39920000D03*
X82000000Y-37380000D03*
X79460000Y-37380000D03*
X82000000Y-34840000D03*
X79460000Y-34840000D03*
X82000000Y-32300000D03*
X79460000Y-32300000D03*
X82000000Y-29760000D03*
X79460000Y-29760000D03*
X82000000Y-27220000D03*
X79460000Y-27220000D03*
D11*
X152000000Y-45000000D03*
D12*
X149460000Y-45000000D03*
X152000000Y-42460000D03*
X149460000Y-42460000D03*
X152000000Y-39920000D03*
X149460000Y-39920000D03*
X152000000Y-37380000D03*
X149460000Y-37380000D03*
X152000000Y-34840000D03*
X149460000Y-34840000D03*
X152000000Y-32300000D03*
X149460000Y-32300000D03*
X152000000Y-29760000D03*
X149460000Y-29760000D03*
X152000000Y-27220000D03*
X149460000Y-27220000D03*
D14*
X70000000Y-70000000D03*
X159650000Y-132230000D03*
X70000000Y-132230000D03*
X159650000Y-70000000D03*
X70000000Y-189850000D03*
X159650000Y-190770000D03*
X70000000Y-20000000D03*
X159650000Y-20000000D03*
D11*
X80520000Y-76980000D03*
D13*
X83060000Y-76980000D03*
X85600000Y-76980000D03*
X88140000Y-76980000D03*
X90680000Y-76980000D03*
X93220000Y-76980000D03*
X95760000Y-76980000D03*
X98300000Y-76980000D03*
X100840000Y-76980000D03*
X103380000Y-76980000D03*
D11*
X107450000Y-76980000D03*
D13*
X109990000Y-76980000D03*
X112530000Y-76980000D03*
X115070000Y-76980000D03*
X117610000Y-76980000D03*
X120150000Y-76980000D03*
X122690000Y-76980000D03*
X125230000Y-76980000D03*
D11*
X112530000Y-125240000D03*
D13*
X115070000Y-125240000D03*
X117610000Y-125240000D03*
X120150000Y-125240000D03*
X122690000Y-125240000D03*
X125230000Y-125240000D03*
D11*
X89670000Y-125240000D03*
D13*
X94750000Y-125240000D03*
X99830000Y-125240000D03*
X102370000Y-125240000D03*
X104910000Y-125240000D03*
X107450000Y-125240000D03*
D15*
X142050000Y-62190000D03*
X142050000Y-60690000D03*
X85050000Y-64190000D03*
X146300000Y-42440000D03*
X147550000Y-42440000D03*
X147550000Y-41190000D03*
X146300000Y-41190000D03*
X146300000Y-39940000D03*
X147550000Y-39940000D03*
X147550000Y-38690000D03*
X146300000Y-38690000D03*
X146300000Y-37440000D03*
X147550000Y-37440000D03*
X128800000Y-42440000D03*
X130050000Y-42440000D03*
X130050000Y-41190000D03*
X128800000Y-41190000D03*
X128800000Y-39940000D03*
X130050000Y-39940000D03*
X130050000Y-38690000D03*
X128800000Y-38690000D03*
X128800000Y-37440000D03*
X130050000Y-37440000D03*
X111300000Y-42440000D03*
X112550000Y-42440000D03*
X112550000Y-41190000D03*
X111300000Y-41190000D03*
X111300000Y-39940000D03*
X112550000Y-39940000D03*
X112550000Y-38690000D03*
X111300000Y-38690000D03*
X111300000Y-37440000D03*
X112550000Y-37440000D03*
X95050000Y-42440000D03*
X93800000Y-42440000D03*
X93800000Y-37440000D03*
X93800000Y-41190000D03*
X95050000Y-41190000D03*
X95050000Y-39940000D03*
X93800000Y-39940000D03*
X93800000Y-38690000D03*
X95050000Y-38690000D03*
X95050000Y-37440000D03*
X76300000Y-42440000D03*
X77550000Y-42440000D03*
X77550000Y-41190000D03*
X76300000Y-41190000D03*
X76300000Y-39940000D03*
X77550000Y-39940000D03*
X77550000Y-38690000D03*
X76300000Y-38690000D03*
X76300000Y-37440000D03*
X77550000Y-37440000D03*
X116875000Y-64790000D03*
X118025000Y-63640000D03*
X153750000Y-58915000D03*
X154525000Y-57665000D03*
X145725000Y-55915000D03*
X145725000Y-54740000D03*
X83800000Y-62890000D03*
X85050000Y-62940000D03*
X86300000Y-62940000D03*
X86300000Y-61790000D03*
X85050000Y-61790000D03*
X83800000Y-61790000D03*
X118650000Y-62140000D03*
X120250000Y-62140000D03*
X124450000Y-60740000D03*
X123050000Y-60740000D03*
X121650000Y-60740000D03*
X120250000Y-60740000D03*
X118750000Y-60740000D03*
X136150000Y-62190000D03*
X137550000Y-62190000D03*
X139050000Y-62190000D03*
X140550000Y-62190000D03*
X140550000Y-60690000D03*
X139050000Y-60690000D03*
X137550000Y-60690000D03*
X136150000Y-60690000D03*
X91475000Y-65915000D03*
X91925000Y-65240000D03*
X90825000Y-65265000D03*
X139450000Y-38965000D03*
X138525000Y-38965000D03*
X121950000Y-38965000D03*
X121050000Y-38965000D03*
X104425000Y-38940000D03*
X103500000Y-38940000D03*
X86900000Y-38915000D03*
X85950000Y-38915000D03*
X92250000Y-66790000D03*
X92725000Y-65890000D03*
X91225000Y-66690000D03*
X90250000Y-66165000D03*
X90325000Y-67115000D03*
X69450000Y-38940000D03*
X68550000Y-38940000D03*
X95175000Y-56665000D03*
X147800000Y-56540000D03*
X139075000Y-46465000D03*
X86575000Y-46515000D03*
X104075000Y-46515000D03*
X121575000Y-46515000D03*
X147350000Y-52565000D03*
X146925000Y-51815000D03*
X147600000Y-51265000D03*
X129850000Y-52565000D03*
X129350000Y-51815000D03*
X130075000Y-51265000D03*
X112325000Y-52565000D03*
X111900000Y-51765000D03*
X112625000Y-51290000D03*
X94825000Y-52590000D03*
X94300000Y-51790000D03*
X95100000Y-51240000D03*
X78150000Y-54315000D03*
X77300000Y-52540000D03*
X76750000Y-51715000D03*
X77475000Y-51240000D03*
X86625000Y-40965000D03*
X69125000Y-40915000D03*
X121700000Y-41090000D03*
X121025000Y-41390000D03*
X121025000Y-42365000D03*
X139200000Y-41140000D03*
X138475000Y-41390000D03*
X138525000Y-42340000D03*
X104250000Y-41109321D03*
X103500000Y-42340000D03*
X103500000Y-41265000D03*
X85950000Y-41365000D03*
X85950000Y-42265000D03*
X68450000Y-41240000D03*
X68450000Y-42140000D03*
X68850000Y-49140000D03*
X105925000Y-54740000D03*
X71100000Y-57240000D03*
X122900000Y-54790000D03*
X139100000Y-54790000D03*
X88400000Y-59890000D03*
X105175000Y-53965000D03*
X70375000Y-58365000D03*
X95780000Y-69540000D03*
X87450000Y-61040000D03*
X122100000Y-53990000D03*
X138250000Y-53990000D03*
X106700000Y-55540000D03*
X140100000Y-55540000D03*
X72325000Y-56715000D03*
X123600000Y-55540000D03*
X89400000Y-58590000D03*
X72375000Y-55665000D03*
X140400000Y-56590000D03*
X107700000Y-57040000D03*
X124350000Y-57040000D03*
X90050000Y-57540000D03*
X142900000Y-57440000D03*
X73375000Y-54640000D03*
X125250000Y-59040000D03*
X109400000Y-59040000D03*
X91700000Y-56340000D03*
X73625000Y-55915000D03*
X124850000Y-58090000D03*
X108550000Y-58090000D03*
X141300000Y-57540000D03*
X91600000Y-57690000D03*
X74275000Y-54115000D03*
X126000000Y-59940000D03*
X143000000Y-58690000D03*
X110300000Y-59940000D03*
X92100000Y-54990000D03*
D16*
X86250000Y-49340000D02*
X86250000Y-49440000D01*
X86350000Y-49240000D02*
X86250000Y-49340000D01*
X142050000Y-60690000D02*
X142050000Y-62190000D01*
X147550000Y-42440000D02*
X146300000Y-42440000D01*
X146300000Y-41190000D02*
X147550000Y-41190000D01*
X147550000Y-39940000D02*
X146300000Y-39940000D01*
X146300000Y-38690000D02*
X147550000Y-38690000D01*
X147550000Y-37440000D02*
X146300000Y-37440000D01*
X130050000Y-42440000D02*
X128800000Y-42440000D01*
X128800000Y-41190000D02*
X130050000Y-41190000D01*
X130050000Y-39940000D02*
X128800000Y-39940000D01*
X128800000Y-38690000D02*
X130050000Y-38690000D01*
X130050000Y-37440000D02*
X128800000Y-37440000D01*
X112550000Y-42440000D02*
X111300000Y-42440000D01*
X111300000Y-41190000D02*
X112550000Y-41190000D01*
X112550000Y-39940000D02*
X111300000Y-39940000D01*
X111300000Y-38690000D02*
X112550000Y-38690000D01*
X112550000Y-37440000D02*
X111300000Y-37440000D01*
X77550000Y-42440000D02*
X76300000Y-42440000D01*
X76300000Y-41190000D02*
X77550000Y-41190000D01*
X77550000Y-39940000D02*
X76300000Y-39940000D01*
X76300000Y-38690000D02*
X77550000Y-38690000D01*
X77550000Y-37440000D02*
X76300000Y-37440000D01*
X118025000Y-63640000D02*
X116875000Y-64790000D01*
X145725000Y-54740000D02*
X145725000Y-55915000D01*
X85050000Y-62940000D02*
X83850000Y-62940000D01*
X83850000Y-62940000D02*
X83800000Y-62890000D01*
X86300000Y-61790000D02*
X86300000Y-62940000D01*
X83800000Y-61790000D02*
X85050000Y-61790000D01*
X120250000Y-60740000D02*
X120250000Y-62140000D01*
X121650000Y-60740000D02*
X123050000Y-60740000D01*
X118750000Y-60740000D02*
X120250000Y-60740000D01*
X139050000Y-62190000D02*
X137550000Y-62190000D01*
X140550000Y-60690000D02*
X140550000Y-62190000D01*
X90825000Y-65265000D02*
X91900000Y-65265000D01*
X91900000Y-65265000D02*
X91925000Y-65240000D01*
X91275000Y-66615000D02*
X92225000Y-66615000D01*
X92225000Y-66615000D02*
X92425000Y-66815000D01*
X90350000Y-67040000D02*
X90350000Y-66215000D01*
X90350000Y-66215000D02*
X90550000Y-66015000D01*
X147800000Y-56540000D02*
X147350000Y-56090000D01*
X147350000Y-56090000D02*
X147350000Y-52565000D01*
X68850000Y-49140000D02*
X68750000Y-49140000D01*
X122900000Y-54790000D02*
X105975000Y-54790000D01*
X105975000Y-54790000D02*
X105925000Y-54740000D01*
X72300000Y-58440000D02*
X71100000Y-57240000D01*
X76600000Y-59890000D02*
X73750000Y-59890000D01*
X73750000Y-59890000D02*
X72300000Y-58440000D01*
X97030000Y-68350000D02*
X97030000Y-67770000D01*
X97030000Y-67770000D02*
X89150000Y-59890000D01*
X89150000Y-59890000D02*
X88400000Y-59890000D01*
X122900000Y-54790000D02*
X139100000Y-54790000D01*
X76600000Y-59890000D02*
X88400000Y-59890000D01*
X122100000Y-53990000D02*
X105200000Y-53990000D01*
X105200000Y-53990000D02*
X105175000Y-53965000D01*
X71400000Y-59390000D02*
X70375000Y-58365000D01*
X73050000Y-61040000D02*
X71400000Y-59390000D01*
X76350000Y-61040000D02*
X73050000Y-61040000D01*
X95780000Y-69540000D02*
X95780000Y-67820000D01*
X89000000Y-61040000D02*
X87450000Y-61040000D01*
X95780000Y-67820000D02*
X89000000Y-61040000D01*
X76350000Y-61040000D02*
X87450000Y-61040000D01*
X138250000Y-53990000D02*
X137755026Y-53990000D01*
X137755026Y-53990000D02*
X122100000Y-53990000D01*
X123600000Y-55540000D02*
X106700000Y-55540000D01*
X137700000Y-55540000D02*
X140100000Y-55540000D01*
X73200000Y-57590000D02*
X72325000Y-56715000D01*
X76500000Y-58590000D02*
X74200000Y-58590000D01*
X89400000Y-58590000D02*
X76500000Y-58590000D01*
X74200000Y-58590000D02*
X73200000Y-57590000D01*
X137700000Y-55540000D02*
X123600000Y-55540000D01*
X97030000Y-70890000D02*
X97030000Y-70810000D01*
X97030000Y-70810000D02*
X98300000Y-69540000D01*
X89400000Y-58690000D02*
X89400000Y-58590000D01*
X98300000Y-67590000D02*
X89400000Y-58690000D01*
X98300000Y-69540000D02*
X98300000Y-67590000D01*
X73000000Y-56290000D02*
X72375000Y-55665000D01*
X76750000Y-57540000D02*
X74250000Y-57540000D01*
X90050000Y-57540000D02*
X76750000Y-57540000D01*
X74250000Y-57540000D02*
X73000000Y-56290000D01*
X124350000Y-57040000D02*
X139950000Y-57040000D01*
X139950000Y-57040000D02*
X140400000Y-56590000D01*
X107700000Y-57040000D02*
X124350000Y-57040000D01*
X99570000Y-68350000D02*
X99570000Y-67060000D01*
X99570000Y-67060000D02*
X90050000Y-57540000D01*
X140600000Y-59040000D02*
X141300000Y-59040000D01*
X141300000Y-59040000D02*
X142900000Y-57440000D01*
X75050000Y-55840000D02*
X74575000Y-55840000D01*
X74575000Y-55840000D02*
X73375000Y-54640000D01*
X77250000Y-55840000D02*
X75050000Y-55840000D01*
X77250000Y-55840000D02*
X91200000Y-55840000D01*
X91700000Y-56340000D02*
X91200000Y-55840000D01*
X125250000Y-59040000D02*
X140600000Y-59040000D01*
X109400000Y-59040000D02*
X125250000Y-59040000D01*
X102110000Y-68350000D02*
X102110000Y-66750000D01*
X102110000Y-66750000D02*
X91700000Y-56340000D01*
X74150000Y-56440000D02*
X73625000Y-55915000D01*
X77050000Y-56740000D02*
X74450000Y-56740000D01*
X77050000Y-56740000D02*
X90650000Y-56740000D01*
X91600000Y-57690000D02*
X90650000Y-56740000D01*
X74450000Y-56740000D02*
X74150000Y-56440000D01*
X124850000Y-58090000D02*
X140750000Y-58090000D01*
X140750000Y-58090000D02*
X141300000Y-57540000D01*
X108550000Y-58090000D02*
X124850000Y-58090000D01*
X99570000Y-70890000D02*
X99570000Y-70620000D01*
X99570000Y-70620000D02*
X100850000Y-69340000D01*
X100850000Y-66940000D02*
X91600000Y-57690000D01*
X100850000Y-69340000D02*
X100850000Y-66940000D01*
X74750000Y-54590000D02*
X74275000Y-54115000D01*
X77450000Y-54990000D02*
X75150000Y-54990000D01*
X92100000Y-54990000D02*
X77450000Y-54990000D01*
X75150000Y-54990000D02*
X74750000Y-54590000D01*
X120250000Y-59940000D02*
X126000000Y-59940000D01*
X126000000Y-59940000D02*
X127750000Y-59940000D01*
X141750000Y-59940000D02*
X143000000Y-58690000D01*
X141400000Y-59940000D02*
X141750000Y-59940000D01*
X127750000Y-59940000D02*
X141400000Y-59940000D01*
X110300000Y-59940000D02*
X120250000Y-59940000D01*
X102110000Y-70890000D02*
X102110000Y-70830000D01*
X102110000Y-70830000D02*
X103400000Y-69540000D01*
X103400000Y-66290000D02*
X92100000Y-54990000D01*
X103400000Y-69540000D02*
X103400000Y-66290000D01*
D17*
G36*
X71950000Y-43740000D02*
X71957879Y-43778906D01*
X71980273Y-43811681D01*
X72013654Y-43833161D01*
X72050000Y-43840000D01*
X85350000Y-43840000D01*
X85388906Y-43832121D01*
X85421681Y-43809727D01*
X85443161Y-43776346D01*
X85450000Y-43740000D01*
X85450000Y-40440000D01*
X89450000Y-40440000D01*
X89450000Y-43740000D01*
X89457879Y-43778906D01*
X89480273Y-43811681D01*
X89513654Y-43833161D01*
X89550000Y-43840000D01*
X102850000Y-43840000D01*
X102888906Y-43832121D01*
X102921681Y-43809727D01*
X102943161Y-43776346D01*
X102950000Y-43740000D01*
X102950000Y-40440000D01*
X106950000Y-40440000D01*
X106950000Y-43740000D01*
X106957879Y-43778906D01*
X106980273Y-43811681D01*
X107013654Y-43833161D01*
X107050000Y-43840000D01*
X120350000Y-43840000D01*
X120388906Y-43832121D01*
X120421681Y-43809727D01*
X120443161Y-43776346D01*
X120450000Y-43740000D01*
X120450000Y-40440000D01*
X124450000Y-40440000D01*
X124450000Y-43740000D01*
X124457879Y-43778906D01*
X124480273Y-43811681D01*
X124513654Y-43833161D01*
X124550000Y-43840000D01*
X137850000Y-43840000D01*
X137888906Y-43832121D01*
X137921681Y-43809727D01*
X137943161Y-43776346D01*
X137950000Y-43740000D01*
X137950000Y-40440000D01*
X141950000Y-40440000D01*
X141950000Y-43740000D01*
X141957879Y-43778906D01*
X141980273Y-43811681D01*
X142013654Y-43833161D01*
X142050000Y-43840000D01*
X148850000Y-43840000D01*
X148850000Y-44007745D01*
X148809428Y-44024509D01*
X148485646Y-44347727D01*
X148310200Y-44770247D01*
X148309801Y-45227746D01*
X148484509Y-45650572D01*
X148807727Y-45974354D01*
X148850000Y-45991907D01*
X148850000Y-53740000D01*
X138850003Y-53740000D01*
X138801364Y-53622286D01*
X138618676Y-53439278D01*
X138379860Y-53340113D01*
X138121274Y-53339888D01*
X137882286Y-53438636D01*
X137720639Y-53600000D01*
X122629117Y-53600000D01*
X122468676Y-53439278D01*
X122229860Y-53340113D01*
X121971274Y-53339888D01*
X121732286Y-53438636D01*
X121570639Y-53600000D01*
X105727485Y-53600000D01*
X105726364Y-53597286D01*
X105543676Y-53414278D01*
X105304860Y-53315113D01*
X105046274Y-53314888D01*
X104807286Y-53413636D01*
X104624278Y-53596324D01*
X104525113Y-53835140D01*
X104524888Y-54093726D01*
X104623636Y-54332714D01*
X104806324Y-54515722D01*
X105045140Y-54614887D01*
X105275109Y-54615087D01*
X105274888Y-54868726D01*
X105373636Y-55107714D01*
X105556324Y-55290722D01*
X105795140Y-55389887D01*
X106053726Y-55390112D01*
X106059403Y-55387766D01*
X106050113Y-55410140D01*
X106049888Y-55668726D01*
X106148636Y-55907714D01*
X106331324Y-56090722D01*
X106570140Y-56189887D01*
X106828726Y-56190112D01*
X107067714Y-56091364D01*
X107229361Y-55930000D01*
X112972646Y-55930000D01*
X112971835Y-56650000D01*
X108229117Y-56650000D01*
X108068676Y-56489278D01*
X107829860Y-56390113D01*
X107571274Y-56389888D01*
X107332286Y-56488636D01*
X107149278Y-56671324D01*
X107050113Y-56910140D01*
X107049888Y-57168726D01*
X107148636Y-57407714D01*
X107331324Y-57590722D01*
X107570140Y-57689887D01*
X107828726Y-57690112D01*
X108067714Y-57591364D01*
X108229361Y-57430000D01*
X112970957Y-57430000D01*
X112970653Y-57700000D01*
X109079117Y-57700000D01*
X108918676Y-57539278D01*
X108679860Y-57440113D01*
X108421274Y-57439888D01*
X108182286Y-57538636D01*
X107999278Y-57721324D01*
X107900113Y-57960140D01*
X107899888Y-58218726D01*
X107998636Y-58457714D01*
X108181324Y-58640722D01*
X108420140Y-58739887D01*
X108678726Y-58740112D01*
X108852154Y-58668453D01*
X108849278Y-58671324D01*
X108750113Y-58910140D01*
X108749888Y-59168726D01*
X108848636Y-59407714D01*
X109031324Y-59590722D01*
X109270140Y-59689887D01*
X109528726Y-59690112D01*
X109735415Y-59604710D01*
X109650113Y-59810140D01*
X109649888Y-60068726D01*
X109748636Y-60307714D01*
X109931324Y-60490722D01*
X110170140Y-60589887D01*
X110428726Y-60590112D01*
X110667714Y-60491364D01*
X110829361Y-60330000D01*
X112967691Y-60330000D01*
X112959694Y-67431791D01*
X112710086Y-67265009D01*
X112270000Y-67177470D01*
X111829914Y-67265009D01*
X111456827Y-67514297D01*
X111207539Y-67887384D01*
X111120000Y-68327470D01*
X111120000Y-68372530D01*
X111207539Y-68812616D01*
X111456827Y-69185703D01*
X111829914Y-69434991D01*
X112270000Y-69522530D01*
X112710086Y-69434991D01*
X112957624Y-69269592D01*
X112956836Y-69969881D01*
X112710086Y-69805009D01*
X112270000Y-69717470D01*
X111829914Y-69805009D01*
X111456827Y-70054297D01*
X111207539Y-70427384D01*
X111120000Y-70867470D01*
X111120000Y-70912530D01*
X111207539Y-71352616D01*
X111456827Y-71725703D01*
X111829914Y-71974991D01*
X112270000Y-72062530D01*
X112710086Y-71974991D01*
X112954762Y-71811504D01*
X112950168Y-75891047D01*
X112530000Y-75807470D01*
X112089914Y-75895009D01*
X112029340Y-75935483D01*
X110480402Y-75928629D01*
X110430086Y-75895009D01*
X109990000Y-75807470D01*
X109549914Y-75895009D01*
X109506050Y-75924318D01*
X108521340Y-75919961D01*
X108519255Y-75916721D01*
X108419003Y-75848222D01*
X108300000Y-75824123D01*
X106600000Y-75824123D01*
X106488827Y-75845042D01*
X106387075Y-75910517D01*
X103826338Y-75899187D01*
X103820086Y-75895009D01*
X103380000Y-75807470D01*
X102939914Y-75895009D01*
X102939534Y-75895263D01*
X101243637Y-75887759D01*
X100840000Y-75807470D01*
X100453930Y-75884264D01*
X98645850Y-75876264D01*
X98300000Y-75807470D01*
X97969202Y-75873270D01*
X96048063Y-75864770D01*
X95760000Y-75807470D01*
X95484474Y-75862276D01*
X93450276Y-75853275D01*
X93220000Y-75807470D01*
X92999746Y-75851282D01*
X90852489Y-75841780D01*
X90680000Y-75807470D01*
X90550000Y-75833329D01*
X90550000Y-70962803D01*
X90560000Y-70912530D01*
X90560000Y-70867470D01*
X90550000Y-70817197D01*
X90550000Y-69940000D01*
X93847885Y-69940000D01*
X93676827Y-70054297D01*
X93427539Y-70427384D01*
X93340000Y-70867470D01*
X93340000Y-70912530D01*
X93427539Y-71352616D01*
X93676827Y-71725703D01*
X94049914Y-71974991D01*
X94490000Y-72062530D01*
X94603265Y-72040000D01*
X96916735Y-72040000D01*
X97030000Y-72062530D01*
X97143265Y-72040000D01*
X99456735Y-72040000D01*
X99570000Y-72062530D01*
X99683265Y-72040000D01*
X101996735Y-72040000D01*
X102110000Y-72062530D01*
X102550086Y-71974991D01*
X102923173Y-71725703D01*
X103172461Y-71352616D01*
X103260000Y-70912530D01*
X103260000Y-70867470D01*
X103500000Y-70867470D01*
X103500000Y-70912530D01*
X103587539Y-71352616D01*
X103836827Y-71725703D01*
X104209914Y-71974991D01*
X104650000Y-72062530D01*
X105090086Y-71974991D01*
X105463173Y-71725703D01*
X105712461Y-71352616D01*
X105800000Y-70912530D01*
X105800000Y-70867470D01*
X106040000Y-70867470D01*
X106040000Y-70912530D01*
X106127539Y-71352616D01*
X106376827Y-71725703D01*
X106749914Y-71974991D01*
X107190000Y-72062530D01*
X107630086Y-71974991D01*
X108003173Y-71725703D01*
X108252461Y-71352616D01*
X108340000Y-70912530D01*
X108340000Y-70867470D01*
X108580000Y-70867470D01*
X108580000Y-70912530D01*
X108667539Y-71352616D01*
X108916827Y-71725703D01*
X109289914Y-71974991D01*
X109730000Y-72062530D01*
X110170086Y-71974991D01*
X110543173Y-71725703D01*
X110792461Y-71352616D01*
X110880000Y-70912530D01*
X110880000Y-70867470D01*
X110792461Y-70427384D01*
X110543173Y-70054297D01*
X110170086Y-69805009D01*
X109730000Y-69717470D01*
X109289914Y-69805009D01*
X108916827Y-70054297D01*
X108667539Y-70427384D01*
X108580000Y-70867470D01*
X108340000Y-70867470D01*
X108252461Y-70427384D01*
X108003173Y-70054297D01*
X107630086Y-69805009D01*
X107190000Y-69717470D01*
X106749914Y-69805009D01*
X106376827Y-70054297D01*
X106127539Y-70427384D01*
X106040000Y-70867470D01*
X105800000Y-70867470D01*
X105712461Y-70427384D01*
X105463173Y-70054297D01*
X105090086Y-69805009D01*
X104650000Y-69717470D01*
X104209914Y-69805009D01*
X103836827Y-70054297D01*
X103587539Y-70427384D01*
X103500000Y-70867470D01*
X103260000Y-70867470D01*
X103172461Y-70427384D01*
X103145055Y-70386367D01*
X103720711Y-69810711D01*
X103742650Y-69777629D01*
X103750000Y-69740000D01*
X103750000Y-69704682D01*
X103760313Y-69689247D01*
X103790000Y-69540000D01*
X103790000Y-69115621D01*
X103836827Y-69185703D01*
X104209914Y-69434991D01*
X104650000Y-69522530D01*
X105090086Y-69434991D01*
X105463173Y-69185703D01*
X105712461Y-68812616D01*
X105800000Y-68372530D01*
X105800000Y-68327470D01*
X106040000Y-68327470D01*
X106040000Y-68372530D01*
X106127539Y-68812616D01*
X106376827Y-69185703D01*
X106749914Y-69434991D01*
X107190000Y-69522530D01*
X107630086Y-69434991D01*
X108003173Y-69185703D01*
X108252461Y-68812616D01*
X108340000Y-68372530D01*
X108340000Y-68327470D01*
X108580000Y-68327470D01*
X108580000Y-68372530D01*
X108667539Y-68812616D01*
X108916827Y-69185703D01*
X109289914Y-69434991D01*
X109730000Y-69522530D01*
X110170086Y-69434991D01*
X110543173Y-69185703D01*
X110792461Y-68812616D01*
X110880000Y-68372530D01*
X110880000Y-68327470D01*
X110792461Y-67887384D01*
X110543173Y-67514297D01*
X110170086Y-67265009D01*
X109730000Y-67177470D01*
X109289914Y-67265009D01*
X108916827Y-67514297D01*
X108667539Y-67887384D01*
X108580000Y-68327470D01*
X108340000Y-68327470D01*
X108252461Y-67887384D01*
X108003173Y-67514297D01*
X107630086Y-67265009D01*
X107190000Y-67177470D01*
X106749914Y-67265009D01*
X106376827Y-67514297D01*
X106127539Y-67887384D01*
X106040000Y-68327470D01*
X105800000Y-68327470D01*
X105712461Y-67887384D01*
X105463173Y-67514297D01*
X105090086Y-67265009D01*
X104650000Y-67177470D01*
X104209914Y-67265009D01*
X103836827Y-67514297D01*
X103790000Y-67584379D01*
X103790000Y-66290000D01*
X103760313Y-66140753D01*
X103750000Y-66125318D01*
X103750000Y-66040000D01*
X103742121Y-66001094D01*
X103720711Y-65969289D01*
X92749992Y-54998570D01*
X92750112Y-54861274D01*
X92651364Y-54622286D01*
X92468676Y-54439278D01*
X92229860Y-54340113D01*
X91971274Y-54339888D01*
X91732286Y-54438636D01*
X91570639Y-54600000D01*
X75311543Y-54600000D01*
X75025772Y-54314228D01*
X75025769Y-54314226D01*
X74924914Y-54213371D01*
X74925112Y-53986274D01*
X74826364Y-53747286D01*
X74643676Y-53564278D01*
X74404860Y-53465113D01*
X74146274Y-53464888D01*
X73907286Y-53563636D01*
X73724278Y-53746324D01*
X73625113Y-53985140D01*
X73625065Y-54040027D01*
X73504860Y-53990113D01*
X73246274Y-53989888D01*
X73007286Y-54088636D01*
X72824278Y-54271324D01*
X72725113Y-54510140D01*
X72724913Y-54740000D01*
X67975000Y-54740000D01*
X67975000Y-49340000D01*
X85859999Y-49340000D01*
X85860000Y-49340005D01*
X85860000Y-49440000D01*
X85889687Y-49589247D01*
X85974228Y-49715772D01*
X86100753Y-49800313D01*
X86250000Y-49830000D01*
X86399247Y-49800313D01*
X86525772Y-49715772D01*
X86610313Y-49589247D01*
X86624719Y-49516824D01*
X86625771Y-49515772D01*
X86710313Y-49389246D01*
X86740000Y-49240000D01*
X86710313Y-49090754D01*
X86625771Y-48964229D01*
X86499246Y-48879687D01*
X86350000Y-48850000D01*
X86200754Y-48879687D01*
X86074228Y-48964229D01*
X85974228Y-49064228D01*
X85889687Y-49190753D01*
X85889687Y-49190754D01*
X85859999Y-49340000D01*
X67975000Y-49340000D01*
X67975000Y-45227746D01*
X78309801Y-45227746D01*
X78484509Y-45650572D01*
X78807727Y-45974354D01*
X79230247Y-46149800D01*
X79687746Y-46150199D01*
X80110572Y-45975491D01*
X80434354Y-45652273D01*
X80609800Y-45229753D01*
X80610199Y-44772254D01*
X80435491Y-44349428D01*
X80236411Y-44150000D01*
X80844123Y-44150000D01*
X80844123Y-45850000D01*
X80865042Y-45961173D01*
X80930745Y-46063279D01*
X81030997Y-46131778D01*
X81150000Y-46155877D01*
X82850000Y-46155877D01*
X82961173Y-46134958D01*
X83063279Y-46069255D01*
X83131778Y-45969003D01*
X83155877Y-45850000D01*
X83155877Y-45227746D01*
X95809801Y-45227746D01*
X95984509Y-45650572D01*
X96307727Y-45974354D01*
X96730247Y-46149800D01*
X97187746Y-46150199D01*
X97610572Y-45975491D01*
X97934354Y-45652273D01*
X98109800Y-45229753D01*
X98110199Y-44772254D01*
X97935491Y-44349428D01*
X97736411Y-44150000D01*
X98344123Y-44150000D01*
X98344123Y-45850000D01*
X98365042Y-45961173D01*
X98430745Y-46063279D01*
X98530997Y-46131778D01*
X98650000Y-46155877D01*
X100350000Y-46155877D01*
X100461173Y-46134958D01*
X100563279Y-46069255D01*
X100631778Y-45969003D01*
X100655877Y-45850000D01*
X100655877Y-45227746D01*
X113309801Y-45227746D01*
X113484509Y-45650572D01*
X113807727Y-45974354D01*
X114230247Y-46149800D01*
X114687746Y-46150199D01*
X115110572Y-45975491D01*
X115434354Y-45652273D01*
X115609800Y-45229753D01*
X115610199Y-44772254D01*
X115435491Y-44349428D01*
X115236411Y-44150000D01*
X115844123Y-44150000D01*
X115844123Y-45850000D01*
X115865042Y-45961173D01*
X115930745Y-46063279D01*
X116030997Y-46131778D01*
X116150000Y-46155877D01*
X117850000Y-46155877D01*
X117961173Y-46134958D01*
X118063279Y-46069255D01*
X118131778Y-45969003D01*
X118155877Y-45850000D01*
X118155877Y-45227746D01*
X130809801Y-45227746D01*
X130984509Y-45650572D01*
X131307727Y-45974354D01*
X131730247Y-46149800D01*
X132187746Y-46150199D01*
X132610572Y-45975491D01*
X132934354Y-45652273D01*
X133109800Y-45229753D01*
X133110199Y-44772254D01*
X132935491Y-44349428D01*
X132736411Y-44150000D01*
X133344123Y-44150000D01*
X133344123Y-45850000D01*
X133365042Y-45961173D01*
X133430745Y-46063279D01*
X133530997Y-46131778D01*
X133650000Y-46155877D01*
X135350000Y-46155877D01*
X135461173Y-46134958D01*
X135563279Y-46069255D01*
X135631778Y-45969003D01*
X135655877Y-45850000D01*
X135655877Y-44150000D01*
X135634958Y-44038827D01*
X135569255Y-43936721D01*
X135469003Y-43868222D01*
X135350000Y-43844123D01*
X133650000Y-43844123D01*
X133538827Y-43865042D01*
X133436721Y-43930745D01*
X133368222Y-44030997D01*
X133344123Y-44150000D01*
X132736411Y-44150000D01*
X132612273Y-44025646D01*
X132189753Y-43850200D01*
X131732254Y-43849801D01*
X131309428Y-44024509D01*
X130985646Y-44347727D01*
X130810200Y-44770247D01*
X130809801Y-45227746D01*
X118155877Y-45227746D01*
X118155877Y-44150000D01*
X118134958Y-44038827D01*
X118069255Y-43936721D01*
X117969003Y-43868222D01*
X117850000Y-43844123D01*
X116150000Y-43844123D01*
X116038827Y-43865042D01*
X115936721Y-43930745D01*
X115868222Y-44030997D01*
X115844123Y-44150000D01*
X115236411Y-44150000D01*
X115112273Y-44025646D01*
X114689753Y-43850200D01*
X114232254Y-43849801D01*
X113809428Y-44024509D01*
X113485646Y-44347727D01*
X113310200Y-44770247D01*
X113309801Y-45227746D01*
X100655877Y-45227746D01*
X100655877Y-44150000D01*
X100634958Y-44038827D01*
X100569255Y-43936721D01*
X100469003Y-43868222D01*
X100350000Y-43844123D01*
X98650000Y-43844123D01*
X98538827Y-43865042D01*
X98436721Y-43930745D01*
X98368222Y-44030997D01*
X98344123Y-44150000D01*
X97736411Y-44150000D01*
X97612273Y-44025646D01*
X97189753Y-43850200D01*
X96732254Y-43849801D01*
X96309428Y-44024509D01*
X95985646Y-44347727D01*
X95810200Y-44770247D01*
X95809801Y-45227746D01*
X83155877Y-45227746D01*
X83155877Y-44150000D01*
X83134958Y-44038827D01*
X83069255Y-43936721D01*
X82969003Y-43868222D01*
X82850000Y-43844123D01*
X81150000Y-43844123D01*
X81038827Y-43865042D01*
X80936721Y-43930745D01*
X80868222Y-44030997D01*
X80844123Y-44150000D01*
X80236411Y-44150000D01*
X80112273Y-44025646D01*
X79689753Y-43850200D01*
X79232254Y-43849801D01*
X78809428Y-44024509D01*
X78485646Y-44347727D01*
X78310200Y-44770247D01*
X78309801Y-45227746D01*
X67975000Y-45227746D01*
X67975000Y-40440000D01*
X71950000Y-40440000D01*
X71950000Y-43740000D01*
X71950000Y-43740000D01*
G37*
X71950000Y-43740000D02*
X71957879Y-43778906D01*
X71980273Y-43811681D01*
X72013654Y-43833161D01*
X72050000Y-43840000D01*
X85350000Y-43840000D01*
X85388906Y-43832121D01*
X85421681Y-43809727D01*
X85443161Y-43776346D01*
X85450000Y-43740000D01*
X85450000Y-40440000D01*
X89450000Y-40440000D01*
X89450000Y-43740000D01*
X89457879Y-43778906D01*
X89480273Y-43811681D01*
X89513654Y-43833161D01*
X89550000Y-43840000D01*
X102850000Y-43840000D01*
X102888906Y-43832121D01*
X102921681Y-43809727D01*
X102943161Y-43776346D01*
X102950000Y-43740000D01*
X102950000Y-40440000D01*
X106950000Y-40440000D01*
X106950000Y-43740000D01*
X106957879Y-43778906D01*
X106980273Y-43811681D01*
X107013654Y-43833161D01*
X107050000Y-43840000D01*
X120350000Y-43840000D01*
X120388906Y-43832121D01*
X120421681Y-43809727D01*
X120443161Y-43776346D01*
X120450000Y-43740000D01*
X120450000Y-40440000D01*
X124450000Y-40440000D01*
X124450000Y-43740000D01*
X124457879Y-43778906D01*
X124480273Y-43811681D01*
X124513654Y-43833161D01*
X124550000Y-43840000D01*
X137850000Y-43840000D01*
X137888906Y-43832121D01*
X137921681Y-43809727D01*
X137943161Y-43776346D01*
X137950000Y-43740000D01*
X137950000Y-40440000D01*
X141950000Y-40440000D01*
X141950000Y-43740000D01*
X141957879Y-43778906D01*
X141980273Y-43811681D01*
X142013654Y-43833161D01*
X142050000Y-43840000D01*
X148850000Y-43840000D01*
X148850000Y-44007745D01*
X148809428Y-44024509D01*
X148485646Y-44347727D01*
X148310200Y-44770247D01*
X148309801Y-45227746D01*
X148484509Y-45650572D01*
X148807727Y-45974354D01*
X148850000Y-45991907D01*
X148850000Y-53740000D01*
X138850003Y-53740000D01*
X138801364Y-53622286D01*
X138618676Y-53439278D01*
X138379860Y-53340113D01*
X138121274Y-53339888D01*
X137882286Y-53438636D01*
X137720639Y-53600000D01*
X122629117Y-53600000D01*
X122468676Y-53439278D01*
X122229860Y-53340113D01*
X121971274Y-53339888D01*
X121732286Y-53438636D01*
X121570639Y-53600000D01*
X105727485Y-53600000D01*
X105726364Y-53597286D01*
X105543676Y-53414278D01*
X105304860Y-53315113D01*
X105046274Y-53314888D01*
X104807286Y-53413636D01*
X104624278Y-53596324D01*
X104525113Y-53835140D01*
X104524888Y-54093726D01*
X104623636Y-54332714D01*
X104806324Y-54515722D01*
X105045140Y-54614887D01*
X105275109Y-54615087D01*
X105274888Y-54868726D01*
X105373636Y-55107714D01*
X105556324Y-55290722D01*
X105795140Y-55389887D01*
X106053726Y-55390112D01*
X106059403Y-55387766D01*
X106050113Y-55410140D01*
X106049888Y-55668726D01*
X106148636Y-55907714D01*
X106331324Y-56090722D01*
X106570140Y-56189887D01*
X106828726Y-56190112D01*
X107067714Y-56091364D01*
X107229361Y-55930000D01*
X112972646Y-55930000D01*
X112971835Y-56650000D01*
X108229117Y-56650000D01*
X108068676Y-56489278D01*
X107829860Y-56390113D01*
X107571274Y-56389888D01*
X107332286Y-56488636D01*
X107149278Y-56671324D01*
X107050113Y-56910140D01*
X107049888Y-57168726D01*
X107148636Y-57407714D01*
X107331324Y-57590722D01*
X107570140Y-57689887D01*
X107828726Y-57690112D01*
X108067714Y-57591364D01*
X108229361Y-57430000D01*
X112970957Y-57430000D01*
X112970653Y-57700000D01*
X109079117Y-57700000D01*
X108918676Y-57539278D01*
X108679860Y-57440113D01*
X108421274Y-57439888D01*
X108182286Y-57538636D01*
X107999278Y-57721324D01*
X107900113Y-57960140D01*
X107899888Y-58218726D01*
X107998636Y-58457714D01*
X108181324Y-58640722D01*
X108420140Y-58739887D01*
X108678726Y-58740112D01*
X108852154Y-58668453D01*
X108849278Y-58671324D01*
X108750113Y-58910140D01*
X108749888Y-59168726D01*
X108848636Y-59407714D01*
X109031324Y-59590722D01*
X109270140Y-59689887D01*
X109528726Y-59690112D01*
X109735415Y-59604710D01*
X109650113Y-59810140D01*
X109649888Y-60068726D01*
X109748636Y-60307714D01*
X109931324Y-60490722D01*
X110170140Y-60589887D01*
X110428726Y-60590112D01*
X110667714Y-60491364D01*
X110829361Y-60330000D01*
X112967691Y-60330000D01*
X112959694Y-67431791D01*
X112710086Y-67265009D01*
X112270000Y-67177470D01*
X111829914Y-67265009D01*
X111456827Y-67514297D01*
X111207539Y-67887384D01*
X111120000Y-68327470D01*
X111120000Y-68372530D01*
X111207539Y-68812616D01*
X111456827Y-69185703D01*
X111829914Y-69434991D01*
X112270000Y-69522530D01*
X112710086Y-69434991D01*
X112957624Y-69269592D01*
X112956836Y-69969881D01*
X112710086Y-69805009D01*
X112270000Y-69717470D01*
X111829914Y-69805009D01*
X111456827Y-70054297D01*
X111207539Y-70427384D01*
X111120000Y-70867470D01*
X111120000Y-70912530D01*
X111207539Y-71352616D01*
X111456827Y-71725703D01*
X111829914Y-71974991D01*
X112270000Y-72062530D01*
X112710086Y-71974991D01*
X112954762Y-71811504D01*
X112950168Y-75891047D01*
X112530000Y-75807470D01*
X112089914Y-75895009D01*
X112029340Y-75935483D01*
X110480402Y-75928629D01*
X110430086Y-75895009D01*
X109990000Y-75807470D01*
X109549914Y-75895009D01*
X109506050Y-75924318D01*
X108521340Y-75919961D01*
X108519255Y-75916721D01*
X108419003Y-75848222D01*
X108300000Y-75824123D01*
X106600000Y-75824123D01*
X106488827Y-75845042D01*
X106387075Y-75910517D01*
X103826338Y-75899187D01*
X103820086Y-75895009D01*
X103380000Y-75807470D01*
X102939914Y-75895009D01*
X102939534Y-75895263D01*
X101243637Y-75887759D01*
X100840000Y-75807470D01*
X100453930Y-75884264D01*
X98645850Y-75876264D01*
X98300000Y-75807470D01*
X97969202Y-75873270D01*
X96048063Y-75864770D01*
X95760000Y-75807470D01*
X95484474Y-75862276D01*
X93450276Y-75853275D01*
X93220000Y-75807470D01*
X92999746Y-75851282D01*
X90852489Y-75841780D01*
X90680000Y-75807470D01*
X90550000Y-75833329D01*
X90550000Y-70962803D01*
X90560000Y-70912530D01*
X90560000Y-70867470D01*
X90550000Y-70817197D01*
X90550000Y-69940000D01*
X93847885Y-69940000D01*
X93676827Y-70054297D01*
X93427539Y-70427384D01*
X93340000Y-70867470D01*
X93340000Y-70912530D01*
X93427539Y-71352616D01*
X93676827Y-71725703D01*
X94049914Y-71974991D01*
X94490000Y-72062530D01*
X94603265Y-72040000D01*
X96916735Y-72040000D01*
X97030000Y-72062530D01*
X97143265Y-72040000D01*
X99456735Y-72040000D01*
X99570000Y-72062530D01*
X99683265Y-72040000D01*
X101996735Y-72040000D01*
X102110000Y-72062530D01*
X102550086Y-71974991D01*
X102923173Y-71725703D01*
X103172461Y-71352616D01*
X103260000Y-70912530D01*
X103260000Y-70867470D01*
X103500000Y-70867470D01*
X103500000Y-70912530D01*
X103587539Y-71352616D01*
X103836827Y-71725703D01*
X104209914Y-71974991D01*
X104650000Y-72062530D01*
X105090086Y-71974991D01*
X105463173Y-71725703D01*
X105712461Y-71352616D01*
X105800000Y-70912530D01*
X105800000Y-70867470D01*
X106040000Y-70867470D01*
X106040000Y-70912530D01*
X106127539Y-71352616D01*
X106376827Y-71725703D01*
X106749914Y-71974991D01*
X107190000Y-72062530D01*
X107630086Y-71974991D01*
X108003173Y-71725703D01*
X108252461Y-71352616D01*
X108340000Y-70912530D01*
X108340000Y-70867470D01*
X108580000Y-70867470D01*
X108580000Y-70912530D01*
X108667539Y-71352616D01*
X108916827Y-71725703D01*
X109289914Y-71974991D01*
X109730000Y-72062530D01*
X110170086Y-71974991D01*
X110543173Y-71725703D01*
X110792461Y-71352616D01*
X110880000Y-70912530D01*
X110880000Y-70867470D01*
X110792461Y-70427384D01*
X110543173Y-70054297D01*
X110170086Y-69805009D01*
X109730000Y-69717470D01*
X109289914Y-69805009D01*
X108916827Y-70054297D01*
X108667539Y-70427384D01*
X108580000Y-70867470D01*
X108340000Y-70867470D01*
X108252461Y-70427384D01*
X108003173Y-70054297D01*
X107630086Y-69805009D01*
X107190000Y-69717470D01*
X106749914Y-69805009D01*
X106376827Y-70054297D01*
X106127539Y-70427384D01*
X106040000Y-70867470D01*
X105800000Y-70867470D01*
X105712461Y-70427384D01*
X105463173Y-70054297D01*
X105090086Y-69805009D01*
X104650000Y-69717470D01*
X104209914Y-69805009D01*
X103836827Y-70054297D01*
X103587539Y-70427384D01*
X103500000Y-70867470D01*
X103260000Y-70867470D01*
X103172461Y-70427384D01*
X103145055Y-70386367D01*
X103720711Y-69810711D01*
X103742650Y-69777629D01*
X103750000Y-69740000D01*
X103750000Y-69704682D01*
X103760313Y-69689247D01*
X103790000Y-69540000D01*
X103790000Y-69115621D01*
X103836827Y-69185703D01*
X104209914Y-69434991D01*
X104650000Y-69522530D01*
X105090086Y-69434991D01*
X105463173Y-69185703D01*
X105712461Y-68812616D01*
X105800000Y-68372530D01*
X105800000Y-68327470D01*
X106040000Y-68327470D01*
X106040000Y-68372530D01*
X106127539Y-68812616D01*
X106376827Y-69185703D01*
X106749914Y-69434991D01*
X107190000Y-69522530D01*
X107630086Y-69434991D01*
X108003173Y-69185703D01*
X108252461Y-68812616D01*
X108340000Y-68372530D01*
X108340000Y-68327470D01*
X108580000Y-68327470D01*
X108580000Y-68372530D01*
X108667539Y-68812616D01*
X108916827Y-69185703D01*
X109289914Y-69434991D01*
X109730000Y-69522530D01*
X110170086Y-69434991D01*
X110543173Y-69185703D01*
X110792461Y-68812616D01*
X110880000Y-68372530D01*
X110880000Y-68327470D01*
X110792461Y-67887384D01*
X110543173Y-67514297D01*
X110170086Y-67265009D01*
X109730000Y-67177470D01*
X109289914Y-67265009D01*
X108916827Y-67514297D01*
X108667539Y-67887384D01*
X108580000Y-68327470D01*
X108340000Y-68327470D01*
X108252461Y-67887384D01*
X108003173Y-67514297D01*
X107630086Y-67265009D01*
X107190000Y-67177470D01*
X106749914Y-67265009D01*
X106376827Y-67514297D01*
X106127539Y-67887384D01*
X106040000Y-68327470D01*
X105800000Y-68327470D01*
X105712461Y-67887384D01*
X105463173Y-67514297D01*
X105090086Y-67265009D01*
X104650000Y-67177470D01*
X104209914Y-67265009D01*
X103836827Y-67514297D01*
X103790000Y-67584379D01*
X103790000Y-66290000D01*
X103760313Y-66140753D01*
X103750000Y-66125318D01*
X103750000Y-66040000D01*
X103742121Y-66001094D01*
X103720711Y-65969289D01*
X92749992Y-54998570D01*
X92750112Y-54861274D01*
X92651364Y-54622286D01*
X92468676Y-54439278D01*
X92229860Y-54340113D01*
X91971274Y-54339888D01*
X91732286Y-54438636D01*
X91570639Y-54600000D01*
X75311543Y-54600000D01*
X75025772Y-54314228D01*
X75025769Y-54314226D01*
X74924914Y-54213371D01*
X74925112Y-53986274D01*
X74826364Y-53747286D01*
X74643676Y-53564278D01*
X74404860Y-53465113D01*
X74146274Y-53464888D01*
X73907286Y-53563636D01*
X73724278Y-53746324D01*
X73625113Y-53985140D01*
X73625065Y-54040027D01*
X73504860Y-53990113D01*
X73246274Y-53989888D01*
X73007286Y-54088636D01*
X72824278Y-54271324D01*
X72725113Y-54510140D01*
X72724913Y-54740000D01*
X67975000Y-54740000D01*
X67975000Y-49340000D01*
X85859999Y-49340000D01*
X85860000Y-49340005D01*
X85860000Y-49440000D01*
X85889687Y-49589247D01*
X85974228Y-49715772D01*
X86100753Y-49800313D01*
X86250000Y-49830000D01*
X86399247Y-49800313D01*
X86525772Y-49715772D01*
X86610313Y-49589247D01*
X86624719Y-49516824D01*
X86625771Y-49515772D01*
X86710313Y-49389246D01*
X86740000Y-49240000D01*
X86710313Y-49090754D01*
X86625771Y-48964229D01*
X86499246Y-48879687D01*
X86350000Y-48850000D01*
X86200754Y-48879687D01*
X86074228Y-48964229D01*
X85974228Y-49064228D01*
X85889687Y-49190753D01*
X85889687Y-49190754D01*
X85859999Y-49340000D01*
X67975000Y-49340000D01*
X67975000Y-45227746D01*
X78309801Y-45227746D01*
X78484509Y-45650572D01*
X78807727Y-45974354D01*
X79230247Y-46149800D01*
X79687746Y-46150199D01*
X80110572Y-45975491D01*
X80434354Y-45652273D01*
X80609800Y-45229753D01*
X80610199Y-44772254D01*
X80435491Y-44349428D01*
X80236411Y-44150000D01*
X80844123Y-44150000D01*
X80844123Y-45850000D01*
X80865042Y-45961173D01*
X80930745Y-46063279D01*
X81030997Y-46131778D01*
X81150000Y-46155877D01*
X82850000Y-46155877D01*
X82961173Y-46134958D01*
X83063279Y-46069255D01*
X83131778Y-45969003D01*
X83155877Y-45850000D01*
X83155877Y-45227746D01*
X95809801Y-45227746D01*
X95984509Y-45650572D01*
X96307727Y-45974354D01*
X96730247Y-46149800D01*
X97187746Y-46150199D01*
X97610572Y-45975491D01*
X97934354Y-45652273D01*
X98109800Y-45229753D01*
X98110199Y-44772254D01*
X97935491Y-44349428D01*
X97736411Y-44150000D01*
X98344123Y-44150000D01*
X98344123Y-45850000D01*
X98365042Y-45961173D01*
X98430745Y-46063279D01*
X98530997Y-46131778D01*
X98650000Y-46155877D01*
X100350000Y-46155877D01*
X100461173Y-46134958D01*
X100563279Y-46069255D01*
X100631778Y-45969003D01*
X100655877Y-45850000D01*
X100655877Y-45227746D01*
X113309801Y-45227746D01*
X113484509Y-45650572D01*
X113807727Y-45974354D01*
X114230247Y-46149800D01*
X114687746Y-46150199D01*
X115110572Y-45975491D01*
X115434354Y-45652273D01*
X115609800Y-45229753D01*
X115610199Y-44772254D01*
X115435491Y-44349428D01*
X115236411Y-44150000D01*
X115844123Y-44150000D01*
X115844123Y-45850000D01*
X115865042Y-45961173D01*
X115930745Y-46063279D01*
X116030997Y-46131778D01*
X116150000Y-46155877D01*
X117850000Y-46155877D01*
X117961173Y-46134958D01*
X118063279Y-46069255D01*
X118131778Y-45969003D01*
X118155877Y-45850000D01*
X118155877Y-45227746D01*
X130809801Y-45227746D01*
X130984509Y-45650572D01*
X131307727Y-45974354D01*
X131730247Y-46149800D01*
X132187746Y-46150199D01*
X132610572Y-45975491D01*
X132934354Y-45652273D01*
X133109800Y-45229753D01*
X133110199Y-44772254D01*
X132935491Y-44349428D01*
X132736411Y-44150000D01*
X133344123Y-44150000D01*
X133344123Y-45850000D01*
X133365042Y-45961173D01*
X133430745Y-46063279D01*
X133530997Y-46131778D01*
X133650000Y-46155877D01*
X135350000Y-46155877D01*
X135461173Y-46134958D01*
X135563279Y-46069255D01*
X135631778Y-45969003D01*
X135655877Y-45850000D01*
X135655877Y-44150000D01*
X135634958Y-44038827D01*
X135569255Y-43936721D01*
X135469003Y-43868222D01*
X135350000Y-43844123D01*
X133650000Y-43844123D01*
X133538827Y-43865042D01*
X133436721Y-43930745D01*
X133368222Y-44030997D01*
X133344123Y-44150000D01*
X132736411Y-44150000D01*
X132612273Y-44025646D01*
X132189753Y-43850200D01*
X131732254Y-43849801D01*
X131309428Y-44024509D01*
X130985646Y-44347727D01*
X130810200Y-44770247D01*
X130809801Y-45227746D01*
X118155877Y-45227746D01*
X118155877Y-44150000D01*
X118134958Y-44038827D01*
X118069255Y-43936721D01*
X117969003Y-43868222D01*
X117850000Y-43844123D01*
X116150000Y-43844123D01*
X116038827Y-43865042D01*
X115936721Y-43930745D01*
X115868222Y-44030997D01*
X115844123Y-44150000D01*
X115236411Y-44150000D01*
X115112273Y-44025646D01*
X114689753Y-43850200D01*
X114232254Y-43849801D01*
X113809428Y-44024509D01*
X113485646Y-44347727D01*
X113310200Y-44770247D01*
X113309801Y-45227746D01*
X100655877Y-45227746D01*
X100655877Y-44150000D01*
X100634958Y-44038827D01*
X100569255Y-43936721D01*
X100469003Y-43868222D01*
X100350000Y-43844123D01*
X98650000Y-43844123D01*
X98538827Y-43865042D01*
X98436721Y-43930745D01*
X98368222Y-44030997D01*
X98344123Y-44150000D01*
X97736411Y-44150000D01*
X97612273Y-44025646D01*
X97189753Y-43850200D01*
X96732254Y-43849801D01*
X96309428Y-44024509D01*
X95985646Y-44347727D01*
X95810200Y-44770247D01*
X95809801Y-45227746D01*
X83155877Y-45227746D01*
X83155877Y-44150000D01*
X83134958Y-44038827D01*
X83069255Y-43936721D01*
X82969003Y-43868222D01*
X82850000Y-43844123D01*
X81150000Y-43844123D01*
X81038827Y-43865042D01*
X80936721Y-43930745D01*
X80868222Y-44030997D01*
X80844123Y-44150000D01*
X80236411Y-44150000D01*
X80112273Y-44025646D01*
X79689753Y-43850200D01*
X79232254Y-43849801D01*
X78809428Y-44024509D01*
X78485646Y-44347727D01*
X78310200Y-44770247D01*
X78309801Y-45227746D01*
X67975000Y-45227746D01*
X67975000Y-40440000D01*
X71950000Y-40440000D01*
X71950000Y-43740000D01*
G36*
X162525000Y-194735000D02*
X67125000Y-194735000D01*
X67125000Y-133857470D01*
X78100000Y-133857470D01*
X78100000Y-133902530D01*
X78187539Y-134342616D01*
X78436827Y-134715703D01*
X78809914Y-134964991D01*
X79250000Y-135052530D01*
X79690086Y-134964991D01*
X80063173Y-134715703D01*
X80312461Y-134342616D01*
X80400000Y-133902530D01*
X80400000Y-133857470D01*
X80640000Y-133857470D01*
X80640000Y-133902530D01*
X80727539Y-134342616D01*
X80976827Y-134715703D01*
X81349914Y-134964991D01*
X81790000Y-135052530D01*
X82230086Y-134964991D01*
X82603173Y-134715703D01*
X82852461Y-134342616D01*
X82940000Y-133902530D01*
X82940000Y-133857470D01*
X83180000Y-133857470D01*
X83180000Y-133902530D01*
X83267539Y-134342616D01*
X83516827Y-134715703D01*
X83889914Y-134964991D01*
X84330000Y-135052530D01*
X84770086Y-134964991D01*
X85143173Y-134715703D01*
X85392461Y-134342616D01*
X85480000Y-133902530D01*
X85480000Y-133857470D01*
X85720000Y-133857470D01*
X85720000Y-133902530D01*
X85807539Y-134342616D01*
X86056827Y-134715703D01*
X86429914Y-134964991D01*
X86870000Y-135052530D01*
X87310086Y-134964991D01*
X87683173Y-134715703D01*
X87932461Y-134342616D01*
X88020000Y-133902530D01*
X88020000Y-133857470D01*
X88260000Y-133857470D01*
X88260000Y-133902530D01*
X88347539Y-134342616D01*
X88596827Y-134715703D01*
X88969914Y-134964991D01*
X89410000Y-135052530D01*
X89850086Y-134964991D01*
X90223173Y-134715703D01*
X90472461Y-134342616D01*
X90560000Y-133902530D01*
X90560000Y-133857470D01*
X93340000Y-133857470D01*
X93340000Y-133902530D01*
X93427539Y-134342616D01*
X93676827Y-134715703D01*
X94049914Y-134964991D01*
X94490000Y-135052530D01*
X94930086Y-134964991D01*
X95303173Y-134715703D01*
X95552461Y-134342616D01*
X95640000Y-133902530D01*
X95640000Y-133857470D01*
X95880000Y-133857470D01*
X95880000Y-133902530D01*
X95967539Y-134342616D01*
X96216827Y-134715703D01*
X96589914Y-134964991D01*
X97030000Y-135052530D01*
X97470086Y-134964991D01*
X97843173Y-134715703D01*
X98092461Y-134342616D01*
X98180000Y-133902530D01*
X98180000Y-133857470D01*
X98420000Y-133857470D01*
X98420000Y-133902530D01*
X98507539Y-134342616D01*
X98756827Y-134715703D01*
X99129914Y-134964991D01*
X99570000Y-135052530D01*
X100010086Y-134964991D01*
X100383173Y-134715703D01*
X100632461Y-134342616D01*
X100720000Y-133902530D01*
X100720000Y-133857470D01*
X100960000Y-133857470D01*
X100960000Y-133902530D01*
X101047539Y-134342616D01*
X101296827Y-134715703D01*
X101669914Y-134964991D01*
X102110000Y-135052530D01*
X102550086Y-134964991D01*
X102923173Y-134715703D01*
X103172461Y-134342616D01*
X103260000Y-133902530D01*
X103260000Y-133857470D01*
X103500000Y-133857470D01*
X103500000Y-133902530D01*
X103587539Y-134342616D01*
X103836827Y-134715703D01*
X104209914Y-134964991D01*
X104650000Y-135052530D01*
X105090086Y-134964991D01*
X105463173Y-134715703D01*
X105712461Y-134342616D01*
X105800000Y-133902530D01*
X105800000Y-133857470D01*
X106040000Y-133857470D01*
X106040000Y-133902530D01*
X106127539Y-134342616D01*
X106376827Y-134715703D01*
X106749914Y-134964991D01*
X107190000Y-135052530D01*
X107630086Y-134964991D01*
X108003173Y-134715703D01*
X108252461Y-134342616D01*
X108340000Y-133902530D01*
X108340000Y-133857470D01*
X108580000Y-133857470D01*
X108580000Y-133902530D01*
X108667539Y-134342616D01*
X108916827Y-134715703D01*
X109289914Y-134964991D01*
X109730000Y-135052530D01*
X110170086Y-134964991D01*
X110543173Y-134715703D01*
X110792461Y-134342616D01*
X110880000Y-133902530D01*
X110880000Y-133857470D01*
X111120000Y-133857470D01*
X111120000Y-133902530D01*
X111207539Y-134342616D01*
X111456827Y-134715703D01*
X111829914Y-134964991D01*
X112270000Y-135052530D01*
X112710086Y-134964991D01*
X113083173Y-134715703D01*
X113332461Y-134342616D01*
X113420000Y-133902530D01*
X113420000Y-133857470D01*
X116200000Y-133857470D01*
X116200000Y-133902530D01*
X116287539Y-134342616D01*
X116536827Y-134715703D01*
X116909914Y-134964991D01*
X117350000Y-135052530D01*
X117790086Y-134964991D01*
X118163173Y-134715703D01*
X118412461Y-134342616D01*
X118500000Y-133902530D01*
X118500000Y-133857470D01*
X118740000Y-133857470D01*
X118740000Y-133902530D01*
X118827539Y-134342616D01*
X119076827Y-134715703D01*
X119449914Y-134964991D01*
X119890000Y-135052530D01*
X120330086Y-134964991D01*
X120703173Y-134715703D01*
X120952461Y-134342616D01*
X121040000Y-133902530D01*
X121040000Y-133857470D01*
X121280000Y-133857470D01*
X121280000Y-133902530D01*
X121367539Y-134342616D01*
X121616827Y-134715703D01*
X121989914Y-134964991D01*
X122430000Y-135052530D01*
X122870086Y-134964991D01*
X123243173Y-134715703D01*
X123492461Y-134342616D01*
X123580000Y-133902530D01*
X123580000Y-133857470D01*
X123820000Y-133857470D01*
X123820000Y-133902530D01*
X123907539Y-134342616D01*
X124156827Y-134715703D01*
X124529914Y-134964991D01*
X124970000Y-135052530D01*
X125410086Y-134964991D01*
X125783173Y-134715703D01*
X126032461Y-134342616D01*
X126120000Y-133902530D01*
X126120000Y-133857470D01*
X126360000Y-133857470D01*
X126360000Y-133902530D01*
X126447539Y-134342616D01*
X126696827Y-134715703D01*
X127069914Y-134964991D01*
X127510000Y-135052530D01*
X127950086Y-134964991D01*
X128323173Y-134715703D01*
X128572461Y-134342616D01*
X128660000Y-133902530D01*
X128660000Y-133857470D01*
X128572461Y-133417384D01*
X128323173Y-133044297D01*
X127950086Y-132795009D01*
X127510000Y-132707470D01*
X127069914Y-132795009D01*
X126696827Y-133044297D01*
X126447539Y-133417384D01*
X126360000Y-133857470D01*
X126120000Y-133857470D01*
X126032461Y-133417384D01*
X125783173Y-133044297D01*
X125410086Y-132795009D01*
X124970000Y-132707470D01*
X124529914Y-132795009D01*
X124156827Y-133044297D01*
X123907539Y-133417384D01*
X123820000Y-133857470D01*
X123580000Y-133857470D01*
X123492461Y-133417384D01*
X123243173Y-133044297D01*
X122870086Y-132795009D01*
X122430000Y-132707470D01*
X121989914Y-132795009D01*
X121616827Y-133044297D01*
X121367539Y-133417384D01*
X121280000Y-133857470D01*
X121040000Y-133857470D01*
X120952461Y-133417384D01*
X120703173Y-133044297D01*
X120330086Y-132795009D01*
X119890000Y-132707470D01*
X119449914Y-132795009D01*
X119076827Y-133044297D01*
X118827539Y-133417384D01*
X118740000Y-133857470D01*
X118500000Y-133857470D01*
X118412461Y-133417384D01*
X118163173Y-133044297D01*
X117790086Y-132795009D01*
X117350000Y-132707470D01*
X116909914Y-132795009D01*
X116536827Y-133044297D01*
X116287539Y-133417384D01*
X116200000Y-133857470D01*
X113420000Y-133857470D01*
X113332461Y-133417384D01*
X113083173Y-133044297D01*
X112710086Y-132795009D01*
X112270000Y-132707470D01*
X111829914Y-132795009D01*
X111456827Y-133044297D01*
X111207539Y-133417384D01*
X111120000Y-133857470D01*
X110880000Y-133857470D01*
X110792461Y-133417384D01*
X110543173Y-133044297D01*
X110170086Y-132795009D01*
X109730000Y-132707470D01*
X109289914Y-132795009D01*
X108916827Y-133044297D01*
X108667539Y-133417384D01*
X108580000Y-133857470D01*
X108340000Y-133857470D01*
X108252461Y-133417384D01*
X108003173Y-133044297D01*
X107630086Y-132795009D01*
X107190000Y-132707470D01*
X106749914Y-132795009D01*
X106376827Y-133044297D01*
X106127539Y-133417384D01*
X106040000Y-133857470D01*
X105800000Y-133857470D01*
X105712461Y-133417384D01*
X105463173Y-133044297D01*
X105090086Y-132795009D01*
X104650000Y-132707470D01*
X104209914Y-132795009D01*
X103836827Y-133044297D01*
X103587539Y-133417384D01*
X103500000Y-133857470D01*
X103260000Y-133857470D01*
X103172461Y-133417384D01*
X102923173Y-133044297D01*
X102550086Y-132795009D01*
X102110000Y-132707470D01*
X101669914Y-132795009D01*
X101296827Y-133044297D01*
X101047539Y-133417384D01*
X100960000Y-133857470D01*
X100720000Y-133857470D01*
X100632461Y-133417384D01*
X100383173Y-133044297D01*
X100010086Y-132795009D01*
X99570000Y-132707470D01*
X99129914Y-132795009D01*
X98756827Y-133044297D01*
X98507539Y-133417384D01*
X98420000Y-133857470D01*
X98180000Y-133857470D01*
X98092461Y-133417384D01*
X97843173Y-133044297D01*
X97470086Y-132795009D01*
X97030000Y-132707470D01*
X96589914Y-132795009D01*
X96216827Y-133044297D01*
X95967539Y-133417384D01*
X95880000Y-133857470D01*
X95640000Y-133857470D01*
X95552461Y-133417384D01*
X95303173Y-133044297D01*
X94930086Y-132795009D01*
X94490000Y-132707470D01*
X94049914Y-132795009D01*
X93676827Y-133044297D01*
X93427539Y-133417384D01*
X93340000Y-133857470D01*
X90560000Y-133857470D01*
X90472461Y-133417384D01*
X90223173Y-133044297D01*
X89850086Y-132795009D01*
X89410000Y-132707470D01*
X88969914Y-132795009D01*
X88596827Y-133044297D01*
X88347539Y-133417384D01*
X88260000Y-133857470D01*
X88020000Y-133857470D01*
X87932461Y-133417384D01*
X87683173Y-133044297D01*
X87310086Y-132795009D01*
X86870000Y-132707470D01*
X86429914Y-132795009D01*
X86056827Y-133044297D01*
X85807539Y-133417384D01*
X85720000Y-133857470D01*
X85480000Y-133857470D01*
X85392461Y-133417384D01*
X85143173Y-133044297D01*
X84770086Y-132795009D01*
X84330000Y-132707470D01*
X83889914Y-132795009D01*
X83516827Y-133044297D01*
X83267539Y-133417384D01*
X83180000Y-133857470D01*
X82940000Y-133857470D01*
X82852461Y-133417384D01*
X82603173Y-133044297D01*
X82230086Y-132795009D01*
X81790000Y-132707470D01*
X81349914Y-132795009D01*
X80976827Y-133044297D01*
X80727539Y-133417384D01*
X80640000Y-133857470D01*
X80400000Y-133857470D01*
X80312461Y-133417384D01*
X80063173Y-133044297D01*
X79690086Y-132795009D01*
X79250000Y-132707470D01*
X78809914Y-132795009D01*
X78436827Y-133044297D01*
X78187539Y-133417384D01*
X78100000Y-133857470D01*
X67125000Y-133857470D01*
X67125000Y-131317470D01*
X78100000Y-131317470D01*
X78100000Y-131362530D01*
X78187539Y-131802616D01*
X78436827Y-132175703D01*
X78809914Y-132424991D01*
X79250000Y-132512530D01*
X79690086Y-132424991D01*
X80063173Y-132175703D01*
X80312461Y-131802616D01*
X80400000Y-131362530D01*
X80400000Y-131317470D01*
X80640000Y-131317470D01*
X80640000Y-131362530D01*
X80727539Y-131802616D01*
X80976827Y-132175703D01*
X81349914Y-132424991D01*
X81790000Y-132512530D01*
X82230086Y-132424991D01*
X82603173Y-132175703D01*
X82852461Y-131802616D01*
X82940000Y-131362530D01*
X82940000Y-131317470D01*
X83180000Y-131317470D01*
X83180000Y-131362530D01*
X83267539Y-131802616D01*
X83516827Y-132175703D01*
X83889914Y-132424991D01*
X84330000Y-132512530D01*
X84770086Y-132424991D01*
X85143173Y-132175703D01*
X85392461Y-131802616D01*
X85480000Y-131362530D01*
X85480000Y-131317470D01*
X85720000Y-131317470D01*
X85720000Y-131362530D01*
X85807539Y-131802616D01*
X86056827Y-132175703D01*
X86429914Y-132424991D01*
X86870000Y-132512530D01*
X87310086Y-132424991D01*
X87683173Y-132175703D01*
X87932461Y-131802616D01*
X88020000Y-131362530D01*
X88020000Y-131317470D01*
X88260000Y-131317470D01*
X88260000Y-131362530D01*
X88347539Y-131802616D01*
X88596827Y-132175703D01*
X88969914Y-132424991D01*
X89410000Y-132512530D01*
X89850086Y-132424991D01*
X90223173Y-132175703D01*
X90472461Y-131802616D01*
X90560000Y-131362530D01*
X90560000Y-131317470D01*
X93340000Y-131317470D01*
X93340000Y-131362530D01*
X93427539Y-131802616D01*
X93676827Y-132175703D01*
X94049914Y-132424991D01*
X94490000Y-132512530D01*
X94930086Y-132424991D01*
X95303173Y-132175703D01*
X95552461Y-131802616D01*
X95640000Y-131362530D01*
X95640000Y-131317470D01*
X95880000Y-131317470D01*
X95880000Y-131362530D01*
X95967539Y-131802616D01*
X96216827Y-132175703D01*
X96589914Y-132424991D01*
X97030000Y-132512530D01*
X97470086Y-132424991D01*
X97843173Y-132175703D01*
X98092461Y-131802616D01*
X98180000Y-131362530D01*
X98180000Y-131317470D01*
X98420000Y-131317470D01*
X98420000Y-131362530D01*
X98507539Y-131802616D01*
X98756827Y-132175703D01*
X99129914Y-132424991D01*
X99570000Y-132512530D01*
X100010086Y-132424991D01*
X100383173Y-132175703D01*
X100632461Y-131802616D01*
X100720000Y-131362530D01*
X100720000Y-131317470D01*
X100960000Y-131317470D01*
X100960000Y-131362530D01*
X101047539Y-131802616D01*
X101296827Y-132175703D01*
X101669914Y-132424991D01*
X102110000Y-132512530D01*
X102550086Y-132424991D01*
X102923173Y-132175703D01*
X103172461Y-131802616D01*
X103260000Y-131362530D01*
X103260000Y-131317470D01*
X103500000Y-131317470D01*
X103500000Y-131362530D01*
X103587539Y-131802616D01*
X103836827Y-132175703D01*
X104209914Y-132424991D01*
X104650000Y-132512530D01*
X105090086Y-132424991D01*
X105463173Y-132175703D01*
X105712461Y-131802616D01*
X105800000Y-131362530D01*
X105800000Y-131317470D01*
X106040000Y-131317470D01*
X106040000Y-131362530D01*
X106127539Y-131802616D01*
X106376827Y-132175703D01*
X106749914Y-132424991D01*
X107190000Y-132512530D01*
X107630086Y-132424991D01*
X108003173Y-132175703D01*
X108252461Y-131802616D01*
X108340000Y-131362530D01*
X108340000Y-131317470D01*
X108580000Y-131317470D01*
X108580000Y-131362530D01*
X108667539Y-131802616D01*
X108916827Y-132175703D01*
X109289914Y-132424991D01*
X109730000Y-132512530D01*
X110170086Y-132424991D01*
X110543173Y-132175703D01*
X110792461Y-131802616D01*
X110880000Y-131362530D01*
X110880000Y-131317470D01*
X111120000Y-131317470D01*
X111120000Y-131362530D01*
X111207539Y-131802616D01*
X111456827Y-132175703D01*
X111829914Y-132424991D01*
X112270000Y-132512530D01*
X112710086Y-132424991D01*
X113083173Y-132175703D01*
X113332461Y-131802616D01*
X113420000Y-131362530D01*
X113420000Y-131317470D01*
X113660000Y-131317470D01*
X113660000Y-131362530D01*
X113747539Y-131802616D01*
X113996827Y-132175703D01*
X114369914Y-132424991D01*
X114810000Y-132512530D01*
X115250086Y-132424991D01*
X115623173Y-132175703D01*
X115872461Y-131802616D01*
X115960000Y-131362530D01*
X115960000Y-131317470D01*
X116200000Y-131317470D01*
X116200000Y-131362530D01*
X116287539Y-131802616D01*
X116536827Y-132175703D01*
X116909914Y-132424991D01*
X117350000Y-132512530D01*
X117790086Y-132424991D01*
X118163173Y-132175703D01*
X118412461Y-131802616D01*
X118500000Y-131362530D01*
X118500000Y-131317470D01*
X118740000Y-131317470D01*
X118740000Y-131362530D01*
X118827539Y-131802616D01*
X119076827Y-132175703D01*
X119449914Y-132424991D01*
X119890000Y-132512530D01*
X120330086Y-132424991D01*
X120703173Y-132175703D01*
X120952461Y-131802616D01*
X121040000Y-131362530D01*
X121040000Y-131317470D01*
X121280000Y-131317470D01*
X121280000Y-131362530D01*
X121367539Y-131802616D01*
X121616827Y-132175703D01*
X121989914Y-132424991D01*
X122430000Y-132512530D01*
X122870086Y-132424991D01*
X123243173Y-132175703D01*
X123492461Y-131802616D01*
X123580000Y-131362530D01*
X123580000Y-131317470D01*
X123820000Y-131317470D01*
X123820000Y-131362530D01*
X123907539Y-131802616D01*
X124156827Y-132175703D01*
X124529914Y-132424991D01*
X124970000Y-132512530D01*
X125410086Y-132424991D01*
X125783173Y-132175703D01*
X126032461Y-131802616D01*
X126120000Y-131362530D01*
X126120000Y-131317470D01*
X126032461Y-130877384D01*
X125783173Y-130504297D01*
X125761776Y-130490000D01*
X126354123Y-130490000D01*
X126354123Y-132190000D01*
X126375042Y-132301173D01*
X126440745Y-132403279D01*
X126540997Y-132471778D01*
X126660000Y-132495877D01*
X128360000Y-132495877D01*
X128471173Y-132474958D01*
X128573279Y-132409255D01*
X128641778Y-132309003D01*
X128665877Y-132190000D01*
X128665877Y-130490000D01*
X128644958Y-130378827D01*
X128579255Y-130276721D01*
X128479003Y-130208222D01*
X128360000Y-130184123D01*
X126660000Y-130184123D01*
X126548827Y-130205042D01*
X126446721Y-130270745D01*
X126378222Y-130370997D01*
X126354123Y-130490000D01*
X125761776Y-130490000D01*
X125410086Y-130255009D01*
X124970000Y-130167470D01*
X124529914Y-130255009D01*
X124156827Y-130504297D01*
X123907539Y-130877384D01*
X123820000Y-131317470D01*
X123580000Y-131317470D01*
X123492461Y-130877384D01*
X123243173Y-130504297D01*
X122870086Y-130255009D01*
X122430000Y-130167470D01*
X121989914Y-130255009D01*
X121616827Y-130504297D01*
X121367539Y-130877384D01*
X121280000Y-131317470D01*
X121040000Y-131317470D01*
X120952461Y-130877384D01*
X120703173Y-130504297D01*
X120330086Y-130255009D01*
X119890000Y-130167470D01*
X119449914Y-130255009D01*
X119076827Y-130504297D01*
X118827539Y-130877384D01*
X118740000Y-131317470D01*
X118500000Y-131317470D01*
X118412461Y-130877384D01*
X118163173Y-130504297D01*
X117790086Y-130255009D01*
X117350000Y-130167470D01*
X116909914Y-130255009D01*
X116536827Y-130504297D01*
X116287539Y-130877384D01*
X116200000Y-131317470D01*
X115960000Y-131317470D01*
X115872461Y-130877384D01*
X115623173Y-130504297D01*
X115250086Y-130255009D01*
X114810000Y-130167470D01*
X114369914Y-130255009D01*
X113996827Y-130504297D01*
X113747539Y-130877384D01*
X113660000Y-131317470D01*
X113420000Y-131317470D01*
X113332461Y-130877384D01*
X113083173Y-130504297D01*
X112710086Y-130255009D01*
X112270000Y-130167470D01*
X111829914Y-130255009D01*
X111456827Y-130504297D01*
X111207539Y-130877384D01*
X111120000Y-131317470D01*
X110880000Y-131317470D01*
X110792461Y-130877384D01*
X110543173Y-130504297D01*
X110170086Y-130255009D01*
X109730000Y-130167470D01*
X109289914Y-130255009D01*
X108916827Y-130504297D01*
X108667539Y-130877384D01*
X108580000Y-131317470D01*
X108340000Y-131317470D01*
X108252461Y-130877384D01*
X108003173Y-130504297D01*
X107630086Y-130255009D01*
X107190000Y-130167470D01*
X106749914Y-130255009D01*
X106376827Y-130504297D01*
X106127539Y-130877384D01*
X106040000Y-131317470D01*
X105800000Y-131317470D01*
X105712461Y-130877384D01*
X105463173Y-130504297D01*
X105090086Y-130255009D01*
X104650000Y-130167470D01*
X104209914Y-130255009D01*
X103836827Y-130504297D01*
X103587539Y-130877384D01*
X103500000Y-131317470D01*
X103260000Y-131317470D01*
X103172461Y-130877384D01*
X102923173Y-130504297D01*
X102550086Y-130255009D01*
X102110000Y-130167470D01*
X101669914Y-130255009D01*
X101296827Y-130504297D01*
X101047539Y-130877384D01*
X100960000Y-131317470D01*
X100720000Y-131317470D01*
X100632461Y-130877384D01*
X100383173Y-130504297D01*
X100010086Y-130255009D01*
X99570000Y-130167470D01*
X99129914Y-130255009D01*
X98756827Y-130504297D01*
X98507539Y-130877384D01*
X98420000Y-131317470D01*
X98180000Y-131317470D01*
X98092461Y-130877384D01*
X97843173Y-130504297D01*
X97470086Y-130255009D01*
X97030000Y-130167470D01*
X96589914Y-130255009D01*
X96216827Y-130504297D01*
X95967539Y-130877384D01*
X95880000Y-131317470D01*
X95640000Y-131317470D01*
X95552461Y-130877384D01*
X95303173Y-130504297D01*
X94930086Y-130255009D01*
X94490000Y-130167470D01*
X94049914Y-130255009D01*
X93676827Y-130504297D01*
X93427539Y-130877384D01*
X93340000Y-131317470D01*
X90560000Y-131317470D01*
X90472461Y-130877384D01*
X90223173Y-130504297D01*
X89850086Y-130255009D01*
X89410000Y-130167470D01*
X88969914Y-130255009D01*
X88596827Y-130504297D01*
X88347539Y-130877384D01*
X88260000Y-131317470D01*
X88020000Y-131317470D01*
X87932461Y-130877384D01*
X87683173Y-130504297D01*
X87310086Y-130255009D01*
X86870000Y-130167470D01*
X86429914Y-130255009D01*
X86056827Y-130504297D01*
X85807539Y-130877384D01*
X85720000Y-131317470D01*
X85480000Y-131317470D01*
X85392461Y-130877384D01*
X85143173Y-130504297D01*
X84770086Y-130255009D01*
X84330000Y-130167470D01*
X83889914Y-130255009D01*
X83516827Y-130504297D01*
X83267539Y-130877384D01*
X83180000Y-131317470D01*
X82940000Y-131317470D01*
X82852461Y-130877384D01*
X82603173Y-130504297D01*
X82230086Y-130255009D01*
X81790000Y-130167470D01*
X81349914Y-130255009D01*
X80976827Y-130504297D01*
X80727539Y-130877384D01*
X80640000Y-131317470D01*
X80400000Y-131317470D01*
X80312461Y-130877384D01*
X80063173Y-130504297D01*
X79690086Y-130255009D01*
X79250000Y-130167470D01*
X78809914Y-130255009D01*
X78436827Y-130504297D01*
X78187539Y-130877384D01*
X78100000Y-131317470D01*
X67125000Y-131317470D01*
X67125000Y-124390000D01*
X88514123Y-124390000D01*
X88514123Y-126090000D01*
X88535042Y-126201173D01*
X88600745Y-126303279D01*
X88700997Y-126371778D01*
X88820000Y-126395877D01*
X90520000Y-126395877D01*
X90631173Y-126374958D01*
X90733279Y-126309255D01*
X90801778Y-126209003D01*
X90825877Y-126090000D01*
X90825877Y-125217470D01*
X93600000Y-125217470D01*
X93600000Y-125262530D01*
X93687539Y-125702616D01*
X93936827Y-126075703D01*
X94309914Y-126324991D01*
X94750000Y-126412530D01*
X95190086Y-126324991D01*
X95563173Y-126075703D01*
X95812461Y-125702616D01*
X95900000Y-125262530D01*
X95900000Y-125217470D01*
X98680000Y-125217470D01*
X98680000Y-125262530D01*
X98767539Y-125702616D01*
X99016827Y-126075703D01*
X99389914Y-126324991D01*
X99830000Y-126412530D01*
X100270086Y-126324991D01*
X100643173Y-126075703D01*
X100892461Y-125702616D01*
X100980000Y-125262530D01*
X100980000Y-125217470D01*
X106300000Y-125217470D01*
X106300000Y-125262530D01*
X106387539Y-125702616D01*
X106636827Y-126075703D01*
X107009914Y-126324991D01*
X107450000Y-126412530D01*
X107890086Y-126324991D01*
X108263173Y-126075703D01*
X108512461Y-125702616D01*
X108600000Y-125262530D01*
X108600000Y-125217470D01*
X108512461Y-124777384D01*
X108263173Y-124404297D01*
X108241776Y-124390000D01*
X111374123Y-124390000D01*
X111374123Y-126090000D01*
X111395042Y-126201173D01*
X111460745Y-126303279D01*
X111560997Y-126371778D01*
X111680000Y-126395877D01*
X113380000Y-126395877D01*
X113491173Y-126374958D01*
X113593279Y-126309255D01*
X113661778Y-126209003D01*
X113685877Y-126090000D01*
X113685877Y-125217470D01*
X113920000Y-125217470D01*
X113920000Y-125262530D01*
X114007539Y-125702616D01*
X114256827Y-126075703D01*
X114629914Y-126324991D01*
X115070000Y-126412530D01*
X115510086Y-126324991D01*
X115883173Y-126075703D01*
X116132461Y-125702616D01*
X116220000Y-125262530D01*
X116220000Y-125217470D01*
X116460000Y-125217470D01*
X116460000Y-125262530D01*
X116547539Y-125702616D01*
X116796827Y-126075703D01*
X117169914Y-126324991D01*
X117610000Y-126412530D01*
X118050086Y-126324991D01*
X118423173Y-126075703D01*
X118672461Y-125702616D01*
X118760000Y-125262530D01*
X118760000Y-125217470D01*
X119000000Y-125217470D01*
X119000000Y-125262530D01*
X119087539Y-125702616D01*
X119336827Y-126075703D01*
X119709914Y-126324991D01*
X120150000Y-126412530D01*
X120590086Y-126324991D01*
X120963173Y-126075703D01*
X121212461Y-125702616D01*
X121300000Y-125262530D01*
X121300000Y-125217470D01*
X121540000Y-125217470D01*
X121540000Y-125262530D01*
X121627539Y-125702616D01*
X121876827Y-126075703D01*
X122249914Y-126324991D01*
X122690000Y-126412530D01*
X123130086Y-126324991D01*
X123503173Y-126075703D01*
X123752461Y-125702616D01*
X123840000Y-125262530D01*
X123840000Y-125217470D01*
X124080000Y-125217470D01*
X124080000Y-125262530D01*
X124167539Y-125702616D01*
X124416827Y-126075703D01*
X124789914Y-126324991D01*
X125230000Y-126412530D01*
X125670086Y-126324991D01*
X126043173Y-126075703D01*
X126292461Y-125702616D01*
X126380000Y-125262530D01*
X126380000Y-125217470D01*
X126292461Y-124777384D01*
X126043173Y-124404297D01*
X125670086Y-124155009D01*
X125230000Y-124067470D01*
X124789914Y-124155009D01*
X124416827Y-124404297D01*
X124167539Y-124777384D01*
X124080000Y-125217470D01*
X123840000Y-125217470D01*
X123752461Y-124777384D01*
X123503173Y-124404297D01*
X123130086Y-124155009D01*
X122690000Y-124067470D01*
X122249914Y-124155009D01*
X121876827Y-124404297D01*
X121627539Y-124777384D01*
X121540000Y-125217470D01*
X121300000Y-125217470D01*
X121212461Y-124777384D01*
X120963173Y-124404297D01*
X120590086Y-124155009D01*
X120150000Y-124067470D01*
X119709914Y-124155009D01*
X119336827Y-124404297D01*
X119087539Y-124777384D01*
X119000000Y-125217470D01*
X118760000Y-125217470D01*
X118672461Y-124777384D01*
X118423173Y-124404297D01*
X118050086Y-124155009D01*
X117610000Y-124067470D01*
X117169914Y-124155009D01*
X116796827Y-124404297D01*
X116547539Y-124777384D01*
X116460000Y-125217470D01*
X116220000Y-125217470D01*
X116132461Y-124777384D01*
X115883173Y-124404297D01*
X115510086Y-124155009D01*
X115070000Y-124067470D01*
X114629914Y-124155009D01*
X114256827Y-124404297D01*
X114007539Y-124777384D01*
X113920000Y-125217470D01*
X113685877Y-125217470D01*
X113685877Y-124390000D01*
X113664958Y-124278827D01*
X113599255Y-124176721D01*
X113499003Y-124108222D01*
X113380000Y-124084123D01*
X111680000Y-124084123D01*
X111568827Y-124105042D01*
X111466721Y-124170745D01*
X111398222Y-124270997D01*
X111374123Y-124390000D01*
X108241776Y-124390000D01*
X107890086Y-124155009D01*
X107450000Y-124067470D01*
X107009914Y-124155009D01*
X106636827Y-124404297D01*
X106387539Y-124777384D01*
X106300000Y-125217470D01*
X100980000Y-125217470D01*
X100892461Y-124777384D01*
X100643173Y-124404297D01*
X100270086Y-124155009D01*
X99830000Y-124067470D01*
X99389914Y-124155009D01*
X99016827Y-124404297D01*
X98767539Y-124777384D01*
X98680000Y-125217470D01*
X95900000Y-125217470D01*
X95812461Y-124777384D01*
X95563173Y-124404297D01*
X95190086Y-124155009D01*
X94750000Y-124067470D01*
X94309914Y-124155009D01*
X93936827Y-124404297D01*
X93687539Y-124777384D01*
X93600000Y-125217470D01*
X90825877Y-125217470D01*
X90825877Y-124390000D01*
X90804958Y-124278827D01*
X90739255Y-124176721D01*
X90639003Y-124108222D01*
X90520000Y-124084123D01*
X88820000Y-124084123D01*
X88708827Y-124105042D01*
X88606721Y-124170745D01*
X88538222Y-124270997D01*
X88514123Y-124390000D01*
X67125000Y-124390000D01*
X67125000Y-76130000D01*
X79364123Y-76130000D01*
X79364123Y-77830000D01*
X79385042Y-77941173D01*
X79450745Y-78043279D01*
X79550997Y-78111778D01*
X79670000Y-78135877D01*
X81370000Y-78135877D01*
X81481173Y-78114958D01*
X81583279Y-78049255D01*
X81651778Y-77949003D01*
X81675877Y-77830000D01*
X81675877Y-76957470D01*
X81910000Y-76957470D01*
X81910000Y-77002530D01*
X81997539Y-77442616D01*
X82246827Y-77815703D01*
X82619914Y-78064991D01*
X83060000Y-78152530D01*
X83500086Y-78064991D01*
X83873173Y-77815703D01*
X84122461Y-77442616D01*
X84210000Y-77002530D01*
X84210000Y-76957470D01*
X84450000Y-76957470D01*
X84450000Y-77002530D01*
X84537539Y-77442616D01*
X84786827Y-77815703D01*
X85159914Y-78064991D01*
X85600000Y-78152530D01*
X86040086Y-78064991D01*
X86413173Y-77815703D01*
X86662461Y-77442616D01*
X86750000Y-77002530D01*
X86750000Y-76957470D01*
X86662461Y-76517384D01*
X86413173Y-76144297D01*
X86040086Y-75895009D01*
X85600000Y-75807470D01*
X85159914Y-75895009D01*
X84786827Y-76144297D01*
X84537539Y-76517384D01*
X84450000Y-76957470D01*
X84210000Y-76957470D01*
X84122461Y-76517384D01*
X83873173Y-76144297D01*
X83500086Y-75895009D01*
X83060000Y-75807470D01*
X82619914Y-75895009D01*
X82246827Y-76144297D01*
X81997539Y-76517384D01*
X81910000Y-76957470D01*
X81675877Y-76957470D01*
X81675877Y-76130000D01*
X81654958Y-76018827D01*
X81589255Y-75916721D01*
X81489003Y-75848222D01*
X81370000Y-75824123D01*
X79670000Y-75824123D01*
X79558827Y-75845042D01*
X79456721Y-75910745D01*
X79388222Y-76010997D01*
X79364123Y-76130000D01*
X67125000Y-76130000D01*
X67125000Y-70040000D01*
X78094123Y-70040000D01*
X78094123Y-71740000D01*
X78115042Y-71851173D01*
X78180745Y-71953279D01*
X78280997Y-72021778D01*
X78400000Y-72045877D01*
X80100000Y-72045877D01*
X80211173Y-72024958D01*
X80313279Y-71959255D01*
X80381778Y-71859003D01*
X80405877Y-71740000D01*
X80405877Y-70867470D01*
X80640000Y-70867470D01*
X80640000Y-70912530D01*
X80727539Y-71352616D01*
X80976827Y-71725703D01*
X81349914Y-71974991D01*
X81790000Y-72062530D01*
X82230086Y-71974991D01*
X82603173Y-71725703D01*
X82852461Y-71352616D01*
X82940000Y-70912530D01*
X82940000Y-70867470D01*
X83180000Y-70867470D01*
X83180000Y-70912530D01*
X83267539Y-71352616D01*
X83516827Y-71725703D01*
X83889914Y-71974991D01*
X84330000Y-72062530D01*
X84770086Y-71974991D01*
X85143173Y-71725703D01*
X85392461Y-71352616D01*
X85480000Y-70912530D01*
X85480000Y-70867470D01*
X85720000Y-70867470D01*
X85720000Y-70912530D01*
X85807539Y-71352616D01*
X86056827Y-71725703D01*
X86429914Y-71974991D01*
X86870000Y-72062530D01*
X87310086Y-71974991D01*
X87683173Y-71725703D01*
X87932461Y-71352616D01*
X88020000Y-70912530D01*
X88020000Y-70867470D01*
X87932461Y-70427384D01*
X87683173Y-70054297D01*
X87310086Y-69805009D01*
X86870000Y-69717470D01*
X86429914Y-69805009D01*
X86056827Y-70054297D01*
X85807539Y-70427384D01*
X85720000Y-70867470D01*
X85480000Y-70867470D01*
X85392461Y-70427384D01*
X85143173Y-70054297D01*
X84770086Y-69805009D01*
X84330000Y-69717470D01*
X83889914Y-69805009D01*
X83516827Y-70054297D01*
X83267539Y-70427384D01*
X83180000Y-70867470D01*
X82940000Y-70867470D01*
X82852461Y-70427384D01*
X82603173Y-70054297D01*
X82230086Y-69805009D01*
X81790000Y-69717470D01*
X81349914Y-69805009D01*
X80976827Y-70054297D01*
X80727539Y-70427384D01*
X80640000Y-70867470D01*
X80405877Y-70867470D01*
X80405877Y-70040000D01*
X80384958Y-69928827D01*
X80319255Y-69826721D01*
X80219003Y-69758222D01*
X80100000Y-69734123D01*
X78400000Y-69734123D01*
X78288827Y-69755042D01*
X78186721Y-69820745D01*
X78118222Y-69920997D01*
X78094123Y-70040000D01*
X67125000Y-70040000D01*
X67125000Y-68327470D01*
X78100000Y-68327470D01*
X78100000Y-68372530D01*
X78187539Y-68812616D01*
X78436827Y-69185703D01*
X78809914Y-69434991D01*
X79250000Y-69522530D01*
X79690086Y-69434991D01*
X80063173Y-69185703D01*
X80312461Y-68812616D01*
X80400000Y-68372530D01*
X80400000Y-68327470D01*
X80640000Y-68327470D01*
X80640000Y-68372530D01*
X80727539Y-68812616D01*
X80976827Y-69185703D01*
X81349914Y-69434991D01*
X81790000Y-69522530D01*
X82230086Y-69434991D01*
X82603173Y-69185703D01*
X82852461Y-68812616D01*
X82940000Y-68372530D01*
X82940000Y-68327470D01*
X83180000Y-68327470D01*
X83180000Y-68372530D01*
X83267539Y-68812616D01*
X83516827Y-69185703D01*
X83889914Y-69434991D01*
X84330000Y-69522530D01*
X84770086Y-69434991D01*
X85143173Y-69185703D01*
X85392461Y-68812616D01*
X85480000Y-68372530D01*
X85480000Y-68327470D01*
X85720000Y-68327470D01*
X85720000Y-68372530D01*
X85807539Y-68812616D01*
X86056827Y-69185703D01*
X86429914Y-69434991D01*
X86870000Y-69522530D01*
X87310086Y-69434991D01*
X87683173Y-69185703D01*
X87932461Y-68812616D01*
X88020000Y-68372530D01*
X88020000Y-68327470D01*
X88260000Y-68327470D01*
X88260000Y-68372530D01*
X88347539Y-68812616D01*
X88596827Y-69185703D01*
X88969914Y-69434991D01*
X89410000Y-69522530D01*
X89850086Y-69434991D01*
X90223173Y-69185703D01*
X90472461Y-68812616D01*
X90560000Y-68372530D01*
X90560000Y-68327470D01*
X90472461Y-67887384D01*
X90223173Y-67514297D01*
X89850086Y-67265009D01*
X89410000Y-67177470D01*
X88969914Y-67265009D01*
X88596827Y-67514297D01*
X88347539Y-67887384D01*
X88260000Y-68327470D01*
X88020000Y-68327470D01*
X87932461Y-67887384D01*
X87683173Y-67514297D01*
X87310086Y-67265009D01*
X86870000Y-67177470D01*
X86429914Y-67265009D01*
X86056827Y-67514297D01*
X85807539Y-67887384D01*
X85720000Y-68327470D01*
X85480000Y-68327470D01*
X85392461Y-67887384D01*
X85143173Y-67514297D01*
X84770086Y-67265009D01*
X84330000Y-67177470D01*
X83889914Y-67265009D01*
X83516827Y-67514297D01*
X83267539Y-67887384D01*
X83180000Y-68327470D01*
X82940000Y-68327470D01*
X82852461Y-67887384D01*
X82603173Y-67514297D01*
X82230086Y-67265009D01*
X81790000Y-67177470D01*
X81349914Y-67265009D01*
X80976827Y-67514297D01*
X80727539Y-67887384D01*
X80640000Y-68327470D01*
X80400000Y-68327470D01*
X80312461Y-67887384D01*
X80063173Y-67514297D01*
X79690086Y-67265009D01*
X79250000Y-67177470D01*
X78809914Y-67265009D01*
X78436827Y-67514297D01*
X78187539Y-67887384D01*
X78100000Y-68327470D01*
X67125000Y-68327470D01*
X67125000Y-40340000D01*
X67575000Y-40340000D01*
X67575000Y-54840000D01*
X67595517Y-54949037D01*
X67659958Y-55049181D01*
X67758283Y-55116364D01*
X67875000Y-55140000D01*
X71980876Y-55140000D01*
X71824278Y-55296324D01*
X71725113Y-55535140D01*
X71724888Y-55793726D01*
X71823636Y-56032714D01*
X71955805Y-56165114D01*
X71774278Y-56346324D01*
X71675113Y-56585140D01*
X71674888Y-56843726D01*
X71773636Y-57082714D01*
X71956324Y-57265722D01*
X72195140Y-57364887D01*
X72423542Y-57365086D01*
X72924228Y-57865772D01*
X73924226Y-58865769D01*
X73924228Y-58865772D01*
X73990630Y-58910140D01*
X74050754Y-58950314D01*
X74200000Y-58980001D01*
X74200005Y-58980000D01*
X88870883Y-58980000D01*
X89031324Y-59140722D01*
X89270140Y-59239887D01*
X89398455Y-59239999D01*
X97411890Y-67253433D01*
X97030000Y-67177470D01*
X96995814Y-67184270D01*
X89425772Y-59614228D01*
X89391553Y-59591364D01*
X89299247Y-59529687D01*
X89262040Y-59522286D01*
X89150000Y-59499999D01*
X89149995Y-59500000D01*
X88929117Y-59500000D01*
X88768676Y-59339278D01*
X88529860Y-59240113D01*
X88271274Y-59239888D01*
X88032286Y-59338636D01*
X87870639Y-59500000D01*
X73911543Y-59500000D01*
X72575772Y-58164228D01*
X72575769Y-58164226D01*
X71749914Y-57338371D01*
X71750112Y-57111274D01*
X71651364Y-56872286D01*
X71468676Y-56689278D01*
X71229860Y-56590113D01*
X70971274Y-56589888D01*
X70732286Y-56688636D01*
X70549278Y-56871324D01*
X70450113Y-57110140D01*
X70449888Y-57368726D01*
X70548636Y-57607714D01*
X70731324Y-57790722D01*
X70970140Y-57889887D01*
X71198542Y-57890086D01*
X72024226Y-58715769D01*
X72024228Y-58715772D01*
X73474226Y-60165769D01*
X73474228Y-60165772D01*
X73549059Y-60215772D01*
X73600754Y-60250314D01*
X73750000Y-60280001D01*
X73750005Y-60280000D01*
X87870883Y-60280000D01*
X88031324Y-60440722D01*
X88270140Y-60539887D01*
X88528726Y-60540112D01*
X88767714Y-60441364D01*
X88929361Y-60280000D01*
X88988456Y-60280000D01*
X96220379Y-67511923D01*
X96216827Y-67514297D01*
X96126300Y-67649781D01*
X96055772Y-67544228D01*
X89275772Y-60764228D01*
X89149247Y-60679687D01*
X89112040Y-60672286D01*
X89000000Y-60649999D01*
X88999995Y-60650000D01*
X87979117Y-60650000D01*
X87818676Y-60489278D01*
X87579860Y-60390113D01*
X87321274Y-60389888D01*
X87082286Y-60488636D01*
X86920639Y-60650000D01*
X73211543Y-60650000D01*
X71675772Y-59114228D01*
X71024914Y-58463370D01*
X71025112Y-58236274D01*
X70926364Y-57997286D01*
X70743676Y-57814278D01*
X70504860Y-57715113D01*
X70246274Y-57714888D01*
X70007286Y-57813636D01*
X69824278Y-57996324D01*
X69725113Y-58235140D01*
X69724888Y-58493726D01*
X69823636Y-58732714D01*
X70006324Y-58915722D01*
X70245140Y-59014887D01*
X70473542Y-59015086D01*
X71124228Y-59665772D01*
X72774226Y-61315769D01*
X72774228Y-61315772D01*
X72900753Y-61400313D01*
X73050000Y-61430000D01*
X86920883Y-61430000D01*
X87081324Y-61590722D01*
X87320140Y-61689887D01*
X87578726Y-61690112D01*
X87817714Y-61591364D01*
X87979361Y-61430000D01*
X88838456Y-61430000D01*
X94609745Y-67201289D01*
X94490000Y-67177470D01*
X94049914Y-67265009D01*
X93676827Y-67514297D01*
X93427539Y-67887384D01*
X93340000Y-68327470D01*
X93340000Y-68372530D01*
X93427539Y-68812616D01*
X93676827Y-69185703D01*
X94049914Y-69434991D01*
X94490000Y-69522530D01*
X94930086Y-69434991D01*
X95192640Y-69259559D01*
X95130113Y-69410140D01*
X95129888Y-69668726D01*
X95228636Y-69907714D01*
X95411324Y-70090722D01*
X95650140Y-70189887D01*
X95908726Y-70190112D01*
X96147714Y-70091364D01*
X96330722Y-69908676D01*
X96429887Y-69669860D01*
X96430112Y-69411274D01*
X96382704Y-69296538D01*
X96589914Y-69434991D01*
X97030000Y-69522530D01*
X97470086Y-69434991D01*
X97843173Y-69185703D01*
X97910000Y-69085689D01*
X97910000Y-69378457D01*
X97478096Y-69810361D01*
X97470086Y-69805009D01*
X97030000Y-69717470D01*
X96589914Y-69805009D01*
X96216827Y-70054297D01*
X95967539Y-70427384D01*
X95880000Y-70867470D01*
X95880000Y-70912530D01*
X95967539Y-71352616D01*
X96159562Y-71640000D01*
X95360438Y-71640000D01*
X95552461Y-71352616D01*
X95640000Y-70912530D01*
X95640000Y-70867470D01*
X95552461Y-70427384D01*
X95303173Y-70054297D01*
X94930086Y-69805009D01*
X94736157Y-69766434D01*
X94729483Y-69730963D01*
X94665042Y-69630819D01*
X94566717Y-69563636D01*
X94450000Y-69540000D01*
X90450000Y-69540000D01*
X90340963Y-69560517D01*
X90240819Y-69624958D01*
X90173636Y-69723283D01*
X90150000Y-69840000D01*
X90150000Y-70005405D01*
X89850086Y-69805009D01*
X89410000Y-69717470D01*
X88969914Y-69805009D01*
X88596827Y-70054297D01*
X88347539Y-70427384D01*
X88260000Y-70867470D01*
X88260000Y-70912530D01*
X88347539Y-71352616D01*
X88596827Y-71725703D01*
X88969914Y-71974991D01*
X89410000Y-72062530D01*
X89850086Y-71974991D01*
X90150000Y-71774595D01*
X90150000Y-75940000D01*
X90152495Y-75953421D01*
X89866827Y-76144297D01*
X89617539Y-76517384D01*
X89530000Y-76957470D01*
X89530000Y-77002530D01*
X89617539Y-77442616D01*
X89866827Y-77815703D01*
X90239914Y-78064991D01*
X90680000Y-78152530D01*
X91120086Y-78064991D01*
X91493173Y-77815703D01*
X91742461Y-77442616D01*
X91830000Y-77002530D01*
X91830000Y-76957470D01*
X91742461Y-76517384D01*
X91560404Y-76244916D01*
X92337299Y-76248354D01*
X92157539Y-76517384D01*
X92070000Y-76957470D01*
X92070000Y-77002530D01*
X92157539Y-77442616D01*
X92406827Y-77815703D01*
X92779914Y-78064991D01*
X93220000Y-78152530D01*
X93660086Y-78064991D01*
X94033173Y-77815703D01*
X94282461Y-77442616D01*
X94370000Y-77002530D01*
X94370000Y-76957470D01*
X94282461Y-76517384D01*
X94107936Y-76256188D01*
X94869811Y-76259560D01*
X94697539Y-76517384D01*
X94610000Y-76957470D01*
X94610000Y-77002530D01*
X94697539Y-77442616D01*
X94946827Y-77815703D01*
X95319914Y-78064991D01*
X95760000Y-78152530D01*
X96200086Y-78064991D01*
X96573173Y-77815703D01*
X96822461Y-77442616D01*
X96910000Y-77002530D01*
X96910000Y-76957470D01*
X96822461Y-76517384D01*
X96655468Y-76267461D01*
X97402324Y-76270765D01*
X97237539Y-76517384D01*
X97150000Y-76957470D01*
X97150000Y-77002530D01*
X97237539Y-77442616D01*
X97486827Y-77815703D01*
X97859914Y-78064991D01*
X98300000Y-78152530D01*
X98740086Y-78064991D01*
X99113173Y-77815703D01*
X99362461Y-77442616D01*
X99450000Y-77002530D01*
X99450000Y-76957470D01*
X99362461Y-76517384D01*
X99203000Y-76278733D01*
X99934836Y-76281971D01*
X99777539Y-76517384D01*
X99690000Y-76957470D01*
X99690000Y-77002530D01*
X99777539Y-77442616D01*
X100026827Y-77815703D01*
X100399914Y-78064991D01*
X100840000Y-78152530D01*
X101280086Y-78064991D01*
X101653173Y-77815703D01*
X101902461Y-77442616D01*
X101990000Y-77002530D01*
X101990000Y-76957470D01*
X101902461Y-76517384D01*
X101750532Y-76290005D01*
X102467349Y-76293177D01*
X102317539Y-76517384D01*
X102230000Y-76957470D01*
X102230000Y-77002530D01*
X102317539Y-77442616D01*
X102566827Y-77815703D01*
X102939914Y-78064991D01*
X103380000Y-78152530D01*
X103820086Y-78064991D01*
X104193173Y-77815703D01*
X104442461Y-77442616D01*
X104530000Y-77002530D01*
X104530000Y-76957470D01*
X104442461Y-76517384D01*
X104298064Y-76301277D01*
X106294123Y-76310110D01*
X106294123Y-77830000D01*
X106315042Y-77941173D01*
X106380745Y-78043279D01*
X106480997Y-78111778D01*
X106600000Y-78135877D01*
X108300000Y-78135877D01*
X108411173Y-78114958D01*
X108513279Y-78049255D01*
X108581778Y-77949003D01*
X108605877Y-77830000D01*
X108605877Y-76320339D01*
X109057864Y-76322339D01*
X108927539Y-76517384D01*
X108840000Y-76957470D01*
X108840000Y-77002530D01*
X108927539Y-77442616D01*
X109176827Y-77815703D01*
X109549914Y-78064991D01*
X109990000Y-78152530D01*
X110430086Y-78064991D01*
X110803173Y-77815703D01*
X111052461Y-77442616D01*
X111140000Y-77002530D01*
X111140000Y-76957470D01*
X111052461Y-76517384D01*
X110927664Y-76330612D01*
X111590376Y-76333544D01*
X111467539Y-76517384D01*
X111380000Y-76957470D01*
X111380000Y-77002530D01*
X111467539Y-77442616D01*
X111716827Y-77815703D01*
X112089914Y-78064991D01*
X112530000Y-78152530D01*
X112970086Y-78064991D01*
X113343173Y-77815703D01*
X113592461Y-77442616D01*
X113680000Y-77002530D01*
X113680000Y-76957470D01*
X113920000Y-76957470D01*
X113920000Y-77002530D01*
X114007539Y-77442616D01*
X114256827Y-77815703D01*
X114629914Y-78064991D01*
X115070000Y-78152530D01*
X115510086Y-78064991D01*
X115883173Y-77815703D01*
X116132461Y-77442616D01*
X116220000Y-77002530D01*
X116220000Y-76957470D01*
X116460000Y-76957470D01*
X116460000Y-77002530D01*
X116547539Y-77442616D01*
X116796827Y-77815703D01*
X117169914Y-78064991D01*
X117610000Y-78152530D01*
X118050086Y-78064991D01*
X118423173Y-77815703D01*
X118672461Y-77442616D01*
X118760000Y-77002530D01*
X118760000Y-76957470D01*
X119000000Y-76957470D01*
X119000000Y-77002530D01*
X119087539Y-77442616D01*
X119336827Y-77815703D01*
X119709914Y-78064991D01*
X120150000Y-78152530D01*
X120590086Y-78064991D01*
X120963173Y-77815703D01*
X121212461Y-77442616D01*
X121300000Y-77002530D01*
X121300000Y-76957470D01*
X121540000Y-76957470D01*
X121540000Y-77002530D01*
X121627539Y-77442616D01*
X121876827Y-77815703D01*
X122249914Y-78064991D01*
X122690000Y-78152530D01*
X123130086Y-78064991D01*
X123503173Y-77815703D01*
X123752461Y-77442616D01*
X123840000Y-77002530D01*
X123840000Y-76957470D01*
X124080000Y-76957470D01*
X124080000Y-77002530D01*
X124167539Y-77442616D01*
X124416827Y-77815703D01*
X124789914Y-78064991D01*
X125230000Y-78152530D01*
X125670086Y-78064991D01*
X126043173Y-77815703D01*
X126292461Y-77442616D01*
X126380000Y-77002530D01*
X126380000Y-76957470D01*
X126292461Y-76517384D01*
X126043173Y-76144297D01*
X125670086Y-75895009D01*
X125230000Y-75807470D01*
X124789914Y-75895009D01*
X124416827Y-76144297D01*
X124167539Y-76517384D01*
X124080000Y-76957470D01*
X123840000Y-76957470D01*
X123752461Y-76517384D01*
X123503173Y-76144297D01*
X123130086Y-75895009D01*
X122690000Y-75807470D01*
X122249914Y-75895009D01*
X121876827Y-76144297D01*
X121627539Y-76517384D01*
X121540000Y-76957470D01*
X121300000Y-76957470D01*
X121212461Y-76517384D01*
X120963173Y-76144297D01*
X120590086Y-75895009D01*
X120150000Y-75807470D01*
X119709914Y-75895009D01*
X119336827Y-76144297D01*
X119087539Y-76517384D01*
X119000000Y-76957470D01*
X118760000Y-76957470D01*
X118672461Y-76517384D01*
X118423173Y-76144297D01*
X118050086Y-75895009D01*
X117610000Y-75807470D01*
X117169914Y-75895009D01*
X116796827Y-76144297D01*
X116547539Y-76517384D01*
X116460000Y-76957470D01*
X116220000Y-76957470D01*
X116132461Y-76517384D01*
X115883173Y-76144297D01*
X115510086Y-75895009D01*
X115070000Y-75807470D01*
X114629914Y-75895009D01*
X114256827Y-76144297D01*
X114007539Y-76517384D01*
X113920000Y-76957470D01*
X113680000Y-76957470D01*
X113592461Y-76517384D01*
X113343173Y-76144297D01*
X113330583Y-76135884D01*
X113350000Y-76040000D01*
X113350000Y-71264442D01*
X113420000Y-70912530D01*
X113420000Y-70867470D01*
X116200000Y-70867470D01*
X116200000Y-70912530D01*
X116287539Y-71352616D01*
X116536827Y-71725703D01*
X116909914Y-71974991D01*
X117350000Y-72062530D01*
X117790086Y-71974991D01*
X118163173Y-71725703D01*
X118412461Y-71352616D01*
X118500000Y-70912530D01*
X118500000Y-70867470D01*
X118740000Y-70867470D01*
X118740000Y-70912530D01*
X118827539Y-71352616D01*
X119076827Y-71725703D01*
X119449914Y-71974991D01*
X119890000Y-72062530D01*
X120330086Y-71974991D01*
X120703173Y-71725703D01*
X120952461Y-71352616D01*
X121040000Y-70912530D01*
X121040000Y-70867470D01*
X121280000Y-70867470D01*
X121280000Y-70912530D01*
X121367539Y-71352616D01*
X121616827Y-71725703D01*
X121989914Y-71974991D01*
X122430000Y-72062530D01*
X122870086Y-71974991D01*
X123243173Y-71725703D01*
X123492461Y-71352616D01*
X123580000Y-70912530D01*
X123580000Y-70867470D01*
X123820000Y-70867470D01*
X123820000Y-70912530D01*
X123907539Y-71352616D01*
X124156827Y-71725703D01*
X124529914Y-71974991D01*
X124970000Y-72062530D01*
X125410086Y-71974991D01*
X125783173Y-71725703D01*
X126032461Y-71352616D01*
X126120000Y-70912530D01*
X126120000Y-70867470D01*
X126360000Y-70867470D01*
X126360000Y-70912530D01*
X126447539Y-71352616D01*
X126696827Y-71725703D01*
X127069914Y-71974991D01*
X127510000Y-72062530D01*
X127950086Y-71974991D01*
X128323173Y-71725703D01*
X128572461Y-71352616D01*
X128660000Y-70912530D01*
X128660000Y-70867470D01*
X128572461Y-70427384D01*
X128323173Y-70054297D01*
X127950086Y-69805009D01*
X127510000Y-69717470D01*
X127069914Y-69805009D01*
X126696827Y-70054297D01*
X126447539Y-70427384D01*
X126360000Y-70867470D01*
X126120000Y-70867470D01*
X126032461Y-70427384D01*
X125783173Y-70054297D01*
X125410086Y-69805009D01*
X124970000Y-69717470D01*
X124529914Y-69805009D01*
X124156827Y-70054297D01*
X123907539Y-70427384D01*
X123820000Y-70867470D01*
X123580000Y-70867470D01*
X123492461Y-70427384D01*
X123243173Y-70054297D01*
X122870086Y-69805009D01*
X122430000Y-69717470D01*
X121989914Y-69805009D01*
X121616827Y-70054297D01*
X121367539Y-70427384D01*
X121280000Y-70867470D01*
X121040000Y-70867470D01*
X120952461Y-70427384D01*
X120703173Y-70054297D01*
X120330086Y-69805009D01*
X119890000Y-69717470D01*
X119449914Y-69805009D01*
X119076827Y-70054297D01*
X118827539Y-70427384D01*
X118740000Y-70867470D01*
X118500000Y-70867470D01*
X118412461Y-70427384D01*
X118163173Y-70054297D01*
X117790086Y-69805009D01*
X117350000Y-69717470D01*
X116909914Y-69805009D01*
X116536827Y-70054297D01*
X116287539Y-70427384D01*
X116200000Y-70867470D01*
X113420000Y-70867470D01*
X113350000Y-70515558D01*
X113350000Y-68724442D01*
X113420000Y-68372530D01*
X113420000Y-68327470D01*
X116200000Y-68327470D01*
X116200000Y-68372530D01*
X116287539Y-68812616D01*
X116536827Y-69185703D01*
X116909914Y-69434991D01*
X117350000Y-69522530D01*
X117790086Y-69434991D01*
X118163173Y-69185703D01*
X118412461Y-68812616D01*
X118500000Y-68372530D01*
X118500000Y-68327470D01*
X118740000Y-68327470D01*
X118740000Y-68372530D01*
X118827539Y-68812616D01*
X119076827Y-69185703D01*
X119449914Y-69434991D01*
X119890000Y-69522530D01*
X120330086Y-69434991D01*
X120703173Y-69185703D01*
X120952461Y-68812616D01*
X121040000Y-68372530D01*
X121040000Y-68327470D01*
X121280000Y-68327470D01*
X121280000Y-68372530D01*
X121367539Y-68812616D01*
X121616827Y-69185703D01*
X121989914Y-69434991D01*
X122430000Y-69522530D01*
X122870086Y-69434991D01*
X123243173Y-69185703D01*
X123492461Y-68812616D01*
X123580000Y-68372530D01*
X123580000Y-68327470D01*
X123820000Y-68327470D01*
X123820000Y-68372530D01*
X123907539Y-68812616D01*
X124156827Y-69185703D01*
X124529914Y-69434991D01*
X124970000Y-69522530D01*
X125410086Y-69434991D01*
X125783173Y-69185703D01*
X126032461Y-68812616D01*
X126120000Y-68372530D01*
X126120000Y-68327470D01*
X126360000Y-68327470D01*
X126360000Y-68372530D01*
X126447539Y-68812616D01*
X126696827Y-69185703D01*
X127069914Y-69434991D01*
X127510000Y-69522530D01*
X127950086Y-69434991D01*
X128323173Y-69185703D01*
X128572461Y-68812616D01*
X128660000Y-68372530D01*
X128660000Y-68327470D01*
X128572461Y-67887384D01*
X128323173Y-67514297D01*
X127950086Y-67265009D01*
X127510000Y-67177470D01*
X127069914Y-67265009D01*
X126696827Y-67514297D01*
X126447539Y-67887384D01*
X126360000Y-68327470D01*
X126120000Y-68327470D01*
X126032461Y-67887384D01*
X125783173Y-67514297D01*
X125410086Y-67265009D01*
X124970000Y-67177470D01*
X124529914Y-67265009D01*
X124156827Y-67514297D01*
X123907539Y-67887384D01*
X123820000Y-68327470D01*
X123580000Y-68327470D01*
X123492461Y-67887384D01*
X123243173Y-67514297D01*
X122870086Y-67265009D01*
X122430000Y-67177470D01*
X121989914Y-67265009D01*
X121616827Y-67514297D01*
X121367539Y-67887384D01*
X121280000Y-68327470D01*
X121040000Y-68327470D01*
X120952461Y-67887384D01*
X120703173Y-67514297D01*
X120330086Y-67265009D01*
X119890000Y-67177470D01*
X119449914Y-67265009D01*
X119076827Y-67514297D01*
X118827539Y-67887384D01*
X118740000Y-68327470D01*
X118500000Y-68327470D01*
X118412461Y-67887384D01*
X118163173Y-67514297D01*
X117790086Y-67265009D01*
X117350000Y-67177470D01*
X116909914Y-67265009D01*
X116536827Y-67514297D01*
X116287539Y-67887384D01*
X116200000Y-68327470D01*
X113420000Y-68327470D01*
X113350000Y-67975558D01*
X113350000Y-60330000D01*
X125470883Y-60330000D01*
X125631324Y-60490722D01*
X125870140Y-60589887D01*
X126128726Y-60590112D01*
X126367714Y-60491364D01*
X126529361Y-60330000D01*
X141749995Y-60330000D01*
X141750000Y-60330001D01*
X141874485Y-60305239D01*
X141899247Y-60300313D01*
X142025772Y-60215772D01*
X142901630Y-59339914D01*
X143128726Y-59340112D01*
X143367714Y-59241364D01*
X143550722Y-59058676D01*
X143649887Y-58819860D01*
X143650112Y-58561274D01*
X143551364Y-58322286D01*
X143368676Y-58139278D01*
X143139772Y-58044229D01*
X143267714Y-57991364D01*
X143450722Y-57808676D01*
X143549887Y-57569860D01*
X143550112Y-57311274D01*
X143451364Y-57072286D01*
X143268676Y-56889278D01*
X143029860Y-56790113D01*
X142771274Y-56789888D01*
X142532286Y-56888636D01*
X142349278Y-57071324D01*
X142250113Y-57310140D01*
X142249914Y-57538543D01*
X141138456Y-58650000D01*
X125779117Y-58650000D01*
X125618676Y-58489278D01*
X125596332Y-58480000D01*
X140749995Y-58480000D01*
X140750000Y-58480001D01*
X140874485Y-58455239D01*
X140899247Y-58450313D01*
X141025772Y-58365772D01*
X141201629Y-58189914D01*
X141428726Y-58190112D01*
X141667714Y-58091364D01*
X141850722Y-57908676D01*
X141949887Y-57669860D01*
X141950112Y-57411274D01*
X141851364Y-57172286D01*
X141668676Y-56989278D01*
X141429860Y-56890113D01*
X141171274Y-56889888D01*
X140932286Y-56988636D01*
X140749278Y-57171324D01*
X140650113Y-57410140D01*
X140649914Y-57638542D01*
X140588456Y-57700000D01*
X125379117Y-57700000D01*
X125218676Y-57539278D01*
X124979860Y-57440113D01*
X124869326Y-57440017D01*
X124879361Y-57430000D01*
X139949995Y-57430000D01*
X139950000Y-57430001D01*
X140074485Y-57405239D01*
X140099247Y-57400313D01*
X140225772Y-57315772D01*
X140301630Y-57239914D01*
X140528726Y-57240112D01*
X140767714Y-57141364D01*
X140950722Y-56958676D01*
X141049887Y-56719860D01*
X141050112Y-56461274D01*
X140951364Y-56222286D01*
X140768676Y-56039278D01*
X140592976Y-55966321D01*
X140650722Y-55908676D01*
X140749887Y-55669860D01*
X140750112Y-55411274D01*
X140651364Y-55172286D01*
X140468676Y-54989278D01*
X140229860Y-54890113D01*
X139971274Y-54889888D01*
X139732286Y-54988636D01*
X139713571Y-55007318D01*
X139749887Y-54919860D01*
X139750112Y-54661274D01*
X139651364Y-54422286D01*
X139468676Y-54239278D01*
X139294364Y-54166897D01*
X146960000Y-54145545D01*
X146960000Y-56089995D01*
X146959999Y-56090000D01*
X146983897Y-56210140D01*
X146989687Y-56239247D01*
X147057008Y-56340000D01*
X147074228Y-56365772D01*
X147150086Y-56441630D01*
X147149888Y-56668726D01*
X147248636Y-56907714D01*
X147431324Y-57090722D01*
X147670140Y-57189887D01*
X147928726Y-57190112D01*
X148167714Y-57091364D01*
X148350722Y-56908676D01*
X148449887Y-56669860D01*
X148450112Y-56411274D01*
X148351364Y-56172286D01*
X148168676Y-55989278D01*
X147929860Y-55890113D01*
X147740000Y-55889948D01*
X147740000Y-54143372D01*
X148950836Y-54139999D01*
X149059037Y-54119483D01*
X149159181Y-54055042D01*
X149226364Y-53956717D01*
X149250000Y-53840000D01*
X149250000Y-46149817D01*
X149687746Y-46150199D01*
X150110572Y-45975491D01*
X150434354Y-45652273D01*
X150609800Y-45229753D01*
X150610199Y-44772254D01*
X150435491Y-44349428D01*
X150236411Y-44150000D01*
X150844123Y-44150000D01*
X150844123Y-45850000D01*
X150865042Y-45961173D01*
X150930745Y-46063279D01*
X151030997Y-46131778D01*
X151150000Y-46155877D01*
X152850000Y-46155877D01*
X152961173Y-46134958D01*
X153063279Y-46069255D01*
X153131778Y-45969003D01*
X153155877Y-45850000D01*
X153155877Y-44150000D01*
X153134958Y-44038827D01*
X153069255Y-43936721D01*
X152969003Y-43868222D01*
X152850000Y-43844123D01*
X151150000Y-43844123D01*
X151038827Y-43865042D01*
X150936721Y-43930745D01*
X150868222Y-44030997D01*
X150844123Y-44150000D01*
X150236411Y-44150000D01*
X150112273Y-44025646D01*
X149689753Y-43850200D01*
X149250000Y-43849816D01*
X149250000Y-43740000D01*
X149229483Y-43630963D01*
X149165042Y-43530819D01*
X149066717Y-43463636D01*
X148950000Y-43440000D01*
X142350000Y-43440000D01*
X142350000Y-42687746D01*
X150849801Y-42687746D01*
X151024509Y-43110572D01*
X151347727Y-43434354D01*
X151770247Y-43609800D01*
X152227746Y-43610199D01*
X152650572Y-43435491D01*
X152974354Y-43112273D01*
X153149800Y-42689753D01*
X153150199Y-42232254D01*
X152975491Y-41809428D01*
X152652273Y-41485646D01*
X152229753Y-41310200D01*
X151772254Y-41309801D01*
X151349428Y-41484509D01*
X151025646Y-41807727D01*
X150850200Y-42230247D01*
X150849801Y-42687746D01*
X142350000Y-42687746D01*
X142350000Y-40340000D01*
X142329483Y-40230963D01*
X142275935Y-40147746D01*
X148309801Y-40147746D01*
X148484509Y-40570572D01*
X148807727Y-40894354D01*
X149230247Y-41069800D01*
X149687746Y-41070199D01*
X150110572Y-40895491D01*
X150434354Y-40572273D01*
X150609800Y-40149753D01*
X150609801Y-40147746D01*
X150849801Y-40147746D01*
X151024509Y-40570572D01*
X151347727Y-40894354D01*
X151770247Y-41069800D01*
X152227746Y-41070199D01*
X152650572Y-40895491D01*
X152974354Y-40572273D01*
X153149800Y-40149753D01*
X153150199Y-39692254D01*
X152975491Y-39269428D01*
X152652273Y-38945646D01*
X152229753Y-38770200D01*
X151772254Y-38769801D01*
X151349428Y-38944509D01*
X151025646Y-39267727D01*
X150850200Y-39690247D01*
X150849801Y-40147746D01*
X150609801Y-40147746D01*
X150610199Y-39692254D01*
X150435491Y-39269428D01*
X150112273Y-38945646D01*
X149689753Y-38770200D01*
X149232254Y-38769801D01*
X148809428Y-38944509D01*
X148485646Y-39267727D01*
X148310200Y-39690247D01*
X148309801Y-40147746D01*
X142275935Y-40147746D01*
X142265042Y-40130819D01*
X142166717Y-40063636D01*
X142050000Y-40040000D01*
X137850000Y-40040000D01*
X137740963Y-40060517D01*
X137640819Y-40124958D01*
X137573636Y-40223283D01*
X137550000Y-40340000D01*
X137550000Y-43440000D01*
X135139659Y-43440000D01*
X135150572Y-43435491D01*
X135474354Y-43112273D01*
X135649800Y-42689753D01*
X135650199Y-42232254D01*
X135475491Y-41809428D01*
X135152273Y-41485646D01*
X134729753Y-41310200D01*
X134272254Y-41309801D01*
X133849428Y-41484509D01*
X133525646Y-41807727D01*
X133350200Y-42230247D01*
X133349801Y-42687746D01*
X133524509Y-43110572D01*
X133847727Y-43434354D01*
X133861324Y-43440000D01*
X124850000Y-43440000D01*
X124850000Y-40340000D01*
X124829483Y-40230963D01*
X124775935Y-40147746D01*
X130809801Y-40147746D01*
X130984509Y-40570572D01*
X131307727Y-40894354D01*
X131730247Y-41069800D01*
X132187746Y-41070199D01*
X132610572Y-40895491D01*
X132934354Y-40572273D01*
X133109800Y-40149753D01*
X133109801Y-40147746D01*
X133349801Y-40147746D01*
X133524509Y-40570572D01*
X133847727Y-40894354D01*
X134270247Y-41069800D01*
X134727746Y-41070199D01*
X135150572Y-40895491D01*
X135474354Y-40572273D01*
X135649800Y-40149753D01*
X135650199Y-39692254D01*
X135475491Y-39269428D01*
X135152273Y-38945646D01*
X134729753Y-38770200D01*
X134272254Y-38769801D01*
X133849428Y-38944509D01*
X133525646Y-39267727D01*
X133350200Y-39690247D01*
X133349801Y-40147746D01*
X133109801Y-40147746D01*
X133110199Y-39692254D01*
X132935491Y-39269428D01*
X132612273Y-38945646D01*
X132189753Y-38770200D01*
X131732254Y-38769801D01*
X131309428Y-38944509D01*
X130985646Y-39267727D01*
X130810200Y-39690247D01*
X130809801Y-40147746D01*
X124775935Y-40147746D01*
X124765042Y-40130819D01*
X124666717Y-40063636D01*
X124550000Y-40040000D01*
X120350000Y-40040000D01*
X120240963Y-40060517D01*
X120140819Y-40124958D01*
X120073636Y-40223283D01*
X120050000Y-40340000D01*
X120050000Y-43440000D01*
X117639659Y-43440000D01*
X117650572Y-43435491D01*
X117974354Y-43112273D01*
X118149800Y-42689753D01*
X118150199Y-42232254D01*
X117975491Y-41809428D01*
X117652273Y-41485646D01*
X117229753Y-41310200D01*
X116772254Y-41309801D01*
X116349428Y-41484509D01*
X116025646Y-41807727D01*
X115850200Y-42230247D01*
X115849801Y-42687746D01*
X116024509Y-43110572D01*
X116347727Y-43434354D01*
X116361324Y-43440000D01*
X107350000Y-43440000D01*
X107350000Y-40340000D01*
X107329483Y-40230963D01*
X107275935Y-40147746D01*
X113309801Y-40147746D01*
X113484509Y-40570572D01*
X113807727Y-40894354D01*
X114230247Y-41069800D01*
X114687746Y-41070199D01*
X115110572Y-40895491D01*
X115434354Y-40572273D01*
X115609800Y-40149753D01*
X115609801Y-40147746D01*
X115849801Y-40147746D01*
X116024509Y-40570572D01*
X116347727Y-40894354D01*
X116770247Y-41069800D01*
X117227746Y-41070199D01*
X117650572Y-40895491D01*
X117974354Y-40572273D01*
X118149800Y-40149753D01*
X118150199Y-39692254D01*
X117975491Y-39269428D01*
X117652273Y-38945646D01*
X117229753Y-38770200D01*
X116772254Y-38769801D01*
X116349428Y-38944509D01*
X116025646Y-39267727D01*
X115850200Y-39690247D01*
X115849801Y-40147746D01*
X115609801Y-40147746D01*
X115610199Y-39692254D01*
X115435491Y-39269428D01*
X115112273Y-38945646D01*
X114689753Y-38770200D01*
X114232254Y-38769801D01*
X113809428Y-38944509D01*
X113485646Y-39267727D01*
X113310200Y-39690247D01*
X113309801Y-40147746D01*
X107275935Y-40147746D01*
X107265042Y-40130819D01*
X107166717Y-40063636D01*
X107050000Y-40040000D01*
X102850000Y-40040000D01*
X102740963Y-40060517D01*
X102640819Y-40124958D01*
X102573636Y-40223283D01*
X102550000Y-40340000D01*
X102550000Y-43440000D01*
X100139659Y-43440000D01*
X100150572Y-43435491D01*
X100474354Y-43112273D01*
X100649800Y-42689753D01*
X100650199Y-42232254D01*
X100475491Y-41809428D01*
X100152273Y-41485646D01*
X99729753Y-41310200D01*
X99272254Y-41309801D01*
X98849428Y-41484509D01*
X98525646Y-41807727D01*
X98350200Y-42230247D01*
X98349801Y-42687746D01*
X98524509Y-43110572D01*
X98847727Y-43434354D01*
X98861324Y-43440000D01*
X89850000Y-43440000D01*
X89850000Y-40340000D01*
X89829483Y-40230963D01*
X89775935Y-40147746D01*
X95809801Y-40147746D01*
X95984509Y-40570572D01*
X96307727Y-40894354D01*
X96730247Y-41069800D01*
X97187746Y-41070199D01*
X97610572Y-40895491D01*
X97934354Y-40572273D01*
X98109800Y-40149753D01*
X98109801Y-40147746D01*
X98349801Y-40147746D01*
X98524509Y-40570572D01*
X98847727Y-40894354D01*
X99270247Y-41069800D01*
X99727746Y-41070199D01*
X100150572Y-40895491D01*
X100474354Y-40572273D01*
X100649800Y-40149753D01*
X100650199Y-39692254D01*
X100475491Y-39269428D01*
X100152273Y-38945646D01*
X99729753Y-38770200D01*
X99272254Y-38769801D01*
X98849428Y-38944509D01*
X98525646Y-39267727D01*
X98350200Y-39690247D01*
X98349801Y-40147746D01*
X98109801Y-40147746D01*
X98110199Y-39692254D01*
X97935491Y-39269428D01*
X97612273Y-38945646D01*
X97189753Y-38770200D01*
X96732254Y-38769801D01*
X96309428Y-38944509D01*
X95985646Y-39267727D01*
X95810200Y-39690247D01*
X95809801Y-40147746D01*
X89775935Y-40147746D01*
X89765042Y-40130819D01*
X89666717Y-40063636D01*
X89550000Y-40040000D01*
X85350000Y-40040000D01*
X85240963Y-40060517D01*
X85140819Y-40124958D01*
X85073636Y-40223283D01*
X85050000Y-40340000D01*
X85050000Y-43440000D01*
X82639659Y-43440000D01*
X82650572Y-43435491D01*
X82974354Y-43112273D01*
X83149800Y-42689753D01*
X83150199Y-42232254D01*
X82975491Y-41809428D01*
X82652273Y-41485646D01*
X82229753Y-41310200D01*
X81772254Y-41309801D01*
X81349428Y-41484509D01*
X81025646Y-41807727D01*
X80850200Y-42230247D01*
X80849801Y-42687746D01*
X81024509Y-43110572D01*
X81347727Y-43434354D01*
X81361324Y-43440000D01*
X72350000Y-43440000D01*
X72350000Y-40340000D01*
X72329483Y-40230963D01*
X72275935Y-40147746D01*
X78309801Y-40147746D01*
X78484509Y-40570572D01*
X78807727Y-40894354D01*
X79230247Y-41069800D01*
X79687746Y-41070199D01*
X80110572Y-40895491D01*
X80434354Y-40572273D01*
X80609800Y-40149753D01*
X80609801Y-40147746D01*
X80849801Y-40147746D01*
X81024509Y-40570572D01*
X81347727Y-40894354D01*
X81770247Y-41069800D01*
X82227746Y-41070199D01*
X82650572Y-40895491D01*
X82974354Y-40572273D01*
X83149800Y-40149753D01*
X83150199Y-39692254D01*
X82975491Y-39269428D01*
X82652273Y-38945646D01*
X82229753Y-38770200D01*
X81772254Y-38769801D01*
X81349428Y-38944509D01*
X81025646Y-39267727D01*
X80850200Y-39690247D01*
X80849801Y-40147746D01*
X80609801Y-40147746D01*
X80610199Y-39692254D01*
X80435491Y-39269428D01*
X80112273Y-38945646D01*
X79689753Y-38770200D01*
X79232254Y-38769801D01*
X78809428Y-38944509D01*
X78485646Y-39267727D01*
X78310200Y-39690247D01*
X78309801Y-40147746D01*
X72275935Y-40147746D01*
X72265042Y-40130819D01*
X72166717Y-40063636D01*
X72050000Y-40040000D01*
X67875000Y-40040000D01*
X67765963Y-40060517D01*
X67665819Y-40124958D01*
X67598636Y-40223283D01*
X67575000Y-40340000D01*
X67125000Y-40340000D01*
X67125000Y-37607746D01*
X80849801Y-37607746D01*
X81024509Y-38030572D01*
X81347727Y-38354354D01*
X81770247Y-38529800D01*
X82227746Y-38530199D01*
X82650572Y-38355491D01*
X82974354Y-38032273D01*
X83149800Y-37609753D01*
X83149801Y-37607746D01*
X98349801Y-37607746D01*
X98524509Y-38030572D01*
X98847727Y-38354354D01*
X99270247Y-38529800D01*
X99727746Y-38530199D01*
X100150572Y-38355491D01*
X100474354Y-38032273D01*
X100649800Y-37609753D01*
X100649801Y-37607746D01*
X115849801Y-37607746D01*
X116024509Y-38030572D01*
X116347727Y-38354354D01*
X116770247Y-38529800D01*
X117227746Y-38530199D01*
X117650572Y-38355491D01*
X117974354Y-38032273D01*
X118149800Y-37609753D01*
X118149801Y-37607746D01*
X133349801Y-37607746D01*
X133524509Y-38030572D01*
X133847727Y-38354354D01*
X134270247Y-38529800D01*
X134727746Y-38530199D01*
X135150572Y-38355491D01*
X135474354Y-38032273D01*
X135649800Y-37609753D01*
X135649801Y-37607746D01*
X150849801Y-37607746D01*
X151024509Y-38030572D01*
X151347727Y-38354354D01*
X151770247Y-38529800D01*
X152227746Y-38530199D01*
X152650572Y-38355491D01*
X152974354Y-38032273D01*
X153149800Y-37609753D01*
X153150199Y-37152254D01*
X152975491Y-36729428D01*
X152652273Y-36405646D01*
X152229753Y-36230200D01*
X151772254Y-36229801D01*
X151349428Y-36404509D01*
X151025646Y-36727727D01*
X150850200Y-37150247D01*
X150849801Y-37607746D01*
X135649801Y-37607746D01*
X135650199Y-37152254D01*
X135475491Y-36729428D01*
X135152273Y-36405646D01*
X134729753Y-36230200D01*
X134272254Y-36229801D01*
X133849428Y-36404509D01*
X133525646Y-36727727D01*
X133350200Y-37150247D01*
X133349801Y-37607746D01*
X118149801Y-37607746D01*
X118150199Y-37152254D01*
X117975491Y-36729428D01*
X117652273Y-36405646D01*
X117229753Y-36230200D01*
X116772254Y-36229801D01*
X116349428Y-36404509D01*
X116025646Y-36727727D01*
X115850200Y-37150247D01*
X115849801Y-37607746D01*
X100649801Y-37607746D01*
X100650199Y-37152254D01*
X100475491Y-36729428D01*
X100152273Y-36405646D01*
X99729753Y-36230200D01*
X99272254Y-36229801D01*
X98849428Y-36404509D01*
X98525646Y-36727727D01*
X98350200Y-37150247D01*
X98349801Y-37607746D01*
X83149801Y-37607746D01*
X83150199Y-37152254D01*
X82975491Y-36729428D01*
X82652273Y-36405646D01*
X82229753Y-36230200D01*
X81772254Y-36229801D01*
X81349428Y-36404509D01*
X81025646Y-36727727D01*
X80850200Y-37150247D01*
X80849801Y-37607746D01*
X67125000Y-37607746D01*
X67125000Y-35067746D01*
X78309801Y-35067746D01*
X78484509Y-35490572D01*
X78807727Y-35814354D01*
X79230247Y-35989800D01*
X79687746Y-35990199D01*
X80110572Y-35815491D01*
X80434354Y-35492273D01*
X80609800Y-35069753D01*
X80609801Y-35067746D01*
X80849801Y-35067746D01*
X81024509Y-35490572D01*
X81347727Y-35814354D01*
X81770247Y-35989800D01*
X82227746Y-35990199D01*
X82650572Y-35815491D01*
X82974354Y-35492273D01*
X83149800Y-35069753D01*
X83149801Y-35067746D01*
X95809801Y-35067746D01*
X95984509Y-35490572D01*
X96307727Y-35814354D01*
X96730247Y-35989800D01*
X97187746Y-35990199D01*
X97610572Y-35815491D01*
X97934354Y-35492273D01*
X98109800Y-35069753D01*
X98109801Y-35067746D01*
X98349801Y-35067746D01*
X98524509Y-35490572D01*
X98847727Y-35814354D01*
X99270247Y-35989800D01*
X99727746Y-35990199D01*
X100150572Y-35815491D01*
X100474354Y-35492273D01*
X100649800Y-35069753D01*
X100649801Y-35067746D01*
X113309801Y-35067746D01*
X113484509Y-35490572D01*
X113807727Y-35814354D01*
X114230247Y-35989800D01*
X114687746Y-35990199D01*
X115110572Y-35815491D01*
X115434354Y-35492273D01*
X115609800Y-35069753D01*
X115609801Y-35067746D01*
X115849801Y-35067746D01*
X116024509Y-35490572D01*
X116347727Y-35814354D01*
X116770247Y-35989800D01*
X117227746Y-35990199D01*
X117650572Y-35815491D01*
X117974354Y-35492273D01*
X118149800Y-35069753D01*
X118149801Y-35067746D01*
X130809801Y-35067746D01*
X130984509Y-35490572D01*
X131307727Y-35814354D01*
X131730247Y-35989800D01*
X132187746Y-35990199D01*
X132610572Y-35815491D01*
X132934354Y-35492273D01*
X133109800Y-35069753D01*
X133109801Y-35067746D01*
X133349801Y-35067746D01*
X133524509Y-35490572D01*
X133847727Y-35814354D01*
X134270247Y-35989800D01*
X134727746Y-35990199D01*
X135150572Y-35815491D01*
X135474354Y-35492273D01*
X135649800Y-35069753D01*
X135649801Y-35067746D01*
X148309801Y-35067746D01*
X148484509Y-35490572D01*
X148807727Y-35814354D01*
X149230247Y-35989800D01*
X149687746Y-35990199D01*
X150110572Y-35815491D01*
X150434354Y-35492273D01*
X150609800Y-35069753D01*
X150609801Y-35067746D01*
X150849801Y-35067746D01*
X151024509Y-35490572D01*
X151347727Y-35814354D01*
X151770247Y-35989800D01*
X152227746Y-35990199D01*
X152650572Y-35815491D01*
X152974354Y-35492273D01*
X153149800Y-35069753D01*
X153150199Y-34612254D01*
X152975491Y-34189428D01*
X152652273Y-33865646D01*
X152229753Y-33690200D01*
X151772254Y-33689801D01*
X151349428Y-33864509D01*
X151025646Y-34187727D01*
X150850200Y-34610247D01*
X150849801Y-35067746D01*
X150609801Y-35067746D01*
X150610199Y-34612254D01*
X150435491Y-34189428D01*
X150112273Y-33865646D01*
X149689753Y-33690200D01*
X149232254Y-33689801D01*
X148809428Y-33864509D01*
X148485646Y-34187727D01*
X148310200Y-34610247D01*
X148309801Y-35067746D01*
X135649801Y-35067746D01*
X135650199Y-34612254D01*
X135475491Y-34189428D01*
X135152273Y-33865646D01*
X134729753Y-33690200D01*
X134272254Y-33689801D01*
X133849428Y-33864509D01*
X133525646Y-34187727D01*
X133350200Y-34610247D01*
X133349801Y-35067746D01*
X133109801Y-35067746D01*
X133110199Y-34612254D01*
X132935491Y-34189428D01*
X132612273Y-33865646D01*
X132189753Y-33690200D01*
X131732254Y-33689801D01*
X131309428Y-33864509D01*
X130985646Y-34187727D01*
X130810200Y-34610247D01*
X130809801Y-35067746D01*
X118149801Y-35067746D01*
X118150199Y-34612254D01*
X117975491Y-34189428D01*
X117652273Y-33865646D01*
X117229753Y-33690200D01*
X116772254Y-33689801D01*
X116349428Y-33864509D01*
X116025646Y-34187727D01*
X115850200Y-34610247D01*
X115849801Y-35067746D01*
X115609801Y-35067746D01*
X115610199Y-34612254D01*
X115435491Y-34189428D01*
X115112273Y-33865646D01*
X114689753Y-33690200D01*
X114232254Y-33689801D01*
X113809428Y-33864509D01*
X113485646Y-34187727D01*
X113310200Y-34610247D01*
X113309801Y-35067746D01*
X100649801Y-35067746D01*
X100650199Y-34612254D01*
X100475491Y-34189428D01*
X100152273Y-33865646D01*
X99729753Y-33690200D01*
X99272254Y-33689801D01*
X98849428Y-33864509D01*
X98525646Y-34187727D01*
X98350200Y-34610247D01*
X98349801Y-35067746D01*
X98109801Y-35067746D01*
X98110199Y-34612254D01*
X97935491Y-34189428D01*
X97612273Y-33865646D01*
X97189753Y-33690200D01*
X96732254Y-33689801D01*
X96309428Y-33864509D01*
X95985646Y-34187727D01*
X95810200Y-34610247D01*
X95809801Y-35067746D01*
X83149801Y-35067746D01*
X83150199Y-34612254D01*
X82975491Y-34189428D01*
X82652273Y-33865646D01*
X82229753Y-33690200D01*
X81772254Y-33689801D01*
X81349428Y-33864509D01*
X81025646Y-34187727D01*
X80850200Y-34610247D01*
X80849801Y-35067746D01*
X80609801Y-35067746D01*
X80610199Y-34612254D01*
X80435491Y-34189428D01*
X80112273Y-33865646D01*
X79689753Y-33690200D01*
X79232254Y-33689801D01*
X78809428Y-33864509D01*
X78485646Y-34187727D01*
X78310200Y-34610247D01*
X78309801Y-35067746D01*
X67125000Y-35067746D01*
X67125000Y-32527746D01*
X78309801Y-32527746D01*
X78484509Y-32950572D01*
X78807727Y-33274354D01*
X79230247Y-33449800D01*
X79687746Y-33450199D01*
X80110572Y-33275491D01*
X80434354Y-32952273D01*
X80609800Y-32529753D01*
X80609801Y-32527746D01*
X80849801Y-32527746D01*
X81024509Y-32950572D01*
X81347727Y-33274354D01*
X81770247Y-33449800D01*
X82227746Y-33450199D01*
X82650572Y-33275491D01*
X82974354Y-32952273D01*
X83149800Y-32529753D01*
X83149801Y-32527746D01*
X95809801Y-32527746D01*
X95984509Y-32950572D01*
X96307727Y-33274354D01*
X96730247Y-33449800D01*
X97187746Y-33450199D01*
X97610572Y-33275491D01*
X97934354Y-32952273D01*
X98109800Y-32529753D01*
X98109801Y-32527746D01*
X98349801Y-32527746D01*
X98524509Y-32950572D01*
X98847727Y-33274354D01*
X99270247Y-33449800D01*
X99727746Y-33450199D01*
X100150572Y-33275491D01*
X100474354Y-32952273D01*
X100649800Y-32529753D01*
X100649801Y-32527746D01*
X113309801Y-32527746D01*
X113484509Y-32950572D01*
X113807727Y-33274354D01*
X114230247Y-33449800D01*
X114687746Y-33450199D01*
X115110572Y-33275491D01*
X115434354Y-32952273D01*
X115609800Y-32529753D01*
X115609801Y-32527746D01*
X115849801Y-32527746D01*
X116024509Y-32950572D01*
X116347727Y-33274354D01*
X116770247Y-33449800D01*
X117227746Y-33450199D01*
X117650572Y-33275491D01*
X117974354Y-32952273D01*
X118149800Y-32529753D01*
X118149801Y-32527746D01*
X130809801Y-32527746D01*
X130984509Y-32950572D01*
X131307727Y-33274354D01*
X131730247Y-33449800D01*
X132187746Y-33450199D01*
X132610572Y-33275491D01*
X132934354Y-32952273D01*
X133109800Y-32529753D01*
X133109801Y-32527746D01*
X133349801Y-32527746D01*
X133524509Y-32950572D01*
X133847727Y-33274354D01*
X134270247Y-33449800D01*
X134727746Y-33450199D01*
X135150572Y-33275491D01*
X135474354Y-32952273D01*
X135649800Y-32529753D01*
X135649801Y-32527746D01*
X148309801Y-32527746D01*
X148484509Y-32950572D01*
X148807727Y-33274354D01*
X149230247Y-33449800D01*
X149687746Y-33450199D01*
X150110572Y-33275491D01*
X150434354Y-32952273D01*
X150609800Y-32529753D01*
X150609801Y-32527746D01*
X150849801Y-32527746D01*
X151024509Y-32950572D01*
X151347727Y-33274354D01*
X151770247Y-33449800D01*
X152227746Y-33450199D01*
X152650572Y-33275491D01*
X152974354Y-32952273D01*
X153149800Y-32529753D01*
X153150199Y-32072254D01*
X152975491Y-31649428D01*
X152652273Y-31325646D01*
X152229753Y-31150200D01*
X151772254Y-31149801D01*
X151349428Y-31324509D01*
X151025646Y-31647727D01*
X150850200Y-32070247D01*
X150849801Y-32527746D01*
X150609801Y-32527746D01*
X150610199Y-32072254D01*
X150435491Y-31649428D01*
X150112273Y-31325646D01*
X149689753Y-31150200D01*
X149232254Y-31149801D01*
X148809428Y-31324509D01*
X148485646Y-31647727D01*
X148310200Y-32070247D01*
X148309801Y-32527746D01*
X135649801Y-32527746D01*
X135650199Y-32072254D01*
X135475491Y-31649428D01*
X135152273Y-31325646D01*
X134729753Y-31150200D01*
X134272254Y-31149801D01*
X133849428Y-31324509D01*
X133525646Y-31647727D01*
X133350200Y-32070247D01*
X133349801Y-32527746D01*
X133109801Y-32527746D01*
X133110199Y-32072254D01*
X132935491Y-31649428D01*
X132612273Y-31325646D01*
X132189753Y-31150200D01*
X131732254Y-31149801D01*
X131309428Y-31324509D01*
X130985646Y-31647727D01*
X130810200Y-32070247D01*
X130809801Y-32527746D01*
X118149801Y-32527746D01*
X118150199Y-32072254D01*
X117975491Y-31649428D01*
X117652273Y-31325646D01*
X117229753Y-31150200D01*
X116772254Y-31149801D01*
X116349428Y-31324509D01*
X116025646Y-31647727D01*
X115850200Y-32070247D01*
X115849801Y-32527746D01*
X115609801Y-32527746D01*
X115610199Y-32072254D01*
X115435491Y-31649428D01*
X115112273Y-31325646D01*
X114689753Y-31150200D01*
X114232254Y-31149801D01*
X113809428Y-31324509D01*
X113485646Y-31647727D01*
X113310200Y-32070247D01*
X113309801Y-32527746D01*
X100649801Y-32527746D01*
X100650199Y-32072254D01*
X100475491Y-31649428D01*
X100152273Y-31325646D01*
X99729753Y-31150200D01*
X99272254Y-31149801D01*
X98849428Y-31324509D01*
X98525646Y-31647727D01*
X98350200Y-32070247D01*
X98349801Y-32527746D01*
X98109801Y-32527746D01*
X98110199Y-32072254D01*
X97935491Y-31649428D01*
X97612273Y-31325646D01*
X97189753Y-31150200D01*
X96732254Y-31149801D01*
X96309428Y-31324509D01*
X95985646Y-31647727D01*
X95810200Y-32070247D01*
X95809801Y-32527746D01*
X83149801Y-32527746D01*
X83150199Y-32072254D01*
X82975491Y-31649428D01*
X82652273Y-31325646D01*
X82229753Y-31150200D01*
X81772254Y-31149801D01*
X81349428Y-31324509D01*
X81025646Y-31647727D01*
X80850200Y-32070247D01*
X80849801Y-32527746D01*
X80609801Y-32527746D01*
X80610199Y-32072254D01*
X80435491Y-31649428D01*
X80112273Y-31325646D01*
X79689753Y-31150200D01*
X79232254Y-31149801D01*
X78809428Y-31324509D01*
X78485646Y-31647727D01*
X78310200Y-32070247D01*
X78309801Y-32527746D01*
X67125000Y-32527746D01*
X67125000Y-29987746D01*
X78309801Y-29987746D01*
X78484509Y-30410572D01*
X78807727Y-30734354D01*
X79230247Y-30909800D01*
X79687746Y-30910199D01*
X80110572Y-30735491D01*
X80434354Y-30412273D01*
X80609800Y-29989753D01*
X80609801Y-29987746D01*
X80849801Y-29987746D01*
X81024509Y-30410572D01*
X81347727Y-30734354D01*
X81770247Y-30909800D01*
X82227746Y-30910199D01*
X82650572Y-30735491D01*
X82974354Y-30412273D01*
X83149800Y-29989753D01*
X83149801Y-29987746D01*
X95809801Y-29987746D01*
X95984509Y-30410572D01*
X96307727Y-30734354D01*
X96730247Y-30909800D01*
X97187746Y-30910199D01*
X97610572Y-30735491D01*
X97934354Y-30412273D01*
X98109800Y-29989753D01*
X98109801Y-29987746D01*
X98349801Y-29987746D01*
X98524509Y-30410572D01*
X98847727Y-30734354D01*
X99270247Y-30909800D01*
X99727746Y-30910199D01*
X100150572Y-30735491D01*
X100474354Y-30412273D01*
X100649800Y-29989753D01*
X100649801Y-29987746D01*
X113309801Y-29987746D01*
X113484509Y-30410572D01*
X113807727Y-30734354D01*
X114230247Y-30909800D01*
X114687746Y-30910199D01*
X115110572Y-30735491D01*
X115434354Y-30412273D01*
X115609800Y-29989753D01*
X115609801Y-29987746D01*
X115849801Y-29987746D01*
X116024509Y-30410572D01*
X116347727Y-30734354D01*
X116770247Y-30909800D01*
X117227746Y-30910199D01*
X117650572Y-30735491D01*
X117974354Y-30412273D01*
X118149800Y-29989753D01*
X118149801Y-29987746D01*
X130809801Y-29987746D01*
X130984509Y-30410572D01*
X131307727Y-30734354D01*
X131730247Y-30909800D01*
X132187746Y-30910199D01*
X132610572Y-30735491D01*
X132934354Y-30412273D01*
X133109800Y-29989753D01*
X133109801Y-29987746D01*
X133349801Y-29987746D01*
X133524509Y-30410572D01*
X133847727Y-30734354D01*
X134270247Y-30909800D01*
X134727746Y-30910199D01*
X135150572Y-30735491D01*
X135474354Y-30412273D01*
X135649800Y-29989753D01*
X135649801Y-29987746D01*
X148309801Y-29987746D01*
X148484509Y-30410572D01*
X148807727Y-30734354D01*
X149230247Y-30909800D01*
X149687746Y-30910199D01*
X150110572Y-30735491D01*
X150434354Y-30412273D01*
X150609800Y-29989753D01*
X150609801Y-29987746D01*
X150849801Y-29987746D01*
X151024509Y-30410572D01*
X151347727Y-30734354D01*
X151770247Y-30909800D01*
X152227746Y-30910199D01*
X152650572Y-30735491D01*
X152974354Y-30412273D01*
X153149800Y-29989753D01*
X153150199Y-29532254D01*
X152975491Y-29109428D01*
X152652273Y-28785646D01*
X152229753Y-28610200D01*
X151772254Y-28609801D01*
X151349428Y-28784509D01*
X151025646Y-29107727D01*
X150850200Y-29530247D01*
X150849801Y-29987746D01*
X150609801Y-29987746D01*
X150610199Y-29532254D01*
X150435491Y-29109428D01*
X150112273Y-28785646D01*
X149689753Y-28610200D01*
X149232254Y-28609801D01*
X148809428Y-28784509D01*
X148485646Y-29107727D01*
X148310200Y-29530247D01*
X148309801Y-29987746D01*
X135649801Y-29987746D01*
X135650199Y-29532254D01*
X135475491Y-29109428D01*
X135152273Y-28785646D01*
X134729753Y-28610200D01*
X134272254Y-28609801D01*
X133849428Y-28784509D01*
X133525646Y-29107727D01*
X133350200Y-29530247D01*
X133349801Y-29987746D01*
X133109801Y-29987746D01*
X133110199Y-29532254D01*
X132935491Y-29109428D01*
X132612273Y-28785646D01*
X132189753Y-28610200D01*
X131732254Y-28609801D01*
X131309428Y-28784509D01*
X130985646Y-29107727D01*
X130810200Y-29530247D01*
X130809801Y-29987746D01*
X118149801Y-29987746D01*
X118150199Y-29532254D01*
X117975491Y-29109428D01*
X117652273Y-28785646D01*
X117229753Y-28610200D01*
X116772254Y-28609801D01*
X116349428Y-28784509D01*
X116025646Y-29107727D01*
X115850200Y-29530247D01*
X115849801Y-29987746D01*
X115609801Y-29987746D01*
X115610199Y-29532254D01*
X115435491Y-29109428D01*
X115112273Y-28785646D01*
X114689753Y-28610200D01*
X114232254Y-28609801D01*
X113809428Y-28784509D01*
X113485646Y-29107727D01*
X113310200Y-29530247D01*
X113309801Y-29987746D01*
X100649801Y-29987746D01*
X100650199Y-29532254D01*
X100475491Y-29109428D01*
X100152273Y-28785646D01*
X99729753Y-28610200D01*
X99272254Y-28609801D01*
X98849428Y-28784509D01*
X98525646Y-29107727D01*
X98350200Y-29530247D01*
X98349801Y-29987746D01*
X98109801Y-29987746D01*
X98110199Y-29532254D01*
X97935491Y-29109428D01*
X97612273Y-28785646D01*
X97189753Y-28610200D01*
X96732254Y-28609801D01*
X96309428Y-28784509D01*
X95985646Y-29107727D01*
X95810200Y-29530247D01*
X95809801Y-29987746D01*
X83149801Y-29987746D01*
X83150199Y-29532254D01*
X82975491Y-29109428D01*
X82652273Y-28785646D01*
X82229753Y-28610200D01*
X81772254Y-28609801D01*
X81349428Y-28784509D01*
X81025646Y-29107727D01*
X80850200Y-29530247D01*
X80849801Y-29987746D01*
X80609801Y-29987746D01*
X80610199Y-29532254D01*
X80435491Y-29109428D01*
X80112273Y-28785646D01*
X79689753Y-28610200D01*
X79232254Y-28609801D01*
X78809428Y-28784509D01*
X78485646Y-29107727D01*
X78310200Y-29530247D01*
X78309801Y-29987746D01*
X67125000Y-29987746D01*
X67125000Y-27447746D01*
X80849801Y-27447746D01*
X81024509Y-27870572D01*
X81347727Y-28194354D01*
X81770247Y-28369800D01*
X82227746Y-28370199D01*
X82650572Y-28195491D01*
X82974354Y-27872273D01*
X83149800Y-27449753D01*
X83149801Y-27447746D01*
X98349801Y-27447746D01*
X98524509Y-27870572D01*
X98847727Y-28194354D01*
X99270247Y-28369800D01*
X99727746Y-28370199D01*
X100150572Y-28195491D01*
X100474354Y-27872273D01*
X100649800Y-27449753D01*
X100649801Y-27447746D01*
X115849801Y-27447746D01*
X116024509Y-27870572D01*
X116347727Y-28194354D01*
X116770247Y-28369800D01*
X117227746Y-28370199D01*
X117650572Y-28195491D01*
X117974354Y-27872273D01*
X118149800Y-27449753D01*
X118149801Y-27447746D01*
X133349801Y-27447746D01*
X133524509Y-27870572D01*
X133847727Y-28194354D01*
X134270247Y-28369800D01*
X134727746Y-28370199D01*
X135150572Y-28195491D01*
X135474354Y-27872273D01*
X135649800Y-27449753D01*
X135649801Y-27447746D01*
X150849801Y-27447746D01*
X151024509Y-27870572D01*
X151347727Y-28194354D01*
X151770247Y-28369800D01*
X152227746Y-28370199D01*
X152650572Y-28195491D01*
X152974354Y-27872273D01*
X153149800Y-27449753D01*
X153150199Y-26992254D01*
X152975491Y-26569428D01*
X152652273Y-26245646D01*
X152229753Y-26070200D01*
X151772254Y-26069801D01*
X151349428Y-26244509D01*
X151025646Y-26567727D01*
X150850200Y-26990247D01*
X150849801Y-27447746D01*
X135649801Y-27447746D01*
X135650199Y-26992254D01*
X135475491Y-26569428D01*
X135152273Y-26245646D01*
X134729753Y-26070200D01*
X134272254Y-26069801D01*
X133849428Y-26244509D01*
X133525646Y-26567727D01*
X133350200Y-26990247D01*
X133349801Y-27447746D01*
X118149801Y-27447746D01*
X118150199Y-26992254D01*
X117975491Y-26569428D01*
X117652273Y-26245646D01*
X117229753Y-26070200D01*
X116772254Y-26069801D01*
X116349428Y-26244509D01*
X116025646Y-26567727D01*
X115850200Y-26990247D01*
X115849801Y-27447746D01*
X100649801Y-27447746D01*
X100650199Y-26992254D01*
X100475491Y-26569428D01*
X100152273Y-26245646D01*
X99729753Y-26070200D01*
X99272254Y-26069801D01*
X98849428Y-26244509D01*
X98525646Y-26567727D01*
X98350200Y-26990247D01*
X98349801Y-27447746D01*
X83149801Y-27447746D01*
X83150199Y-26992254D01*
X82975491Y-26569428D01*
X82652273Y-26245646D01*
X82229753Y-26070200D01*
X81772254Y-26069801D01*
X81349428Y-26244509D01*
X81025646Y-26567727D01*
X80850200Y-26990247D01*
X80849801Y-27447746D01*
X67125000Y-27447746D01*
X67125000Y-17065000D01*
X162525000Y-17065000D01*
X162525000Y-194735000D01*
X162525000Y-194735000D01*
G37*
X162525000Y-194735000D02*
X67125000Y-194735000D01*
X67125000Y-133857470D01*
X78100000Y-133857470D01*
X78100000Y-133902530D01*
X78187539Y-134342616D01*
X78436827Y-134715703D01*
X78809914Y-134964991D01*
X79250000Y-135052530D01*
X79690086Y-134964991D01*
X80063173Y-134715703D01*
X80312461Y-134342616D01*
X80400000Y-133902530D01*
X80400000Y-133857470D01*
X80640000Y-133857470D01*
X80640000Y-133902530D01*
X80727539Y-134342616D01*
X80976827Y-134715703D01*
X81349914Y-134964991D01*
X81790000Y-135052530D01*
X82230086Y-134964991D01*
X82603173Y-134715703D01*
X82852461Y-134342616D01*
X82940000Y-133902530D01*
X82940000Y-133857470D01*
X83180000Y-133857470D01*
X83180000Y-133902530D01*
X83267539Y-134342616D01*
X83516827Y-134715703D01*
X83889914Y-134964991D01*
X84330000Y-135052530D01*
X84770086Y-134964991D01*
X85143173Y-134715703D01*
X85392461Y-134342616D01*
X85480000Y-133902530D01*
X85480000Y-133857470D01*
X85720000Y-133857470D01*
X85720000Y-133902530D01*
X85807539Y-134342616D01*
X86056827Y-134715703D01*
X86429914Y-134964991D01*
X86870000Y-135052530D01*
X87310086Y-134964991D01*
X87683173Y-134715703D01*
X87932461Y-134342616D01*
X88020000Y-133902530D01*
X88020000Y-133857470D01*
X88260000Y-133857470D01*
X88260000Y-133902530D01*
X88347539Y-134342616D01*
X88596827Y-134715703D01*
X88969914Y-134964991D01*
X89410000Y-135052530D01*
X89850086Y-134964991D01*
X90223173Y-134715703D01*
X90472461Y-134342616D01*
X90560000Y-133902530D01*
X90560000Y-133857470D01*
X93340000Y-133857470D01*
X93340000Y-133902530D01*
X93427539Y-134342616D01*
X93676827Y-134715703D01*
X94049914Y-134964991D01*
X94490000Y-135052530D01*
X94930086Y-134964991D01*
X95303173Y-134715703D01*
X95552461Y-134342616D01*
X95640000Y-133902530D01*
X95640000Y-133857470D01*
X95880000Y-133857470D01*
X95880000Y-133902530D01*
X95967539Y-134342616D01*
X96216827Y-134715703D01*
X96589914Y-134964991D01*
X97030000Y-135052530D01*
X97470086Y-134964991D01*
X97843173Y-134715703D01*
X98092461Y-134342616D01*
X98180000Y-133902530D01*
X98180000Y-133857470D01*
X98420000Y-133857470D01*
X98420000Y-133902530D01*
X98507539Y-134342616D01*
X98756827Y-134715703D01*
X99129914Y-134964991D01*
X99570000Y-135052530D01*
X100010086Y-134964991D01*
X100383173Y-134715703D01*
X100632461Y-134342616D01*
X100720000Y-133902530D01*
X100720000Y-133857470D01*
X100960000Y-133857470D01*
X100960000Y-133902530D01*
X101047539Y-134342616D01*
X101296827Y-134715703D01*
X101669914Y-134964991D01*
X102110000Y-135052530D01*
X102550086Y-134964991D01*
X102923173Y-134715703D01*
X103172461Y-134342616D01*
X103260000Y-133902530D01*
X103260000Y-133857470D01*
X103500000Y-133857470D01*
X103500000Y-133902530D01*
X103587539Y-134342616D01*
X103836827Y-134715703D01*
X104209914Y-134964991D01*
X104650000Y-135052530D01*
X105090086Y-134964991D01*
X105463173Y-134715703D01*
X105712461Y-134342616D01*
X105800000Y-133902530D01*
X105800000Y-133857470D01*
X106040000Y-133857470D01*
X106040000Y-133902530D01*
X106127539Y-134342616D01*
X106376827Y-134715703D01*
X106749914Y-134964991D01*
X107190000Y-135052530D01*
X107630086Y-134964991D01*
X108003173Y-134715703D01*
X108252461Y-134342616D01*
X108340000Y-133902530D01*
X108340000Y-133857470D01*
X108580000Y-133857470D01*
X108580000Y-133902530D01*
X108667539Y-134342616D01*
X108916827Y-134715703D01*
X109289914Y-134964991D01*
X109730000Y-135052530D01*
X110170086Y-134964991D01*
X110543173Y-134715703D01*
X110792461Y-134342616D01*
X110880000Y-133902530D01*
X110880000Y-133857470D01*
X111120000Y-133857470D01*
X111120000Y-133902530D01*
X111207539Y-134342616D01*
X111456827Y-134715703D01*
X111829914Y-134964991D01*
X112270000Y-135052530D01*
X112710086Y-134964991D01*
X113083173Y-134715703D01*
X113332461Y-134342616D01*
X113420000Y-133902530D01*
X113420000Y-133857470D01*
X116200000Y-133857470D01*
X116200000Y-133902530D01*
X116287539Y-134342616D01*
X116536827Y-134715703D01*
X116909914Y-134964991D01*
X117350000Y-135052530D01*
X117790086Y-134964991D01*
X118163173Y-134715703D01*
X118412461Y-134342616D01*
X118500000Y-133902530D01*
X118500000Y-133857470D01*
X118740000Y-133857470D01*
X118740000Y-133902530D01*
X118827539Y-134342616D01*
X119076827Y-134715703D01*
X119449914Y-134964991D01*
X119890000Y-135052530D01*
X120330086Y-134964991D01*
X120703173Y-134715703D01*
X120952461Y-134342616D01*
X121040000Y-133902530D01*
X121040000Y-133857470D01*
X121280000Y-133857470D01*
X121280000Y-133902530D01*
X121367539Y-134342616D01*
X121616827Y-134715703D01*
X121989914Y-134964991D01*
X122430000Y-135052530D01*
X122870086Y-134964991D01*
X123243173Y-134715703D01*
X123492461Y-134342616D01*
X123580000Y-133902530D01*
X123580000Y-133857470D01*
X123820000Y-133857470D01*
X123820000Y-133902530D01*
X123907539Y-134342616D01*
X124156827Y-134715703D01*
X124529914Y-134964991D01*
X124970000Y-135052530D01*
X125410086Y-134964991D01*
X125783173Y-134715703D01*
X126032461Y-134342616D01*
X126120000Y-133902530D01*
X126120000Y-133857470D01*
X126360000Y-133857470D01*
X126360000Y-133902530D01*
X126447539Y-134342616D01*
X126696827Y-134715703D01*
X127069914Y-134964991D01*
X127510000Y-135052530D01*
X127950086Y-134964991D01*
X128323173Y-134715703D01*
X128572461Y-134342616D01*
X128660000Y-133902530D01*
X128660000Y-133857470D01*
X128572461Y-133417384D01*
X128323173Y-133044297D01*
X127950086Y-132795009D01*
X127510000Y-132707470D01*
X127069914Y-132795009D01*
X126696827Y-133044297D01*
X126447539Y-133417384D01*
X126360000Y-133857470D01*
X126120000Y-133857470D01*
X126032461Y-133417384D01*
X125783173Y-133044297D01*
X125410086Y-132795009D01*
X124970000Y-132707470D01*
X124529914Y-132795009D01*
X124156827Y-133044297D01*
X123907539Y-133417384D01*
X123820000Y-133857470D01*
X123580000Y-133857470D01*
X123492461Y-133417384D01*
X123243173Y-133044297D01*
X122870086Y-132795009D01*
X122430000Y-132707470D01*
X121989914Y-132795009D01*
X121616827Y-133044297D01*
X121367539Y-133417384D01*
X121280000Y-133857470D01*
X121040000Y-133857470D01*
X120952461Y-133417384D01*
X120703173Y-133044297D01*
X120330086Y-132795009D01*
X119890000Y-132707470D01*
X119449914Y-132795009D01*
X119076827Y-133044297D01*
X118827539Y-133417384D01*
X118740000Y-133857470D01*
X118500000Y-133857470D01*
X118412461Y-133417384D01*
X118163173Y-133044297D01*
X117790086Y-132795009D01*
X117350000Y-132707470D01*
X116909914Y-132795009D01*
X116536827Y-133044297D01*
X116287539Y-133417384D01*
X116200000Y-133857470D01*
X113420000Y-133857470D01*
X113332461Y-133417384D01*
X113083173Y-133044297D01*
X112710086Y-132795009D01*
X112270000Y-132707470D01*
X111829914Y-132795009D01*
X111456827Y-133044297D01*
X111207539Y-133417384D01*
X111120000Y-133857470D01*
X110880000Y-133857470D01*
X110792461Y-133417384D01*
X110543173Y-133044297D01*
X110170086Y-132795009D01*
X109730000Y-132707470D01*
X109289914Y-132795009D01*
X108916827Y-133044297D01*
X108667539Y-133417384D01*
X108580000Y-133857470D01*
X108340000Y-133857470D01*
X108252461Y-133417384D01*
X108003173Y-133044297D01*
X107630086Y-132795009D01*
X107190000Y-132707470D01*
X106749914Y-132795009D01*
X106376827Y-133044297D01*
X106127539Y-133417384D01*
X106040000Y-133857470D01*
X105800000Y-133857470D01*
X105712461Y-133417384D01*
X105463173Y-133044297D01*
X105090086Y-132795009D01*
X104650000Y-132707470D01*
X104209914Y-132795009D01*
X103836827Y-133044297D01*
X103587539Y-133417384D01*
X103500000Y-133857470D01*
X103260000Y-133857470D01*
X103172461Y-133417384D01*
X102923173Y-133044297D01*
X102550086Y-132795009D01*
X102110000Y-132707470D01*
X101669914Y-132795009D01*
X101296827Y-133044297D01*
X101047539Y-133417384D01*
X100960000Y-133857470D01*
X100720000Y-133857470D01*
X100632461Y-133417384D01*
X100383173Y-133044297D01*
X100010086Y-132795009D01*
X99570000Y-132707470D01*
X99129914Y-132795009D01*
X98756827Y-133044297D01*
X98507539Y-133417384D01*
X98420000Y-133857470D01*
X98180000Y-133857470D01*
X98092461Y-133417384D01*
X97843173Y-133044297D01*
X97470086Y-132795009D01*
X97030000Y-132707470D01*
X96589914Y-132795009D01*
X96216827Y-133044297D01*
X95967539Y-133417384D01*
X95880000Y-133857470D01*
X95640000Y-133857470D01*
X95552461Y-133417384D01*
X95303173Y-133044297D01*
X94930086Y-132795009D01*
X94490000Y-132707470D01*
X94049914Y-132795009D01*
X93676827Y-133044297D01*
X93427539Y-133417384D01*
X93340000Y-133857470D01*
X90560000Y-133857470D01*
X90472461Y-133417384D01*
X90223173Y-133044297D01*
X89850086Y-132795009D01*
X89410000Y-132707470D01*
X88969914Y-132795009D01*
X88596827Y-133044297D01*
X88347539Y-133417384D01*
X88260000Y-133857470D01*
X88020000Y-133857470D01*
X87932461Y-133417384D01*
X87683173Y-133044297D01*
X87310086Y-132795009D01*
X86870000Y-132707470D01*
X86429914Y-132795009D01*
X86056827Y-133044297D01*
X85807539Y-133417384D01*
X85720000Y-133857470D01*
X85480000Y-133857470D01*
X85392461Y-133417384D01*
X85143173Y-133044297D01*
X84770086Y-132795009D01*
X84330000Y-132707470D01*
X83889914Y-132795009D01*
X83516827Y-133044297D01*
X83267539Y-133417384D01*
X83180000Y-133857470D01*
X82940000Y-133857470D01*
X82852461Y-133417384D01*
X82603173Y-133044297D01*
X82230086Y-132795009D01*
X81790000Y-132707470D01*
X81349914Y-132795009D01*
X80976827Y-133044297D01*
X80727539Y-133417384D01*
X80640000Y-133857470D01*
X80400000Y-133857470D01*
X80312461Y-133417384D01*
X80063173Y-133044297D01*
X79690086Y-132795009D01*
X79250000Y-132707470D01*
X78809914Y-132795009D01*
X78436827Y-133044297D01*
X78187539Y-133417384D01*
X78100000Y-133857470D01*
X67125000Y-133857470D01*
X67125000Y-131317470D01*
X78100000Y-131317470D01*
X78100000Y-131362530D01*
X78187539Y-131802616D01*
X78436827Y-132175703D01*
X78809914Y-132424991D01*
X79250000Y-132512530D01*
X79690086Y-132424991D01*
X80063173Y-132175703D01*
X80312461Y-131802616D01*
X80400000Y-131362530D01*
X80400000Y-131317470D01*
X80640000Y-131317470D01*
X80640000Y-131362530D01*
X80727539Y-131802616D01*
X80976827Y-132175703D01*
X81349914Y-132424991D01*
X81790000Y-132512530D01*
X82230086Y-132424991D01*
X82603173Y-132175703D01*
X82852461Y-131802616D01*
X82940000Y-131362530D01*
X82940000Y-131317470D01*
X83180000Y-131317470D01*
X83180000Y-131362530D01*
X83267539Y-131802616D01*
X83516827Y-132175703D01*
X83889914Y-132424991D01*
X84330000Y-132512530D01*
X84770086Y-132424991D01*
X85143173Y-132175703D01*
X85392461Y-131802616D01*
X85480000Y-131362530D01*
X85480000Y-131317470D01*
X85720000Y-131317470D01*
X85720000Y-131362530D01*
X85807539Y-131802616D01*
X86056827Y-132175703D01*
X86429914Y-132424991D01*
X86870000Y-132512530D01*
X87310086Y-132424991D01*
X87683173Y-132175703D01*
X87932461Y-131802616D01*
X88020000Y-131362530D01*
X88020000Y-131317470D01*
X88260000Y-131317470D01*
X88260000Y-131362530D01*
X88347539Y-131802616D01*
X88596827Y-132175703D01*
X88969914Y-132424991D01*
X89410000Y-132512530D01*
X89850086Y-132424991D01*
X90223173Y-132175703D01*
X90472461Y-131802616D01*
X90560000Y-131362530D01*
X90560000Y-131317470D01*
X93340000Y-131317470D01*
X93340000Y-131362530D01*
X93427539Y-131802616D01*
X93676827Y-132175703D01*
X94049914Y-132424991D01*
X94490000Y-132512530D01*
X94930086Y-132424991D01*
X95303173Y-132175703D01*
X95552461Y-131802616D01*
X95640000Y-131362530D01*
X95640000Y-131317470D01*
X95880000Y-131317470D01*
X95880000Y-131362530D01*
X95967539Y-131802616D01*
X96216827Y-132175703D01*
X96589914Y-132424991D01*
X97030000Y-132512530D01*
X97470086Y-132424991D01*
X97843173Y-132175703D01*
X98092461Y-131802616D01*
X98180000Y-131362530D01*
X98180000Y-131317470D01*
X98420000Y-131317470D01*
X98420000Y-131362530D01*
X98507539Y-131802616D01*
X98756827Y-132175703D01*
X99129914Y-132424991D01*
X99570000Y-132512530D01*
X100010086Y-132424991D01*
X100383173Y-132175703D01*
X100632461Y-131802616D01*
X100720000Y-131362530D01*
X100720000Y-131317470D01*
X100960000Y-131317470D01*
X100960000Y-131362530D01*
X101047539Y-131802616D01*
X101296827Y-132175703D01*
X101669914Y-132424991D01*
X102110000Y-132512530D01*
X102550086Y-132424991D01*
X102923173Y-132175703D01*
X103172461Y-131802616D01*
X103260000Y-131362530D01*
X103260000Y-131317470D01*
X103500000Y-131317470D01*
X103500000Y-131362530D01*
X103587539Y-131802616D01*
X103836827Y-132175703D01*
X104209914Y-132424991D01*
X104650000Y-132512530D01*
X105090086Y-132424991D01*
X105463173Y-132175703D01*
X105712461Y-131802616D01*
X105800000Y-131362530D01*
X105800000Y-131317470D01*
X106040000Y-131317470D01*
X106040000Y-131362530D01*
X106127539Y-131802616D01*
X106376827Y-132175703D01*
X106749914Y-132424991D01*
X107190000Y-132512530D01*
X107630086Y-132424991D01*
X108003173Y-132175703D01*
X108252461Y-131802616D01*
X108340000Y-131362530D01*
X108340000Y-131317470D01*
X108580000Y-131317470D01*
X108580000Y-131362530D01*
X108667539Y-131802616D01*
X108916827Y-132175703D01*
X109289914Y-132424991D01*
X109730000Y-132512530D01*
X110170086Y-132424991D01*
X110543173Y-132175703D01*
X110792461Y-131802616D01*
X110880000Y-131362530D01*
X110880000Y-131317470D01*
X111120000Y-131317470D01*
X111120000Y-131362530D01*
X111207539Y-131802616D01*
X111456827Y-132175703D01*
X111829914Y-132424991D01*
X112270000Y-132512530D01*
X112710086Y-132424991D01*
X113083173Y-132175703D01*
X113332461Y-131802616D01*
X113420000Y-131362530D01*
X113420000Y-131317470D01*
X113660000Y-131317470D01*
X113660000Y-131362530D01*
X113747539Y-131802616D01*
X113996827Y-132175703D01*
X114369914Y-132424991D01*
X114810000Y-132512530D01*
X115250086Y-132424991D01*
X115623173Y-132175703D01*
X115872461Y-131802616D01*
X115960000Y-131362530D01*
X115960000Y-131317470D01*
X116200000Y-131317470D01*
X116200000Y-131362530D01*
X116287539Y-131802616D01*
X116536827Y-132175703D01*
X116909914Y-132424991D01*
X117350000Y-132512530D01*
X117790086Y-132424991D01*
X118163173Y-132175703D01*
X118412461Y-131802616D01*
X118500000Y-131362530D01*
X118500000Y-131317470D01*
X118740000Y-131317470D01*
X118740000Y-131362530D01*
X118827539Y-131802616D01*
X119076827Y-132175703D01*
X119449914Y-132424991D01*
X119890000Y-132512530D01*
X120330086Y-132424991D01*
X120703173Y-132175703D01*
X120952461Y-131802616D01*
X121040000Y-131362530D01*
X121040000Y-131317470D01*
X121280000Y-131317470D01*
X121280000Y-131362530D01*
X121367539Y-131802616D01*
X121616827Y-132175703D01*
X121989914Y-132424991D01*
X122430000Y-132512530D01*
X122870086Y-132424991D01*
X123243173Y-132175703D01*
X123492461Y-131802616D01*
X123580000Y-131362530D01*
X123580000Y-131317470D01*
X123820000Y-131317470D01*
X123820000Y-131362530D01*
X123907539Y-131802616D01*
X124156827Y-132175703D01*
X124529914Y-132424991D01*
X124970000Y-132512530D01*
X125410086Y-132424991D01*
X125783173Y-132175703D01*
X126032461Y-131802616D01*
X126120000Y-131362530D01*
X126120000Y-131317470D01*
X126032461Y-130877384D01*
X125783173Y-130504297D01*
X125761776Y-130490000D01*
X126354123Y-130490000D01*
X126354123Y-132190000D01*
X126375042Y-132301173D01*
X126440745Y-132403279D01*
X126540997Y-132471778D01*
X126660000Y-132495877D01*
X128360000Y-132495877D01*
X128471173Y-132474958D01*
X128573279Y-132409255D01*
X128641778Y-132309003D01*
X128665877Y-132190000D01*
X128665877Y-130490000D01*
X128644958Y-130378827D01*
X128579255Y-130276721D01*
X128479003Y-130208222D01*
X128360000Y-130184123D01*
X126660000Y-130184123D01*
X126548827Y-130205042D01*
X126446721Y-130270745D01*
X126378222Y-130370997D01*
X126354123Y-130490000D01*
X125761776Y-130490000D01*
X125410086Y-130255009D01*
X124970000Y-130167470D01*
X124529914Y-130255009D01*
X124156827Y-130504297D01*
X123907539Y-130877384D01*
X123820000Y-131317470D01*
X123580000Y-131317470D01*
X123492461Y-130877384D01*
X123243173Y-130504297D01*
X122870086Y-130255009D01*
X122430000Y-130167470D01*
X121989914Y-130255009D01*
X121616827Y-130504297D01*
X121367539Y-130877384D01*
X121280000Y-131317470D01*
X121040000Y-131317470D01*
X120952461Y-130877384D01*
X120703173Y-130504297D01*
X120330086Y-130255009D01*
X119890000Y-130167470D01*
X119449914Y-130255009D01*
X119076827Y-130504297D01*
X118827539Y-130877384D01*
X118740000Y-131317470D01*
X118500000Y-131317470D01*
X118412461Y-130877384D01*
X118163173Y-130504297D01*
X117790086Y-130255009D01*
X117350000Y-130167470D01*
X116909914Y-130255009D01*
X116536827Y-130504297D01*
X116287539Y-130877384D01*
X116200000Y-131317470D01*
X115960000Y-131317470D01*
X115872461Y-130877384D01*
X115623173Y-130504297D01*
X115250086Y-130255009D01*
X114810000Y-130167470D01*
X114369914Y-130255009D01*
X113996827Y-130504297D01*
X113747539Y-130877384D01*
X113660000Y-131317470D01*
X113420000Y-131317470D01*
X113332461Y-130877384D01*
X113083173Y-130504297D01*
X112710086Y-130255009D01*
X112270000Y-130167470D01*
X111829914Y-130255009D01*
X111456827Y-130504297D01*
X111207539Y-130877384D01*
X111120000Y-131317470D01*
X110880000Y-131317470D01*
X110792461Y-130877384D01*
X110543173Y-130504297D01*
X110170086Y-130255009D01*
X109730000Y-130167470D01*
X109289914Y-130255009D01*
X108916827Y-130504297D01*
X108667539Y-130877384D01*
X108580000Y-131317470D01*
X108340000Y-131317470D01*
X108252461Y-130877384D01*
X108003173Y-130504297D01*
X107630086Y-130255009D01*
X107190000Y-130167470D01*
X106749914Y-130255009D01*
X106376827Y-130504297D01*
X106127539Y-130877384D01*
X106040000Y-131317470D01*
X105800000Y-131317470D01*
X105712461Y-130877384D01*
X105463173Y-130504297D01*
X105090086Y-130255009D01*
X104650000Y-130167470D01*
X104209914Y-130255009D01*
X103836827Y-130504297D01*
X103587539Y-130877384D01*
X103500000Y-131317470D01*
X103260000Y-131317470D01*
X103172461Y-130877384D01*
X102923173Y-130504297D01*
X102550086Y-130255009D01*
X102110000Y-130167470D01*
X101669914Y-130255009D01*
X101296827Y-130504297D01*
X101047539Y-130877384D01*
X100960000Y-131317470D01*
X100720000Y-131317470D01*
X100632461Y-130877384D01*
X100383173Y-130504297D01*
X100010086Y-130255009D01*
X99570000Y-130167470D01*
X99129914Y-130255009D01*
X98756827Y-130504297D01*
X98507539Y-130877384D01*
X98420000Y-131317470D01*
X98180000Y-131317470D01*
X98092461Y-130877384D01*
X97843173Y-130504297D01*
X97470086Y-130255009D01*
X97030000Y-130167470D01*
X96589914Y-130255009D01*
X96216827Y-130504297D01*
X95967539Y-130877384D01*
X95880000Y-131317470D01*
X95640000Y-131317470D01*
X95552461Y-130877384D01*
X95303173Y-130504297D01*
X94930086Y-130255009D01*
X94490000Y-130167470D01*
X94049914Y-130255009D01*
X93676827Y-130504297D01*
X93427539Y-130877384D01*
X93340000Y-131317470D01*
X90560000Y-131317470D01*
X90472461Y-130877384D01*
X90223173Y-130504297D01*
X89850086Y-130255009D01*
X89410000Y-130167470D01*
X88969914Y-130255009D01*
X88596827Y-130504297D01*
X88347539Y-130877384D01*
X88260000Y-131317470D01*
X88020000Y-131317470D01*
X87932461Y-130877384D01*
X87683173Y-130504297D01*
X87310086Y-130255009D01*
X86870000Y-130167470D01*
X86429914Y-130255009D01*
X86056827Y-130504297D01*
X85807539Y-130877384D01*
X85720000Y-131317470D01*
X85480000Y-131317470D01*
X85392461Y-130877384D01*
X85143173Y-130504297D01*
X84770086Y-130255009D01*
X84330000Y-130167470D01*
X83889914Y-130255009D01*
X83516827Y-130504297D01*
X83267539Y-130877384D01*
X83180000Y-131317470D01*
X82940000Y-131317470D01*
X82852461Y-130877384D01*
X82603173Y-130504297D01*
X82230086Y-130255009D01*
X81790000Y-130167470D01*
X81349914Y-130255009D01*
X80976827Y-130504297D01*
X80727539Y-130877384D01*
X80640000Y-131317470D01*
X80400000Y-131317470D01*
X80312461Y-130877384D01*
X80063173Y-130504297D01*
X79690086Y-130255009D01*
X79250000Y-130167470D01*
X78809914Y-130255009D01*
X78436827Y-130504297D01*
X78187539Y-130877384D01*
X78100000Y-131317470D01*
X67125000Y-131317470D01*
X67125000Y-124390000D01*
X88514123Y-124390000D01*
X88514123Y-126090000D01*
X88535042Y-126201173D01*
X88600745Y-126303279D01*
X88700997Y-126371778D01*
X88820000Y-126395877D01*
X90520000Y-126395877D01*
X90631173Y-126374958D01*
X90733279Y-126309255D01*
X90801778Y-126209003D01*
X90825877Y-126090000D01*
X90825877Y-125217470D01*
X93600000Y-125217470D01*
X93600000Y-125262530D01*
X93687539Y-125702616D01*
X93936827Y-126075703D01*
X94309914Y-126324991D01*
X94750000Y-126412530D01*
X95190086Y-126324991D01*
X95563173Y-126075703D01*
X95812461Y-125702616D01*
X95900000Y-125262530D01*
X95900000Y-125217470D01*
X98680000Y-125217470D01*
X98680000Y-125262530D01*
X98767539Y-125702616D01*
X99016827Y-126075703D01*
X99389914Y-126324991D01*
X99830000Y-126412530D01*
X100270086Y-126324991D01*
X100643173Y-126075703D01*
X100892461Y-125702616D01*
X100980000Y-125262530D01*
X100980000Y-125217470D01*
X106300000Y-125217470D01*
X106300000Y-125262530D01*
X106387539Y-125702616D01*
X106636827Y-126075703D01*
X107009914Y-126324991D01*
X107450000Y-126412530D01*
X107890086Y-126324991D01*
X108263173Y-126075703D01*
X108512461Y-125702616D01*
X108600000Y-125262530D01*
X108600000Y-125217470D01*
X108512461Y-124777384D01*
X108263173Y-124404297D01*
X108241776Y-124390000D01*
X111374123Y-124390000D01*
X111374123Y-126090000D01*
X111395042Y-126201173D01*
X111460745Y-126303279D01*
X111560997Y-126371778D01*
X111680000Y-126395877D01*
X113380000Y-126395877D01*
X113491173Y-126374958D01*
X113593279Y-126309255D01*
X113661778Y-126209003D01*
X113685877Y-126090000D01*
X113685877Y-125217470D01*
X113920000Y-125217470D01*
X113920000Y-125262530D01*
X114007539Y-125702616D01*
X114256827Y-126075703D01*
X114629914Y-126324991D01*
X115070000Y-126412530D01*
X115510086Y-126324991D01*
X115883173Y-126075703D01*
X116132461Y-125702616D01*
X116220000Y-125262530D01*
X116220000Y-125217470D01*
X116460000Y-125217470D01*
X116460000Y-125262530D01*
X116547539Y-125702616D01*
X116796827Y-126075703D01*
X117169914Y-126324991D01*
X117610000Y-126412530D01*
X118050086Y-126324991D01*
X118423173Y-126075703D01*
X118672461Y-125702616D01*
X118760000Y-125262530D01*
X118760000Y-125217470D01*
X119000000Y-125217470D01*
X119000000Y-125262530D01*
X119087539Y-125702616D01*
X119336827Y-126075703D01*
X119709914Y-126324991D01*
X120150000Y-126412530D01*
X120590086Y-126324991D01*
X120963173Y-126075703D01*
X121212461Y-125702616D01*
X121300000Y-125262530D01*
X121300000Y-125217470D01*
X121540000Y-125217470D01*
X121540000Y-125262530D01*
X121627539Y-125702616D01*
X121876827Y-126075703D01*
X122249914Y-126324991D01*
X122690000Y-126412530D01*
X123130086Y-126324991D01*
X123503173Y-126075703D01*
X123752461Y-125702616D01*
X123840000Y-125262530D01*
X123840000Y-125217470D01*
X124080000Y-125217470D01*
X124080000Y-125262530D01*
X124167539Y-125702616D01*
X124416827Y-126075703D01*
X124789914Y-126324991D01*
X125230000Y-126412530D01*
X125670086Y-126324991D01*
X126043173Y-126075703D01*
X126292461Y-125702616D01*
X126380000Y-125262530D01*
X126380000Y-125217470D01*
X126292461Y-124777384D01*
X126043173Y-124404297D01*
X125670086Y-124155009D01*
X125230000Y-124067470D01*
X124789914Y-124155009D01*
X124416827Y-124404297D01*
X124167539Y-124777384D01*
X124080000Y-125217470D01*
X123840000Y-125217470D01*
X123752461Y-124777384D01*
X123503173Y-124404297D01*
X123130086Y-124155009D01*
X122690000Y-124067470D01*
X122249914Y-124155009D01*
X121876827Y-124404297D01*
X121627539Y-124777384D01*
X121540000Y-125217470D01*
X121300000Y-125217470D01*
X121212461Y-124777384D01*
X120963173Y-124404297D01*
X120590086Y-124155009D01*
X120150000Y-124067470D01*
X119709914Y-124155009D01*
X119336827Y-124404297D01*
X119087539Y-124777384D01*
X119000000Y-125217470D01*
X118760000Y-125217470D01*
X118672461Y-124777384D01*
X118423173Y-124404297D01*
X118050086Y-124155009D01*
X117610000Y-124067470D01*
X117169914Y-124155009D01*
X116796827Y-124404297D01*
X116547539Y-124777384D01*
X116460000Y-125217470D01*
X116220000Y-125217470D01*
X116132461Y-124777384D01*
X115883173Y-124404297D01*
X115510086Y-124155009D01*
X115070000Y-124067470D01*
X114629914Y-124155009D01*
X114256827Y-124404297D01*
X114007539Y-124777384D01*
X113920000Y-125217470D01*
X113685877Y-125217470D01*
X113685877Y-124390000D01*
X113664958Y-124278827D01*
X113599255Y-124176721D01*
X113499003Y-124108222D01*
X113380000Y-124084123D01*
X111680000Y-124084123D01*
X111568827Y-124105042D01*
X111466721Y-124170745D01*
X111398222Y-124270997D01*
X111374123Y-124390000D01*
X108241776Y-124390000D01*
X107890086Y-124155009D01*
X107450000Y-124067470D01*
X107009914Y-124155009D01*
X106636827Y-124404297D01*
X106387539Y-124777384D01*
X106300000Y-125217470D01*
X100980000Y-125217470D01*
X100892461Y-124777384D01*
X100643173Y-124404297D01*
X100270086Y-124155009D01*
X99830000Y-124067470D01*
X99389914Y-124155009D01*
X99016827Y-124404297D01*
X98767539Y-124777384D01*
X98680000Y-125217470D01*
X95900000Y-125217470D01*
X95812461Y-124777384D01*
X95563173Y-124404297D01*
X95190086Y-124155009D01*
X94750000Y-124067470D01*
X94309914Y-124155009D01*
X93936827Y-124404297D01*
X93687539Y-124777384D01*
X93600000Y-125217470D01*
X90825877Y-125217470D01*
X90825877Y-124390000D01*
X90804958Y-124278827D01*
X90739255Y-124176721D01*
X90639003Y-124108222D01*
X90520000Y-124084123D01*
X88820000Y-124084123D01*
X88708827Y-124105042D01*
X88606721Y-124170745D01*
X88538222Y-124270997D01*
X88514123Y-124390000D01*
X67125000Y-124390000D01*
X67125000Y-76130000D01*
X79364123Y-76130000D01*
X79364123Y-77830000D01*
X79385042Y-77941173D01*
X79450745Y-78043279D01*
X79550997Y-78111778D01*
X79670000Y-78135877D01*
X81370000Y-78135877D01*
X81481173Y-78114958D01*
X81583279Y-78049255D01*
X81651778Y-77949003D01*
X81675877Y-77830000D01*
X81675877Y-76957470D01*
X81910000Y-76957470D01*
X81910000Y-77002530D01*
X81997539Y-77442616D01*
X82246827Y-77815703D01*
X82619914Y-78064991D01*
X83060000Y-78152530D01*
X83500086Y-78064991D01*
X83873173Y-77815703D01*
X84122461Y-77442616D01*
X84210000Y-77002530D01*
X84210000Y-76957470D01*
X84450000Y-76957470D01*
X84450000Y-77002530D01*
X84537539Y-77442616D01*
X84786827Y-77815703D01*
X85159914Y-78064991D01*
X85600000Y-78152530D01*
X86040086Y-78064991D01*
X86413173Y-77815703D01*
X86662461Y-77442616D01*
X86750000Y-77002530D01*
X86750000Y-76957470D01*
X86662461Y-76517384D01*
X86413173Y-76144297D01*
X86040086Y-75895009D01*
X85600000Y-75807470D01*
X85159914Y-75895009D01*
X84786827Y-76144297D01*
X84537539Y-76517384D01*
X84450000Y-76957470D01*
X84210000Y-76957470D01*
X84122461Y-76517384D01*
X83873173Y-76144297D01*
X83500086Y-75895009D01*
X83060000Y-75807470D01*
X82619914Y-75895009D01*
X82246827Y-76144297D01*
X81997539Y-76517384D01*
X81910000Y-76957470D01*
X81675877Y-76957470D01*
X81675877Y-76130000D01*
X81654958Y-76018827D01*
X81589255Y-75916721D01*
X81489003Y-75848222D01*
X81370000Y-75824123D01*
X79670000Y-75824123D01*
X79558827Y-75845042D01*
X79456721Y-75910745D01*
X79388222Y-76010997D01*
X79364123Y-76130000D01*
X67125000Y-76130000D01*
X67125000Y-70040000D01*
X78094123Y-70040000D01*
X78094123Y-71740000D01*
X78115042Y-71851173D01*
X78180745Y-71953279D01*
X78280997Y-72021778D01*
X78400000Y-72045877D01*
X80100000Y-72045877D01*
X80211173Y-72024958D01*
X80313279Y-71959255D01*
X80381778Y-71859003D01*
X80405877Y-71740000D01*
X80405877Y-70867470D01*
X80640000Y-70867470D01*
X80640000Y-70912530D01*
X80727539Y-71352616D01*
X80976827Y-71725703D01*
X81349914Y-71974991D01*
X81790000Y-72062530D01*
X82230086Y-71974991D01*
X82603173Y-71725703D01*
X82852461Y-71352616D01*
X82940000Y-70912530D01*
X82940000Y-70867470D01*
X83180000Y-70867470D01*
X83180000Y-70912530D01*
X83267539Y-71352616D01*
X83516827Y-71725703D01*
X83889914Y-71974991D01*
X84330000Y-72062530D01*
X84770086Y-71974991D01*
X85143173Y-71725703D01*
X85392461Y-71352616D01*
X85480000Y-70912530D01*
X85480000Y-70867470D01*
X85720000Y-70867470D01*
X85720000Y-70912530D01*
X85807539Y-71352616D01*
X86056827Y-71725703D01*
X86429914Y-71974991D01*
X86870000Y-72062530D01*
X87310086Y-71974991D01*
X87683173Y-71725703D01*
X87932461Y-71352616D01*
X88020000Y-70912530D01*
X88020000Y-70867470D01*
X87932461Y-70427384D01*
X87683173Y-70054297D01*
X87310086Y-69805009D01*
X86870000Y-69717470D01*
X86429914Y-69805009D01*
X86056827Y-70054297D01*
X85807539Y-70427384D01*
X85720000Y-70867470D01*
X85480000Y-70867470D01*
X85392461Y-70427384D01*
X85143173Y-70054297D01*
X84770086Y-69805009D01*
X84330000Y-69717470D01*
X83889914Y-69805009D01*
X83516827Y-70054297D01*
X83267539Y-70427384D01*
X83180000Y-70867470D01*
X82940000Y-70867470D01*
X82852461Y-70427384D01*
X82603173Y-70054297D01*
X82230086Y-69805009D01*
X81790000Y-69717470D01*
X81349914Y-69805009D01*
X80976827Y-70054297D01*
X80727539Y-70427384D01*
X80640000Y-70867470D01*
X80405877Y-70867470D01*
X80405877Y-70040000D01*
X80384958Y-69928827D01*
X80319255Y-69826721D01*
X80219003Y-69758222D01*
X80100000Y-69734123D01*
X78400000Y-69734123D01*
X78288827Y-69755042D01*
X78186721Y-69820745D01*
X78118222Y-69920997D01*
X78094123Y-70040000D01*
X67125000Y-70040000D01*
X67125000Y-68327470D01*
X78100000Y-68327470D01*
X78100000Y-68372530D01*
X78187539Y-68812616D01*
X78436827Y-69185703D01*
X78809914Y-69434991D01*
X79250000Y-69522530D01*
X79690086Y-69434991D01*
X80063173Y-69185703D01*
X80312461Y-68812616D01*
X80400000Y-68372530D01*
X80400000Y-68327470D01*
X80640000Y-68327470D01*
X80640000Y-68372530D01*
X80727539Y-68812616D01*
X80976827Y-69185703D01*
X81349914Y-69434991D01*
X81790000Y-69522530D01*
X82230086Y-69434991D01*
X82603173Y-69185703D01*
X82852461Y-68812616D01*
X82940000Y-68372530D01*
X82940000Y-68327470D01*
X83180000Y-68327470D01*
X83180000Y-68372530D01*
X83267539Y-68812616D01*
X83516827Y-69185703D01*
X83889914Y-69434991D01*
X84330000Y-69522530D01*
X84770086Y-69434991D01*
X85143173Y-69185703D01*
X85392461Y-68812616D01*
X85480000Y-68372530D01*
X85480000Y-68327470D01*
X85720000Y-68327470D01*
X85720000Y-68372530D01*
X85807539Y-68812616D01*
X86056827Y-69185703D01*
X86429914Y-69434991D01*
X86870000Y-69522530D01*
X87310086Y-69434991D01*
X87683173Y-69185703D01*
X87932461Y-68812616D01*
X88020000Y-68372530D01*
X88020000Y-68327470D01*
X88260000Y-68327470D01*
X88260000Y-68372530D01*
X88347539Y-68812616D01*
X88596827Y-69185703D01*
X88969914Y-69434991D01*
X89410000Y-69522530D01*
X89850086Y-69434991D01*
X90223173Y-69185703D01*
X90472461Y-68812616D01*
X90560000Y-68372530D01*
X90560000Y-68327470D01*
X90472461Y-67887384D01*
X90223173Y-67514297D01*
X89850086Y-67265009D01*
X89410000Y-67177470D01*
X88969914Y-67265009D01*
X88596827Y-67514297D01*
X88347539Y-67887384D01*
X88260000Y-68327470D01*
X88020000Y-68327470D01*
X87932461Y-67887384D01*
X87683173Y-67514297D01*
X87310086Y-67265009D01*
X86870000Y-67177470D01*
X86429914Y-67265009D01*
X86056827Y-67514297D01*
X85807539Y-67887384D01*
X85720000Y-68327470D01*
X85480000Y-68327470D01*
X85392461Y-67887384D01*
X85143173Y-67514297D01*
X84770086Y-67265009D01*
X84330000Y-67177470D01*
X83889914Y-67265009D01*
X83516827Y-67514297D01*
X83267539Y-67887384D01*
X83180000Y-68327470D01*
X82940000Y-68327470D01*
X82852461Y-67887384D01*
X82603173Y-67514297D01*
X82230086Y-67265009D01*
X81790000Y-67177470D01*
X81349914Y-67265009D01*
X80976827Y-67514297D01*
X80727539Y-67887384D01*
X80640000Y-68327470D01*
X80400000Y-68327470D01*
X80312461Y-67887384D01*
X80063173Y-67514297D01*
X79690086Y-67265009D01*
X79250000Y-67177470D01*
X78809914Y-67265009D01*
X78436827Y-67514297D01*
X78187539Y-67887384D01*
X78100000Y-68327470D01*
X67125000Y-68327470D01*
X67125000Y-40340000D01*
X67575000Y-40340000D01*
X67575000Y-54840000D01*
X67595517Y-54949037D01*
X67659958Y-55049181D01*
X67758283Y-55116364D01*
X67875000Y-55140000D01*
X71980876Y-55140000D01*
X71824278Y-55296324D01*
X71725113Y-55535140D01*
X71724888Y-55793726D01*
X71823636Y-56032714D01*
X71955805Y-56165114D01*
X71774278Y-56346324D01*
X71675113Y-56585140D01*
X71674888Y-56843726D01*
X71773636Y-57082714D01*
X71956324Y-57265722D01*
X72195140Y-57364887D01*
X72423542Y-57365086D01*
X72924228Y-57865772D01*
X73924226Y-58865769D01*
X73924228Y-58865772D01*
X73990630Y-58910140D01*
X74050754Y-58950314D01*
X74200000Y-58980001D01*
X74200005Y-58980000D01*
X88870883Y-58980000D01*
X89031324Y-59140722D01*
X89270140Y-59239887D01*
X89398455Y-59239999D01*
X97411890Y-67253433D01*
X97030000Y-67177470D01*
X96995814Y-67184270D01*
X89425772Y-59614228D01*
X89391553Y-59591364D01*
X89299247Y-59529687D01*
X89262040Y-59522286D01*
X89150000Y-59499999D01*
X89149995Y-59500000D01*
X88929117Y-59500000D01*
X88768676Y-59339278D01*
X88529860Y-59240113D01*
X88271274Y-59239888D01*
X88032286Y-59338636D01*
X87870639Y-59500000D01*
X73911543Y-59500000D01*
X72575772Y-58164228D01*
X72575769Y-58164226D01*
X71749914Y-57338371D01*
X71750112Y-57111274D01*
X71651364Y-56872286D01*
X71468676Y-56689278D01*
X71229860Y-56590113D01*
X70971274Y-56589888D01*
X70732286Y-56688636D01*
X70549278Y-56871324D01*
X70450113Y-57110140D01*
X70449888Y-57368726D01*
X70548636Y-57607714D01*
X70731324Y-57790722D01*
X70970140Y-57889887D01*
X71198542Y-57890086D01*
X72024226Y-58715769D01*
X72024228Y-58715772D01*
X73474226Y-60165769D01*
X73474228Y-60165772D01*
X73549059Y-60215772D01*
X73600754Y-60250314D01*
X73750000Y-60280001D01*
X73750005Y-60280000D01*
X87870883Y-60280000D01*
X88031324Y-60440722D01*
X88270140Y-60539887D01*
X88528726Y-60540112D01*
X88767714Y-60441364D01*
X88929361Y-60280000D01*
X88988456Y-60280000D01*
X96220379Y-67511923D01*
X96216827Y-67514297D01*
X96126300Y-67649781D01*
X96055772Y-67544228D01*
X89275772Y-60764228D01*
X89149247Y-60679687D01*
X89112040Y-60672286D01*
X89000000Y-60649999D01*
X88999995Y-60650000D01*
X87979117Y-60650000D01*
X87818676Y-60489278D01*
X87579860Y-60390113D01*
X87321274Y-60389888D01*
X87082286Y-60488636D01*
X86920639Y-60650000D01*
X73211543Y-60650000D01*
X71675772Y-59114228D01*
X71024914Y-58463370D01*
X71025112Y-58236274D01*
X70926364Y-57997286D01*
X70743676Y-57814278D01*
X70504860Y-57715113D01*
X70246274Y-57714888D01*
X70007286Y-57813636D01*
X69824278Y-57996324D01*
X69725113Y-58235140D01*
X69724888Y-58493726D01*
X69823636Y-58732714D01*
X70006324Y-58915722D01*
X70245140Y-59014887D01*
X70473542Y-59015086D01*
X71124228Y-59665772D01*
X72774226Y-61315769D01*
X72774228Y-61315772D01*
X72900753Y-61400313D01*
X73050000Y-61430000D01*
X86920883Y-61430000D01*
X87081324Y-61590722D01*
X87320140Y-61689887D01*
X87578726Y-61690112D01*
X87817714Y-61591364D01*
X87979361Y-61430000D01*
X88838456Y-61430000D01*
X94609745Y-67201289D01*
X94490000Y-67177470D01*
X94049914Y-67265009D01*
X93676827Y-67514297D01*
X93427539Y-67887384D01*
X93340000Y-68327470D01*
X93340000Y-68372530D01*
X93427539Y-68812616D01*
X93676827Y-69185703D01*
X94049914Y-69434991D01*
X94490000Y-69522530D01*
X94930086Y-69434991D01*
X95192640Y-69259559D01*
X95130113Y-69410140D01*
X95129888Y-69668726D01*
X95228636Y-69907714D01*
X95411324Y-70090722D01*
X95650140Y-70189887D01*
X95908726Y-70190112D01*
X96147714Y-70091364D01*
X96330722Y-69908676D01*
X96429887Y-69669860D01*
X96430112Y-69411274D01*
X96382704Y-69296538D01*
X96589914Y-69434991D01*
X97030000Y-69522530D01*
X97470086Y-69434991D01*
X97843173Y-69185703D01*
X97910000Y-69085689D01*
X97910000Y-69378457D01*
X97478096Y-69810361D01*
X97470086Y-69805009D01*
X97030000Y-69717470D01*
X96589914Y-69805009D01*
X96216827Y-70054297D01*
X95967539Y-70427384D01*
X95880000Y-70867470D01*
X95880000Y-70912530D01*
X95967539Y-71352616D01*
X96159562Y-71640000D01*
X95360438Y-71640000D01*
X95552461Y-71352616D01*
X95640000Y-70912530D01*
X95640000Y-70867470D01*
X95552461Y-70427384D01*
X95303173Y-70054297D01*
X94930086Y-69805009D01*
X94736157Y-69766434D01*
X94729483Y-69730963D01*
X94665042Y-69630819D01*
X94566717Y-69563636D01*
X94450000Y-69540000D01*
X90450000Y-69540000D01*
X90340963Y-69560517D01*
X90240819Y-69624958D01*
X90173636Y-69723283D01*
X90150000Y-69840000D01*
X90150000Y-70005405D01*
X89850086Y-69805009D01*
X89410000Y-69717470D01*
X88969914Y-69805009D01*
X88596827Y-70054297D01*
X88347539Y-70427384D01*
X88260000Y-70867470D01*
X88260000Y-70912530D01*
X88347539Y-71352616D01*
X88596827Y-71725703D01*
X88969914Y-71974991D01*
X89410000Y-72062530D01*
X89850086Y-71974991D01*
X90150000Y-71774595D01*
X90150000Y-75940000D01*
X90152495Y-75953421D01*
X89866827Y-76144297D01*
X89617539Y-76517384D01*
X89530000Y-76957470D01*
X89530000Y-77002530D01*
X89617539Y-77442616D01*
X89866827Y-77815703D01*
X90239914Y-78064991D01*
X90680000Y-78152530D01*
X91120086Y-78064991D01*
X91493173Y-77815703D01*
X91742461Y-77442616D01*
X91830000Y-77002530D01*
X91830000Y-76957470D01*
X91742461Y-76517384D01*
X91560404Y-76244916D01*
X92337299Y-76248354D01*
X92157539Y-76517384D01*
X92070000Y-76957470D01*
X92070000Y-77002530D01*
X92157539Y-77442616D01*
X92406827Y-77815703D01*
X92779914Y-78064991D01*
X93220000Y-78152530D01*
X93660086Y-78064991D01*
X94033173Y-77815703D01*
X94282461Y-77442616D01*
X94370000Y-77002530D01*
X94370000Y-76957470D01*
X94282461Y-76517384D01*
X94107936Y-76256188D01*
X94869811Y-76259560D01*
X94697539Y-76517384D01*
X94610000Y-76957470D01*
X94610000Y-77002530D01*
X94697539Y-77442616D01*
X94946827Y-77815703D01*
X95319914Y-78064991D01*
X95760000Y-78152530D01*
X96200086Y-78064991D01*
X96573173Y-77815703D01*
X96822461Y-77442616D01*
X96910000Y-77002530D01*
X96910000Y-76957470D01*
X96822461Y-76517384D01*
X96655468Y-76267461D01*
X97402324Y-76270765D01*
X97237539Y-76517384D01*
X97150000Y-76957470D01*
X97150000Y-77002530D01*
X97237539Y-77442616D01*
X97486827Y-77815703D01*
X97859914Y-78064991D01*
X98300000Y-78152530D01*
X98740086Y-78064991D01*
X99113173Y-77815703D01*
X99362461Y-77442616D01*
X99450000Y-77002530D01*
X99450000Y-76957470D01*
X99362461Y-76517384D01*
X99203000Y-76278733D01*
X99934836Y-76281971D01*
X99777539Y-76517384D01*
X99690000Y-76957470D01*
X99690000Y-77002530D01*
X99777539Y-77442616D01*
X100026827Y-77815703D01*
X100399914Y-78064991D01*
X100840000Y-78152530D01*
X101280086Y-78064991D01*
X101653173Y-77815703D01*
X101902461Y-77442616D01*
X101990000Y-77002530D01*
X101990000Y-76957470D01*
X101902461Y-76517384D01*
X101750532Y-76290005D01*
X102467349Y-76293177D01*
X102317539Y-76517384D01*
X102230000Y-76957470D01*
X102230000Y-77002530D01*
X102317539Y-77442616D01*
X102566827Y-77815703D01*
X102939914Y-78064991D01*
X103380000Y-78152530D01*
X103820086Y-78064991D01*
X104193173Y-77815703D01*
X104442461Y-77442616D01*
X104530000Y-77002530D01*
X104530000Y-76957470D01*
X104442461Y-76517384D01*
X104298064Y-76301277D01*
X106294123Y-76310110D01*
X106294123Y-77830000D01*
X106315042Y-77941173D01*
X106380745Y-78043279D01*
X106480997Y-78111778D01*
X106600000Y-78135877D01*
X108300000Y-78135877D01*
X108411173Y-78114958D01*
X108513279Y-78049255D01*
X108581778Y-77949003D01*
X108605877Y-77830000D01*
X108605877Y-76320339D01*
X109057864Y-76322339D01*
X108927539Y-76517384D01*
X108840000Y-76957470D01*
X108840000Y-77002530D01*
X108927539Y-77442616D01*
X109176827Y-77815703D01*
X109549914Y-78064991D01*
X109990000Y-78152530D01*
X110430086Y-78064991D01*
X110803173Y-77815703D01*
X111052461Y-77442616D01*
X111140000Y-77002530D01*
X111140000Y-76957470D01*
X111052461Y-76517384D01*
X110927664Y-76330612D01*
X111590376Y-76333544D01*
X111467539Y-76517384D01*
X111380000Y-76957470D01*
X111380000Y-77002530D01*
X111467539Y-77442616D01*
X111716827Y-77815703D01*
X112089914Y-78064991D01*
X112530000Y-78152530D01*
X112970086Y-78064991D01*
X113343173Y-77815703D01*
X113592461Y-77442616D01*
X113680000Y-77002530D01*
X113680000Y-76957470D01*
X113920000Y-76957470D01*
X113920000Y-77002530D01*
X114007539Y-77442616D01*
X114256827Y-77815703D01*
X114629914Y-78064991D01*
X115070000Y-78152530D01*
X115510086Y-78064991D01*
X115883173Y-77815703D01*
X116132461Y-77442616D01*
X116220000Y-77002530D01*
X116220000Y-76957470D01*
X116460000Y-76957470D01*
X116460000Y-77002530D01*
X116547539Y-77442616D01*
X116796827Y-77815703D01*
X117169914Y-78064991D01*
X117610000Y-78152530D01*
X118050086Y-78064991D01*
X118423173Y-77815703D01*
X118672461Y-77442616D01*
X118760000Y-77002530D01*
X118760000Y-76957470D01*
X119000000Y-76957470D01*
X119000000Y-77002530D01*
X119087539Y-77442616D01*
X119336827Y-77815703D01*
X119709914Y-78064991D01*
X120150000Y-78152530D01*
X120590086Y-78064991D01*
X120963173Y-77815703D01*
X121212461Y-77442616D01*
X121300000Y-77002530D01*
X121300000Y-76957470D01*
X121540000Y-76957470D01*
X121540000Y-77002530D01*
X121627539Y-77442616D01*
X121876827Y-77815703D01*
X122249914Y-78064991D01*
X122690000Y-78152530D01*
X123130086Y-78064991D01*
X123503173Y-77815703D01*
X123752461Y-77442616D01*
X123840000Y-77002530D01*
X123840000Y-76957470D01*
X124080000Y-76957470D01*
X124080000Y-77002530D01*
X124167539Y-77442616D01*
X124416827Y-77815703D01*
X124789914Y-78064991D01*
X125230000Y-78152530D01*
X125670086Y-78064991D01*
X126043173Y-77815703D01*
X126292461Y-77442616D01*
X126380000Y-77002530D01*
X126380000Y-76957470D01*
X126292461Y-76517384D01*
X126043173Y-76144297D01*
X125670086Y-75895009D01*
X125230000Y-75807470D01*
X124789914Y-75895009D01*
X124416827Y-76144297D01*
X124167539Y-76517384D01*
X124080000Y-76957470D01*
X123840000Y-76957470D01*
X123752461Y-76517384D01*
X123503173Y-76144297D01*
X123130086Y-75895009D01*
X122690000Y-75807470D01*
X122249914Y-75895009D01*
X121876827Y-76144297D01*
X121627539Y-76517384D01*
X121540000Y-76957470D01*
X121300000Y-76957470D01*
X121212461Y-76517384D01*
X120963173Y-76144297D01*
X120590086Y-75895009D01*
X120150000Y-75807470D01*
X119709914Y-75895009D01*
X119336827Y-76144297D01*
X119087539Y-76517384D01*
X119000000Y-76957470D01*
X118760000Y-76957470D01*
X118672461Y-76517384D01*
X118423173Y-76144297D01*
X118050086Y-75895009D01*
X117610000Y-75807470D01*
X117169914Y-75895009D01*
X116796827Y-76144297D01*
X116547539Y-76517384D01*
X116460000Y-76957470D01*
X116220000Y-76957470D01*
X116132461Y-76517384D01*
X115883173Y-76144297D01*
X115510086Y-75895009D01*
X115070000Y-75807470D01*
X114629914Y-75895009D01*
X114256827Y-76144297D01*
X114007539Y-76517384D01*
X113920000Y-76957470D01*
X113680000Y-76957470D01*
X113592461Y-76517384D01*
X113343173Y-76144297D01*
X113330583Y-76135884D01*
X113350000Y-76040000D01*
X113350000Y-71264442D01*
X113420000Y-70912530D01*
X113420000Y-70867470D01*
X116200000Y-70867470D01*
X116200000Y-70912530D01*
X116287539Y-71352616D01*
X116536827Y-71725703D01*
X116909914Y-71974991D01*
X117350000Y-72062530D01*
X117790086Y-71974991D01*
X118163173Y-71725703D01*
X118412461Y-71352616D01*
X118500000Y-70912530D01*
X118500000Y-70867470D01*
X118740000Y-70867470D01*
X118740000Y-70912530D01*
X118827539Y-71352616D01*
X119076827Y-71725703D01*
X119449914Y-71974991D01*
X119890000Y-72062530D01*
X120330086Y-71974991D01*
X120703173Y-71725703D01*
X120952461Y-71352616D01*
X121040000Y-70912530D01*
X121040000Y-70867470D01*
X121280000Y-70867470D01*
X121280000Y-70912530D01*
X121367539Y-71352616D01*
X121616827Y-71725703D01*
X121989914Y-71974991D01*
X122430000Y-72062530D01*
X122870086Y-71974991D01*
X123243173Y-71725703D01*
X123492461Y-71352616D01*
X123580000Y-70912530D01*
X123580000Y-70867470D01*
X123820000Y-70867470D01*
X123820000Y-70912530D01*
X123907539Y-71352616D01*
X124156827Y-71725703D01*
X124529914Y-71974991D01*
X124970000Y-72062530D01*
X125410086Y-71974991D01*
X125783173Y-71725703D01*
X126032461Y-71352616D01*
X126120000Y-70912530D01*
X126120000Y-70867470D01*
X126360000Y-70867470D01*
X126360000Y-70912530D01*
X126447539Y-71352616D01*
X126696827Y-71725703D01*
X127069914Y-71974991D01*
X127510000Y-72062530D01*
X127950086Y-71974991D01*
X128323173Y-71725703D01*
X128572461Y-71352616D01*
X128660000Y-70912530D01*
X128660000Y-70867470D01*
X128572461Y-70427384D01*
X128323173Y-70054297D01*
X127950086Y-69805009D01*
X127510000Y-69717470D01*
X127069914Y-69805009D01*
X126696827Y-70054297D01*
X126447539Y-70427384D01*
X126360000Y-70867470D01*
X126120000Y-70867470D01*
X126032461Y-70427384D01*
X125783173Y-70054297D01*
X125410086Y-69805009D01*
X124970000Y-69717470D01*
X124529914Y-69805009D01*
X124156827Y-70054297D01*
X123907539Y-70427384D01*
X123820000Y-70867470D01*
X123580000Y-70867470D01*
X123492461Y-70427384D01*
X123243173Y-70054297D01*
X122870086Y-69805009D01*
X122430000Y-69717470D01*
X121989914Y-69805009D01*
X121616827Y-70054297D01*
X121367539Y-70427384D01*
X121280000Y-70867470D01*
X121040000Y-70867470D01*
X120952461Y-70427384D01*
X120703173Y-70054297D01*
X120330086Y-69805009D01*
X119890000Y-69717470D01*
X119449914Y-69805009D01*
X119076827Y-70054297D01*
X118827539Y-70427384D01*
X118740000Y-70867470D01*
X118500000Y-70867470D01*
X118412461Y-70427384D01*
X118163173Y-70054297D01*
X117790086Y-69805009D01*
X117350000Y-69717470D01*
X116909914Y-69805009D01*
X116536827Y-70054297D01*
X116287539Y-70427384D01*
X116200000Y-70867470D01*
X113420000Y-70867470D01*
X113350000Y-70515558D01*
X113350000Y-68724442D01*
X113420000Y-68372530D01*
X113420000Y-68327470D01*
X116200000Y-68327470D01*
X116200000Y-68372530D01*
X116287539Y-68812616D01*
X116536827Y-69185703D01*
X116909914Y-69434991D01*
X117350000Y-69522530D01*
X117790086Y-69434991D01*
X118163173Y-69185703D01*
X118412461Y-68812616D01*
X118500000Y-68372530D01*
X118500000Y-68327470D01*
X118740000Y-68327470D01*
X118740000Y-68372530D01*
X118827539Y-68812616D01*
X119076827Y-69185703D01*
X119449914Y-69434991D01*
X119890000Y-69522530D01*
X120330086Y-69434991D01*
X120703173Y-69185703D01*
X120952461Y-68812616D01*
X121040000Y-68372530D01*
X121040000Y-68327470D01*
X121280000Y-68327470D01*
X121280000Y-68372530D01*
X121367539Y-68812616D01*
X121616827Y-69185703D01*
X121989914Y-69434991D01*
X122430000Y-69522530D01*
X122870086Y-69434991D01*
X123243173Y-69185703D01*
X123492461Y-68812616D01*
X123580000Y-68372530D01*
X123580000Y-68327470D01*
X123820000Y-68327470D01*
X123820000Y-68372530D01*
X123907539Y-68812616D01*
X124156827Y-69185703D01*
X124529914Y-69434991D01*
X124970000Y-69522530D01*
X125410086Y-69434991D01*
X125783173Y-69185703D01*
X126032461Y-68812616D01*
X126120000Y-68372530D01*
X126120000Y-68327470D01*
X126360000Y-68327470D01*
X126360000Y-68372530D01*
X126447539Y-68812616D01*
X126696827Y-69185703D01*
X127069914Y-69434991D01*
X127510000Y-69522530D01*
X127950086Y-69434991D01*
X128323173Y-69185703D01*
X128572461Y-68812616D01*
X128660000Y-68372530D01*
X128660000Y-68327470D01*
X128572461Y-67887384D01*
X128323173Y-67514297D01*
X127950086Y-67265009D01*
X127510000Y-67177470D01*
X127069914Y-67265009D01*
X126696827Y-67514297D01*
X126447539Y-67887384D01*
X126360000Y-68327470D01*
X126120000Y-68327470D01*
X126032461Y-67887384D01*
X125783173Y-67514297D01*
X125410086Y-67265009D01*
X124970000Y-67177470D01*
X124529914Y-67265009D01*
X124156827Y-67514297D01*
X123907539Y-67887384D01*
X123820000Y-68327470D01*
X123580000Y-68327470D01*
X123492461Y-67887384D01*
X123243173Y-67514297D01*
X122870086Y-67265009D01*
X122430000Y-67177470D01*
X121989914Y-67265009D01*
X121616827Y-67514297D01*
X121367539Y-67887384D01*
X121280000Y-68327470D01*
X121040000Y-68327470D01*
X120952461Y-67887384D01*
X120703173Y-67514297D01*
X120330086Y-67265009D01*
X119890000Y-67177470D01*
X119449914Y-67265009D01*
X119076827Y-67514297D01*
X118827539Y-67887384D01*
X118740000Y-68327470D01*
X118500000Y-68327470D01*
X118412461Y-67887384D01*
X118163173Y-67514297D01*
X117790086Y-67265009D01*
X117350000Y-67177470D01*
X116909914Y-67265009D01*
X116536827Y-67514297D01*
X116287539Y-67887384D01*
X116200000Y-68327470D01*
X113420000Y-68327470D01*
X113350000Y-67975558D01*
X113350000Y-60330000D01*
X125470883Y-60330000D01*
X125631324Y-60490722D01*
X125870140Y-60589887D01*
X126128726Y-60590112D01*
X126367714Y-60491364D01*
X126529361Y-60330000D01*
X141749995Y-60330000D01*
X141750000Y-60330001D01*
X141874485Y-60305239D01*
X141899247Y-60300313D01*
X142025772Y-60215772D01*
X142901630Y-59339914D01*
X143128726Y-59340112D01*
X143367714Y-59241364D01*
X143550722Y-59058676D01*
X143649887Y-58819860D01*
X143650112Y-58561274D01*
X143551364Y-58322286D01*
X143368676Y-58139278D01*
X143139772Y-58044229D01*
X143267714Y-57991364D01*
X143450722Y-57808676D01*
X143549887Y-57569860D01*
X143550112Y-57311274D01*
X143451364Y-57072286D01*
X143268676Y-56889278D01*
X143029860Y-56790113D01*
X142771274Y-56789888D01*
X142532286Y-56888636D01*
X142349278Y-57071324D01*
X142250113Y-57310140D01*
X142249914Y-57538543D01*
X141138456Y-58650000D01*
X125779117Y-58650000D01*
X125618676Y-58489278D01*
X125596332Y-58480000D01*
X140749995Y-58480000D01*
X140750000Y-58480001D01*
X140874485Y-58455239D01*
X140899247Y-58450313D01*
X141025772Y-58365772D01*
X141201629Y-58189914D01*
X141428726Y-58190112D01*
X141667714Y-58091364D01*
X141850722Y-57908676D01*
X141949887Y-57669860D01*
X141950112Y-57411274D01*
X141851364Y-57172286D01*
X141668676Y-56989278D01*
X141429860Y-56890113D01*
X141171274Y-56889888D01*
X140932286Y-56988636D01*
X140749278Y-57171324D01*
X140650113Y-57410140D01*
X140649914Y-57638542D01*
X140588456Y-57700000D01*
X125379117Y-57700000D01*
X125218676Y-57539278D01*
X124979860Y-57440113D01*
X124869326Y-57440017D01*
X124879361Y-57430000D01*
X139949995Y-57430000D01*
X139950000Y-57430001D01*
X140074485Y-57405239D01*
X140099247Y-57400313D01*
X140225772Y-57315772D01*
X140301630Y-57239914D01*
X140528726Y-57240112D01*
X140767714Y-57141364D01*
X140950722Y-56958676D01*
X141049887Y-56719860D01*
X141050112Y-56461274D01*
X140951364Y-56222286D01*
X140768676Y-56039278D01*
X140592976Y-55966321D01*
X140650722Y-55908676D01*
X140749887Y-55669860D01*
X140750112Y-55411274D01*
X140651364Y-55172286D01*
X140468676Y-54989278D01*
X140229860Y-54890113D01*
X139971274Y-54889888D01*
X139732286Y-54988636D01*
X139713571Y-55007318D01*
X139749887Y-54919860D01*
X139750112Y-54661274D01*
X139651364Y-54422286D01*
X139468676Y-54239278D01*
X139294364Y-54166897D01*
X146960000Y-54145545D01*
X146960000Y-56089995D01*
X146959999Y-56090000D01*
X146983897Y-56210140D01*
X146989687Y-56239247D01*
X147057008Y-56340000D01*
X147074228Y-56365772D01*
X147150086Y-56441630D01*
X147149888Y-56668726D01*
X147248636Y-56907714D01*
X147431324Y-57090722D01*
X147670140Y-57189887D01*
X147928726Y-57190112D01*
X148167714Y-57091364D01*
X148350722Y-56908676D01*
X148449887Y-56669860D01*
X148450112Y-56411274D01*
X148351364Y-56172286D01*
X148168676Y-55989278D01*
X147929860Y-55890113D01*
X147740000Y-55889948D01*
X147740000Y-54143372D01*
X148950836Y-54139999D01*
X149059037Y-54119483D01*
X149159181Y-54055042D01*
X149226364Y-53956717D01*
X149250000Y-53840000D01*
X149250000Y-46149817D01*
X149687746Y-46150199D01*
X150110572Y-45975491D01*
X150434354Y-45652273D01*
X150609800Y-45229753D01*
X150610199Y-44772254D01*
X150435491Y-44349428D01*
X150236411Y-44150000D01*
X150844123Y-44150000D01*
X150844123Y-45850000D01*
X150865042Y-45961173D01*
X150930745Y-46063279D01*
X151030997Y-46131778D01*
X151150000Y-46155877D01*
X152850000Y-46155877D01*
X152961173Y-46134958D01*
X153063279Y-46069255D01*
X153131778Y-45969003D01*
X153155877Y-45850000D01*
X153155877Y-44150000D01*
X153134958Y-44038827D01*
X153069255Y-43936721D01*
X152969003Y-43868222D01*
X152850000Y-43844123D01*
X151150000Y-43844123D01*
X151038827Y-43865042D01*
X150936721Y-43930745D01*
X150868222Y-44030997D01*
X150844123Y-44150000D01*
X150236411Y-44150000D01*
X150112273Y-44025646D01*
X149689753Y-43850200D01*
X149250000Y-43849816D01*
X149250000Y-43740000D01*
X149229483Y-43630963D01*
X149165042Y-43530819D01*
X149066717Y-43463636D01*
X148950000Y-43440000D01*
X142350000Y-43440000D01*
X142350000Y-42687746D01*
X150849801Y-42687746D01*
X151024509Y-43110572D01*
X151347727Y-43434354D01*
X151770247Y-43609800D01*
X152227746Y-43610199D01*
X152650572Y-43435491D01*
X152974354Y-43112273D01*
X153149800Y-42689753D01*
X153150199Y-42232254D01*
X152975491Y-41809428D01*
X152652273Y-41485646D01*
X152229753Y-41310200D01*
X151772254Y-41309801D01*
X151349428Y-41484509D01*
X151025646Y-41807727D01*
X150850200Y-42230247D01*
X150849801Y-42687746D01*
X142350000Y-42687746D01*
X142350000Y-40340000D01*
X142329483Y-40230963D01*
X142275935Y-40147746D01*
X148309801Y-40147746D01*
X148484509Y-40570572D01*
X148807727Y-40894354D01*
X149230247Y-41069800D01*
X149687746Y-41070199D01*
X150110572Y-40895491D01*
X150434354Y-40572273D01*
X150609800Y-40149753D01*
X150609801Y-40147746D01*
X150849801Y-40147746D01*
X151024509Y-40570572D01*
X151347727Y-40894354D01*
X151770247Y-41069800D01*
X152227746Y-41070199D01*
X152650572Y-40895491D01*
X152974354Y-40572273D01*
X153149800Y-40149753D01*
X153150199Y-39692254D01*
X152975491Y-39269428D01*
X152652273Y-38945646D01*
X152229753Y-38770200D01*
X151772254Y-38769801D01*
X151349428Y-38944509D01*
X151025646Y-39267727D01*
X150850200Y-39690247D01*
X150849801Y-40147746D01*
X150609801Y-40147746D01*
X150610199Y-39692254D01*
X150435491Y-39269428D01*
X150112273Y-38945646D01*
X149689753Y-38770200D01*
X149232254Y-38769801D01*
X148809428Y-38944509D01*
X148485646Y-39267727D01*
X148310200Y-39690247D01*
X148309801Y-40147746D01*
X142275935Y-40147746D01*
X142265042Y-40130819D01*
X142166717Y-40063636D01*
X142050000Y-40040000D01*
X137850000Y-40040000D01*
X137740963Y-40060517D01*
X137640819Y-40124958D01*
X137573636Y-40223283D01*
X137550000Y-40340000D01*
X137550000Y-43440000D01*
X135139659Y-43440000D01*
X135150572Y-43435491D01*
X135474354Y-43112273D01*
X135649800Y-42689753D01*
X135650199Y-42232254D01*
X135475491Y-41809428D01*
X135152273Y-41485646D01*
X134729753Y-41310200D01*
X134272254Y-41309801D01*
X133849428Y-41484509D01*
X133525646Y-41807727D01*
X133350200Y-42230247D01*
X133349801Y-42687746D01*
X133524509Y-43110572D01*
X133847727Y-43434354D01*
X133861324Y-43440000D01*
X124850000Y-43440000D01*
X124850000Y-40340000D01*
X124829483Y-40230963D01*
X124775935Y-40147746D01*
X130809801Y-40147746D01*
X130984509Y-40570572D01*
X131307727Y-40894354D01*
X131730247Y-41069800D01*
X132187746Y-41070199D01*
X132610572Y-40895491D01*
X132934354Y-40572273D01*
X133109800Y-40149753D01*
X133109801Y-40147746D01*
X133349801Y-40147746D01*
X133524509Y-40570572D01*
X133847727Y-40894354D01*
X134270247Y-41069800D01*
X134727746Y-41070199D01*
X135150572Y-40895491D01*
X135474354Y-40572273D01*
X135649800Y-40149753D01*
X135650199Y-39692254D01*
X135475491Y-39269428D01*
X135152273Y-38945646D01*
X134729753Y-38770200D01*
X134272254Y-38769801D01*
X133849428Y-38944509D01*
X133525646Y-39267727D01*
X133350200Y-39690247D01*
X133349801Y-40147746D01*
X133109801Y-40147746D01*
X133110199Y-39692254D01*
X132935491Y-39269428D01*
X132612273Y-38945646D01*
X132189753Y-38770200D01*
X131732254Y-38769801D01*
X131309428Y-38944509D01*
X130985646Y-39267727D01*
X130810200Y-39690247D01*
X130809801Y-40147746D01*
X124775935Y-40147746D01*
X124765042Y-40130819D01*
X124666717Y-40063636D01*
X124550000Y-40040000D01*
X120350000Y-40040000D01*
X120240963Y-40060517D01*
X120140819Y-40124958D01*
X120073636Y-40223283D01*
X120050000Y-40340000D01*
X120050000Y-43440000D01*
X117639659Y-43440000D01*
X117650572Y-43435491D01*
X117974354Y-43112273D01*
X118149800Y-42689753D01*
X118150199Y-42232254D01*
X117975491Y-41809428D01*
X117652273Y-41485646D01*
X117229753Y-41310200D01*
X116772254Y-41309801D01*
X116349428Y-41484509D01*
X116025646Y-41807727D01*
X115850200Y-42230247D01*
X115849801Y-42687746D01*
X116024509Y-43110572D01*
X116347727Y-43434354D01*
X116361324Y-43440000D01*
X107350000Y-43440000D01*
X107350000Y-40340000D01*
X107329483Y-40230963D01*
X107275935Y-40147746D01*
X113309801Y-40147746D01*
X113484509Y-40570572D01*
X113807727Y-40894354D01*
X114230247Y-41069800D01*
X114687746Y-41070199D01*
X115110572Y-40895491D01*
X115434354Y-40572273D01*
X115609800Y-40149753D01*
X115609801Y-40147746D01*
X115849801Y-40147746D01*
X116024509Y-40570572D01*
X116347727Y-40894354D01*
X116770247Y-41069800D01*
X117227746Y-41070199D01*
X117650572Y-40895491D01*
X117974354Y-40572273D01*
X118149800Y-40149753D01*
X118150199Y-39692254D01*
X117975491Y-39269428D01*
X117652273Y-38945646D01*
X117229753Y-38770200D01*
X116772254Y-38769801D01*
X116349428Y-38944509D01*
X116025646Y-39267727D01*
X115850200Y-39690247D01*
X115849801Y-40147746D01*
X115609801Y-40147746D01*
X115610199Y-39692254D01*
X115435491Y-39269428D01*
X115112273Y-38945646D01*
X114689753Y-38770200D01*
X114232254Y-38769801D01*
X113809428Y-38944509D01*
X113485646Y-39267727D01*
X113310200Y-39690247D01*
X113309801Y-40147746D01*
X107275935Y-40147746D01*
X107265042Y-40130819D01*
X107166717Y-40063636D01*
X107050000Y-40040000D01*
X102850000Y-40040000D01*
X102740963Y-40060517D01*
X102640819Y-40124958D01*
X102573636Y-40223283D01*
X102550000Y-40340000D01*
X102550000Y-43440000D01*
X100139659Y-43440000D01*
X100150572Y-43435491D01*
X100474354Y-43112273D01*
X100649800Y-42689753D01*
X100650199Y-42232254D01*
X100475491Y-41809428D01*
X100152273Y-41485646D01*
X99729753Y-41310200D01*
X99272254Y-41309801D01*
X98849428Y-41484509D01*
X98525646Y-41807727D01*
X98350200Y-42230247D01*
X98349801Y-42687746D01*
X98524509Y-43110572D01*
X98847727Y-43434354D01*
X98861324Y-43440000D01*
X89850000Y-43440000D01*
X89850000Y-40340000D01*
X89829483Y-40230963D01*
X89775935Y-40147746D01*
X95809801Y-40147746D01*
X95984509Y-40570572D01*
X96307727Y-40894354D01*
X96730247Y-41069800D01*
X97187746Y-41070199D01*
X97610572Y-40895491D01*
X97934354Y-40572273D01*
X98109800Y-40149753D01*
X98109801Y-40147746D01*
X98349801Y-40147746D01*
X98524509Y-40570572D01*
X98847727Y-40894354D01*
X99270247Y-41069800D01*
X99727746Y-41070199D01*
X100150572Y-40895491D01*
X100474354Y-40572273D01*
X100649800Y-40149753D01*
X100650199Y-39692254D01*
X100475491Y-39269428D01*
X100152273Y-38945646D01*
X99729753Y-38770200D01*
X99272254Y-38769801D01*
X98849428Y-38944509D01*
X98525646Y-39267727D01*
X98350200Y-39690247D01*
X98349801Y-40147746D01*
X98109801Y-40147746D01*
X98110199Y-39692254D01*
X97935491Y-39269428D01*
X97612273Y-38945646D01*
X97189753Y-38770200D01*
X96732254Y-38769801D01*
X96309428Y-38944509D01*
X95985646Y-39267727D01*
X95810200Y-39690247D01*
X95809801Y-40147746D01*
X89775935Y-40147746D01*
X89765042Y-40130819D01*
X89666717Y-40063636D01*
X89550000Y-40040000D01*
X85350000Y-40040000D01*
X85240963Y-40060517D01*
X85140819Y-40124958D01*
X85073636Y-40223283D01*
X85050000Y-40340000D01*
X85050000Y-43440000D01*
X82639659Y-43440000D01*
X82650572Y-43435491D01*
X82974354Y-43112273D01*
X83149800Y-42689753D01*
X83150199Y-42232254D01*
X82975491Y-41809428D01*
X82652273Y-41485646D01*
X82229753Y-41310200D01*
X81772254Y-41309801D01*
X81349428Y-41484509D01*
X81025646Y-41807727D01*
X80850200Y-42230247D01*
X80849801Y-42687746D01*
X81024509Y-43110572D01*
X81347727Y-43434354D01*
X81361324Y-43440000D01*
X72350000Y-43440000D01*
X72350000Y-40340000D01*
X72329483Y-40230963D01*
X72275935Y-40147746D01*
X78309801Y-40147746D01*
X78484509Y-40570572D01*
X78807727Y-40894354D01*
X79230247Y-41069800D01*
X79687746Y-41070199D01*
X80110572Y-40895491D01*
X80434354Y-40572273D01*
X80609800Y-40149753D01*
X80609801Y-40147746D01*
X80849801Y-40147746D01*
X81024509Y-40570572D01*
X81347727Y-40894354D01*
X81770247Y-41069800D01*
X82227746Y-41070199D01*
X82650572Y-40895491D01*
X82974354Y-40572273D01*
X83149800Y-40149753D01*
X83150199Y-39692254D01*
X82975491Y-39269428D01*
X82652273Y-38945646D01*
X82229753Y-38770200D01*
X81772254Y-38769801D01*
X81349428Y-38944509D01*
X81025646Y-39267727D01*
X80850200Y-39690247D01*
X80849801Y-40147746D01*
X80609801Y-40147746D01*
X80610199Y-39692254D01*
X80435491Y-39269428D01*
X80112273Y-38945646D01*
X79689753Y-38770200D01*
X79232254Y-38769801D01*
X78809428Y-38944509D01*
X78485646Y-39267727D01*
X78310200Y-39690247D01*
X78309801Y-40147746D01*
X72275935Y-40147746D01*
X72265042Y-40130819D01*
X72166717Y-40063636D01*
X72050000Y-40040000D01*
X67875000Y-40040000D01*
X67765963Y-40060517D01*
X67665819Y-40124958D01*
X67598636Y-40223283D01*
X67575000Y-40340000D01*
X67125000Y-40340000D01*
X67125000Y-37607746D01*
X80849801Y-37607746D01*
X81024509Y-38030572D01*
X81347727Y-38354354D01*
X81770247Y-38529800D01*
X82227746Y-38530199D01*
X82650572Y-38355491D01*
X82974354Y-38032273D01*
X83149800Y-37609753D01*
X83149801Y-37607746D01*
X98349801Y-37607746D01*
X98524509Y-38030572D01*
X98847727Y-38354354D01*
X99270247Y-38529800D01*
X99727746Y-38530199D01*
X100150572Y-38355491D01*
X100474354Y-38032273D01*
X100649800Y-37609753D01*
X100649801Y-37607746D01*
X115849801Y-37607746D01*
X116024509Y-38030572D01*
X116347727Y-38354354D01*
X116770247Y-38529800D01*
X117227746Y-38530199D01*
X117650572Y-38355491D01*
X117974354Y-38032273D01*
X118149800Y-37609753D01*
X118149801Y-37607746D01*
X133349801Y-37607746D01*
X133524509Y-38030572D01*
X133847727Y-38354354D01*
X134270247Y-38529800D01*
X134727746Y-38530199D01*
X135150572Y-38355491D01*
X135474354Y-38032273D01*
X135649800Y-37609753D01*
X135649801Y-37607746D01*
X150849801Y-37607746D01*
X151024509Y-38030572D01*
X151347727Y-38354354D01*
X151770247Y-38529800D01*
X152227746Y-38530199D01*
X152650572Y-38355491D01*
X152974354Y-38032273D01*
X153149800Y-37609753D01*
X153150199Y-37152254D01*
X152975491Y-36729428D01*
X152652273Y-36405646D01*
X152229753Y-36230200D01*
X151772254Y-36229801D01*
X151349428Y-36404509D01*
X151025646Y-36727727D01*
X150850200Y-37150247D01*
X150849801Y-37607746D01*
X135649801Y-37607746D01*
X135650199Y-37152254D01*
X135475491Y-36729428D01*
X135152273Y-36405646D01*
X134729753Y-36230200D01*
X134272254Y-36229801D01*
X133849428Y-36404509D01*
X133525646Y-36727727D01*
X133350200Y-37150247D01*
X133349801Y-37607746D01*
X118149801Y-37607746D01*
X118150199Y-37152254D01*
X117975491Y-36729428D01*
X117652273Y-36405646D01*
X117229753Y-36230200D01*
X116772254Y-36229801D01*
X116349428Y-36404509D01*
X116025646Y-36727727D01*
X115850200Y-37150247D01*
X115849801Y-37607746D01*
X100649801Y-37607746D01*
X100650199Y-37152254D01*
X100475491Y-36729428D01*
X100152273Y-36405646D01*
X99729753Y-36230200D01*
X99272254Y-36229801D01*
X98849428Y-36404509D01*
X98525646Y-36727727D01*
X98350200Y-37150247D01*
X98349801Y-37607746D01*
X83149801Y-37607746D01*
X83150199Y-37152254D01*
X82975491Y-36729428D01*
X82652273Y-36405646D01*
X82229753Y-36230200D01*
X81772254Y-36229801D01*
X81349428Y-36404509D01*
X81025646Y-36727727D01*
X80850200Y-37150247D01*
X80849801Y-37607746D01*
X67125000Y-37607746D01*
X67125000Y-35067746D01*
X78309801Y-35067746D01*
X78484509Y-35490572D01*
X78807727Y-35814354D01*
X79230247Y-35989800D01*
X79687746Y-35990199D01*
X80110572Y-35815491D01*
X80434354Y-35492273D01*
X80609800Y-35069753D01*
X80609801Y-35067746D01*
X80849801Y-35067746D01*
X81024509Y-35490572D01*
X81347727Y-35814354D01*
X81770247Y-35989800D01*
X82227746Y-35990199D01*
X82650572Y-35815491D01*
X82974354Y-35492273D01*
X83149800Y-35069753D01*
X83149801Y-35067746D01*
X95809801Y-35067746D01*
X95984509Y-35490572D01*
X96307727Y-35814354D01*
X96730247Y-35989800D01*
X97187746Y-35990199D01*
X97610572Y-35815491D01*
X97934354Y-35492273D01*
X98109800Y-35069753D01*
X98109801Y-35067746D01*
X98349801Y-35067746D01*
X98524509Y-35490572D01*
X98847727Y-35814354D01*
X99270247Y-35989800D01*
X99727746Y-35990199D01*
X100150572Y-35815491D01*
X100474354Y-35492273D01*
X100649800Y-35069753D01*
X100649801Y-35067746D01*
X113309801Y-35067746D01*
X113484509Y-35490572D01*
X113807727Y-35814354D01*
X114230247Y-35989800D01*
X114687746Y-35990199D01*
X115110572Y-35815491D01*
X115434354Y-35492273D01*
X115609800Y-35069753D01*
X115609801Y-35067746D01*
X115849801Y-35067746D01*
X116024509Y-35490572D01*
X116347727Y-35814354D01*
X116770247Y-35989800D01*
X117227746Y-35990199D01*
X117650572Y-35815491D01*
X117974354Y-35492273D01*
X118149800Y-35069753D01*
X118149801Y-35067746D01*
X130809801Y-35067746D01*
X130984509Y-35490572D01*
X131307727Y-35814354D01*
X131730247Y-35989800D01*
X132187746Y-35990199D01*
X132610572Y-35815491D01*
X132934354Y-35492273D01*
X133109800Y-35069753D01*
X133109801Y-35067746D01*
X133349801Y-35067746D01*
X133524509Y-35490572D01*
X133847727Y-35814354D01*
X134270247Y-35989800D01*
X134727746Y-35990199D01*
X135150572Y-35815491D01*
X135474354Y-35492273D01*
X135649800Y-35069753D01*
X135649801Y-35067746D01*
X148309801Y-35067746D01*
X148484509Y-35490572D01*
X148807727Y-35814354D01*
X149230247Y-35989800D01*
X149687746Y-35990199D01*
X150110572Y-35815491D01*
X150434354Y-35492273D01*
X150609800Y-35069753D01*
X150609801Y-35067746D01*
X150849801Y-35067746D01*
X151024509Y-35490572D01*
X151347727Y-35814354D01*
X151770247Y-35989800D01*
X152227746Y-35990199D01*
X152650572Y-35815491D01*
X152974354Y-35492273D01*
X153149800Y-35069753D01*
X153150199Y-34612254D01*
X152975491Y-34189428D01*
X152652273Y-33865646D01*
X152229753Y-33690200D01*
X151772254Y-33689801D01*
X151349428Y-33864509D01*
X151025646Y-34187727D01*
X150850200Y-34610247D01*
X150849801Y-35067746D01*
X150609801Y-35067746D01*
X150610199Y-34612254D01*
X150435491Y-34189428D01*
X150112273Y-33865646D01*
X149689753Y-33690200D01*
X149232254Y-33689801D01*
X148809428Y-33864509D01*
X148485646Y-34187727D01*
X148310200Y-34610247D01*
X148309801Y-35067746D01*
X135649801Y-35067746D01*
X135650199Y-34612254D01*
X135475491Y-34189428D01*
X135152273Y-33865646D01*
X134729753Y-33690200D01*
X134272254Y-33689801D01*
X133849428Y-33864509D01*
X133525646Y-34187727D01*
X133350200Y-34610247D01*
X133349801Y-35067746D01*
X133109801Y-35067746D01*
X133110199Y-34612254D01*
X132935491Y-34189428D01*
X132612273Y-33865646D01*
X132189753Y-33690200D01*
X131732254Y-33689801D01*
X131309428Y-33864509D01*
X130985646Y-34187727D01*
X130810200Y-34610247D01*
X130809801Y-35067746D01*
X118149801Y-35067746D01*
X118150199Y-34612254D01*
X117975491Y-34189428D01*
X117652273Y-33865646D01*
X117229753Y-33690200D01*
X116772254Y-33689801D01*
X116349428Y-33864509D01*
X116025646Y-34187727D01*
X115850200Y-34610247D01*
X115849801Y-35067746D01*
X115609801Y-35067746D01*
X115610199Y-34612254D01*
X115435491Y-34189428D01*
X115112273Y-33865646D01*
X114689753Y-33690200D01*
X114232254Y-33689801D01*
X113809428Y-33864509D01*
X113485646Y-34187727D01*
X113310200Y-34610247D01*
X113309801Y-35067746D01*
X100649801Y-35067746D01*
X100650199Y-34612254D01*
X100475491Y-34189428D01*
X100152273Y-33865646D01*
X99729753Y-33690200D01*
X99272254Y-33689801D01*
X98849428Y-33864509D01*
X98525646Y-34187727D01*
X98350200Y-34610247D01*
X98349801Y-35067746D01*
X98109801Y-35067746D01*
X98110199Y-34612254D01*
X97935491Y-34189428D01*
X97612273Y-33865646D01*
X97189753Y-33690200D01*
X96732254Y-33689801D01*
X96309428Y-33864509D01*
X95985646Y-34187727D01*
X95810200Y-34610247D01*
X95809801Y-35067746D01*
X83149801Y-35067746D01*
X83150199Y-34612254D01*
X82975491Y-34189428D01*
X82652273Y-33865646D01*
X82229753Y-33690200D01*
X81772254Y-33689801D01*
X81349428Y-33864509D01*
X81025646Y-34187727D01*
X80850200Y-34610247D01*
X80849801Y-35067746D01*
X80609801Y-35067746D01*
X80610199Y-34612254D01*
X80435491Y-34189428D01*
X80112273Y-33865646D01*
X79689753Y-33690200D01*
X79232254Y-33689801D01*
X78809428Y-33864509D01*
X78485646Y-34187727D01*
X78310200Y-34610247D01*
X78309801Y-35067746D01*
X67125000Y-35067746D01*
X67125000Y-32527746D01*
X78309801Y-32527746D01*
X78484509Y-32950572D01*
X78807727Y-33274354D01*
X79230247Y-33449800D01*
X79687746Y-33450199D01*
X80110572Y-33275491D01*
X80434354Y-32952273D01*
X80609800Y-32529753D01*
X80609801Y-32527746D01*
X80849801Y-32527746D01*
X81024509Y-32950572D01*
X81347727Y-33274354D01*
X81770247Y-33449800D01*
X82227746Y-33450199D01*
X82650572Y-33275491D01*
X82974354Y-32952273D01*
X83149800Y-32529753D01*
X83149801Y-32527746D01*
X95809801Y-32527746D01*
X95984509Y-32950572D01*
X96307727Y-33274354D01*
X96730247Y-33449800D01*
X97187746Y-33450199D01*
X97610572Y-33275491D01*
X97934354Y-32952273D01*
X98109800Y-32529753D01*
X98109801Y-32527746D01*
X98349801Y-32527746D01*
X98524509Y-32950572D01*
X98847727Y-33274354D01*
X99270247Y-33449800D01*
X99727746Y-33450199D01*
X100150572Y-33275491D01*
X100474354Y-32952273D01*
X100649800Y-32529753D01*
X100649801Y-32527746D01*
X113309801Y-32527746D01*
X113484509Y-32950572D01*
X113807727Y-33274354D01*
X114230247Y-33449800D01*
X114687746Y-33450199D01*
X115110572Y-33275491D01*
X115434354Y-32952273D01*
X115609800Y-32529753D01*
X115609801Y-32527746D01*
X115849801Y-32527746D01*
X116024509Y-32950572D01*
X116347727Y-33274354D01*
X116770247Y-33449800D01*
X117227746Y-33450199D01*
X117650572Y-33275491D01*
X117974354Y-32952273D01*
X118149800Y-32529753D01*
X118149801Y-32527746D01*
X130809801Y-32527746D01*
X130984509Y-32950572D01*
X131307727Y-33274354D01*
X131730247Y-33449800D01*
X132187746Y-33450199D01*
X132610572Y-33275491D01*
X132934354Y-32952273D01*
X133109800Y-32529753D01*
X133109801Y-32527746D01*
X133349801Y-32527746D01*
X133524509Y-32950572D01*
X133847727Y-33274354D01*
X134270247Y-33449800D01*
X134727746Y-33450199D01*
X135150572Y-33275491D01*
X135474354Y-32952273D01*
X135649800Y-32529753D01*
X135649801Y-32527746D01*
X148309801Y-32527746D01*
X148484509Y-32950572D01*
X148807727Y-33274354D01*
X149230247Y-33449800D01*
X149687746Y-33450199D01*
X150110572Y-33275491D01*
X150434354Y-32952273D01*
X150609800Y-32529753D01*
X150609801Y-32527746D01*
X150849801Y-32527746D01*
X151024509Y-32950572D01*
X151347727Y-33274354D01*
X151770247Y-33449800D01*
X152227746Y-33450199D01*
X152650572Y-33275491D01*
X152974354Y-32952273D01*
X153149800Y-32529753D01*
X153150199Y-32072254D01*
X152975491Y-31649428D01*
X152652273Y-31325646D01*
X152229753Y-31150200D01*
X151772254Y-31149801D01*
X151349428Y-31324509D01*
X151025646Y-31647727D01*
X150850200Y-32070247D01*
X150849801Y-32527746D01*
X150609801Y-32527746D01*
X150610199Y-32072254D01*
X150435491Y-31649428D01*
X150112273Y-31325646D01*
X149689753Y-31150200D01*
X149232254Y-31149801D01*
X148809428Y-31324509D01*
X148485646Y-31647727D01*
X148310200Y-32070247D01*
X148309801Y-32527746D01*
X135649801Y-32527746D01*
X135650199Y-32072254D01*
X135475491Y-31649428D01*
X135152273Y-31325646D01*
X134729753Y-31150200D01*
X134272254Y-31149801D01*
X133849428Y-31324509D01*
X133525646Y-31647727D01*
X133350200Y-32070247D01*
X133349801Y-32527746D01*
X133109801Y-32527746D01*
X133110199Y-32072254D01*
X132935491Y-31649428D01*
X132612273Y-31325646D01*
X132189753Y-31150200D01*
X131732254Y-31149801D01*
X131309428Y-31324509D01*
X130985646Y-31647727D01*
X130810200Y-32070247D01*
X130809801Y-32527746D01*
X118149801Y-32527746D01*
X118150199Y-32072254D01*
X117975491Y-31649428D01*
X117652273Y-31325646D01*
X117229753Y-31150200D01*
X116772254Y-31149801D01*
X116349428Y-31324509D01*
X116025646Y-31647727D01*
X115850200Y-32070247D01*
X115849801Y-32527746D01*
X115609801Y-32527746D01*
X115610199Y-32072254D01*
X115435491Y-31649428D01*
X115112273Y-31325646D01*
X114689753Y-31150200D01*
X114232254Y-31149801D01*
X113809428Y-31324509D01*
X113485646Y-31647727D01*
X113310200Y-32070247D01*
X113309801Y-32527746D01*
X100649801Y-32527746D01*
X100650199Y-32072254D01*
X100475491Y-31649428D01*
X100152273Y-31325646D01*
X99729753Y-31150200D01*
X99272254Y-31149801D01*
X98849428Y-31324509D01*
X98525646Y-31647727D01*
X98350200Y-32070247D01*
X98349801Y-32527746D01*
X98109801Y-32527746D01*
X98110199Y-32072254D01*
X97935491Y-31649428D01*
X97612273Y-31325646D01*
X97189753Y-31150200D01*
X96732254Y-31149801D01*
X96309428Y-31324509D01*
X95985646Y-31647727D01*
X95810200Y-32070247D01*
X95809801Y-32527746D01*
X83149801Y-32527746D01*
X83150199Y-32072254D01*
X82975491Y-31649428D01*
X82652273Y-31325646D01*
X82229753Y-31150200D01*
X81772254Y-31149801D01*
X81349428Y-31324509D01*
X81025646Y-31647727D01*
X80850200Y-32070247D01*
X80849801Y-32527746D01*
X80609801Y-32527746D01*
X80610199Y-32072254D01*
X80435491Y-31649428D01*
X80112273Y-31325646D01*
X79689753Y-31150200D01*
X79232254Y-31149801D01*
X78809428Y-31324509D01*
X78485646Y-31647727D01*
X78310200Y-32070247D01*
X78309801Y-32527746D01*
X67125000Y-32527746D01*
X67125000Y-29987746D01*
X78309801Y-29987746D01*
X78484509Y-30410572D01*
X78807727Y-30734354D01*
X79230247Y-30909800D01*
X79687746Y-30910199D01*
X80110572Y-30735491D01*
X80434354Y-30412273D01*
X80609800Y-29989753D01*
X80609801Y-29987746D01*
X80849801Y-29987746D01*
X81024509Y-30410572D01*
X81347727Y-30734354D01*
X81770247Y-30909800D01*
X82227746Y-30910199D01*
X82650572Y-30735491D01*
X82974354Y-30412273D01*
X83149800Y-29989753D01*
X83149801Y-29987746D01*
X95809801Y-29987746D01*
X95984509Y-30410572D01*
X96307727Y-30734354D01*
X96730247Y-30909800D01*
X97187746Y-30910199D01*
X97610572Y-30735491D01*
X97934354Y-30412273D01*
X98109800Y-29989753D01*
X98109801Y-29987746D01*
X98349801Y-29987746D01*
X98524509Y-30410572D01*
X98847727Y-30734354D01*
X99270247Y-30909800D01*
X99727746Y-30910199D01*
X100150572Y-30735491D01*
X100474354Y-30412273D01*
X100649800Y-29989753D01*
X100649801Y-29987746D01*
X113309801Y-29987746D01*
X113484509Y-30410572D01*
X113807727Y-30734354D01*
X114230247Y-30909800D01*
X114687746Y-30910199D01*
X115110572Y-30735491D01*
X115434354Y-30412273D01*
X115609800Y-29989753D01*
X115609801Y-29987746D01*
X115849801Y-29987746D01*
X116024509Y-30410572D01*
X116347727Y-30734354D01*
X116770247Y-30909800D01*
X117227746Y-30910199D01*
X117650572Y-30735491D01*
X117974354Y-30412273D01*
X118149800Y-29989753D01*
X118149801Y-29987746D01*
X130809801Y-29987746D01*
X130984509Y-30410572D01*
X131307727Y-30734354D01*
X131730247Y-30909800D01*
X132187746Y-30910199D01*
X132610572Y-30735491D01*
X132934354Y-30412273D01*
X133109800Y-29989753D01*
X133109801Y-29987746D01*
X133349801Y-29987746D01*
X133524509Y-30410572D01*
X133847727Y-30734354D01*
X134270247Y-30909800D01*
X134727746Y-30910199D01*
X135150572Y-30735491D01*
X135474354Y-30412273D01*
X135649800Y-29989753D01*
X135649801Y-29987746D01*
X148309801Y-29987746D01*
X148484509Y-30410572D01*
X148807727Y-30734354D01*
X149230247Y-30909800D01*
X149687746Y-30910199D01*
X150110572Y-30735491D01*
X150434354Y-30412273D01*
X150609800Y-29989753D01*
X150609801Y-29987746D01*
X150849801Y-29987746D01*
X151024509Y-30410572D01*
X151347727Y-30734354D01*
X151770247Y-30909800D01*
X152227746Y-30910199D01*
X152650572Y-30735491D01*
X152974354Y-30412273D01*
X153149800Y-29989753D01*
X153150199Y-29532254D01*
X152975491Y-29109428D01*
X152652273Y-28785646D01*
X152229753Y-28610200D01*
X151772254Y-28609801D01*
X151349428Y-28784509D01*
X151025646Y-29107727D01*
X150850200Y-29530247D01*
X150849801Y-29987746D01*
X150609801Y-29987746D01*
X150610199Y-29532254D01*
X150435491Y-29109428D01*
X150112273Y-28785646D01*
X149689753Y-28610200D01*
X149232254Y-28609801D01*
X148809428Y-28784509D01*
X148485646Y-29107727D01*
X148310200Y-29530247D01*
X148309801Y-29987746D01*
X135649801Y-29987746D01*
X135650199Y-29532254D01*
X135475491Y-29109428D01*
X135152273Y-28785646D01*
X134729753Y-28610200D01*
X134272254Y-28609801D01*
X133849428Y-28784509D01*
X133525646Y-29107727D01*
X133350200Y-29530247D01*
X133349801Y-29987746D01*
X133109801Y-29987746D01*
X133110199Y-29532254D01*
X132935491Y-29109428D01*
X132612273Y-28785646D01*
X132189753Y-28610200D01*
X131732254Y-28609801D01*
X131309428Y-28784509D01*
X130985646Y-29107727D01*
X130810200Y-29530247D01*
X130809801Y-29987746D01*
X118149801Y-29987746D01*
X118150199Y-29532254D01*
X117975491Y-29109428D01*
X117652273Y-28785646D01*
X117229753Y-28610200D01*
X116772254Y-28609801D01*
X116349428Y-28784509D01*
X116025646Y-29107727D01*
X115850200Y-29530247D01*
X115849801Y-29987746D01*
X115609801Y-29987746D01*
X115610199Y-29532254D01*
X115435491Y-29109428D01*
X115112273Y-28785646D01*
X114689753Y-28610200D01*
X114232254Y-28609801D01*
X113809428Y-28784509D01*
X113485646Y-29107727D01*
X113310200Y-29530247D01*
X113309801Y-29987746D01*
X100649801Y-29987746D01*
X100650199Y-29532254D01*
X100475491Y-29109428D01*
X100152273Y-28785646D01*
X99729753Y-28610200D01*
X99272254Y-28609801D01*
X98849428Y-28784509D01*
X98525646Y-29107727D01*
X98350200Y-29530247D01*
X98349801Y-29987746D01*
X98109801Y-29987746D01*
X98110199Y-29532254D01*
X97935491Y-29109428D01*
X97612273Y-28785646D01*
X97189753Y-28610200D01*
X96732254Y-28609801D01*
X96309428Y-28784509D01*
X95985646Y-29107727D01*
X95810200Y-29530247D01*
X95809801Y-29987746D01*
X83149801Y-29987746D01*
X83150199Y-29532254D01*
X82975491Y-29109428D01*
X82652273Y-28785646D01*
X82229753Y-28610200D01*
X81772254Y-28609801D01*
X81349428Y-28784509D01*
X81025646Y-29107727D01*
X80850200Y-29530247D01*
X80849801Y-29987746D01*
X80609801Y-29987746D01*
X80610199Y-29532254D01*
X80435491Y-29109428D01*
X80112273Y-28785646D01*
X79689753Y-28610200D01*
X79232254Y-28609801D01*
X78809428Y-28784509D01*
X78485646Y-29107727D01*
X78310200Y-29530247D01*
X78309801Y-29987746D01*
X67125000Y-29987746D01*
X67125000Y-27447746D01*
X80849801Y-27447746D01*
X81024509Y-27870572D01*
X81347727Y-28194354D01*
X81770247Y-28369800D01*
X82227746Y-28370199D01*
X82650572Y-28195491D01*
X82974354Y-27872273D01*
X83149800Y-27449753D01*
X83149801Y-27447746D01*
X98349801Y-27447746D01*
X98524509Y-27870572D01*
X98847727Y-28194354D01*
X99270247Y-28369800D01*
X99727746Y-28370199D01*
X100150572Y-28195491D01*
X100474354Y-27872273D01*
X100649800Y-27449753D01*
X100649801Y-27447746D01*
X115849801Y-27447746D01*
X116024509Y-27870572D01*
X116347727Y-28194354D01*
X116770247Y-28369800D01*
X117227746Y-28370199D01*
X117650572Y-28195491D01*
X117974354Y-27872273D01*
X118149800Y-27449753D01*
X118149801Y-27447746D01*
X133349801Y-27447746D01*
X133524509Y-27870572D01*
X133847727Y-28194354D01*
X134270247Y-28369800D01*
X134727746Y-28370199D01*
X135150572Y-28195491D01*
X135474354Y-27872273D01*
X135649800Y-27449753D01*
X135649801Y-27447746D01*
X150849801Y-27447746D01*
X151024509Y-27870572D01*
X151347727Y-28194354D01*
X151770247Y-28369800D01*
X152227746Y-28370199D01*
X152650572Y-28195491D01*
X152974354Y-27872273D01*
X153149800Y-27449753D01*
X153150199Y-26992254D01*
X152975491Y-26569428D01*
X152652273Y-26245646D01*
X152229753Y-26070200D01*
X151772254Y-26069801D01*
X151349428Y-26244509D01*
X151025646Y-26567727D01*
X150850200Y-26990247D01*
X150849801Y-27447746D01*
X135649801Y-27447746D01*
X135650199Y-26992254D01*
X135475491Y-26569428D01*
X135152273Y-26245646D01*
X134729753Y-26070200D01*
X134272254Y-26069801D01*
X133849428Y-26244509D01*
X133525646Y-26567727D01*
X133350200Y-26990247D01*
X133349801Y-27447746D01*
X118149801Y-27447746D01*
X118150199Y-26992254D01*
X117975491Y-26569428D01*
X117652273Y-26245646D01*
X117229753Y-26070200D01*
X116772254Y-26069801D01*
X116349428Y-26244509D01*
X116025646Y-26567727D01*
X115850200Y-26990247D01*
X115849801Y-27447746D01*
X100649801Y-27447746D01*
X100650199Y-26992254D01*
X100475491Y-26569428D01*
X100152273Y-26245646D01*
X99729753Y-26070200D01*
X99272254Y-26069801D01*
X98849428Y-26244509D01*
X98525646Y-26567727D01*
X98350200Y-26990247D01*
X98349801Y-27447746D01*
X83149801Y-27447746D01*
X83150199Y-26992254D01*
X82975491Y-26569428D01*
X82652273Y-26245646D01*
X82229753Y-26070200D01*
X81772254Y-26069801D01*
X81349428Y-26244509D01*
X81025646Y-26567727D01*
X80850200Y-26990247D01*
X80849801Y-27447746D01*
X67125000Y-27447746D01*
X67125000Y-17065000D01*
X162525000Y-17065000D01*
X162525000Y-194735000D01*
M02*
