M48
METRIC,TZ
T1C0.300
T2C1.000
T3C3.200
%
G90
G05
T1
X68.45Y-41.24
X68.45Y-42.14
X68.55Y-38.94
X68.85Y-49.14
X69.125Y-40.915
X69.45Y-38.94
X70.375Y-58.365
X71.1Y-57.24
X72.325Y-56.715
X72.375Y-55.665
X73.375Y-54.64
X73.625Y-55.915
X74.275Y-54.115
X76.3Y-37.44
X76.3Y-38.69
X76.3Y-39.94
X76.3Y-41.19
X76.3Y-42.44
X76.75Y-51.715
X77.3Y-52.54
X77.475Y-51.24
X77.55Y-37.44
X77.55Y-38.69
X77.55Y-39.94
X77.55Y-41.19
X77.55Y-42.44
X78.15Y-54.315
X83.8Y-61.79
X83.8Y-62.89
X85.05Y-61.79
X85.05Y-62.94
X85.05Y-64.19
X85.95Y-38.915
X85.95Y-41.365
X85.95Y-42.265
X86.3Y-61.79
X86.3Y-62.94
X86.575Y-46.515
X86.625Y-40.965
X86.9Y-38.915
X87.45Y-61.04
X88.4Y-59.89
X89.4Y-58.59
X90.05Y-57.54
X90.25Y-66.165
X90.325Y-67.115
X90.825Y-65.265
X91.225Y-66.69
X91.475Y-65.915
X91.6Y-57.69
X91.7Y-56.34
X91.925Y-65.24
X92.1Y-54.99
X92.25Y-66.79
X92.725Y-65.89
X93.8Y-37.44
X93.8Y-38.69
X93.8Y-39.94
X93.8Y-41.19
X93.8Y-42.44
X94.3Y-51.79
X94.825Y-52.59
X95.05Y-37.44
X95.05Y-38.69
X95.05Y-39.94
X95.05Y-41.19
X95.05Y-42.44
X95.1Y-51.24
X95.175Y-56.665
X95.78Y-69.54
X103.5Y-38.94
X103.5Y-41.265
X103.5Y-42.34
X104.075Y-46.515
X104.25Y-41.109
X104.425Y-38.94
X105.175Y-53.965
X105.925Y-54.74
X106.7Y-55.54
X107.7Y-57.04
X108.55Y-58.09
X109.4Y-59.04
X110.3Y-59.94
X111.3Y-37.44
X111.3Y-38.69
X111.3Y-39.94
X111.3Y-41.19
X111.3Y-42.44
X111.9Y-51.765
X112.325Y-52.565
X112.55Y-37.44
X112.55Y-38.69
X112.55Y-39.94
X112.55Y-41.19
X112.55Y-42.44
X112.625Y-51.29
X116.875Y-64.79
X118.025Y-63.64
X118.65Y-62.14
X118.75Y-60.74
X120.25Y-60.74
X120.25Y-62.14
X121.025Y-41.39
X121.025Y-42.365
X121.05Y-38.965
X121.575Y-46.515
X121.65Y-60.74
X121.7Y-41.09
X121.95Y-38.965
X122.1Y-53.99
X122.9Y-54.79
X123.05Y-60.74
X123.6Y-55.54
X124.35Y-57.04
X124.45Y-60.74
X124.85Y-58.09
X125.25Y-59.04
X126.Y-59.94
X128.8Y-37.44
X128.8Y-38.69
X128.8Y-39.94
X128.8Y-41.19
X128.8Y-42.44
X129.35Y-51.815
X129.85Y-52.565
X130.05Y-37.44
X130.05Y-38.69
X130.05Y-39.94
X130.05Y-41.19
X130.05Y-42.44
X130.075Y-51.265
X136.15Y-60.69
X136.15Y-62.19
X137.55Y-60.69
X137.55Y-62.19
X138.25Y-53.99
X138.475Y-41.39
X138.525Y-38.965
X138.525Y-42.34
X139.05Y-60.69
X139.05Y-62.19
X139.075Y-46.465
X139.1Y-54.79
X139.2Y-41.14
X139.45Y-38.965
X140.1Y-55.54
X140.4Y-56.59
X140.55Y-60.69
X140.55Y-62.19
X141.3Y-57.54
X142.05Y-60.69
X142.05Y-62.19
X142.9Y-57.44
X143.Y-58.69
X145.725Y-54.74
X145.725Y-55.915
X146.3Y-37.44
X146.3Y-38.69
X146.3Y-39.94
X146.3Y-41.19
X146.3Y-42.44
X146.925Y-51.815
X147.35Y-52.565
X147.55Y-37.44
X147.55Y-38.69
X147.55Y-39.94
X147.55Y-41.19
X147.55Y-42.44
X147.6Y-51.265
X147.8Y-56.54
X153.75Y-58.915
X154.525Y-57.665
T2
X79.25Y-68.35
X79.25Y-70.89
X79.25Y-131.34
X79.25Y-133.88
X79.46Y-27.22
X79.46Y-29.76
X79.46Y-32.3
X79.46Y-34.84
X79.46Y-37.38
X79.46Y-39.92
X79.46Y-42.46
X79.46Y-45.
X80.52Y-76.98
X81.79Y-68.35
X81.79Y-70.89
X81.79Y-131.34
X81.79Y-133.88
X82.Y-27.22
X82.Y-29.76
X82.Y-32.3
X82.Y-34.84
X82.Y-37.38
X82.Y-39.92
X82.Y-42.46
X82.Y-45.
X83.06Y-76.98
X84.33Y-68.35
X84.33Y-70.89
X84.33Y-131.34
X84.33Y-133.88
X85.6Y-76.98
X86.87Y-68.35
X86.87Y-70.89
X86.87Y-131.34
X86.87Y-133.88
X88.14Y-76.98
X89.41Y-68.35
X89.41Y-70.89
X89.41Y-131.34
X89.41Y-133.88
X89.67Y-125.24
X90.68Y-76.98
X91.95Y-68.35
X91.95Y-70.89
X91.95Y-133.88
X93.22Y-76.98
X94.49Y-68.35
X94.49Y-70.89
X94.49Y-131.34
X94.49Y-133.88
X94.75Y-125.24
X95.76Y-76.98
X96.96Y-27.22
X96.96Y-29.76
X96.96Y-32.3
X96.96Y-34.84
X96.96Y-37.38
X96.96Y-39.92
X96.96Y-42.46
X96.96Y-45.
X97.03Y-68.35
X97.03Y-70.89
X97.03Y-131.34
X97.03Y-133.88
X98.3Y-76.98
X99.5Y-27.22
X99.5Y-29.76
X99.5Y-32.3
X99.5Y-34.84
X99.5Y-37.38
X99.5Y-39.92
X99.5Y-42.46
X99.5Y-45.
X99.57Y-68.35
X99.57Y-70.89
X99.57Y-131.34
X99.57Y-133.88
X99.83Y-125.24
X100.84Y-76.98
X102.11Y-68.35
X102.11Y-70.89
X102.11Y-131.34
X102.11Y-133.88
X102.37Y-125.24
X103.38Y-76.98
X104.65Y-68.35
X104.65Y-70.89
X104.65Y-131.34
X104.65Y-133.88
X104.91Y-125.24
X107.19Y-68.35
X107.19Y-70.89
X107.19Y-131.34
X107.19Y-133.88
X107.45Y-76.98
X107.45Y-125.24
X109.73Y-68.35
X109.73Y-70.89
X109.73Y-131.34
X109.73Y-133.88
X109.99Y-76.98
X112.27Y-68.35
X112.27Y-70.89
X112.27Y-131.34
X112.27Y-133.88
X112.53Y-76.98
X112.53Y-125.24
X114.46Y-27.22
X114.46Y-29.76
X114.46Y-32.3
X114.46Y-34.84
X114.46Y-37.38
X114.46Y-39.92
X114.46Y-42.46
X114.46Y-45.
X114.81Y-68.35
X114.81Y-131.34
X114.81Y-133.88
X115.07Y-76.98
X115.07Y-125.24
X117.Y-27.22
X117.Y-29.76
X117.Y-32.3
X117.Y-34.84
X117.Y-37.38
X117.Y-39.92
X117.Y-42.46
X117.Y-45.
X117.35Y-68.35
X117.35Y-70.89
X117.35Y-131.34
X117.35Y-133.88
X117.61Y-76.98
X117.61Y-125.24
X119.89Y-68.35
X119.89Y-70.89
X119.89Y-131.34
X119.89Y-133.88
X120.15Y-76.98
X120.15Y-125.24
X122.43Y-68.35
X122.43Y-70.89
X122.43Y-131.34
X122.43Y-133.88
X122.69Y-76.98
X122.69Y-125.24
X124.97Y-68.35
X124.97Y-70.89
X124.97Y-131.34
X124.97Y-133.88
X125.23Y-76.98
X125.23Y-125.24
X127.51Y-68.35
X127.51Y-70.89
X127.51Y-131.34
X127.51Y-133.88
X131.96Y-27.22
X131.96Y-29.76
X131.96Y-32.3
X131.96Y-34.84
X131.96Y-37.38
X131.96Y-39.92
X131.96Y-42.46
X131.96Y-45.
X134.5Y-27.22
X134.5Y-29.76
X134.5Y-32.3
X134.5Y-34.84
X134.5Y-37.38
X134.5Y-39.92
X134.5Y-42.46
X134.5Y-45.
X149.46Y-27.22
X149.46Y-29.76
X149.46Y-32.3
X149.46Y-34.84
X149.46Y-37.38
X149.46Y-39.92
X149.46Y-42.46
X149.46Y-45.
X152.Y-27.22
X152.Y-29.76
X152.Y-32.3
X152.Y-34.84
X152.Y-37.38
X152.Y-39.92
X152.Y-42.46
X152.Y-45.
T3
X70.Y-20.
X70.Y-70.
X70.Y-132.23
X70.Y-189.85
X159.65Y-20.
X159.65Y-70.
X159.65Y-132.23
X159.65Y-190.77
T0
M30
