G04 #@! TF.FileFunction,Soldermask,Bot*
%FSLAX46Y46*%
G04 Gerber Fmt 4.6, Leading zero omitted, Abs format (unit mm)*
G04 Created by KiCad (PCBNEW 4.0.7-e2-6376~58~ubuntu16.04.1) date Sun Dec 10 13:17:18 2017*
%MOMM*%
%LPD*%
G01*
G04 APERTURE LIST*
%ADD10C,0.100000*%
%ADD11R,2.100000X2.100000*%
%ADD12C,2.100000*%
%ADD13O,2.100000X2.100000*%
%ADD14C,6.100000*%
G04 APERTURE END LIST*
D10*
D11*
X134500000Y-45000000D03*
D12*
X131960000Y-45000000D03*
X134500000Y-42460000D03*
X131960000Y-42460000D03*
X134500000Y-39920000D03*
X131960000Y-39920000D03*
X134500000Y-37380000D03*
X131960000Y-37380000D03*
X134500000Y-34840000D03*
X131960000Y-34840000D03*
X134500000Y-32300000D03*
X131960000Y-32300000D03*
X134500000Y-29760000D03*
X131960000Y-29760000D03*
X134500000Y-27220000D03*
X131960000Y-27220000D03*
D11*
X117000000Y-45000000D03*
D12*
X114460000Y-45000000D03*
X117000000Y-42460000D03*
X114460000Y-42460000D03*
X117000000Y-39920000D03*
X114460000Y-39920000D03*
X117000000Y-37380000D03*
X114460000Y-37380000D03*
X117000000Y-34840000D03*
X114460000Y-34840000D03*
X117000000Y-32300000D03*
X114460000Y-32300000D03*
X117000000Y-29760000D03*
X114460000Y-29760000D03*
X117000000Y-27220000D03*
X114460000Y-27220000D03*
D11*
X79250000Y-70890000D03*
D13*
X79250000Y-68350000D03*
X81790000Y-70890000D03*
X81790000Y-68350000D03*
X84330000Y-70890000D03*
X84330000Y-68350000D03*
X86870000Y-70890000D03*
X86870000Y-68350000D03*
X89410000Y-70890000D03*
X89410000Y-68350000D03*
X91950000Y-70890000D03*
X91950000Y-68350000D03*
X94490000Y-70890000D03*
X94490000Y-68350000D03*
X97030000Y-70890000D03*
X97030000Y-68350000D03*
X99570000Y-70890000D03*
X99570000Y-68350000D03*
X102110000Y-70890000D03*
X102110000Y-68350000D03*
X104650000Y-70890000D03*
X104650000Y-68350000D03*
X107190000Y-70890000D03*
X107190000Y-68350000D03*
X109730000Y-70890000D03*
X109730000Y-68350000D03*
X112270000Y-70890000D03*
X112270000Y-68350000D03*
X114810000Y-68350000D03*
X117350000Y-70890000D03*
X117350000Y-68350000D03*
X119890000Y-70890000D03*
X119890000Y-68350000D03*
X122430000Y-70890000D03*
X122430000Y-68350000D03*
X124970000Y-70890000D03*
X124970000Y-68350000D03*
X127510000Y-70890000D03*
X127510000Y-68350000D03*
D11*
X127510000Y-131340000D03*
D13*
X127510000Y-133880000D03*
X124970000Y-131340000D03*
X124970000Y-133880000D03*
X122430000Y-131340000D03*
X122430000Y-133880000D03*
X119890000Y-131340000D03*
X119890000Y-133880000D03*
X117350000Y-131340000D03*
X117350000Y-133880000D03*
X114810000Y-131340000D03*
X114810000Y-133880000D03*
X112270000Y-131340000D03*
X112270000Y-133880000D03*
X109730000Y-131340000D03*
X109730000Y-133880000D03*
X107190000Y-131340000D03*
X107190000Y-133880000D03*
X104650000Y-131340000D03*
X104650000Y-133880000D03*
X102110000Y-131340000D03*
X102110000Y-133880000D03*
X99570000Y-131340000D03*
X99570000Y-133880000D03*
X97030000Y-131340000D03*
X97030000Y-133880000D03*
X94490000Y-131340000D03*
X94490000Y-133880000D03*
X91950000Y-133880000D03*
X89410000Y-131340000D03*
X89410000Y-133880000D03*
X86870000Y-131340000D03*
X86870000Y-133880000D03*
X84330000Y-131340000D03*
X84330000Y-133880000D03*
X81790000Y-131340000D03*
X81790000Y-133880000D03*
X79250000Y-131340000D03*
X79250000Y-133880000D03*
D11*
X99500000Y-45000000D03*
D12*
X96960000Y-45000000D03*
X99500000Y-42460000D03*
X96960000Y-42460000D03*
X99500000Y-39920000D03*
X96960000Y-39920000D03*
X99500000Y-37380000D03*
X96960000Y-37380000D03*
X99500000Y-34840000D03*
X96960000Y-34840000D03*
X99500000Y-32300000D03*
X96960000Y-32300000D03*
X99500000Y-29760000D03*
X96960000Y-29760000D03*
X99500000Y-27220000D03*
X96960000Y-27220000D03*
D11*
X82000000Y-45000000D03*
D12*
X79460000Y-45000000D03*
X82000000Y-42460000D03*
X79460000Y-42460000D03*
X82000000Y-39920000D03*
X79460000Y-39920000D03*
X82000000Y-37380000D03*
X79460000Y-37380000D03*
X82000000Y-34840000D03*
X79460000Y-34840000D03*
X82000000Y-32300000D03*
X79460000Y-32300000D03*
X82000000Y-29760000D03*
X79460000Y-29760000D03*
X82000000Y-27220000D03*
X79460000Y-27220000D03*
D11*
X152000000Y-45000000D03*
D12*
X149460000Y-45000000D03*
X152000000Y-42460000D03*
X149460000Y-42460000D03*
X152000000Y-39920000D03*
X149460000Y-39920000D03*
X152000000Y-37380000D03*
X149460000Y-37380000D03*
X152000000Y-34840000D03*
X149460000Y-34840000D03*
X152000000Y-32300000D03*
X149460000Y-32300000D03*
X152000000Y-29760000D03*
X149460000Y-29760000D03*
X152000000Y-27220000D03*
X149460000Y-27220000D03*
D14*
X70000000Y-70000000D03*
X159650000Y-132230000D03*
X70000000Y-132230000D03*
X159650000Y-70000000D03*
X70000000Y-189850000D03*
X159650000Y-190770000D03*
X70000000Y-20000000D03*
X159650000Y-20000000D03*
D11*
X80520000Y-76980000D03*
D13*
X83060000Y-76980000D03*
X85600000Y-76980000D03*
X88140000Y-76980000D03*
X90680000Y-76980000D03*
X93220000Y-76980000D03*
X95760000Y-76980000D03*
X98300000Y-76980000D03*
X100840000Y-76980000D03*
X103380000Y-76980000D03*
D11*
X107450000Y-76980000D03*
D13*
X109990000Y-76980000D03*
X112530000Y-76980000D03*
X115070000Y-76980000D03*
X117610000Y-76980000D03*
X120150000Y-76980000D03*
X122690000Y-76980000D03*
X125230000Y-76980000D03*
D11*
X112530000Y-125240000D03*
D13*
X115070000Y-125240000D03*
X117610000Y-125240000D03*
X120150000Y-125240000D03*
X122690000Y-125240000D03*
X125230000Y-125240000D03*
D11*
X89670000Y-125240000D03*
D13*
X94750000Y-125240000D03*
X99830000Y-125240000D03*
X102370000Y-125240000D03*
X104910000Y-125240000D03*
X107450000Y-125240000D03*
M02*
