G04 #@! TF.FileFunction,Soldermask,Top*
%FSLAX46Y46*%
G04 Gerber Fmt 4.6, Leading zero omitted, Abs format (unit mm)*
G04 Created by KiCad (PCBNEW 4.0.7-e2-6376~58~ubuntu16.04.1) date Thu Jan 25 15:37:05 2018*
%MOMM*%
%LPD*%
G01*
G04 APERTURE LIST*
%ADD10C,0.100000*%
%ADD11R,2.100000X2.100000*%
%ADD12C,2.100000*%
%ADD13R,0.720000X0.900000*%
%ADD14O,2.100000X2.100000*%
%ADD15R,0.900000X1.000000*%
%ADD16R,0.806400X1.670000*%
%ADD17C,6.100000*%
%ADD18R,1.000000X0.900000*%
%ADD19R,1.400000X2.900000*%
G04 APERTURE END LIST*
D10*
D11*
X76960000Y-157230000D03*
D12*
X79500000Y-157230000D03*
X76960000Y-159770000D03*
X79500000Y-159770000D03*
X76960000Y-162310000D03*
X79500000Y-162310000D03*
X76960000Y-164850000D03*
X79500000Y-164850000D03*
X76960000Y-167390000D03*
X79500000Y-167390000D03*
X76960000Y-169930000D03*
X79500000Y-169930000D03*
X76960000Y-172470000D03*
X79500000Y-172470000D03*
X76960000Y-175010000D03*
X79500000Y-175010000D03*
D13*
X103800000Y-150930000D03*
X102800000Y-150930000D03*
X103300000Y-150930000D03*
X102300000Y-150930000D03*
X103300000Y-151930000D03*
X103800000Y-151930000D03*
X102800000Y-151930000D03*
X102300000Y-151930000D03*
D11*
X127510000Y-131340000D03*
D14*
X127510000Y-133880000D03*
X124970000Y-131340000D03*
X124970000Y-133880000D03*
X122430000Y-131340000D03*
X122430000Y-133880000D03*
X119890000Y-131340000D03*
X119890000Y-133880000D03*
X117350000Y-131340000D03*
X117350000Y-133880000D03*
X114810000Y-131340000D03*
X114810000Y-133880000D03*
X112270000Y-131340000D03*
X112270000Y-133880000D03*
X109730000Y-131340000D03*
X109730000Y-133880000D03*
X107190000Y-131340000D03*
X107190000Y-133880000D03*
X104650000Y-131340000D03*
X104650000Y-133880000D03*
X102110000Y-131340000D03*
X102110000Y-133880000D03*
X99570000Y-131340000D03*
X99570000Y-133880000D03*
X97030000Y-131340000D03*
X97030000Y-133880000D03*
X94490000Y-131340000D03*
X94490000Y-133880000D03*
X91950000Y-133880000D03*
X89410000Y-131340000D03*
X89410000Y-133880000D03*
X86870000Y-131340000D03*
X86870000Y-133880000D03*
X84330000Y-131340000D03*
X84330000Y-133880000D03*
X81790000Y-131340000D03*
X81790000Y-133880000D03*
X79250000Y-131340000D03*
X79250000Y-133880000D03*
D15*
X69400000Y-40840000D03*
X69400000Y-39740000D03*
D11*
X134500000Y-45000000D03*
D12*
X131960000Y-45000000D03*
X134500000Y-42460000D03*
X131960000Y-42460000D03*
X134500000Y-39920000D03*
X131960000Y-39920000D03*
X134500000Y-37380000D03*
X131960000Y-37380000D03*
X134500000Y-34840000D03*
X131960000Y-34840000D03*
X134500000Y-32300000D03*
X131960000Y-32300000D03*
X134500000Y-29760000D03*
X131960000Y-29760000D03*
X134500000Y-27220000D03*
X131960000Y-27220000D03*
D11*
X117000000Y-45000000D03*
D12*
X114460000Y-45000000D03*
X117000000Y-42460000D03*
X114460000Y-42460000D03*
X117000000Y-39920000D03*
X114460000Y-39920000D03*
X117000000Y-37380000D03*
X114460000Y-37380000D03*
X117000000Y-34840000D03*
X114460000Y-34840000D03*
X117000000Y-32300000D03*
X114460000Y-32300000D03*
X117000000Y-29760000D03*
X114460000Y-29760000D03*
X117000000Y-27220000D03*
X114460000Y-27220000D03*
D16*
X104079000Y-47567000D03*
X104714000Y-47567000D03*
X105374400Y-47567000D03*
X106034800Y-47567000D03*
X106669800Y-47567000D03*
X107330200Y-47567000D03*
X107990600Y-47567000D03*
X108625600Y-47567000D03*
X109286000Y-47567000D03*
X109921000Y-47567000D03*
X109921000Y-42233000D03*
X109286000Y-42233000D03*
X108625600Y-42233000D03*
X107990600Y-42233000D03*
X107330200Y-42233000D03*
X106669800Y-42233000D03*
X106034800Y-42233000D03*
X105374400Y-42233000D03*
X104714000Y-42233000D03*
X104079000Y-42233000D03*
X86579000Y-47567000D03*
X87214000Y-47567000D03*
X87874400Y-47567000D03*
X88534800Y-47567000D03*
X89169800Y-47567000D03*
X89830200Y-47567000D03*
X90490600Y-47567000D03*
X91125600Y-47567000D03*
X91786000Y-47567000D03*
X92421000Y-47567000D03*
X92421000Y-42233000D03*
X91786000Y-42233000D03*
X91125600Y-42233000D03*
X90490600Y-42233000D03*
X89830200Y-42233000D03*
X89169800Y-42233000D03*
X88534800Y-42233000D03*
X87874400Y-42233000D03*
X87214000Y-42233000D03*
X86579000Y-42233000D03*
D11*
X79250000Y-70890000D03*
D14*
X79250000Y-68350000D03*
X81790000Y-70890000D03*
X81790000Y-68350000D03*
X84330000Y-70890000D03*
X84330000Y-68350000D03*
X86870000Y-70890000D03*
X86870000Y-68350000D03*
X89410000Y-70890000D03*
X89410000Y-68350000D03*
X91950000Y-70890000D03*
X91950000Y-68350000D03*
X94490000Y-70890000D03*
X94490000Y-68350000D03*
X97030000Y-70890000D03*
X97030000Y-68350000D03*
X99570000Y-70890000D03*
X99570000Y-68350000D03*
X102110000Y-70890000D03*
X102110000Y-68350000D03*
X104650000Y-70890000D03*
X104650000Y-68350000D03*
X107190000Y-70890000D03*
X107190000Y-68350000D03*
X109730000Y-70890000D03*
X109730000Y-68350000D03*
X112270000Y-70890000D03*
X112270000Y-68350000D03*
X114810000Y-68350000D03*
X117350000Y-70890000D03*
X117350000Y-68350000D03*
X119890000Y-70890000D03*
X119890000Y-68350000D03*
X122430000Y-70890000D03*
X122430000Y-68350000D03*
X124970000Y-70890000D03*
X124970000Y-68350000D03*
X127510000Y-70890000D03*
X127510000Y-68350000D03*
D11*
X99500000Y-45000000D03*
D12*
X96960000Y-45000000D03*
X99500000Y-42460000D03*
X96960000Y-42460000D03*
X99500000Y-39920000D03*
X96960000Y-39920000D03*
X99500000Y-37380000D03*
X96960000Y-37380000D03*
X99500000Y-34840000D03*
X96960000Y-34840000D03*
X99500000Y-32300000D03*
X96960000Y-32300000D03*
X99500000Y-29760000D03*
X96960000Y-29760000D03*
X99500000Y-27220000D03*
X96960000Y-27220000D03*
D13*
X107700000Y-51300000D03*
X108700000Y-51300000D03*
X108200000Y-51300000D03*
X109200000Y-51300000D03*
X108200000Y-50300000D03*
X107700000Y-50300000D03*
X108700000Y-50300000D03*
X109200000Y-50300000D03*
D11*
X82000000Y-45000000D03*
D12*
X79460000Y-45000000D03*
X82000000Y-42460000D03*
X79460000Y-42460000D03*
X82000000Y-39920000D03*
X79460000Y-39920000D03*
X82000000Y-37380000D03*
X79460000Y-37380000D03*
X82000000Y-34840000D03*
X79460000Y-34840000D03*
X82000000Y-32300000D03*
X79460000Y-32300000D03*
X82000000Y-29760000D03*
X79460000Y-29760000D03*
X82000000Y-27220000D03*
X79460000Y-27220000D03*
D11*
X152000000Y-45000000D03*
D12*
X149460000Y-45000000D03*
X152000000Y-42460000D03*
X149460000Y-42460000D03*
X152000000Y-39920000D03*
X149460000Y-39920000D03*
X152000000Y-37380000D03*
X149460000Y-37380000D03*
X152000000Y-34840000D03*
X149460000Y-34840000D03*
X152000000Y-32300000D03*
X149460000Y-32300000D03*
X152000000Y-29760000D03*
X149460000Y-29760000D03*
X152000000Y-27220000D03*
X149460000Y-27220000D03*
D17*
X70000000Y-70000000D03*
X159650000Y-70000000D03*
D13*
X104800000Y-51300000D03*
X105800000Y-51300000D03*
X105300000Y-51300000D03*
X106300000Y-51300000D03*
X105300000Y-50300000D03*
X104800000Y-50300000D03*
X105800000Y-50300000D03*
X106300000Y-50300000D03*
D17*
X70000000Y-20400000D03*
X159650000Y-20400000D03*
D11*
X80520000Y-76980000D03*
D14*
X83060000Y-76980000D03*
X88140000Y-76980000D03*
X90680000Y-76980000D03*
X93220000Y-76980000D03*
X95760000Y-76980000D03*
X98300000Y-76980000D03*
X100840000Y-76980000D03*
X103380000Y-76980000D03*
D11*
X107450000Y-76980000D03*
D14*
X109990000Y-76980000D03*
X112530000Y-76980000D03*
X115070000Y-76980000D03*
X117610000Y-76980000D03*
X120150000Y-76980000D03*
X122690000Y-76980000D03*
X125230000Y-76980000D03*
D13*
X90200000Y-51300000D03*
X91200000Y-51300000D03*
X90700000Y-51300000D03*
X91700000Y-51300000D03*
X90700000Y-50300000D03*
X90200000Y-50300000D03*
X91200000Y-50300000D03*
X91700000Y-50300000D03*
X87300000Y-51300000D03*
X88300000Y-51300000D03*
X87800000Y-51300000D03*
X88800000Y-51300000D03*
X87800000Y-50300000D03*
X87300000Y-50300000D03*
X88300000Y-50300000D03*
X88800000Y-50300000D03*
X72700000Y-51300000D03*
X73700000Y-51300000D03*
X73200000Y-51300000D03*
X74200000Y-51300000D03*
X73200000Y-50300000D03*
X72700000Y-50300000D03*
X73700000Y-50300000D03*
X74200000Y-50300000D03*
X69800000Y-51300000D03*
X70800000Y-51300000D03*
X70300000Y-51300000D03*
X71300000Y-51300000D03*
X70300000Y-50300000D03*
X69800000Y-50300000D03*
X70800000Y-50300000D03*
X71300000Y-50300000D03*
D16*
X69079000Y-47567000D03*
X69714000Y-47567000D03*
X70374400Y-47567000D03*
X71034800Y-47567000D03*
X71669800Y-47567000D03*
X72330200Y-47567000D03*
X72990600Y-47567000D03*
X73625600Y-47567000D03*
X74286000Y-47567000D03*
X74921000Y-47567000D03*
X74921000Y-42233000D03*
X74286000Y-42233000D03*
X73625600Y-42233000D03*
X72990600Y-42233000D03*
X72330200Y-42233000D03*
X71669800Y-42233000D03*
X71034800Y-42233000D03*
X70374400Y-42233000D03*
X69714000Y-42233000D03*
X69079000Y-42233000D03*
D13*
X116400000Y-60900000D03*
X117400000Y-60900000D03*
X116900000Y-60900000D03*
X117900000Y-60900000D03*
X116900000Y-59900000D03*
X116400000Y-59900000D03*
X117400000Y-59900000D03*
X117900000Y-59900000D03*
X113550000Y-60900000D03*
X114550000Y-60900000D03*
X114050000Y-60900000D03*
X115050000Y-60900000D03*
X114050000Y-59900000D03*
X113550000Y-59900000D03*
X114550000Y-59900000D03*
X115050000Y-59900000D03*
D16*
X112809000Y-57667000D03*
X113444000Y-57667000D03*
X114104400Y-57667000D03*
X114764800Y-57667000D03*
X115399800Y-57667000D03*
X116060200Y-57667000D03*
X116720600Y-57667000D03*
X117355600Y-57667000D03*
X118016000Y-57667000D03*
X118651000Y-57667000D03*
X118651000Y-52333000D03*
X118016000Y-52333000D03*
X117355600Y-52333000D03*
X116720600Y-52333000D03*
X116060200Y-52333000D03*
X115399800Y-52333000D03*
X114764800Y-52333000D03*
X114104400Y-52333000D03*
X113444000Y-52333000D03*
X112809000Y-52333000D03*
D13*
X81400000Y-60900000D03*
X82400000Y-60900000D03*
X81900000Y-60900000D03*
X82900000Y-60900000D03*
X81900000Y-59900000D03*
X81400000Y-59900000D03*
X82400000Y-59900000D03*
X82900000Y-59900000D03*
X78550000Y-60900000D03*
X79550000Y-60900000D03*
X79050000Y-60900000D03*
X80050000Y-60900000D03*
X79050000Y-59900000D03*
X78550000Y-59900000D03*
X79550000Y-59900000D03*
X80050000Y-59900000D03*
D16*
X77809000Y-57667000D03*
X78444000Y-57667000D03*
X79104400Y-57667000D03*
X79764800Y-57667000D03*
X80399800Y-57667000D03*
X81060200Y-57667000D03*
X81720600Y-57667000D03*
X82355600Y-57667000D03*
X83016000Y-57667000D03*
X83651000Y-57667000D03*
X83651000Y-52333000D03*
X83016000Y-52333000D03*
X82355600Y-52333000D03*
X81720600Y-52333000D03*
X81060200Y-52333000D03*
X80399800Y-52333000D03*
X79764800Y-52333000D03*
X79104400Y-52333000D03*
X78444000Y-52333000D03*
X77809000Y-52333000D03*
D13*
X98900000Y-60900000D03*
X99900000Y-60900000D03*
X99400000Y-60900000D03*
X100400000Y-60900000D03*
X99400000Y-59900000D03*
X98900000Y-59900000D03*
X99900000Y-59900000D03*
X100400000Y-59900000D03*
X96050000Y-60900000D03*
X97050000Y-60900000D03*
X96550000Y-60900000D03*
X97550000Y-60900000D03*
X96550000Y-59900000D03*
X96050000Y-59900000D03*
X97050000Y-59900000D03*
X97550000Y-59900000D03*
D16*
X95309000Y-57667000D03*
X95944000Y-57667000D03*
X96604400Y-57667000D03*
X97264800Y-57667000D03*
X97899800Y-57667000D03*
X98560200Y-57667000D03*
X99220600Y-57667000D03*
X99855600Y-57667000D03*
X100516000Y-57667000D03*
X101151000Y-57667000D03*
X101151000Y-52333000D03*
X100516000Y-52333000D03*
X99855600Y-52333000D03*
X99220600Y-52333000D03*
X98560200Y-52333000D03*
X97899800Y-52333000D03*
X97264800Y-52333000D03*
X96604400Y-52333000D03*
X95944000Y-52333000D03*
X95309000Y-52333000D03*
D13*
X125200000Y-51300000D03*
X126200000Y-51300000D03*
X125700000Y-51300000D03*
X126700000Y-51300000D03*
X125700000Y-50300000D03*
X125200000Y-50300000D03*
X126200000Y-50300000D03*
X126700000Y-50300000D03*
X133900000Y-60900000D03*
X134900000Y-60900000D03*
X134400000Y-60900000D03*
X135400000Y-60900000D03*
X134400000Y-59900000D03*
X133900000Y-59900000D03*
X134900000Y-59900000D03*
X135400000Y-59900000D03*
X122300000Y-51300000D03*
X123300000Y-51300000D03*
X122800000Y-51300000D03*
X123800000Y-51300000D03*
X122800000Y-50300000D03*
X122300000Y-50300000D03*
X123300000Y-50300000D03*
X123800000Y-50300000D03*
X131050000Y-60900000D03*
X132050000Y-60900000D03*
X131550000Y-60900000D03*
X132550000Y-60900000D03*
X131550000Y-59900000D03*
X131050000Y-59900000D03*
X132050000Y-59900000D03*
X132550000Y-59900000D03*
X142700000Y-51300000D03*
X143700000Y-51300000D03*
X143200000Y-51300000D03*
X144200000Y-51300000D03*
X143200000Y-50300000D03*
X142700000Y-50300000D03*
X143700000Y-50300000D03*
X144200000Y-50300000D03*
X151400000Y-60900000D03*
X152400000Y-60900000D03*
X151900000Y-60900000D03*
X152900000Y-60900000D03*
X151900000Y-59900000D03*
X151400000Y-59900000D03*
X152400000Y-59900000D03*
X152900000Y-59900000D03*
X139800000Y-51300000D03*
X140800000Y-51300000D03*
X140300000Y-51300000D03*
X141300000Y-51300000D03*
X140300000Y-50300000D03*
X139800000Y-50300000D03*
X140800000Y-50300000D03*
X141300000Y-50300000D03*
X148550000Y-60900000D03*
X149550000Y-60900000D03*
X149050000Y-60900000D03*
X150050000Y-60900000D03*
X149050000Y-59900000D03*
X148550000Y-59900000D03*
X149550000Y-59900000D03*
X150050000Y-59900000D03*
D16*
X121579000Y-47567000D03*
X122214000Y-47567000D03*
X122874400Y-47567000D03*
X123534800Y-47567000D03*
X124169800Y-47567000D03*
X124830200Y-47567000D03*
X125490600Y-47567000D03*
X126125600Y-47567000D03*
X126786000Y-47567000D03*
X127421000Y-47567000D03*
X127421000Y-42233000D03*
X126786000Y-42233000D03*
X126125600Y-42233000D03*
X125490600Y-42233000D03*
X124830200Y-42233000D03*
X124169800Y-42233000D03*
X123534800Y-42233000D03*
X122874400Y-42233000D03*
X122214000Y-42233000D03*
X121579000Y-42233000D03*
X130309000Y-57667000D03*
X130944000Y-57667000D03*
X131604400Y-57667000D03*
X132264800Y-57667000D03*
X132899800Y-57667000D03*
X133560200Y-57667000D03*
X134220600Y-57667000D03*
X134855600Y-57667000D03*
X135516000Y-57667000D03*
X136151000Y-57667000D03*
X136151000Y-52333000D03*
X135516000Y-52333000D03*
X134855600Y-52333000D03*
X134220600Y-52333000D03*
X133560200Y-52333000D03*
X132899800Y-52333000D03*
X132264800Y-52333000D03*
X131604400Y-52333000D03*
X130944000Y-52333000D03*
X130309000Y-52333000D03*
X139079000Y-47567000D03*
X139714000Y-47567000D03*
X140374400Y-47567000D03*
X141034800Y-47567000D03*
X141669800Y-47567000D03*
X142330200Y-47567000D03*
X142990600Y-47567000D03*
X143625600Y-47567000D03*
X144286000Y-47567000D03*
X144921000Y-47567000D03*
X144921000Y-42233000D03*
X144286000Y-42233000D03*
X143625600Y-42233000D03*
X142990600Y-42233000D03*
X142330200Y-42233000D03*
X141669800Y-42233000D03*
X141034800Y-42233000D03*
X140374400Y-42233000D03*
X139714000Y-42233000D03*
X139079000Y-42233000D03*
X147809000Y-57667000D03*
X148444000Y-57667000D03*
X149104400Y-57667000D03*
X149764800Y-57667000D03*
X150399800Y-57667000D03*
X151060200Y-57667000D03*
X151720600Y-57667000D03*
X152355600Y-57667000D03*
X153016000Y-57667000D03*
X153651000Y-57667000D03*
X153651000Y-52333000D03*
X153016000Y-52333000D03*
X152355600Y-52333000D03*
X151720600Y-52333000D03*
X151060200Y-52333000D03*
X150399800Y-52333000D03*
X149764800Y-52333000D03*
X149104400Y-52333000D03*
X148444000Y-52333000D03*
X147809000Y-52333000D03*
D18*
X76750000Y-51240000D03*
X75650000Y-51240000D03*
X94300000Y-51315000D03*
X93200000Y-51315000D03*
D15*
X85950000Y-40840000D03*
X85950000Y-39740000D03*
X68500000Y-40840000D03*
X68500000Y-39740000D03*
D18*
X111900000Y-51265000D03*
X110800000Y-51265000D03*
X129350000Y-51265000D03*
X128250000Y-51265000D03*
X146925000Y-51290000D03*
X145825000Y-51290000D03*
D15*
X103500000Y-40840000D03*
X103500000Y-39740000D03*
X121050000Y-40840000D03*
X121050000Y-39740000D03*
X139450000Y-40865000D03*
X139450000Y-39765000D03*
D18*
X76750000Y-52290000D03*
X75650000Y-52290000D03*
D15*
X86900000Y-40840000D03*
X86900000Y-39740000D03*
D18*
X94300000Y-52315000D03*
X93200000Y-52315000D03*
D15*
X104425000Y-40840000D03*
X104425000Y-39740000D03*
D18*
X111900000Y-52315000D03*
X110800000Y-52315000D03*
D15*
X121950000Y-40840000D03*
X121950000Y-39740000D03*
X138525000Y-40865000D03*
X138525000Y-39765000D03*
D18*
X129350000Y-52340000D03*
X128250000Y-52340000D03*
X146925000Y-52340000D03*
X145825000Y-52340000D03*
D19*
X91850000Y-73940000D03*
X88850000Y-73940000D03*
D11*
X112530000Y-125240000D03*
D14*
X115070000Y-125240000D03*
X117610000Y-125240000D03*
X120150000Y-125240000D03*
X122690000Y-125240000D03*
X125230000Y-125240000D03*
D11*
X89670000Y-125240000D03*
D14*
X92210000Y-125240000D03*
X94750000Y-125240000D03*
X97290000Y-125240000D03*
X99830000Y-125240000D03*
X102370000Y-125240000D03*
X104910000Y-125240000D03*
D17*
X70000000Y-132230000D03*
X159650000Y-181830000D03*
X159650000Y-132230000D03*
X70000000Y-181830000D03*
D11*
X94460000Y-157230000D03*
D12*
X97000000Y-157230000D03*
X94460000Y-159770000D03*
X97000000Y-159770000D03*
X94460000Y-162310000D03*
X97000000Y-162310000D03*
X94460000Y-164850000D03*
X97000000Y-164850000D03*
X94460000Y-167390000D03*
X97000000Y-167390000D03*
X94460000Y-169930000D03*
X97000000Y-169930000D03*
X94460000Y-172470000D03*
X97000000Y-172470000D03*
X94460000Y-175010000D03*
X97000000Y-175010000D03*
D11*
X111960000Y-157230000D03*
D12*
X114500000Y-157230000D03*
X111960000Y-159770000D03*
X114500000Y-159770000D03*
X111960000Y-162310000D03*
X114500000Y-162310000D03*
X111960000Y-164850000D03*
X114500000Y-164850000D03*
X111960000Y-167390000D03*
X114500000Y-167390000D03*
X111960000Y-169930000D03*
X114500000Y-169930000D03*
X111960000Y-172470000D03*
X114500000Y-172470000D03*
X111960000Y-175010000D03*
X114500000Y-175010000D03*
D11*
X129460000Y-157230000D03*
D12*
X132000000Y-157230000D03*
X129460000Y-159770000D03*
X132000000Y-159770000D03*
X129460000Y-162310000D03*
X132000000Y-162310000D03*
X129460000Y-164850000D03*
X132000000Y-164850000D03*
X129460000Y-167390000D03*
X132000000Y-167390000D03*
X129460000Y-169930000D03*
X132000000Y-169930000D03*
X129460000Y-172470000D03*
X132000000Y-172470000D03*
X129460000Y-175010000D03*
X132000000Y-175010000D03*
D11*
X146960000Y-157230000D03*
D12*
X149500000Y-157230000D03*
X146960000Y-159770000D03*
X149500000Y-159770000D03*
X146960000Y-162310000D03*
X149500000Y-162310000D03*
X146960000Y-164850000D03*
X149500000Y-164850000D03*
X146960000Y-167390000D03*
X149500000Y-167390000D03*
X146960000Y-169930000D03*
X149500000Y-169930000D03*
X146960000Y-172470000D03*
X149500000Y-172470000D03*
X146960000Y-175010000D03*
X149500000Y-175010000D03*
D13*
X86300000Y-150930000D03*
X85300000Y-150930000D03*
X85800000Y-150930000D03*
X84800000Y-150930000D03*
X85800000Y-151930000D03*
X86300000Y-151930000D03*
X85300000Y-151930000D03*
X84800000Y-151930000D03*
X77550000Y-141330000D03*
X76550000Y-141330000D03*
X77050000Y-141330000D03*
X76050000Y-141330000D03*
X77050000Y-142330000D03*
X77550000Y-142330000D03*
X76550000Y-142330000D03*
X76050000Y-142330000D03*
X89200000Y-150930000D03*
X88200000Y-150930000D03*
X88700000Y-150930000D03*
X87700000Y-150930000D03*
X88700000Y-151930000D03*
X89200000Y-151930000D03*
X88200000Y-151930000D03*
X87700000Y-151930000D03*
X80400000Y-141330000D03*
X79400000Y-141330000D03*
X79900000Y-141330000D03*
X78900000Y-141330000D03*
X79900000Y-142330000D03*
X80400000Y-142330000D03*
X79400000Y-142330000D03*
X78900000Y-142330000D03*
X95050000Y-141330000D03*
X94050000Y-141330000D03*
X94550000Y-141330000D03*
X93550000Y-141330000D03*
X94550000Y-142330000D03*
X95050000Y-142330000D03*
X94050000Y-142330000D03*
X93550000Y-142330000D03*
X106700000Y-150930000D03*
X105700000Y-150930000D03*
X106200000Y-150930000D03*
X105200000Y-150930000D03*
X106200000Y-151930000D03*
X106700000Y-151930000D03*
X105700000Y-151930000D03*
X105200000Y-151930000D03*
X97900000Y-141330000D03*
X96900000Y-141330000D03*
X97400000Y-141330000D03*
X96400000Y-141330000D03*
X97400000Y-142330000D03*
X97900000Y-142330000D03*
X96900000Y-142330000D03*
X96400000Y-142330000D03*
X121300000Y-150930000D03*
X120300000Y-150930000D03*
X120800000Y-150930000D03*
X119800000Y-150930000D03*
X120800000Y-151930000D03*
X121300000Y-151930000D03*
X120300000Y-151930000D03*
X119800000Y-151930000D03*
X112550000Y-141330000D03*
X111550000Y-141330000D03*
X112050000Y-141330000D03*
X111050000Y-141330000D03*
X112050000Y-142330000D03*
X112550000Y-142330000D03*
X111550000Y-142330000D03*
X111050000Y-142330000D03*
X124200000Y-150930000D03*
X123200000Y-150930000D03*
X123700000Y-150930000D03*
X122700000Y-150930000D03*
X123700000Y-151930000D03*
X124200000Y-151930000D03*
X123200000Y-151930000D03*
X122700000Y-151930000D03*
X115400000Y-141330000D03*
X114400000Y-141330000D03*
X114900000Y-141330000D03*
X113900000Y-141330000D03*
X114900000Y-142330000D03*
X115400000Y-142330000D03*
X114400000Y-142330000D03*
X113900000Y-142330000D03*
X138800000Y-150930000D03*
X137800000Y-150930000D03*
X138300000Y-150930000D03*
X137300000Y-150930000D03*
X138300000Y-151930000D03*
X138800000Y-151930000D03*
X137800000Y-151930000D03*
X137300000Y-151930000D03*
X130050000Y-141330000D03*
X129050000Y-141330000D03*
X129550000Y-141330000D03*
X128550000Y-141330000D03*
X129550000Y-142330000D03*
X130050000Y-142330000D03*
X129050000Y-142330000D03*
X128550000Y-142330000D03*
X141700000Y-150930000D03*
X140700000Y-150930000D03*
X141200000Y-150930000D03*
X140200000Y-150930000D03*
X141200000Y-151930000D03*
X141700000Y-151930000D03*
X140700000Y-151930000D03*
X140200000Y-151930000D03*
X132900000Y-141330000D03*
X131900000Y-141330000D03*
X132400000Y-141330000D03*
X131400000Y-141330000D03*
X132400000Y-142330000D03*
X132900000Y-142330000D03*
X131900000Y-142330000D03*
X131400000Y-142330000D03*
X156300000Y-150930000D03*
X155300000Y-150930000D03*
X155800000Y-150930000D03*
X154800000Y-150930000D03*
X155800000Y-151930000D03*
X156300000Y-151930000D03*
X155300000Y-151930000D03*
X154800000Y-151930000D03*
X147550000Y-141330000D03*
X146550000Y-141330000D03*
X147050000Y-141330000D03*
X146050000Y-141330000D03*
X147050000Y-142330000D03*
X147550000Y-142330000D03*
X146550000Y-142330000D03*
X146050000Y-142330000D03*
X159200000Y-150930000D03*
X158200000Y-150930000D03*
X158700000Y-150930000D03*
X157700000Y-150930000D03*
X158700000Y-151930000D03*
X159200000Y-151930000D03*
X158200000Y-151930000D03*
X157700000Y-151930000D03*
X150400000Y-141330000D03*
X149400000Y-141330000D03*
X149900000Y-141330000D03*
X148900000Y-141330000D03*
X149900000Y-142330000D03*
X150400000Y-142330000D03*
X149400000Y-142330000D03*
X148900000Y-142330000D03*
D16*
X89921000Y-154663000D03*
X89286000Y-154663000D03*
X88625600Y-154663000D03*
X87965200Y-154663000D03*
X87330200Y-154663000D03*
X86669800Y-154663000D03*
X86009400Y-154663000D03*
X85374400Y-154663000D03*
X84714000Y-154663000D03*
X84079000Y-154663000D03*
X84079000Y-159997000D03*
X84714000Y-159997000D03*
X85374400Y-159997000D03*
X86009400Y-159997000D03*
X86669800Y-159997000D03*
X87330200Y-159997000D03*
X87965200Y-159997000D03*
X88625600Y-159997000D03*
X89286000Y-159997000D03*
X89921000Y-159997000D03*
X81151000Y-144563000D03*
X80516000Y-144563000D03*
X79855600Y-144563000D03*
X79195200Y-144563000D03*
X78560200Y-144563000D03*
X77899800Y-144563000D03*
X77239400Y-144563000D03*
X76604400Y-144563000D03*
X75944000Y-144563000D03*
X75309000Y-144563000D03*
X75309000Y-149897000D03*
X75944000Y-149897000D03*
X76604400Y-149897000D03*
X77239400Y-149897000D03*
X77899800Y-149897000D03*
X78560200Y-149897000D03*
X79195200Y-149897000D03*
X79855600Y-149897000D03*
X80516000Y-149897000D03*
X81151000Y-149897000D03*
X107421000Y-154663000D03*
X106786000Y-154663000D03*
X106125600Y-154663000D03*
X105465200Y-154663000D03*
X104830200Y-154663000D03*
X104169800Y-154663000D03*
X103509400Y-154663000D03*
X102874400Y-154663000D03*
X102214000Y-154663000D03*
X101579000Y-154663000D03*
X101579000Y-159997000D03*
X102214000Y-159997000D03*
X102874400Y-159997000D03*
X103509400Y-159997000D03*
X104169800Y-159997000D03*
X104830200Y-159997000D03*
X105465200Y-159997000D03*
X106125600Y-159997000D03*
X106786000Y-159997000D03*
X107421000Y-159997000D03*
X98651000Y-144563000D03*
X98016000Y-144563000D03*
X97355600Y-144563000D03*
X96695200Y-144563000D03*
X96060200Y-144563000D03*
X95399800Y-144563000D03*
X94739400Y-144563000D03*
X94104400Y-144563000D03*
X93444000Y-144563000D03*
X92809000Y-144563000D03*
X92809000Y-149897000D03*
X93444000Y-149897000D03*
X94104400Y-149897000D03*
X94739400Y-149897000D03*
X95399800Y-149897000D03*
X96060200Y-149897000D03*
X96695200Y-149897000D03*
X97355600Y-149897000D03*
X98016000Y-149897000D03*
X98651000Y-149897000D03*
X124921000Y-154663000D03*
X124286000Y-154663000D03*
X123625600Y-154663000D03*
X122965200Y-154663000D03*
X122330200Y-154663000D03*
X121669800Y-154663000D03*
X121009400Y-154663000D03*
X120374400Y-154663000D03*
X119714000Y-154663000D03*
X119079000Y-154663000D03*
X119079000Y-159997000D03*
X119714000Y-159997000D03*
X120374400Y-159997000D03*
X121009400Y-159997000D03*
X121669800Y-159997000D03*
X122330200Y-159997000D03*
X122965200Y-159997000D03*
X123625600Y-159997000D03*
X124286000Y-159997000D03*
X124921000Y-159997000D03*
X116151000Y-144563000D03*
X115516000Y-144563000D03*
X114855600Y-144563000D03*
X114195200Y-144563000D03*
X113560200Y-144563000D03*
X112899800Y-144563000D03*
X112239400Y-144563000D03*
X111604400Y-144563000D03*
X110944000Y-144563000D03*
X110309000Y-144563000D03*
X110309000Y-149897000D03*
X110944000Y-149897000D03*
X111604400Y-149897000D03*
X112239400Y-149897000D03*
X112899800Y-149897000D03*
X113560200Y-149897000D03*
X114195200Y-149897000D03*
X114855600Y-149897000D03*
X115516000Y-149897000D03*
X116151000Y-149897000D03*
X142421000Y-154663000D03*
X141786000Y-154663000D03*
X141125600Y-154663000D03*
X140465200Y-154663000D03*
X139830200Y-154663000D03*
X139169800Y-154663000D03*
X138509400Y-154663000D03*
X137874400Y-154663000D03*
X137214000Y-154663000D03*
X136579000Y-154663000D03*
X136579000Y-159997000D03*
X137214000Y-159997000D03*
X137874400Y-159997000D03*
X138509400Y-159997000D03*
X139169800Y-159997000D03*
X139830200Y-159997000D03*
X140465200Y-159997000D03*
X141125600Y-159997000D03*
X141786000Y-159997000D03*
X142421000Y-159997000D03*
X133651000Y-144563000D03*
X133016000Y-144563000D03*
X132355600Y-144563000D03*
X131695200Y-144563000D03*
X131060200Y-144563000D03*
X130399800Y-144563000D03*
X129739400Y-144563000D03*
X129104400Y-144563000D03*
X128444000Y-144563000D03*
X127809000Y-144563000D03*
X127809000Y-149897000D03*
X128444000Y-149897000D03*
X129104400Y-149897000D03*
X129739400Y-149897000D03*
X130399800Y-149897000D03*
X131060200Y-149897000D03*
X131695200Y-149897000D03*
X132355600Y-149897000D03*
X133016000Y-149897000D03*
X133651000Y-149897000D03*
X159921000Y-154663000D03*
X159286000Y-154663000D03*
X158625600Y-154663000D03*
X157965200Y-154663000D03*
X157330200Y-154663000D03*
X156669800Y-154663000D03*
X156009400Y-154663000D03*
X155374400Y-154663000D03*
X154714000Y-154663000D03*
X154079000Y-154663000D03*
X154079000Y-159997000D03*
X154714000Y-159997000D03*
X155374400Y-159997000D03*
X156009400Y-159997000D03*
X156669800Y-159997000D03*
X157330200Y-159997000D03*
X157965200Y-159997000D03*
X158625600Y-159997000D03*
X159286000Y-159997000D03*
X159921000Y-159997000D03*
X151151000Y-144563000D03*
X150516000Y-144563000D03*
X149855600Y-144563000D03*
X149195200Y-144563000D03*
X148560200Y-144563000D03*
X147899800Y-144563000D03*
X147239400Y-144563000D03*
X146604400Y-144563000D03*
X145944000Y-144563000D03*
X145309000Y-144563000D03*
X145309000Y-149897000D03*
X145944000Y-149897000D03*
X146604400Y-149897000D03*
X147239400Y-149897000D03*
X147899800Y-149897000D03*
X148560200Y-149897000D03*
X149195200Y-149897000D03*
X149855600Y-149897000D03*
X150516000Y-149897000D03*
X151151000Y-149897000D03*
D19*
X114800000Y-128290000D03*
X117800000Y-128290000D03*
D18*
X152225000Y-149890000D03*
X153325000Y-149890000D03*
D15*
X160525000Y-161465000D03*
X160525000Y-162565000D03*
D18*
X134700000Y-149790000D03*
X135800000Y-149790000D03*
D15*
X142100000Y-161390000D03*
X142100000Y-162490000D03*
D18*
X117300000Y-150940000D03*
X118400000Y-150940000D03*
D15*
X124600000Y-161515000D03*
X124600000Y-162615000D03*
D18*
X99750000Y-150990000D03*
X100850000Y-150990000D03*
D15*
X107075000Y-161415000D03*
X107075000Y-162515000D03*
D18*
X82300000Y-149790000D03*
X83400000Y-149790000D03*
D15*
X89500000Y-161440000D03*
X89500000Y-162540000D03*
D18*
X152225000Y-150965000D03*
X153325000Y-150965000D03*
D15*
X159575000Y-161465000D03*
X159575000Y-162565000D03*
D18*
X134725000Y-150865000D03*
X135825000Y-150865000D03*
D15*
X143075000Y-161390000D03*
X143075000Y-162490000D03*
D18*
X117300000Y-149840000D03*
X118400000Y-149840000D03*
D15*
X125600000Y-161515000D03*
X125600000Y-162615000D03*
D18*
X99750000Y-149990000D03*
X100850000Y-149990000D03*
D15*
X108050000Y-161415000D03*
X108050000Y-162515000D03*
D18*
X82300000Y-150990000D03*
X83400000Y-150990000D03*
D15*
X90525000Y-161440000D03*
X90525000Y-162540000D03*
D11*
X72300000Y-81900000D03*
D14*
X74840000Y-81900000D03*
X77380000Y-81900000D03*
X79920000Y-81900000D03*
X82460000Y-81900000D03*
X85000000Y-81900000D03*
X87540000Y-81900000D03*
X90080000Y-81900000D03*
X92620000Y-81900000D03*
X95160000Y-81900000D03*
D11*
X112530000Y-121500000D03*
D14*
X115070000Y-121500000D03*
X117610000Y-121500000D03*
X120150000Y-121500000D03*
X122690000Y-121500000D03*
X125230000Y-121500000D03*
D11*
X131000000Y-76980000D03*
D14*
X133540000Y-76980000D03*
X136080000Y-76980000D03*
X138620000Y-76980000D03*
X141160000Y-76980000D03*
X143700000Y-76980000D03*
D11*
X72300000Y-106900000D03*
D14*
X74840000Y-106900000D03*
X77380000Y-106900000D03*
X79920000Y-106900000D03*
X82460000Y-106900000D03*
X85000000Y-106900000D03*
X87540000Y-106900000D03*
X90080000Y-106900000D03*
X92620000Y-106900000D03*
X95160000Y-106900000D03*
M02*
